<svg xmlns="http://www.w3.org/2000/svg" viewBox="0 0 810.667 409.333" height="410" width="811"><style><![CDATA[.B{font-family:Helvetica Neue, Helvetica, Arial, Microsoft Yahei, STXihei, SimHei, sans-serif}.C{writing-mode:lr-tb}.D{font-size:18px}.E{fill:#fff}.F{fill-rule:evenodd}]]></style><defs><clipPath id="A"><path d="M0 0h842v595H0z"/></clipPath><clipPath id="B"><path d="M0-.2h841.8V595H0z" clip-rule="evenodd"/></clipPath></defs><g clip-path="url(#A)" transform="matrix(1.333333 0 0 -1.333333 -48 745.33333)"><g clip-path="url(#B)"><path d="M151.2 325.7c-4.8 0-9.5-4.7-9.5-9.4v-37.8c0-4.8 4.7-9.5 9.5-9.5h463c4.7 0 9.5 4.7 9.5 9.5v37.8c0 4.7-4.8 9.4-9.5 9.4z" fill="#f90" class="F"/><text transform="matrix(1 0 0 -1 274.9 290.3)" class="B C D E"><tspan x="0 9.108 19.116 29.016 38.016 48.024 54.018 59.004 63 73.008" y="0">Tensorflow</tspan></text><text transform="matrix(1 0 0 -1 364.5 290.3)" class="B C D E"><tspan x="0 18 36 54 72 90 108" y="0">分布式计算引擎</tspan></text><path d="M151.2 396.6c-4.8 0-9.5-4.7-9.5-9.5v-37.8c0-4.7 4.7-9.4 9.5-9.4h222c4.8 0 9.5 4.7 9.5 9.4v37.8c0 4.8-4.7 9.5-9.5 9.5z" fill="#f66" class="F"/><text transform="matrix(1 0 0 -1 234.4 362.1)" class="B C D E"><tspan x="0 11.988 20.682 25.758 35.658 45.666" y="0">Python</tspan></text><path d="M410.2 396.6c-4.8 0-9.5-4.7-9.5-9.5v-37.8c0-4.7 4.7-9.4 9.5-9.4h44.3c4.8 0 9.5 4.7 9.5 9.4v37.8c0 4.8-4.7 9.5-9.5 9.5z" fill="#336" class="F"/><text transform="matrix(1 0 0 -1 415.3 362.1)" class="B C D E"><tspan x="0 12.996 23.58" y="0">C++</tspan></text><path d="M494.5 396.5c-4.7 0-9.4-4.7-9.4-9.4v-37.8c0-4.7 4.7-9.5 9.4-9.5h41.4c4.7 0 9.4 4.8 9.4 9.5v37.8c0 4.7-4.7 9.4-9.4 9.4z" fill="#336" class="F"/><text transform="matrix(1 0 0 -1 496.2 362.1)" class="B C D E"><tspan x="0 9 19.008 28.008" y="0">Java</tspan></text><path d="M572.8 396.5c-4.7 0-9.4-4.7-9.4-9.4v-37.8c0-4.8 4.7-9.5 9.4-9.5h41.4c4.7 0 9.4 4.7 9.4 9.5v37.8c0 4.7-4.7 9.4-9.4 9.4z" fill="#336" class="F"/><text transform="matrix(1 0 0 -1 581.5 362)" class="B C D E"><tspan x="0 13.986" y="0">Go</tspan></text><path d="M151.2 467.4c-4.8 0-9.5-4.7-9.5-9.4v-37.8c0-4.7 4.7-9.5 9.5-9.5h52c4.7 0 9.4 4.8 9.4 9.5V458c0 4.7-4.7 9.4-9.4 9.4z" fill="#f66" class="F"/><text transform="matrix(1 0 0 -1 154.6 434)" font-size="15" class="B C E"><tspan x="0 8.385 16.77 24.075 32.46 37.545" y="0">Layers</tspan></text><path d="M227.7 467.4c-4.7 0-9.4-4.7-9.4-9.4v-37.8c0-4.7 4.7-9.5 9.4-9.5h66.2c4.7 0 9.4 4.8 9.4 9.5V458c0 4.7-4.7 9.4-9.4 9.4z" fill="#f66" class="F"/><text transform="matrix(1 0 0 -1 231 434)" font-size="15" class="B C E"><tspan x="0 10.8 19.185 23.37 31.755 39.345 47.73 51.915" y="0">Datasets</tspan></text><path d="M321.3 467.4c-4.8 0-9.5-4.7-9.5-9.4v-37.8c0-4.7 4.7-9.5 9.5-9.5h51.9c4.8 0 9.5 4.8 9.5 9.5V458c0 4.7-4.7 9.4-9.5 9.4z" fill="#f66" class="F"/><text transform="matrix(1 0 0 -1 323 434)" font-size="15" class="B C E"><tspan x="0 12.405 20.8 24.975 30.06 33.36 40.95" y="0">Metrics</tspan></text><path d="M151.2 538.3c-4.8 0-9.5-4.7-9.5-9.4v-37.8c0-4.8 4.7-9.5 9.5-9.5h94.5c4.7 0 9.4 4.7 9.4 9.5v37.8c0 4.7-4.7 9.4-9.4 9.4z" fill="#f66" class="F"/><text transform="matrix(1 0 0 -1 156 503.8)" class="B C D E"><tspan x="0 11.988 20.988 25.974 29.97 44.964 54.864 59.94 69.84 75.834" y="0">Estimators</tspan></text><path d="M278.7 538.3c-4.7 0-9.4-4.7-9.4-9.5V491c0-4.7 4.7-9.4 9.4-9.4h94.5c4.7 0 9.5 4.7 9.5 9.4v37.8c0 4.8-4.8 9.5-9.5 9.5z" fill="#f33" class="F"/><text transform="matrix(1 0 0 -1 302.5 503.8)" class="B C D E"><tspan x="0 11.988 21.996 28 37.998" y="0">Keras</tspan></text><text transform="matrix(1 0 0 -1 55.3 360.1)" class="B C D"><tspan x="0 18" y="0">底层</tspan></text><text transform="matrix(1 0 0 -1 95.9 360.1)" class="B C D"><tspan x="0 11.988 23.976" y="0">API</tspan></text><text transform="matrix(1 0 0 -1 55.3 433.9)" class="B C D"><tspan x="0 18" y="0">中层</tspan></text><text transform="matrix(1 0 0 -1 95.9 433.9)" class="B C D"><tspan x="0 11.988 23.976" y="0">API</tspan></text><text transform="matrix(1 0 0 -1 55.3 503.9)" class="B C D"><tspan x="0 18" y="0">高层</tspan></text><text transform="matrix(1 0 0 -1 95.9 503.9)" class="B C D"><tspan x="0 11.988 23.976" y="0">API</tspan></text><text transform="matrix(1 0 0 -1 69.4 289.3)" class="B C D"><tspan x="0 18" y="0">内核</tspan></text></g></g></svg>