<?xml version="1.0" encoding="UTF-8" standalone="no"?>
<svg
   xmlns:dc="http://purl.org/dc/elements/1.1/"
   xmlns:cc="http://creativecommons.org/ns#"
   xmlns:rdf="http://www.w3.org/1999/02/22-rdf-syntax-ns#"
   xmlns:svg="http://www.w3.org/2000/svg"
   xmlns="http://www.w3.org/2000/svg"
   viewBox="0 0 189.06667 189.06667"
   height="189.06667"
   width="189.06667"
   xml:space="preserve"
   id="svg2"
   version="1.1"><metadata
     id="metadata8"><rdf:RDF><cc:Work
         rdf:about=""><dc:format>image/svg+xml</dc:format><dc:type
           rdf:resource="http://purl.org/dc/dcmitype/StillImage" /></cc:Work></rdf:RDF></metadata><defs
     id="defs6"><clipPath
       id="clipPath14"
       clipPathUnits="userSpaceOnUse"><path
         id="path12"
         d="M 0,0 H 842 V 595 H 0 Z" /></clipPath><clipPath
       id="clipPath22"
       clipPathUnits="userSpaceOnUse"><path
         style="clip-rule:evenodd"
         id="path20"
         d="M 0,-0.2 H 841.8 V 595 H 0 Z" /></clipPath><clipPath
       id="clipPath34"
       clipPathUnits="userSpaceOnUse"><path
         style="clip-rule:evenodd"
         id="path32"
         d="m 209.1,265.8 h 114 V 388 h -114 z" /></clipPath></defs><g
     clip-path="url(#clipPath14)"
     transform="matrix(1.3333333,0,0,-1.3333333,-264.53333,528.8)"
     id="g10"><g
       id="g16"><g
         clip-path="url(#clipPath22)"
         id="g18"><g
           transform="translate(215.5,396.6)"
           id="g24"><path
             id="path26"
             style="fill:#ffffff;fill-opacity:1;fill-rule:evenodd;stroke:none"
             d="m 0,0 c -8.5,0 -17.1,-8.6 -17.1,-17.1 v -107.6 c 0,-8.5 8.6,-17.1 17.1,-17.1 h 107.6 c 8.5,0 17.1,8.6 17.1,17.1 v 107.6 c 0,8.5 -8.6,17.1 -17.1,17.1 z" /></g></g></g><g
       id="g28"><g
         clip-path="url(#clipPath34)"
         id="g30"><g
           transform="translate(274.3,369.3)"
           id="g36"><path
             id="path38"
             style="fill:#e55b2d;fill-opacity:1;fill-rule:evenodd;stroke:none"
             d="m 0,0 v -18.8 l 32.6,-18.8 v 18.8 z m -65.1,-18.8 v -18.8 l 16.3,-9.4 v 18.8 z m 48.8,-9.4 -16.2,-9.4 V -94 l 16.2,-9.4 v 37.6 L 0,-75.2 v 18.8 l -16.3,9.4 z" /></g><g
           transform="translate(274.3,369.3)"
           id="g40"><path
             id="path42"
             style="fill:#ed8e24;fill-opacity:1;fill-rule:evenodd;stroke:none"
             d="M 0,0 -48.8,-28.2 V -47 l 32.5,18.8 V -47 L 0,-37.6 Z m 48.8,-9.4 -16.2,-9.4 v -18.8 l 16.2,9.4 z M 16.3,-47 0,-56.4 v -18.8 l 16.3,9.4 z M 0,-75.2 l -16.3,9.4 v -37.6 L 0,-94 Z" /></g><g
           transform="translate(274.3,388.1)"
           id="g44"><path
             id="path46"
             style="fill:#f8bf3c;fill-opacity:1;fill-rule:evenodd;stroke:none"
             d="m 0,0 -65.1,-37.6 16.3,-9.4 48.8,28.2 32.6,-18.8 16.2,9.4 z m 0,-56.4 -16.3,-9.4 16.3,-9.4 16.3,9.4 z" /></g></g></g></g></svg>