<?xml version="1.0" encoding="UTF-8" standalone="no"?>
<svg
   xmlns:dc="http://purl.org/dc/elements/1.1/"
   xmlns:cc="http://creativecommons.org/ns#"
   xmlns:rdf="http://www.w3.org/1999/02/22-rdf-syntax-ns#"
   xmlns:svg="http://www.w3.org/2000/svg"
   xmlns="http://www.w3.org/2000/svg"
   viewBox="0 0 306.66666 373.33334"
   height="373.33334"
   width="306.66666"
   xml:space="preserve"
   id="svg2"
   version="1.1"><metadata
     id="metadata8"><rdf:RDF><cc:Work
         rdf:about=""><dc:format>image/svg+xml</dc:format><dc:type
           rdf:resource="http://purl.org/dc/dcmitype/StillImage" /></cc:Work></rdf:RDF></metadata><defs
     id="defs6"><clipPath
       id="clipPath14"
       clipPathUnits="userSpaceOnUse"><path
         id="path12"
         d="M 0,0 H 842 V 595 H 0 Z" /></clipPath><clipPath
       id="clipPath22"
       clipPathUnits="userSpaceOnUse"><path
         style="clip-rule:evenodd"
         id="path20"
         d="M 0,-0.2 H 841.8 V 595 H 0 Z" /></clipPath><clipPath
       id="clipPath34"
       clipPathUnits="userSpaceOnUse"><path
         style="clip-rule:evenodd"
         id="path32"
         d="M 0,-0.2 H 841.8 V 595 H 0 Z" /></clipPath><clipPath
       id="clipPath46"
       clipPathUnits="userSpaceOnUse"><path
         style="clip-rule:evenodd"
         id="path44"
         d="M 0,-0.2 H 841.8 V 595 H 0 Z" /></clipPath><clipPath
       id="clipPath58"
       clipPathUnits="userSpaceOnUse"><path
         style="clip-rule:evenodd"
         id="path56"
         d="M 0,-0.2 H 841.8 V 595 H 0 Z" /></clipPath><clipPath
       id="clipPath70"
       clipPathUnits="userSpaceOnUse"><path
         style="clip-rule:evenodd"
         id="path68"
         d="M 0,-0.2 H 841.8 V 595 H 0 Z" /></clipPath><clipPath
       id="clipPath82"
       clipPathUnits="userSpaceOnUse"><path
         style="clip-rule:evenodd"
         id="path80"
         d="M 0,-0.2 H 841.8 V 595 H 0 Z" /></clipPath><clipPath
       id="clipPath94"
       clipPathUnits="userSpaceOnUse"><path
         style="clip-rule:evenodd"
         id="path92"
         d="M 0,-0.2 H 841.8 V 595 H 0 Z" /></clipPath><clipPath
       id="clipPath106"
       clipPathUnits="userSpaceOnUse"><path
         style="clip-rule:evenodd"
         id="path104"
         d="M 0,-0.2 H 841.8 V 595 H 0 Z" /></clipPath><clipPath
       id="clipPath118"
       clipPathUnits="userSpaceOnUse"><path
         style="clip-rule:evenodd"
         id="path116"
         d="M 0,-0.2 H 841.8 V 595 H 0 Z" /></clipPath><clipPath
       id="clipPath130"
       clipPathUnits="userSpaceOnUse"><path
         style="clip-rule:evenodd"
         id="path128"
         d="M 0,-0.2 H 841.8 V 595 H 0 Z" /></clipPath><clipPath
       id="clipPath142"
       clipPathUnits="userSpaceOnUse"><path
         style="clip-rule:evenodd"
         id="path140"
         d="M 0,-0.2 H 841.8 V 595 H 0 Z" /></clipPath><clipPath
       id="clipPath154"
       clipPathUnits="userSpaceOnUse"><path
         style="clip-rule:evenodd"
         id="path152"
         d="M 0,-0.2 H 841.8 V 595 H 0 Z" /></clipPath><clipPath
       id="clipPath166"
       clipPathUnits="userSpaceOnUse"><path
         style="clip-rule:evenodd"
         id="path164"
         d="M 0,-0.2 H 841.8 V 595 H 0 Z" /></clipPath><clipPath
       id="clipPath178"
       clipPathUnits="userSpaceOnUse"><path
         style="clip-rule:evenodd"
         id="path176"
         d="M 0,-0.2 H 841.8 V 595 H 0 Z" /></clipPath><clipPath
       id="clipPath190"
       clipPathUnits="userSpaceOnUse"><path
         style="clip-rule:evenodd"
         id="path188"
         d="M 0,-0.2 H 841.8 V 595 H 0 Z" /></clipPath><clipPath
       id="clipPath202"
       clipPathUnits="userSpaceOnUse"><path
         style="clip-rule:evenodd"
         id="path200"
         d="M 0,-0.2 H 841.8 V 595 H 0 Z" /></clipPath><clipPath
       id="clipPath214"
       clipPathUnits="userSpaceOnUse"><path
         style="clip-rule:evenodd"
         id="path212"
         d="M 0,-0.2 H 841.8 V 595 H 0 Z" /></clipPath><clipPath
       id="clipPath226"
       clipPathUnits="userSpaceOnUse"><path
         style="clip-rule:evenodd"
         id="path224"
         d="M 0,-0.2 H 841.8 V 595 H 0 Z" /></clipPath><clipPath
       id="clipPath238"
       clipPathUnits="userSpaceOnUse"><path
         style="clip-rule:evenodd"
         id="path236"
         d="M 0,-0.2 H 841.8 V 595 H 0 Z" /></clipPath><clipPath
       id="clipPath250"
       clipPathUnits="userSpaceOnUse"><path
         style="clip-rule:evenodd"
         id="path248"
         d="M 0,-0.2 H 841.8 V 595 H 0 Z" /></clipPath><clipPath
       id="clipPath262"
       clipPathUnits="userSpaceOnUse"><path
         style="clip-rule:evenodd"
         id="path260"
         d="M 0,-0.2 H 841.8 V 595 H 0 Z" /></clipPath><clipPath
       id="clipPath274"
       clipPathUnits="userSpaceOnUse"><path
         style="clip-rule:evenodd"
         id="path272"
         d="M 0,-0.2 H 841.8 V 595 H 0 Z" /></clipPath><clipPath
       id="clipPath286"
       clipPathUnits="userSpaceOnUse"><path
         style="clip-rule:evenodd"
         id="path284"
         d="M 0,-0.2 H 841.8 V 595 H 0 Z" /></clipPath><clipPath
       id="clipPath298"
       clipPathUnits="userSpaceOnUse"><path
         style="clip-rule:evenodd"
         id="path296"
         d="M 0,-0.2 H 841.8 V 595 H 0 Z" /></clipPath><clipPath
       id="clipPath310"
       clipPathUnits="userSpaceOnUse"><path
         style="clip-rule:evenodd"
         id="path308"
         d="M 0,-0.2 H 841.8 V 595 H 0 Z" /></clipPath><clipPath
       id="clipPath322"
       clipPathUnits="userSpaceOnUse"><path
         style="clip-rule:evenodd"
         id="path320"
         d="M 0,-0.2 H 841.8 V 595 H 0 Z" /></clipPath><clipPath
       id="clipPath334"
       clipPathUnits="userSpaceOnUse"><path
         style="clip-rule:evenodd"
         id="path332"
         d="M 0,-0.2 H 841.8 V 595 H 0 Z" /></clipPath><clipPath
       id="clipPath346"
       clipPathUnits="userSpaceOnUse"><path
         style="clip-rule:evenodd"
         id="path344"
         d="M 0,-0.2 H 841.8 V 595 H 0 Z" /></clipPath><clipPath
       id="clipPath358"
       clipPathUnits="userSpaceOnUse"><path
         style="clip-rule:evenodd"
         id="path356"
         d="M 0,-0.2 H 841.8 V 595 H 0 Z" /></clipPath><clipPath
       id="clipPath370"
       clipPathUnits="userSpaceOnUse"><path
         style="clip-rule:evenodd"
         id="path368"
         d="M 0,-0.2 H 841.8 V 595 H 0 Z" /></clipPath><clipPath
       id="clipPath382"
       clipPathUnits="userSpaceOnUse"><path
         style="clip-rule:evenodd"
         id="path380"
         d="M 0,-0.2 H 841.8 V 595 H 0 Z" /></clipPath><clipPath
       id="clipPath394"
       clipPathUnits="userSpaceOnUse"><path
         style="clip-rule:evenodd"
         id="path392"
         d="M 0,-0.2 H 841.8 V 595 H 0 Z" /></clipPath><clipPath
       id="clipPath406"
       clipPathUnits="userSpaceOnUse"><path
         style="clip-rule:evenodd"
         id="path404"
         d="M 0,-0.2 H 841.8 V 595 H 0 Z" /></clipPath><clipPath
       id="clipPath418"
       clipPathUnits="userSpaceOnUse"><path
         style="clip-rule:evenodd"
         id="path416"
         d="M 0,-0.2 H 841.8 V 595 H 0 Z" /></clipPath><clipPath
       id="clipPath430"
       clipPathUnits="userSpaceOnUse"><path
         style="clip-rule:evenodd"
         id="path428"
         d="M 0,-0.2 H 841.8 V 595 H 0 Z" /></clipPath><clipPath
       id="clipPath442"
       clipPathUnits="userSpaceOnUse"><path
         style="clip-rule:evenodd"
         id="path440"
         d="M 0,-0.2 H 841.8 V 595 H 0 Z" /></clipPath><clipPath
       id="clipPath454"
       clipPathUnits="userSpaceOnUse"><path
         style="clip-rule:evenodd"
         id="path452"
         d="M 0,-0.2 H 841.8 V 595 H 0 Z" /></clipPath><clipPath
       id="clipPath466"
       clipPathUnits="userSpaceOnUse"><path
         style="clip-rule:evenodd"
         id="path464"
         d="M 0,-0.2 H 841.8 V 595 H 0 Z" /></clipPath><clipPath
       id="clipPath478"
       clipPathUnits="userSpaceOnUse"><path
         style="clip-rule:evenodd"
         id="path476"
         d="M 0,-0.2 H 841.8 V 595 H 0 Z" /></clipPath><clipPath
       id="clipPath490"
       clipPathUnits="userSpaceOnUse"><path
         style="clip-rule:evenodd"
         id="path488"
         d="M 0,-0.2 H 841.8 V 595 H 0 Z" /></clipPath><clipPath
       id="clipPath502"
       clipPathUnits="userSpaceOnUse"><path
         style="clip-rule:evenodd"
         id="path500"
         d="M 0,-0.2 H 841.8 V 595 H 0 Z" /></clipPath><clipPath
       id="clipPath514"
       clipPathUnits="userSpaceOnUse"><path
         style="clip-rule:evenodd"
         id="path512"
         d="M 0,-0.2 H 841.8 V 595 H 0 Z" /></clipPath><clipPath
       id="clipPath526"
       clipPathUnits="userSpaceOnUse"><path
         style="clip-rule:evenodd"
         id="path524"
         d="M 0,-0.2 H 841.8 V 595 H 0 Z" /></clipPath><clipPath
       id="clipPath538"
       clipPathUnits="userSpaceOnUse"><path
         style="clip-rule:evenodd"
         id="path536"
         d="M 0,-0.2 H 841.8 V 595 H 0 Z" /></clipPath><clipPath
       id="clipPath550"
       clipPathUnits="userSpaceOnUse"><path
         style="clip-rule:evenodd"
         id="path548"
         d="M 0,-0.2 H 841.8 V 595 H 0 Z" /></clipPath></defs><g
     clip-path="url(#clipPath14)"
     transform="matrix(1.3333333,0,0,-1.3333333,-192,697.33333)"
     id="g10"><g
       transform="matrix(0.9999847,0,0,0.9999847,1.53e-5,1.53e-5)"
       id="g16"><g
         clip-path="url(#clipPath22)"
         id="g18"><g
           transform="translate(184.3,481.6)"
           id="g24"><path
             id="path26"
             style="fill:#ffcc00;fill-opacity:1;fill-rule:evenodd;stroke:none"
             d="m 0,0 c -2.7,0 -4.9,0.6 -7.1,1.9 -2.3,1.3 -3.9,2.9 -5.2,5.2 -1.3,2.3 -1.9,4.5 -1.9,7.1 0,2.6 0.6,4.8 1.9,7.1 1.3,2.2 2.9,3.9 5.2,5.2 2.2,1.3 4.4,1.9 7.1,1.9 2.6,0 4.8,-0.6 7,-1.9 2.3,-1.3 3.9,-3 5.2,-5.2 1.3,-2.3 1.9,-4.5 1.9,-7.1 0,-2.6 -0.6,-4.8 -1.9,-7.1 C 10.9,4.8 9.3,3.2 7,1.9 4.8,0.6 2.6,0 0,0 Z" /></g></g></g><g
       transform="matrix(0.9999847,0,0,0.9999847,1.53e-5,1.53e-5)"
       id="g28"><g
         clip-path="url(#clipPath34)"
         id="g30"><g
           transform="translate(184.3,481.6)"
           id="g36"><path
             id="path38"
             style="fill:none;stroke:#ff9900;stroke-width:2.29200006;stroke-linecap:butt;stroke-linejoin:round;stroke-miterlimit:10;stroke-dasharray:none;stroke-opacity:1"
             d="m 0,0 c -2.7,0 -4.9,0.6 -7.1,1.9 -2.3,1.3 -3.9,2.9 -5.2,5.2 -1.3,2.3 -1.9,4.5 -1.9,7.1 0,2.6 0.6,4.8 1.9,7.1 1.3,2.2 2.9,3.9 5.2,5.2 2.2,1.3 4.4,1.9 7.1,1.9 2.6,0 4.8,-0.6 7,-1.9 2.3,-1.3 3.9,-3 5.2,-5.2 1.3,-2.3 1.9,-4.5 1.9,-7.1 0,-2.6 -0.6,-4.8 -1.9,-7.1 C 10.9,4.8 9.3,3.2 7,1.9 4.8,0.6 2.6,0 0,0 Z" /></g></g></g><g
       transform="matrix(0.9999847,0,0,0.9999847,1.53e-5,1.53e-5)"
       id="g40"><g
         clip-path="url(#clipPath46)"
         id="g42"><g
           transform="translate(184.3,439.1)"
           id="g48"><path
             id="path50"
             style="fill:#ffcc00;fill-opacity:1;fill-rule:evenodd;stroke:none"
             d="m 0,0 c -2.7,0 -4.9,0.6 -7.1,1.9 -2.3,1.3 -3.9,2.9 -5.2,5.2 -1.3,2.2 -1.9,4.5 -1.9,7.1 0,2.6 0.6,4.8 1.9,7.1 1.3,2.2 2.9,3.8 5.2,5.1 2.2,1.3 4.4,1.9 7.1,1.9 2.6,0 4.8,-0.6 7,-1.9 2.3,-1.3 3.9,-2.9 5.2,-5.1 1.3,-2.3 1.9,-4.5 1.9,-7.1 0,-2.6 -0.6,-4.9 -1.9,-7.1 C 10.9,4.8 9.3,3.2 7,1.9 4.8,0.6 2.6,0 0,0 Z" /></g></g></g><g
       transform="matrix(0.9999847,0,0,0.9999847,1.53e-5,1.53e-5)"
       id="g52"><g
         clip-path="url(#clipPath58)"
         id="g54"><g
           transform="translate(184.3,439.1)"
           id="g60"><path
             id="path62"
             style="fill:none;stroke:#ff9900;stroke-width:2.29200006;stroke-linecap:butt;stroke-linejoin:round;stroke-miterlimit:10;stroke-dasharray:none;stroke-opacity:1"
             d="m 0,0 c -2.7,0 -4.9,0.6 -7.1,1.9 -2.3,1.3 -3.9,2.9 -5.2,5.2 -1.3,2.2 -1.9,4.5 -1.9,7.1 0,2.6 0.6,4.8 1.9,7.1 1.3,2.2 2.9,3.8 5.2,5.1 2.2,1.3 4.4,1.9 7.1,1.9 2.6,0 4.8,-0.6 7,-1.9 2.3,-1.3 3.9,-2.9 5.2,-5.1 1.3,-2.3 1.9,-4.5 1.9,-7.1 0,-2.6 -0.6,-4.9 -1.9,-7.1 C 10.9,4.8 9.3,3.2 7,1.9 4.8,0.6 2.6,0 0,0 Z" /></g></g></g><g
       transform="matrix(0.9999847,0,0,0.9999847,1.53e-5,1.53e-5)"
       id="g64"><g
         clip-path="url(#clipPath70)"
         id="g66"><g
           transform="translate(184.3,396.6)"
           id="g72"><path
             id="path74"
             style="fill:#ffcc00;fill-opacity:1;fill-rule:evenodd;stroke:none"
             d="m 0,0 c -2.7,0 -4.9,0.6 -7.1,1.9 -2.3,1.3 -3.9,2.9 -5.2,5.2 -1.3,2.2 -1.9,4.4 -1.9,7 0,2.7 0.6,4.9 1.9,7.1 1.3,2.3 2.9,3.9 5.2,5.2 2.2,1.3 4.4,1.9 7.1,1.9 2.6,0 4.8,-0.6 7,-1.9 2.3,-1.3 3.9,-2.9 5.2,-5.2 1.3,-2.2 1.9,-4.4 1.9,-7.1 0,-2.6 -0.6,-4.8 -1.9,-7 C 10.9,4.8 9.3,3.2 7,1.9 4.8,0.6 2.6,0 0,0 Z" /></g></g></g><g
       transform="matrix(0.9999847,0,0,0.9999847,1.53e-5,1.53e-5)"
       id="g76"><g
         clip-path="url(#clipPath82)"
         id="g78"><g
           transform="translate(184.3,396.6)"
           id="g84"><path
             id="path86"
             style="fill:none;stroke:#ff9900;stroke-width:2.29200006;stroke-linecap:butt;stroke-linejoin:round;stroke-miterlimit:10;stroke-dasharray:none;stroke-opacity:1"
             d="m 0,0 c -2.7,0 -4.9,0.6 -7.1,1.9 -2.3,1.3 -3.9,2.9 -5.2,5.2 -1.3,2.2 -1.9,4.4 -1.9,7 0,2.7 0.6,4.9 1.9,7.1 1.3,2.3 2.9,3.9 5.2,5.2 2.2,1.3 4.4,1.9 7.1,1.9 2.6,0 4.8,-0.6 7,-1.9 2.3,-1.3 3.9,-2.9 5.2,-5.2 1.3,-2.2 1.9,-4.4 1.9,-7.1 0,-2.6 -0.6,-4.8 -1.9,-7 C 10.9,4.8 9.3,3.2 7,1.9 4.8,0.6 2.6,0 0,0 Z" /></g></g></g><g
       transform="matrix(0.9999847,0,0,0.9999847,1.53e-5,1.53e-5)"
       id="g88"><g
         clip-path="url(#clipPath94)"
         id="g90"><g
           transform="translate(184.3,354.1)"
           id="g96"><path
             id="path98"
             style="fill:#ffcc00;fill-opacity:1;fill-rule:evenodd;stroke:none"
             d="m 0,0 c -2.7,0 -4.9,0.6 -7.1,1.9 -2.3,1.3 -3.9,2.9 -5.2,5.1 -1.3,2.3 -1.9,4.5 -1.9,7.1 0,2.6 0.6,4.8 1.9,7.1 1.3,2.3 2.9,3.9 5.2,5.2 2.2,1.3 4.4,1.9 7.1,1.9 2.6,0 4.8,-0.6 7,-1.9 2.3,-1.3 3.9,-2.9 5.2,-5.2 1.3,-2.3 1.9,-4.5 1.9,-7.1 C 14.1,11.5 13.5,9.3 12.2,7 10.9,4.8 9.3,3.2 7,1.9 4.8,0.6 2.6,0 0,0 Z" /></g></g></g><g
       transform="matrix(0.9999847,0,0,0.9999847,1.53e-5,1.53e-5)"
       id="g100"><g
         clip-path="url(#clipPath106)"
         id="g102"><g
           transform="translate(184.3,354.1)"
           id="g108"><path
             id="path110"
             style="fill:none;stroke:#ff9900;stroke-width:2.29200006;stroke-linecap:butt;stroke-linejoin:round;stroke-miterlimit:10;stroke-dasharray:none;stroke-opacity:1"
             d="m 0,0 c -2.7,0 -4.9,0.6 -7.1,1.9 -2.3,1.3 -3.9,2.9 -5.2,5.1 -1.3,2.3 -1.9,4.5 -1.9,7.1 0,2.6 0.6,4.8 1.9,7.1 1.3,2.3 2.9,3.9 5.2,5.2 2.2,1.3 4.4,1.9 7.1,1.9 2.6,0 4.8,-0.6 7,-1.9 2.3,-1.3 3.9,-2.9 5.2,-5.2 1.3,-2.3 1.9,-4.5 1.9,-7.1 C 14.1,11.5 13.5,9.3 12.2,7 10.9,4.8 9.3,3.2 7,1.9 4.8,0.6 2.6,0 0,0 Z" /></g></g></g><g
       transform="matrix(0.9999847,0,0,0.9999847,1.53e-5,1.53e-5)"
       id="g112"><g
         clip-path="url(#clipPath118)"
         id="g114"><g
           transform="translate(184.3,311.5)"
           id="g120"><path
             id="path122"
             style="fill:#ffcc00;fill-opacity:1;fill-rule:evenodd;stroke:none"
             d="m 0,0 c -2.7,0 -4.9,0.6 -7.1,1.9 -2.3,1.3 -3.9,3 -5.2,5.2 -1.3,2.3 -1.9,4.5 -1.9,7.1 0,2.6 0.6,4.8 1.9,7.1 1.3,2.3 2.9,3.9 5.2,5.2 2.2,1.3 4.4,1.9 7.1,1.9 2.6,0 4.8,-0.6 7,-1.9 2.3,-1.3 3.9,-2.9 5.2,-5.2 1.3,-2.3 1.9,-4.5 1.9,-7.1 0,-2.6 -0.6,-4.8 -1.9,-7.1 C 10.9,4.9 9.3,3.2 7,1.9 4.8,0.6 2.6,0 0,0 Z" /></g></g></g><g
       transform="matrix(0.9999847,0,0,0.9999847,1.53e-5,1.53e-5)"
       id="g124"><g
         clip-path="url(#clipPath130)"
         id="g126"><g
           transform="translate(184.3,311.5)"
           id="g132"><path
             id="path134"
             style="fill:none;stroke:#ff9900;stroke-width:2.29200006;stroke-linecap:butt;stroke-linejoin:round;stroke-miterlimit:10;stroke-dasharray:none;stroke-opacity:1"
             d="m 0,0 c -2.7,0 -4.9,0.6 -7.1,1.9 -2.3,1.3 -3.9,3 -5.2,5.2 -1.3,2.3 -1.9,4.5 -1.9,7.1 0,2.6 0.6,4.8 1.9,7.1 1.3,2.3 2.9,3.9 5.2,5.2 2.2,1.3 4.4,1.9 7.1,1.9 2.6,0 4.8,-0.6 7,-1.9 2.3,-1.3 3.9,-2.9 5.2,-5.2 1.3,-2.3 1.9,-4.5 1.9,-7.1 0,-2.6 -0.6,-4.8 -1.9,-7.1 C 10.9,4.9 9.3,3.2 7,1.9 4.8,0.6 2.6,0 0,0 Z" /></g></g></g><g
       transform="matrix(0.9999847,0,0,0.9999847,1.53e-5,1.53e-5)"
       id="g136"><g
         clip-path="url(#clipPath142)"
         id="g138"><g
           transform="translate(184.3,269)"
           id="g144"><path
             id="path146"
             style="fill:#ffcc00;fill-opacity:1;fill-rule:evenodd;stroke:none"
             d="m 0,0 c -2.7,0 -4.9,0.6 -7.1,1.9 -2.3,1.3 -3.9,2.9 -5.2,5.2 -1.3,2.3 -1.9,4.5 -1.9,7.1 0,2.6 0.6,4.8 1.9,7.1 1.3,2.2 2.9,3.9 5.2,5.2 2.2,1.3 4.4,1.9 7.1,1.9 2.6,0 4.8,-0.6 7,-1.9 2.3,-1.3 3.9,-3 5.2,-5.2 1.3,-2.3 1.9,-4.5 1.9,-7.1 0,-2.6 -0.6,-4.8 -1.9,-7.1 C 10.9,4.8 9.3,3.2 7,1.9 4.8,0.6 2.6,0 0,0 Z" /></g></g></g><g
       transform="matrix(0.9999847,0,0,0.9999847,1.53e-5,1.53e-5)"
       id="g148"><g
         clip-path="url(#clipPath154)"
         id="g150"><g
           transform="translate(184.3,269)"
           id="g156"><path
             id="path158"
             style="fill:none;stroke:#ff9900;stroke-width:2.29200006;stroke-linecap:butt;stroke-linejoin:round;stroke-miterlimit:10;stroke-dasharray:none;stroke-opacity:1"
             d="m 0,0 c -2.7,0 -4.9,0.6 -7.1,1.9 -2.3,1.3 -3.9,2.9 -5.2,5.2 -1.3,2.3 -1.9,4.5 -1.9,7.1 0,2.6 0.6,4.8 1.9,7.1 1.3,2.2 2.9,3.9 5.2,5.2 2.2,1.3 4.4,1.9 7.1,1.9 2.6,0 4.8,-0.6 7,-1.9 2.3,-1.3 3.9,-3 5.2,-5.2 1.3,-2.3 1.9,-4.5 1.9,-7.1 0,-2.6 -0.6,-4.8 -1.9,-7.1 C 10.9,4.8 9.3,3.2 7,1.9 4.8,0.6 2.6,0 0,0 Z" /></g></g></g><g
       transform="matrix(0.9999847,0,0,0.9999847,1.53e-5,1.53e-5)"
       id="g160"><g
         clip-path="url(#clipPath166)"
         id="g162"><g
           transform="translate(326,439.1)"
           id="g168"><path
             id="path170"
             style="fill:#ffcc00;fill-opacity:1;fill-rule:evenodd;stroke:none"
             d="m 0,0 c -2.6,0 -4.8,0.6 -7.1,1.9 -2.3,1.3 -3.9,2.9 -5.2,5.2 -1.3,2.2 -1.9,4.5 -1.9,7.1 0,2.6 0.6,4.8 1.9,7.1 1.3,2.2 2.9,3.8 5.2,5.1 2.3,1.3 4.5,1.9 7.1,1.9 2.6,0 4.8,-0.6 7.1,-1.9 2.2,-1.3 3.9,-2.9 5.2,-5.1 1.3,-2.3 1.9,-4.5 1.9,-7.1 0,-2.6 -0.6,-4.9 -1.9,-7.1 C 11,4.8 9.3,3.2 7.1,1.9 4.8,0.6 2.6,0 0,0 Z" /></g></g></g><g
       transform="matrix(0.9999847,0,0,0.9999847,1.53e-5,1.53e-5)"
       id="g172"><g
         clip-path="url(#clipPath178)"
         id="g174"><g
           transform="translate(326,439.1)"
           id="g180"><path
             id="path182"
             style="fill:none;stroke:#ff9900;stroke-width:2.29200006;stroke-linecap:butt;stroke-linejoin:round;stroke-miterlimit:10;stroke-dasharray:none;stroke-opacity:1"
             d="m 0,0 c -2.6,0 -4.8,0.6 -7.1,1.9 -2.3,1.3 -3.9,2.9 -5.2,5.2 -1.3,2.2 -1.9,4.5 -1.9,7.1 0,2.6 0.6,4.8 1.9,7.1 1.3,2.2 2.9,3.8 5.2,5.1 2.3,1.3 4.5,1.9 7.1,1.9 2.6,0 4.8,-0.6 7.1,-1.9 2.2,-1.3 3.9,-2.9 5.2,-5.1 1.3,-2.3 1.9,-4.5 1.9,-7.1 0,-2.6 -0.6,-4.9 -1.9,-7.1 C 11,4.8 9.3,3.2 7.1,1.9 4.8,0.6 2.6,0 0,0 Z" /></g></g></g><g
       transform="matrix(0.9999847,0,0,0.9999847,1.53e-5,1.53e-5)"
       id="g184"><g
         clip-path="url(#clipPath190)"
         id="g186"><g
           transform="translate(326,396.6)"
           id="g192"><path
             id="path194"
             style="fill:#ffcc00;fill-opacity:1;fill-rule:evenodd;stroke:none"
             d="m 0,0 c -2.6,0 -4.8,0.6 -7.1,1.9 -2.3,1.3 -3.9,2.9 -5.2,5.2 -1.3,2.2 -1.9,4.4 -1.9,7 0,2.7 0.6,4.9 1.9,7.1 1.3,2.3 2.9,3.9 5.2,5.2 2.3,1.3 4.5,1.9 7.1,1.9 2.6,0 4.8,-0.6 7.1,-1.9 2.2,-1.3 3.9,-2.9 5.2,-5.2 1.3,-2.2 1.9,-4.4 1.9,-7.1 0,-2.6 -0.6,-4.8 -1.9,-7 C 11,4.8 9.3,3.2 7.1,1.9 4.8,0.6 2.6,0 0,0 Z" /></g></g></g><g
       transform="matrix(0.9999847,0,0,0.9999847,1.53e-5,1.53e-5)"
       id="g196"><g
         clip-path="url(#clipPath202)"
         id="g198"><g
           transform="translate(326,396.6)"
           id="g204"><path
             id="path206"
             style="fill:none;stroke:#ff9900;stroke-width:2.29200006;stroke-linecap:butt;stroke-linejoin:round;stroke-miterlimit:10;stroke-dasharray:none;stroke-opacity:1"
             d="m 0,0 c -2.6,0 -4.8,0.6 -7.1,1.9 -2.3,1.3 -3.9,2.9 -5.2,5.2 -1.3,2.2 -1.9,4.4 -1.9,7 0,2.7 0.6,4.9 1.9,7.1 1.3,2.3 2.9,3.9 5.2,5.2 2.3,1.3 4.5,1.9 7.1,1.9 2.6,0 4.8,-0.6 7.1,-1.9 2.2,-1.3 3.9,-2.9 5.2,-5.2 1.3,-2.2 1.9,-4.4 1.9,-7.1 0,-2.6 -0.6,-4.8 -1.9,-7 C 11,4.8 9.3,3.2 7.1,1.9 4.8,0.6 2.6,0 0,0 Z" /></g></g></g><g
       transform="matrix(0.9999847,0,0,0.9999847,1.53e-5,1.53e-5)"
       id="g208"><g
         clip-path="url(#clipPath214)"
         id="g210"><g
           transform="translate(326,354.1)"
           id="g216"><path
             id="path218"
             style="fill:#ffcc00;fill-opacity:1;fill-rule:evenodd;stroke:none"
             d="m 0,0 c -2.6,0 -4.8,0.6 -7.1,1.9 -2.3,1.3 -3.9,2.9 -5.2,5.1 -1.3,2.3 -1.9,4.5 -1.9,7.1 0,2.6 0.6,4.8 1.9,7.1 1.3,2.3 2.9,3.9 5.2,5.2 2.3,1.3 4.5,1.9 7.1,1.9 2.6,0 4.8,-0.6 7.1,-1.9 2.2,-1.3 3.9,-2.9 5.2,-5.2 1.3,-2.3 1.9,-4.5 1.9,-7.1 C 14.2,11.5 13.6,9.3 12.3,7 11,4.8 9.3,3.2 7.1,1.9 4.8,0.6 2.6,0 0,0 Z" /></g></g></g><g
       transform="matrix(0.9999847,0,0,0.9999847,1.53e-5,1.53e-5)"
       id="g220"><g
         clip-path="url(#clipPath226)"
         id="g222"><g
           transform="translate(326,354.1)"
           id="g228"><path
             id="path230"
             style="fill:none;stroke:#ff9900;stroke-width:2.29200006;stroke-linecap:butt;stroke-linejoin:round;stroke-miterlimit:10;stroke-dasharray:none;stroke-opacity:1"
             d="m 0,0 c -2.6,0 -4.8,0.6 -7.1,1.9 -2.3,1.3 -3.9,2.9 -5.2,5.1 -1.3,2.3 -1.9,4.5 -1.9,7.1 0,2.6 0.6,4.8 1.9,7.1 1.3,2.3 2.9,3.9 5.2,5.2 2.3,1.3 4.5,1.9 7.1,1.9 2.6,0 4.8,-0.6 7.1,-1.9 2.2,-1.3 3.9,-2.9 5.2,-5.2 1.3,-2.3 1.9,-4.5 1.9,-7.1 C 14.2,11.5 13.6,9.3 12.3,7 11,4.8 9.3,3.2 7.1,1.9 4.8,0.6 2.6,0 0,0 Z" /></g></g></g><g
       transform="matrix(0.9999847,0,0,0.9999847,1.53e-5,1.53e-5)"
       id="g232"><g
         clip-path="url(#clipPath238)"
         id="g234"><g
           transform="translate(326,311.5)"
           id="g240"><path
             id="path242"
             style="fill:#ffcc00;fill-opacity:1;fill-rule:evenodd;stroke:none"
             d="m 0,0 c -2.6,0 -4.8,0.6 -7.1,1.9 -2.3,1.3 -3.9,3 -5.2,5.2 -1.3,2.3 -1.9,4.5 -1.9,7.1 0,2.6 0.6,4.8 1.9,7.1 1.3,2.3 2.9,3.9 5.2,5.2 2.3,1.3 4.5,1.9 7.1,1.9 2.6,0 4.8,-0.6 7.1,-1.9 2.2,-1.3 3.9,-2.9 5.2,-5.2 1.3,-2.3 1.9,-4.5 1.9,-7.1 0,-2.6 -0.6,-4.8 -1.9,-7.1 C 11,4.9 9.3,3.2 7.1,1.9 4.8,0.6 2.6,0 0,0 Z" /></g></g></g><g
       transform="matrix(0.9999847,0,0,0.9999847,1.53e-5,1.53e-5)"
       id="g244"><g
         clip-path="url(#clipPath250)"
         id="g246"><g
           transform="translate(326,311.5)"
           id="g252"><path
             id="path254"
             style="fill:none;stroke:#ff9900;stroke-width:2.29200006;stroke-linecap:butt;stroke-linejoin:round;stroke-miterlimit:10;stroke-dasharray:none;stroke-opacity:1"
             d="m 0,0 c -2.6,0 -4.8,0.6 -7.1,1.9 -2.3,1.3 -3.9,3 -5.2,5.2 -1.3,2.3 -1.9,4.5 -1.9,7.1 0,2.6 0.6,4.8 1.9,7.1 1.3,2.3 2.9,3.9 5.2,5.2 2.3,1.3 4.5,1.9 7.1,1.9 2.6,0 4.8,-0.6 7.1,-1.9 2.2,-1.3 3.9,-2.9 5.2,-5.2 1.3,-2.3 1.9,-4.5 1.9,-7.1 0,-2.6 -0.6,-4.8 -1.9,-7.1 C 11,4.9 9.3,3.2 7.1,1.9 4.8,0.6 2.6,0 0,0 Z" /></g></g></g><g
       transform="matrix(0.9999847,0,0,0.9999847,1.53e-5,1.53e-5)"
       id="g256"><g
         clip-path="url(#clipPath262)"
         id="g258"><g
           transform="translate(198.4,495.8)"
           id="g264"><path
             id="path266"
             style="fill:none;stroke:#ff3300;stroke-width:4.5;stroke-linecap:butt;stroke-linejoin:round;stroke-miterlimit:10;stroke-dasharray:none;stroke-opacity:1"
             d="M 0,0 113.4,-42.5" /></g></g></g><g
       transform="matrix(0.9999847,0,0,0.9999847,1.53e-5,1.53e-5)"
       id="g268"><g
         clip-path="url(#clipPath274)"
         id="g270"><g
           transform="translate(198.4,368.2)"
           id="g276"><path
             id="path278"
             style="fill:none;stroke:#ff3300;stroke-width:4.5;stroke-linecap:butt;stroke-linejoin:round;stroke-miterlimit:10;stroke-dasharray:none;stroke-opacity:1"
             d="M 0,0 113.4,42.5" /></g></g></g><g
       transform="matrix(0.9999847,0,0,0.9999847,1.53e-5,1.53e-5)"
       id="g280"><g
         clip-path="url(#clipPath286)"
         id="g282"><g
           transform="translate(198.4,283.2)"
           id="g288"><path
             id="path290"
             style="fill:none;stroke:#ff3300;stroke-width:4.5;stroke-linecap:butt;stroke-linejoin:round;stroke-miterlimit:10;stroke-dasharray:none;stroke-opacity:1"
             d="M 0,0 113.4,85" /></g></g></g><g
       transform="matrix(0.9999847,0,0,0.9999847,1.53e-5,1.53e-5)"
       id="g292"><g
         clip-path="url(#clipPath298)"
         id="g294"><g
           transform="translate(198.4,283.2)"
           id="g300"><path
             id="path302"
             style="fill:none;stroke:#ff3300;stroke-width:6;stroke-linecap:butt;stroke-linejoin:round;stroke-miterlimit:10;stroke-dasharray:none;stroke-opacity:1"
             d="M 0,0 113.4,85" /></g></g></g><g
       transform="matrix(0.9999847,0,0,0.9999847,1.53e-5,1.53e-5)"
       id="g304"><g
         clip-path="url(#clipPath310)"
         id="g306"><g
           transform="translate(198.4,410.7)"
           id="g312"><path
             id="path314"
             style="fill:none;stroke:#3399ff;stroke-width:6;stroke-linecap:butt;stroke-linejoin:round;stroke-miterlimit:10;stroke-dasharray:none;stroke-opacity:1"
             d="M 0,0 113.4,-85" /></g></g></g><g
       transform="matrix(0.9999847,0,0,0.9999847,1.53e-5,1.53e-5)"
       id="g316"><g
         clip-path="url(#clipPath322)"
         id="g318"><g
           transform="translate(198.4,453.3)"
           id="g324"><path
             id="path326"
             style="fill:none;stroke:#3399ff;stroke-width:3;stroke-linecap:butt;stroke-linejoin:round;stroke-miterlimit:10;stroke-dasharray:none;stroke-opacity:1"
             d="M 0,0 113.4,-85.1" /></g></g></g><g
       transform="matrix(0.9999847,0,0,0.9999847,1.53e-5,1.53e-5)"
       id="g328"><g
         clip-path="url(#clipPath334)"
         id="g330"><g
           transform="translate(198.4,283.2)"
           id="g336"><path
             id="path338"
             style="fill:none;stroke:#3399ff;stroke-width:4.5;stroke-linecap:butt;stroke-linejoin:round;stroke-miterlimit:10;stroke-dasharray:none;stroke-opacity:1"
             d="M 0,0 113.4,170.1" /></g></g></g><g
       transform="matrix(0.9999847,0,0,0.9999847,1.53e-5,1.53e-5)"
       id="g340"><g
         clip-path="url(#clipPath346)"
         id="g342"><g
           transform="translate(198.4,453.3)"
           id="g348"><path
             id="path350"
             style="fill:none;stroke:#ff3300;stroke-width:1.5;stroke-linecap:butt;stroke-linejoin:round;stroke-miterlimit:10;stroke-dasharray:none;stroke-opacity:1"
             d="M 0,0 113.4,-42.6" /></g></g></g><g
       transform="matrix(0.9999847,0,0,0.9999847,1.53e-5,1.53e-5)"
       id="g352"><g
         clip-path="url(#clipPath358)"
         id="g354"><g
           transform="translate(198.4,325.7)"
           id="g360"><path
             id="path362"
             style="fill:none;stroke:#ff3300;stroke-width:1.5;stroke-linecap:butt;stroke-linejoin:round;stroke-miterlimit:10;stroke-dasharray:none;stroke-opacity:1"
             d="M 0,0 113.4,85" /></g></g></g><g
       transform="matrix(0.9999847,0,0,0.9999847,1.53e-5,1.53e-5)"
       id="g364"><g
         clip-path="url(#clipPath370)"
         id="g366"><g
           transform="translate(198.4,410.7)"
           id="g372"><path
             id="path374"
             style="fill:none;stroke:#3399ff;stroke-width:1.5;stroke-linecap:butt;stroke-linejoin:round;stroke-miterlimit:10;stroke-dasharray:none;stroke-opacity:1"
             d="M 0,0 113.4,-42.5" /></g></g></g><g
       transform="matrix(0.9999847,0,0,0.9999847,1.53e-5,1.53e-5)"
       id="g376"><g
         clip-path="url(#clipPath382)"
         id="g378"><g
           transform="translate(198.4,325.7)"
           id="g384"><path
             id="path386"
             style="fill:none;stroke:#3399ff;stroke-width:1.5;stroke-linecap:butt;stroke-linejoin:round;stroke-miterlimit:10;stroke-dasharray:none;stroke-opacity:1"
             d="M 0,0 113.4,127.6" /></g></g></g><g
       transform="matrix(0.9999847,0,0,0.9999847,1.53e-5,1.53e-5)"
       id="g388"><g
         clip-path="url(#clipPath394)"
         id="g390"><g
           transform="translate(198.4,368.2)"
           id="g396"><path
             id="path398"
             style="fill:none;stroke:#3399ff;stroke-width:1.5;stroke-linecap:butt;stroke-linejoin:round;stroke-miterlimit:10;stroke-dasharray:none;stroke-opacity:1"
             d="M 0,0 H 113.4" /></g></g></g><g
       transform="matrix(0.9999847,0,0,0.9999847,1.53e-5,1.53e-5)"
       id="g400"><g
         clip-path="url(#clipPath406)"
         id="g402"><g
           transform="translate(198.4,495.8)"
           id="g408"><path
             id="path410"
             style="fill:none;stroke:#ff3300;stroke-width:1.5;stroke-linecap:butt;stroke-linejoin:round;stroke-miterlimit:10;stroke-dasharray:none;stroke-opacity:1"
             d="M 0,0 113.4,-127.6" /></g></g></g><g
       transform="matrix(0.9999847,0,0,0.9999847,1.53e-5,1.53e-5)"
       id="g412"><g
         clip-path="url(#clipPath418)"
         id="g414"><g
           transform="translate(198.4,368.2)"
           id="g420"><path
             id="path422"
             style="fill:none;stroke:#ff3300;stroke-width:1.5;stroke-linecap:butt;stroke-linejoin:round;stroke-miterlimit:10;stroke-dasharray:none;stroke-opacity:1"
             d="M 0,0 113.4,-42.5" /></g></g></g><g
       transform="matrix(0.9999847,0,0,0.9999847,1.53e-5,1.53e-5)"
       id="g424"><g
         clip-path="url(#clipPath430)"
         id="g426"><g
           transform="translate(198.4,495.8)"
           id="g432"><path
             id="path434"
             style="fill:none;stroke:#3399ff;stroke-width:1.5;stroke-linecap:butt;stroke-linejoin:round;stroke-miterlimit:10;stroke-dasharray:none;stroke-opacity:1"
             d="M 0,0 113.4,-170.1" /></g></g></g><g
       transform="matrix(0.9999847,0,0,0.9999847,1.53e-5,1.53e-5)"
       id="g436"><g
         clip-path="url(#clipPath442)"
         id="g438"><g
           transform="translate(198.4,495.8)"
           id="g444"><path
             id="path446"
             style="fill:none;stroke:#3399ff;stroke-width:1.5;stroke-linecap:butt;stroke-linejoin:round;stroke-miterlimit:10;stroke-dasharray:none;stroke-opacity:1"
             d="M 0,0 113.4,-85.1" /></g></g></g><g
       transform="matrix(0.9999847,0,0,0.9999847,1.53e-5,1.53e-5)"
       id="g448"><g
         clip-path="url(#clipPath454)"
         id="g450"><g
           transform="translate(198.4,453.3)"
           id="g456"><path
             id="path458"
             style="fill:none;stroke:#ff3300;stroke-width:4.5;stroke-linecap:butt;stroke-linejoin:round;stroke-miterlimit:10;stroke-dasharray:none;stroke-opacity:1"
             d="M 0,0 H 113.4" /></g></g></g><g
       transform="matrix(0.9999847,0,0,0.9999847,1.53e-5,1.53e-5)"
       id="g460"><g
         clip-path="url(#clipPath466)"
         id="g462"><g
           transform="translate(198.4,453.3)"
           id="g468"><path
             id="path470"
             style="fill:none;stroke:#3399ff;stroke-width:1.5;stroke-linecap:butt;stroke-linejoin:round;stroke-miterlimit:10;stroke-dasharray:none;stroke-opacity:1"
             d="M 0,0 113.4,-127.6" /></g></g></g><g
       transform="matrix(0.9999847,0,0,0.9999847,1.53e-5,1.53e-5)"
       id="g472"><g
         clip-path="url(#clipPath478)"
         id="g474"><g
           transform="translate(198.4,410.7)"
           id="g480"><path
             id="path482"
             style="fill:none;stroke:#ff3300;stroke-width:2.29200006;stroke-linecap:butt;stroke-linejoin:round;stroke-miterlimit:10;stroke-dasharray:none;stroke-opacity:1"
             d="M 0,0 H 113.4" /></g></g></g><g
       transform="matrix(0.9999847,0,0,0.9999847,1.53e-5,1.53e-5)"
       id="g484"><g
         clip-path="url(#clipPath490)"
         id="g486"><g
           transform="translate(198.4,410.7)"
           id="g492"><path
             id="path494"
             style="fill:none;stroke:#ff3300;stroke-width:1.5;stroke-linecap:butt;stroke-linejoin:round;stroke-miterlimit:10;stroke-dasharray:none;stroke-opacity:1"
             d="M 0,0 113.4,42.6" /></g></g></g><g
       transform="matrix(0.9999847,0,0,0.9999847,1.53e-5,1.53e-5)"
       id="g496"><g
         clip-path="url(#clipPath502)"
         id="g498"><g
           transform="translate(198.4,368.2)"
           id="g504"><path
             id="path506"
             style="fill:none;stroke:#ff3300;stroke-width:1.5;stroke-linecap:butt;stroke-linejoin:round;stroke-miterlimit:10;stroke-dasharray:none;stroke-opacity:1"
             d="M 0,0 113.4,85.1" /></g></g></g><g
       transform="matrix(0.9999847,0,0,0.9999847,1.53e-5,1.53e-5)"
       id="g508"><g
         clip-path="url(#clipPath514)"
         id="g510"><g
           transform="translate(198.4,325.7)"
           id="g516"><path
             id="path518"
             style="fill:none;stroke:#3399ff;stroke-width:1.5;stroke-linecap:butt;stroke-linejoin:round;stroke-miterlimit:10;stroke-dasharray:none;stroke-opacity:1"
             d="M 0,0 113.4,42.5" /></g></g></g><g
       transform="matrix(0.9999847,0,0,0.9999847,1.53e-5,1.53e-5)"
       id="g520"><g
         clip-path="url(#clipPath526)"
         id="g522"><g
           transform="translate(198.4,283.2)"
           id="g528"><path
             id="path530"
             style="fill:none;stroke:#ff3300;stroke-width:2.29200006;stroke-linecap:butt;stroke-linejoin:round;stroke-miterlimit:10;stroke-dasharray:none;stroke-opacity:1"
             d="M 0,0 113.4,42.5" /></g></g></g><g
       transform="matrix(0.9999847,0,0,0.9999847,1.53e-5,1.53e-5)"
       id="g532"><g
         clip-path="url(#clipPath538)"
         id="g534"><g
           transform="translate(198.4,283.2)"
           id="g540"><path
             id="path542"
             style="fill:none;stroke:#3399ff;stroke-width:1.5;stroke-linecap:butt;stroke-linejoin:round;stroke-miterlimit:10;stroke-dasharray:none;stroke-opacity:1"
             d="M 0,0 113.4,127.5" /></g></g></g><g
       transform="matrix(0.9999847,0,0,0.9999847,1.53e-5,1.53e-5)"
       id="g544"><g
         clip-path="url(#clipPath550)"
         id="g546"><g
           transform="translate(198.4,325.7)"
           id="g552"><path
             id="path554"
             style="fill:none;stroke:#ff3300;stroke-width:3;stroke-linecap:butt;stroke-linejoin:round;stroke-miterlimit:10;stroke-dasharray:none;stroke-opacity:1"
             d="M 0,0 H 113.4" /></g></g></g><text
       id="text562"
       style="font-style:italic;font-variant:normal;font-weight:bold;font-size:18px;font-family:'Times New Roman';-inkscape-font-specification:'Times New Roman';writing-mode:lr-tb;fill:#000000;fill-opacity:1;fill-rule:nonzero;stroke:none"
       transform="matrix(1,0,0,-1,253.7002,489.7005)"><tspan
         id="tspan556"
         y="0"
         x="0">W</tspan><tspan
         id="tspan558"
         y="230.20399"
         x="-51.000999">x</tspan><tspan
         id="tspan560"
         y="193.30299"
         x="83.500999">y</tspan></text>
</g></svg>