<svg xmlns="http://www.w3.org/2000/svg" xmlns:xlink="http://www.w3.org/1999/xlink" height="479" viewBox="0 0 360 358.56" width="481" stroke-linecap="butt" stroke-linejoin="round"><style><![CDATA[.B{stroke:#000}.C{stroke-width:.8}.D{stroke-linecap:butt}.E{stroke-linejoin:round}.F{stroke-linecap:square}.G{stroke-width:1.5}.H{clip-path:url(#f)}.I{stroke-linejoin:miter}]]></style><g fill="#fff"><path d="M0 358.56h360V0H0z"/><path d="M45 319.118h279V43.027H45z"/></g><defs><path d="M0 0v3.5" id="A" class="B C D E"/><path id="B" d="M57.682 306.57l13.35-32.017 13.35-33.65 13.35-34.37 13.35-37.256 13.35-30.564 13.35-16.324 13.35-10.51 13.35-12.754 13.35-8.822 13.35-7.84 13.35-7.368 13.35-6.87 13.35-5.004 13.35-4 13.35-2.766 13.35-.605 13.35-.28 13.35.287 13.35-.25"/></defs><use x="57.682" xlink:href="#A" y="319.118" class="B C"/><defs><path d="M31.78 66.406q-7.61 0-11.453-7.5-3.828-7.484-3.828-22.53 0-14.984 3.828-22.484 3.844-7.5 11.453-7.5 7.672 0 11.5 7.5 3.844 7.5 3.844 22.484 0 15.047-3.844 22.53-3.828 7.5-11.5 7.5zm0 7.813q12.266 0 18.734-9.703 6.47-9.687 6.47-28.14 0-18.406-6.47-28.11-6.47-9.687-18.734-9.687-12.25 0-18.72 9.688-6.47 9.703-6.47 28.11 0 18.453 6.47 28.14 6.47 9.703 18.72 9.703z" id="C"/><path d="M10.688 12.406H21V0H10.688z" id="D"/></defs><g transform="matrix(.1 0 0 -.1 49.730256 333.716838)"><use xlink:href="#C"/><use x="63.623" xlink:href="#D"/><use x="95.41" xlink:href="#C"/></g><use x="91.055" xlink:href="#A" y="319.118" class="B C"/><defs><path d="M19.188 8.297H53.61V0H7.328v8.297q5.61 5.813 15.297 15.594 9.703 9.797 12.188 12.64 4.734 5.313 6.61 9 1.89 3.688 1.89 7.25 0 5.813-4.078 9.47-4.078 3.672-10.625 3.672-4.64 0-9.797-1.61-5.14-1.61-11-4.89v9.97q5.953 2.39 11.125 3.61 5.188 1.22 9.484 1.22 11.328 0 18.063-5.672 6.734-5.656 6.734-15.125 0-4.5-1.687-8.53-1.672-4.016-6.125-9.484-1.22-1.422-7.766-8.187-6.53-6.766-18.453-18.922z" id="E"/><path d="M10.797 72.906h38.72v-8.312H19.828v-17.86q2.14.734 4.28 1.094 2.156.36 4.313.36 12.203 0 19.328-6.687 7.14-6.687 7.14-18.11 0-11.766-7.328-18.297-7.328-6.516-20.656-6.516-4.594 0-9.36.78-4.75.78-9.828 2.344v9.922q4.39-2.39 9.078-3.562 4.688-1.172 9.906-1.172 8.453 0 13.375 4.438 4.938 4.438 4.938 12.063 0 7.61-4.937 12.047-4.922 4.453-13.375 4.453-3.953 0-7.89-.875-3.922-.875-8.016-2.734z" id="F"/></defs><g transform="matrix(.1 0 0 -.1 83.103461 333.716838)"><use xlink:href="#E"/><use x="63.623" xlink:href="#D"/><use x="95.41" xlink:href="#F"/></g><use x="124.428" xlink:href="#A" y="319.118" class="B C"/><g transform="matrix(.1 0 0 -.1 116.476667 333.716838)"><use xlink:href="#F"/><use x="63.623" xlink:href="#D"/><use x="95.41" xlink:href="#C"/></g><use x="157.801" xlink:href="#A" y="319.118" class="B C"/><defs><path d="M8.203 72.906h46.875v-4.203L28.61 0H18.313L43.22 64.594H8.203z" id="G"/></defs><g transform="matrix(.1 0 0 -.1 149.849873 333.716838)"><use xlink:href="#G"/><use x="63.623" xlink:href="#D"/><use x="95.41" xlink:href="#F"/></g><use x="191.175" xlink:href="#A" y="319.118" class="B C"/><defs><path d="M12.406 8.297h16.11v55.625l-17.53-3.516v8.984l17.438 3.516h9.86V8.297h16.11V0H12.406z" id="H"/></defs><g transform="matrix(.1 0 0 -.1 180.041829 333.716838)"><use xlink:href="#H"/><use x="63.623" xlink:href="#C"/><use x="127.246" xlink:href="#D"/><use x="159.033" xlink:href="#C"/></g><use x="224.548" xlink:href="#A" y="319.118" class="B C"/><g transform="matrix(.1 0 0 -.1 213.415034 333.716838)"><use xlink:href="#H"/><use x="63.623" xlink:href="#E"/><use x="127.246" xlink:href="#D"/><use x="159.033" xlink:href="#F"/></g><use x="257.921" xlink:href="#A" y="319.118" class="B C"/><g transform="matrix(.1 0 0 -.1 246.78824 333.716838)"><use xlink:href="#H"/><use x="63.623" xlink:href="#F"/><use x="127.246" xlink:href="#D"/><use x="159.033" xlink:href="#C"/></g><use x="291.294" xlink:href="#A" y="319.118" class="B C"/><g transform="matrix(.1 0 0 -.1 280.161446 333.716838)"><use xlink:href="#H"/><use x="63.623" xlink:href="#G"/><use x="127.246" xlink:href="#D"/><use x="159.033" xlink:href="#F"/></g><defs><path d="M56.203 29.594v-4.39H14.89q.594-9.28 5.594-14.14 5-4.86 13.938-4.86 5.172 0 10.03 1.266 4.86 1.266 9.656 3.813v-8.5Q49.266.734 44.188-.344 39.11-1.422 33.89-1.422q-13.094 0-20.734 7.61-7.64 7.625-7.64 20.625 0 13.422 7.25 21.297Q20.016 56 32.328 56q11.03 0 17.453-7.11 6.422-7.094 6.422-19.297zm-8.984 2.64q-.094 7.36-4.125 11.75-4.03 4.406-10.672 4.406-7.516 0-12.03-4.25-4.516-4.25-5.203-11.97z" id="I"/><path d="M18.11 8.203v-29h-9.03v75.484h9.03V46.39q2.844 4.875 7.156 7.234Q29.594 56 35.594 56q9.97 0 16.188-7.906 6.234-7.906 6.234-20.797 0-12.89-6.234-20.812-6.22-7.906-16.187-7.906-6 0-10.328 2.375-4.312 2.375-7.156 7.25zm30.578 19.094q0 9.906-4.078 15.547-4.078 5.64-11.203 5.64-7.14 0-11.22-5.64-4.078-5.64-4.078-15.547 0-9.906 4.078-15.547 4.078-5.64 11.22-5.64 7.125 0 11.203 5.64 4.078 5.64 4.078 15.547z" id="J"/><path d="M30.61 48.39q-7.22 0-11.422-5.64-4.203-5.64-4.203-15.453 0-9.812 4.172-15.453 4.188-5.64 11.453-5.64 7.188 0 11.375 5.656 4.203 5.672 4.203 15.438 0 9.72-4.203 15.406-4.187 5.688-11.375 5.688zm0 7.61q11.72 0 18.406-7.625 6.703-7.61 6.703-21.078 0-13.422-6.703-21.078-6.687-7.64-18.406-7.64-11.766 0-18.437 7.64-6.656 7.656-6.656 21.078 0 13.47 6.656 21.078Q18.844 56 30.61 56z" id="K"/><path d="M48.78 52.594v-8.406q-3.812 2.11-7.64 3.156-3.828 1.047-7.734 1.047-8.75 0-13.594-5.547-4.828-5.53-4.828-15.547 0-10.016 4.828-15.562 4.844-5.53 13.594-5.53 3.906 0 7.734 1.047 3.828 1.047 7.64 3.156V2.094Q45.016.344 40.984-.53q-4.016-.89-8.562-.89-12.36 0-19.64 7.766-7.266 7.766-7.266 20.953 0 13.375 7.344 21.03Q20.22 56 33.016 56q4.14 0 8.094-.86 3.953-.844 7.672-2.547z" id="L"/><path d="M54.89 33.016V0h-8.984v32.72q0 7.766-3.03 11.61-3.03 3.86-9.078 3.86-7.28 0-11.484-4.64-4.203-4.625-4.203-12.64V0h-9.03v75.984h9.03V46.188q3.234 4.938 7.594 7.375Q30.078 56 35.797 56q9.422 0 14.25-5.828 4.844-5.828 4.844-17.156z" id="M"/></defs><g transform="matrix(.1 0 0 -.1 169.271875 347.394963)"><use xlink:href="#I"/><use x="61.523" xlink:href="#J"/><use x="125" xlink:href="#K"/><use x="186.182" xlink:href="#L"/><use x="241.162" xlink:href="#M"/></g><defs><path d="M0 0h-3.5" id="N" class="B C D E"/></defs><use x="45" xlink:href="#N" y="299.462" class="B C"/><defs><path d="M33.016 40.375q-6.64 0-10.53-4.547-3.875-4.53-3.875-12.437 0-7.86 3.875-12.437 3.89-4.562 10.53-4.562 6.64 0 10.516 4.563 3.875 4.578 3.875 12.438 0 7.906-3.875 12.438-3.875 4.547-10.516 4.547zm19.578 30.922v-8.984q-3.72 1.75-7.5 2.672-3.78.938-7.5.938-9.766 0-14.922-6.594-5.14-6.594-5.875-19.922 2.875 4.25 7.22 6.516 4.36 2.266 9.578 2.266 10.984 0 17.36-6.672 6.375-6.656 6.375-18.125 0-11.234-6.64-18.03-6.64-6.78-17.672-6.78-12.656 0-19.344 9.688-6.687 9.703-6.687 28.11 0 17.28 8.203 27.563 8.203 10.28 22.016 10.28 3.72 0 7.5-.734 3.78-.734 7.89-2.187z" id="O"/></defs><g transform="matrix(.1 0 0 -.1 22.096875 303.260908)"><use xlink:href="#C"/><use x="63.623" xlink:href="#D"/><use x="95.41" xlink:href="#O"/></g><use x="45" xlink:href="#N" y="238.27" class="B C"/><g transform="matrix(.1 0 0 -.1 22.096875 242.069709)"><use xlink:href="#C"/><use x="63.623" xlink:href="#D"/><use x="95.41" xlink:href="#G"/></g><use x="45" xlink:href="#N" y="177.079" class="B C"/><defs><path d="M31.78 34.625q-7.03 0-11.062-3.766-4.016-3.766-4.016-10.344 0-6.594 4.016-10.36Q24.75 6.39 31.78 6.39q7.03 0 11.078 3.78 4.063 3.797 4.063 10.344 0 6.578-4.03 10.344-4.016 3.766-11.11 3.766zm-9.86 4.188q-6.344 1.563-9.89 5.906-3.53 4.36-3.53 10.61 0 8.734 6.22 13.813 6.234 5.078 17.063 5.078 10.89 0 17.094-5.078 6.203-5.078 6.203-13.812 0-6.25-3.547-10.61-3.53-4.344-9.828-5.906 7.125-1.656 11.094-6.5 3.984-4.828 3.984-11.797 0-10.61-6.47-16.28-6.47-5.656-18.53-5.656-12.047 0-18.53 5.656-6.47 5.672-6.47 16.28 0 6.97 4 11.797 4.016 4.844 11.14 6.5zm-3.61 15.578q0-5.656 3.53-8.828 3.547-3.172 9.938-3.172 6.36 0 9.938 3.172 3.594 3.172 3.594 8.828 0 5.672-3.594 8.844-3.578 3.172-9.937 3.172-6.39 0-9.937-3.172-3.53-3.172-3.53-8.844z" id="P"/></defs><g transform="matrix(.1 0 0 -.1 22.096875 180.87851)"><use xlink:href="#C"/><use x="63.623" xlink:href="#D"/><use x="95.41" xlink:href="#P"/></g><use x="45" xlink:href="#N" y="115.888" class="B C"/><defs><path d="M10.984 1.516V10.5q3.72-1.766 7.516-2.687 3.813-.922 7.484-.922 9.766 0 14.906 6.563 5.156 6.563 5.89 19.953-2.828-4.203-7.187-6.453-4.344-2.25-9.61-2.25-10.937 0-17.312 6.61-6.375 6.625-6.375 18.11 0 11.22 6.64 18 6.64 6.797 17.672 6.797 12.656 0 19.313-9.703 6.672-9.687 6.672-28.14 0-17.234-8.187-27.516-8.172-10.28-21.984-10.28-3.72 0-7.53.734-3.797.734-7.906 2.203zM30.61 32.422q6.64 0 10.516 4.53 3.89 4.547 3.89 12.47 0 7.86-3.89 12.422-3.875 4.563-10.516 4.563-6.64 0-10.516-4.562-3.875-4.562-3.875-12.422 0-7.922 3.875-12.47 3.875-4.53 10.516-4.53z" id="Q"/></defs><g transform="matrix(.1 0 0 -.1 22.096875 119.687311)"><use xlink:href="#C"/><use x="63.623" xlink:href="#D"/><use x="95.41" xlink:href="#Q"/></g><use x="45" xlink:href="#N" y="54.697" class="B C"/><g transform="matrix(.1 0 0 -.1 22.096875 58.496113)"><use xlink:href="#H"/><use x="63.623" xlink:href="#D"/><use x="95.41" xlink:href="#C"/></g><defs><path d="M34.188 63.188l-13.39-36.28H47.61zm-5.578 9.72h11.188L67.578 0h-10.25l-6.64 18.703h-32.86L11.188 0H.78z" id="R"/><path d="M8.5 21.578v33.11h8.984V21.922q0-7.766 3.016-11.656 3.03-3.875 9.094-3.875 7.266 0 11.484 4.64 4.234 4.64 4.234 12.656v31h8.984V0h-8.984v8.406Q42.047 3.422 37.72 1q-4.312-2.422-10.03-2.422-9.422 0-14.312 5.86Q8.5 10.297 8.5 21.578zM31.11 56z" id="S"/><path d="M41.11 46.297q-1.516.875-3.297 1.28Q36.03 48 33.89 48q-7.625 0-11.703-4.953-4.078-4.953-4.078-14.234V0h-9.03v54.688h9.03v-8.5q2.844 4.984 7.375 7.39Q30.03 56 36.53 56q.922 0 2.047-.125 1.125-.11 2.484-.36z" id="T"/><path d="M34.28 27.484q-10.89 0-15.094-2.484-4.203-2.484-4.203-8.5 0-4.78 3.156-7.594 3.156-2.797 8.563-2.797 7.484 0 12 5.297 4.516 5.297 4.516 14.078v2zm17.922 3.72V0H43.22v8.297Q40.14 3.328 35.547.953q-4.594-2.375-11.234-2.375-8.39 0-13.36 4.72Q6 8.016 6 15.922q0 9.22 6.172 13.906 6.188 4.688 18.438 4.688h12.61v.89q0 6.203-4.078 9.594-4.078 3.39-11.453 3.39-4.687 0-9.14-1.125-4.437-1.125-8.53-3.375v8.313q4.922 1.906 9.563 2.844 4.64.953 9.03.953 11.875 0 17.734-6.156 5.86-6.14 5.86-18.64z" id="U"/><path d="M32.172-5.078q-3.797-9.766-7.422-12.734-3.61-2.984-9.656-2.984H7.906v7.516h5.28q3.703 0 5.75 1.766Q21-9.766 23.484-3.22l1.61 4.094-22.11 53.813H12.5l17.094-42.766 17.094 42.766h9.516z" id="V"/></defs><g transform="matrix(0 -.1 -.1 0 16.017187 203.987644)"><use xlink:href="#R"/><use x="68.393" xlink:href="#L"/><use x="123.373" xlink:href="#L"/><use x="178.354" xlink:href="#S"/><use x="241.732" xlink:href="#T"/><use x="282.846" xlink:href="#U"/><use x="344.125" xlink:href="#L"/><use x="399.105" xlink:href="#V"/></g><g fill="none" class="F"><g class="G H"><use xlink:href="#B" stroke="#1f77b4"/><use xlink:href="#B" stroke="#ff7f0e"/></g><g class="B C I"><path d="M45 319.118V43.027m279 276.09V43.027"/><path d="M45 319.118h279M45 43.027h279"/></g></g><path d="M52 80.383h111.11q2 0 2-2V50.027q0-2-2-2H52q-2 0-2 2v28.356q0 2 2 2z" fill="#fff" opacity=".8" stroke="#ccc" class="I"/><path d="M54 56.126h20" fill="none" stroke="#1f77b4" class="F G"/><defs><path d="M44.28 53.078v-8.5q-3.797 1.953-7.906 2.922-4.094.984-8.5.984-6.687 0-10.03-2.047Q14.5 44.39 14.5 40.28q0-3.125 2.39-4.906 2.39-1.78 9.625-3.39l3.078-.687q9.563-2.047 13.594-5.78 4.03-3.734 4.03-10.422 0-7.625-6.03-12.078-6.03-4.437-16.578-4.437-4.39 0-9.156.86Q10.688.297 5.422 2v9.28q4.984-2.594 9.813-3.89 4.828-1.28 9.578-1.28 6.344 0 9.75 2.172 3.422 2.172 3.422 6.125 0 3.656-2.47 5.61-2.453 1.953-10.812 3.766l-3.125.734q-8.344 1.75-12.062 5.39-3.703 3.64-3.703 9.984 0 7.72 5.47 11.906Q16.75 56 26.813 56q4.97 0 9.36-.734 4.406-.72 8.11-2.187z" id="W"/><path d="M9.422 75.984h8.984V0H9.422z" id="X"/><path d="M37.11 75.984V68.5h-8.594q-4.828 0-6.72-1.953-1.875-1.953-1.875-7.03v-4.828H34.72v-6.984H19.922V0h-9.03v47.703H2.297v6.984h8.594V58.5q0 9.125 4.25 13.297 4.25 4.188 13.47 4.188z" id="Y"/><path d="M45.406 46.39v29.594h8.984V0h-8.984v8.203Q42.578 3.328 38.25.953q-4.312-2.375-10.375-2.375-9.906 0-16.14 7.906-6.22 7.922-6.22 20.813 0 12.89 6.22 20.797Q17.97 56 27.875 56q6.063 0 10.375-2.375 4.328-2.36 7.156-7.234zm-30.61-19.094q0-9.906 4.078-15.547 4.078-5.64 11.203-5.64 7.125 0 11.22 5.64 4.11 5.64 4.11 15.547 0 9.906-4.11 15.547-4.094 5.64-11.22 5.64-7.125 0-11.203-5.64-4.078-5.64-4.078-15.547z" id="Z"/><path d="M9.422 54.688h8.984V0H9.422zm0 21.297h8.984v-11.39H9.422z" id="a"/><path d="M54.89 33.016V0h-8.984v32.72q0 7.766-3.03 11.61-3.03 3.86-9.078 3.86-7.28 0-11.484-4.64-4.203-4.625-4.203-12.64V0h-9.03v54.688h9.03v-8.5q3.234 4.938 7.594 7.375Q30.078 56 35.797 56q9.422 0 14.25-5.828 4.844-5.828 4.844-17.156z" id="b"/></defs><g transform="matrix(.1 0 0 -.1 82 59.625637)"><use xlink:href="#W"/><use x="52.1" xlink:href="#I"/><use x="113.623" xlink:href="#X"/><use x="141.406" xlink:href="#Y"/><use x="176.611" xlink:href="#Ae"/><use x="208.398" xlink:href="#Z"/><use x="271.875" xlink:href="#I"/><use x="333.398" xlink:href="#Y"/><use x="368.604" xlink:href="#a"/><use x="396.387" xlink:href="#b"/><use x="459.766" xlink:href="#I"/><use x="521.289" xlink:href="#Z"/></g><path d="M54 70.804h20" fill="none" stroke="#ff7f0e" class="F G"/><defs><path d="M52 44.188q3.375 6.063 8.063 8.938Q64.75 56 71.094 56q8.547 0 13.188-5.984 4.64-5.97 4.64-17V0h-9.03v32.72q0 7.86-2.797 11.656-2.78 3.813-8.484 3.813-6.984 0-11.047-4.64-4.047-4.625-4.047-12.64V0h-9.03v32.72q0 7.906-2.78 11.688-2.78 3.78-8.594 3.78-6.89 0-10.953-4.656-4.047-4.656-4.047-12.625V0h-9.03v54.688h9.03v-8.5q3.078 5.03 7.375 7.422Q29.78 56 35.688 56q5.97 0 10.14-3.03Q50 49.953 52 44.188z" id="c"/><path d="M18.313 70.22v-15.53h18.5v-6.984h-18.5V18.016q0-6.687 1.828-8.594 1.828-1.906 7.453-1.906h9.22V0h-9.22q-10.406 0-14.36 3.875-3.953 3.89-3.953 14.14v29.688H2.688v6.984H9.28v15.53z" id="d"/><path d="M4.203 54.688h8.984l11.234-42.672 11.172 42.672h10.594l11.234-42.672L68.61 54.688h8.984L63.28 0H52.688L40.922 44.828 29.11 0H18.5z" id="e"/></defs><g transform="matrix(.1 0 0 -.1 82 74.303763)"><use xlink:href="#Y"/><use x="35.205" xlink:href="#T"/><use x="76.287" xlink:href="#K"/><use x="137.469" xlink:href="#c"/><use x="234.881" xlink:href="#Ae"/><use x="266.668" xlink:href="#d"/><use x="305.877" xlink:href="#I"/><use x="367.4" xlink:href="#b"/><use x="430.779" xlink:href="#W"/><use x="482.879" xlink:href="#K"/><use x="544.061" xlink:href="#T"/><use x="585.174" xlink:href="#Y"/><use x="620.379" xlink:href="#X"/><use x="648.162" xlink:href="#K"/><use x="709.344" xlink:href="#e"/></g><defs><clipPath id="f"><path d="M45 43.027h279v276.09H45z"/></clipPath></defs></svg>