<svg xmlns="http://www.w3.org/2000/svg" xmlns:xlink="http://www.w3.org/1999/xlink" viewBox="0 0 306.667 373.333" height="374" width="307"><style><![CDATA[.B{clip-rule:evenodd}.C{fill:none}.D{stroke-linejoin:round}.E{stroke-miterlimit:10}.F{stroke:#f30}.G{stroke-width:1.5}.H{stroke-width:2.292}.I{stroke:#39f}.J{fill:#fc0}.K{fill-rule:evenodd}.L{stroke:#f90}.M{stroke-width:4.5}]]></style><defs><clipPath id="A"><path d="M0 0h842v595H0z"/></clipPath><clipPath id="B"><path d="M0-.2h841.8V595H0z" class="B"/></clipPath><clipPath id="C"><path d="M0-.2h841.8V595H0z" class="B"/></clipPath><clipPath id="D"><path d="M0-.2h841.8V595H0z" class="B"/></clipPath><clipPath id="E"><path d="M0-.2h841.8V595H0z" class="B"/></clipPath><clipPath id="F"><path d="M0-.2h841.8V595H0z" class="B"/></clipPath><clipPath id="G"><path d="M0-.2h841.8V595H0z" class="B"/></clipPath><clipPath id="H"><path d="M0-.2h841.8V595H0z" class="B"/></clipPath><clipPath id="I"><path d="M0-.2h841.8V595H0z" class="B"/></clipPath><clipPath id="J"><path d="M0-.2h841.8V595H0z" class="B"/></clipPath><clipPath id="K"><path d="M0-.2h841.8V595H0z" class="B"/></clipPath><clipPath id="L"><path d="M0-.2h841.8V595H0z" class="B"/></clipPath><clipPath id="M"><path d="M0-.2h841.8V595H0z" class="B"/></clipPath><clipPath id="N"><path d="M0-.2h841.8V595H0z" class="B"/></clipPath><clipPath id="O"><path d="M0-.2h841.8V595H0z" class="B"/></clipPath><clipPath id="P"><path d="M0-.2h841.8V595H0z" class="B"/></clipPath><clipPath id="Q"><path d="M0-.2h841.8V595H0z" class="B"/></clipPath><clipPath id="R"><path d="M0-.2h841.8V595H0z" class="B"/></clipPath><clipPath id="S"><path d="M0-.2h841.8V595H0z" class="B"/></clipPath><clipPath id="T"><path d="M0-.2h841.8V595H0z" class="B"/></clipPath><clipPath id="U"><path d="M0-.2h841.8V595H0z" class="B"/></clipPath><clipPath id="V"><path d="M0-.2h841.8V595H0z" class="B"/></clipPath><clipPath id="W"><path d="M0-.2h841.8V595H0z" class="B"/></clipPath><clipPath id="X"><path d="M0-.2h841.8V595H0z" class="B"/></clipPath><clipPath id="Y"><path d="M0-.2h841.8V595H0z" class="B"/></clipPath><clipPath id="Z"><path d="M0-.2h841.8V595H0z" class="B"/></clipPath><clipPath id="a"><path d="M0-.2h841.8V595H0z" class="B"/></clipPath><clipPath id="b"><path d="M0-.2h841.8V595H0z" class="B"/></clipPath><clipPath id="c"><path d="M0-.2h841.8V595H0z" class="B"/></clipPath><clipPath id="d"><path d="M0-.2h841.8V595H0z" class="B"/></clipPath><clipPath id="e"><path d="M0-.2h841.8V595H0z" class="B"/></clipPath><clipPath id="f"><path d="M0-.2h841.8V595H0z" class="B"/></clipPath><clipPath id="g"><path d="M0-.2h841.8V595H0z" class="B"/></clipPath><clipPath id="h"><path d="M0-.2h841.8V595H0z" class="B"/></clipPath><clipPath id="i"><path d="M0-.2h841.8V595H0z" class="B"/></clipPath><clipPath id="j"><path d="M0-.2h841.8V595H0z" class="B"/></clipPath><clipPath id="k"><path d="M0-.2h841.8V595H0z" class="B"/></clipPath><clipPath id="l"><path d="M0-.2h841.8V595H0z" class="B"/></clipPath><clipPath id="m"><path d="M0-.2h841.8V595H0z" class="B"/></clipPath><clipPath id="n"><path d="M0-.2h841.8V595H0z" class="B"/></clipPath><clipPath id="o"><path d="M0-.2h841.8V595H0z" class="B"/></clipPath><clipPath id="p"><path d="M0-.2h841.8V595H0z" class="B"/></clipPath><clipPath id="q"><path d="M0-.2h841.8V595H0z" class="B"/></clipPath><clipPath id="r"><path d="M0-.2h841.8V595H0z" class="B"/></clipPath><clipPath id="s"><path d="M0-.2h841.8V595H0z" class="B"/></clipPath><clipPath id="t"><path d="M0-.2h841.8V595H0z" class="B"/></clipPath><path id="u" d="M184.3 481.6c-2.7 0-4.9.6-7.1 1.9-2.3 1.3-3.9 2.9-5.2 5.2s-1.9 4.5-1.9 7.1.6 4.8 1.9 7.1c1.3 2.2 2.9 3.9 5.2 5.2 2.2 1.3 4.4 1.9 7.1 1.9 2.6 0 4.8-.6 7-1.9 2.3-1.3 3.9-3 5.2-5.2 1.3-2.3 1.9-4.5 1.9-7.1s-.6-4.8-1.9-7.1-2.9-3.9-5.2-5.2c-2.2-1.3-4.4-1.9-7-1.9z"/><path id="v" d="M184.3 439.1c-2.7 0-4.9.6-7.1 1.9-2.3 1.3-3.9 2.9-5.2 5.2-1.3 2.2-1.9 4.5-1.9 7.1s.6 4.8 1.9 7.1c1.3 2.2 2.9 3.8 5.2 5.1 2.2 1.3 4.4 1.9 7.1 1.9 2.6 0 4.8-.6 7-1.9 2.3-1.3 3.9-2.9 5.2-5.1 1.3-2.3 1.9-4.5 1.9-7.1s-.6-4.9-1.9-7.1c-1.3-2.3-2.9-3.9-5.2-5.2-2.2-1.3-4.4-1.9-7-1.9z"/><path id="w" d="M184.3 396.6c-2.7 0-4.9.6-7.1 1.9-2.3 1.3-3.9 2.9-5.2 5.2-1.3 2.2-1.9 4.4-1.9 7 0 2.7.6 4.9 1.9 7.1 1.3 2.3 2.9 3.9 5.2 5.2 2.2 1.3 4.4 1.9 7.1 1.9 2.6 0 4.8-.6 7-1.9 2.3-1.3 3.9-2.9 5.2-5.2 1.3-2.2 1.9-4.4 1.9-7.1 0-2.6-.6-4.8-1.9-7-1.3-2.3-2.9-3.9-5.2-5.2-2.2-1.3-4.4-1.9-7-1.9z"/><path id="x" d="M184.3 354.1c-2.7 0-4.9.6-7.1 1.9-2.3 1.3-3.9 2.9-5.2 5.1-1.3 2.3-1.9 4.5-1.9 7.1s.6 4.8 1.9 7.1 2.9 3.9 5.2 5.2c2.2 1.3 4.4 1.9 7.1 1.9 2.6 0 4.8-.6 7-1.9 2.3-1.3 3.9-2.9 5.2-5.2s1.9-4.5 1.9-7.1-.6-4.8-1.9-7.1c-1.3-2.2-2.9-3.8-5.2-5.1-2.2-1.3-4.4-1.9-7-1.9z"/><path id="y" d="M184.3 311.5c-2.7 0-4.9.6-7.1 1.9-2.3 1.3-3.9 3-5.2 5.2-1.3 2.3-1.9 4.5-1.9 7.1s.6 4.8 1.9 7.1 2.9 3.9 5.2 5.2c2.2 1.3 4.4 1.9 7.1 1.9 2.6 0 4.8-.6 7-1.9 2.3-1.3 3.9-2.9 5.2-5.2s1.9-4.5 1.9-7.1-.6-4.8-1.9-7.1c-1.3-2.2-2.9-3.9-5.2-5.2-2.2-1.3-4.4-1.9-7-1.9z"/><path id="z" d="M326 439.1c-2.6 0-4.8.6-7.1 1.9s-3.9 2.9-5.2 5.2c-1.3 2.2-1.9 4.5-1.9 7.1s.6 4.8 1.9 7.1c1.3 2.2 2.9 3.8 5.2 5.1s4.5 1.9 7.1 1.9 4.8-.6 7.1-1.9c2.2-1.3 3.9-2.9 5.2-5.1 1.3-2.3 1.9-4.5 1.9-7.1s-.6-4.9-1.9-7.1c-1.3-2.3-3-3.9-5.2-5.2-2.3-1.3-4.5-1.9-7.1-1.9z"/><path id="AA" d="M326 396.6c-2.6 0-4.8.6-7.1 1.9s-3.9 2.9-5.2 5.2c-1.3 2.2-1.9 4.4-1.9 7 0 2.7.6 4.9 1.9 7.1 1.3 2.3 2.9 3.9 5.2 5.2s4.5 1.9 7.1 1.9 4.8-.6 7.1-1.9c2.2-1.3 3.9-2.9 5.2-5.2 1.3-2.2 1.9-4.4 1.9-7.1 0-2.6-.6-4.8-1.9-7-1.3-2.3-3-3.9-5.2-5.2-2.3-1.3-4.5-1.9-7.1-1.9z"/><path id="AB" d="M326 354.1c-2.6 0-4.8.6-7.1 1.9s-3.9 2.9-5.2 5.1c-1.3 2.3-1.9 4.5-1.9 7.1s.6 4.8 1.9 7.1 2.9 3.9 5.2 5.2 4.5 1.9 7.1 1.9 4.8-.6 7.1-1.9c2.2-1.3 3.9-2.9 5.2-5.2s1.9-4.5 1.9-7.1-.6-4.8-1.9-7.1c-1.3-2.2-3-3.8-5.2-5.1-2.3-1.3-4.5-1.9-7.1-1.9z"/><path id="AC" d="M326 311.5c-2.6 0-4.8.6-7.1 1.9s-3.9 3-5.2 5.2c-1.3 2.3-1.9 4.5-1.9 7.1s.6 4.8 1.9 7.1 2.9 3.9 5.2 5.2 4.5 1.9 7.1 1.9 4.8-.6 7.1-1.9c2.2-1.3 3.9-2.9 5.2-5.2s1.9-4.5 1.9-7.1-.6-4.8-1.9-7.1a14.4 14.4 0 0 0-5.2-5.2c-2.3-1.3-4.5-1.9-7.1-1.9z"/></defs><g clip-path="url(#A)" transform="matrix(1.333333 0 0 -1.333333 -192 697.33333)"><g transform="matrix(.999985 0 0 .999985 .000015 .000015)"><g clip-path="url(#B)" class="J K"><use xlink:href="#u"/></g><g clip-path="url(#C)" class="C D E H L"><use xlink:href="#u"/></g><g clip-path="url(#D)" class="J K"><use xlink:href="#v"/></g><g clip-path="url(#E)" class="C D E H L"><use xlink:href="#v"/></g><g clip-path="url(#F)" class="J K"><use xlink:href="#w"/></g><g clip-path="url(#G)" class="C D E H L"><use xlink:href="#w"/></g><g clip-path="url(#H)" class="J K"><use xlink:href="#x"/></g><g clip-path="url(#I)" class="C D E H L"><use xlink:href="#x"/></g><g clip-path="url(#J)" class="J K"><use xlink:href="#y"/></g><g clip-path="url(#K)" class="C D E H L"><use xlink:href="#y"/></g><g clip-path="url(#L)" class="J K"><use xlink:href="#u" y="-212.6"/></g><g clip-path="url(#M)" class="C D E H L"><use xlink:href="#u" y="-212.6"/></g><g clip-path="url(#N)" class="J K"><use xlink:href="#z"/></g><g clip-path="url(#O)" class="C D E H L"><use xlink:href="#z"/></g><g clip-path="url(#P)" class="J K"><use xlink:href="#AA"/></g><g clip-path="url(#Q)" class="C D E H L"><use xlink:href="#AA"/></g><g clip-path="url(#R)" class="J K"><use xlink:href="#AB"/></g><g clip-path="url(#S)" class="C D E H L"><use xlink:href="#AB"/></g><g clip-path="url(#T)" class="J K"><use xlink:href="#AC"/></g><g clip-path="url(#U)" class="C D E H L"><use xlink:href="#AC"/></g><g clip-path="url(#V)" class="C D E F M"><path d="M198.4 495.8l113.4-42.5"/></g><g clip-path="url(#W)" class="C D E F M"><path d="M198.4 368.2l113.4 42.5"/></g><g clip-path="url(#X)" class="C D E F M"><path d="M198.4 283.2l113.4 85"/></g><g clip-path="url(#Y)" class="C D E F"><path d="M198.4 283.2l113.4 85" stroke-width="6"/></g><g clip-path="url(#Z)" class="C D E I"><path d="M198.4 410.7l113.4-85" stroke-width="6"/></g><g clip-path="url(#a)" class="C D E I"><path d="M198.4 453.3l113.4-85.1" stroke-width="3"/></g><g clip-path="url(#b)" class="C D E I M"><path d="M198.4 283.2l113.4 170.1"/></g><g clip-path="url(#c)" class="C D E F G"><path d="M198.4 453.3l113.4-42.6"/></g><g clip-path="url(#d)" class="C D E F G"><path d="M198.4 325.7l113.4 85"/></g><g clip-path="url(#e)" class="C D E G I"><path d="M198.4 410.7l113.4-42.5"/></g><g clip-path="url(#f)" class="C D E G I"><path d="M198.4 325.7l113.4 127.6"/></g><g clip-path="url(#g)" class="C D E G I"><path d="M198.4 368.2h113.4"/></g><g clip-path="url(#h)" class="C D E F G"><path d="M198.4 495.8l113.4-127.6"/></g><g clip-path="url(#i)" class="C D E F G"><path d="M198.4 368.2l113.4-42.5"/></g><g clip-path="url(#j)" class="C D E G I"><path d="M198.4 495.8l113.4-170.1"/></g><g clip-path="url(#k)" class="C D E G I"><path d="M198.4 495.8l113.4-85.1"/></g><g clip-path="url(#l)" class="C D E F M"><path d="M198.4 453.3h113.4"/></g><g clip-path="url(#m)" class="C D E G I"><path d="M198.4 453.3l113.4-127.6"/></g><g clip-path="url(#n)" class="C D E F H"><path d="M198.4 410.7h113.4"/></g><g clip-path="url(#o)" class="C D E F G"><path d="M198.4 410.7l113.4 42.6"/></g><g clip-path="url(#p)" class="C D E F G"><path d="M198.4 368.2l113.4 85.1"/></g><g clip-path="url(#q)" class="C D E G I"><path d="M198.4 325.7l113.4 42.5"/></g><g clip-path="url(#r)" class="C D E F H"><path d="M198.4 283.2l113.4 42.5"/></g><g clip-path="url(#s)" class="C D E G I"><path d="M198.4 283.2l113.4 127.5"/></g><g clip-path="url(#t)" class="C D E F"><path d="M198.4 325.7h113.4" stroke-width="3"/></g></g><text transform="matrix(1 0 0 -1 253.7002 489.7005)" font-style="italic" font-weight="bold" font-size="18" writing-mode="lr-tb"><tspan x="0" y="0">W</tspan><tspan y="230.204" x="-51.001">x</tspan><tspan y="193.303" x="83.501">y</tspan></text></g></svg>