<svg xmlns="http://www.w3.org/2000/svg" xmlns:xlink="http://www.w3.org/1999/xlink" height="479" viewBox="0 0 360 358.56" width="481" stroke-linecap="butt" stroke-linejoin="round"><style><![CDATA[.B{stroke:#000}.C{stroke-width:.8}.D{stroke-linecap:butt}.E{stroke-linejoin:round}.F{stroke-linecap:square}.G{stroke-width:1.5}.H{clip-path:url(#L)}.I{stroke-linejoin:miter}]]></style><g fill="#fff"><path d="M0 358.56h360V0H0z"/><path d="M45 319.118h279V43.027H45z"/></g><defs><path d="M0 0v3.5" id="A" class="B C D E"/></defs><use x="57.682" xlink:href="#A" y="319.118" class="B C"/><defs><path d="M31.78 66.406q-7.61 0-11.453-7.5-3.828-7.484-3.828-22.53 0-14.984 3.828-22.484 3.844-7.5 11.453-7.5 7.672 0 11.5 7.5 3.844 7.5 3.844 22.484 0 15.047-3.844 22.53-3.828 7.5-11.5 7.5zm0 7.813q12.266 0 18.734-9.703 6.47-9.687 6.47-28.14 0-18.406-6.47-28.11-6.47-9.687-18.734-9.687-12.25 0-18.72 9.688-6.47 9.703-6.47 28.11 0 18.453 6.47 28.14 6.47 9.703 18.72 9.703z" id="B"/></defs><use xlink:href="#B" transform="matrix(.1 0 0 -.1 54.500568 333.716838)"/><use x="108.409" xlink:href="#A" y="319.118" class="B C"/><defs><path d="M12.406 8.297h16.11v55.625l-17.53-3.516v8.984l17.438 3.516h9.86V8.297h16.11V0H12.406z" id="C"/></defs><use xlink:href="#C" transform="matrix(.1 0 0 -.1 105.227841 333.716838)"/><use x="159.136" xlink:href="#A" y="319.118" class="B C"/><defs><path d="M19.188 8.297H53.61V0H7.328v8.297q5.61 5.813 15.297 15.594 9.703 9.797 12.188 12.64 4.734 5.313 6.61 9 1.89 3.688 1.89 7.25 0 5.813-4.078 9.47-4.078 3.672-10.625 3.672-4.64 0-9.797-1.61-5.14-1.61-11-4.89v9.97q5.953 2.39 11.125 3.61 5.188 1.22 9.484 1.22 11.328 0 18.063-5.672 6.734-5.656 6.734-15.125 0-4.5-1.687-8.53-1.672-4.016-6.125-9.484-1.22-1.422-7.766-8.187-6.53-6.766-18.453-18.922z" id="D"/></defs><use xlink:href="#D" transform="matrix(.1 0 0 -.1 155.955114 333.716838)"/><use x="209.864" xlink:href="#A" y="319.118" class="B C"/><defs><path d="M40.578 39.313Q47.656 37.797 51.625 33q3.984-4.78 3.984-11.812 0-10.78-7.422-16.703-7.422-5.906-21.094-5.906-4.578 0-9.437.906-4.86.906-10.03 2.72v9.516q4.094-2.39 8.97-3.61 4.89-1.22 10.22-1.22 9.266 0 14.125 3.656 4.86 3.656 4.86 10.64 0 6.453-4.516 10.078-4.516 3.64-12.562 3.64h-8.5v8.11h8.89q7.266 0 11.125 2.906 3.86 2.906 3.86 8.375 0 5.61-3.984 8.61-3.97 3.016-11.39 3.016-4.062 0-8.703-.89-4.64-.875-10.203-2.72v8.78q5.625 1.563 10.53 2.344 4.906.78 9.25.78 11.234 0 17.766-5.11 6.547-5.094 6.547-13.78 0-6.062-3.47-10.234-3.47-4.172-9.86-5.78z" id="E"/></defs><use xlink:href="#E" transform="matrix(.1 0 0 -.1 206.682386 333.716838)"/><use x="260.591" xlink:href="#A" y="319.118" class="B C"/><defs><path d="M37.797 64.313L12.89 25.39h24.906zm-2.594 8.594H47.61V25.39h10.406v-8.203H47.61V0h-9.812v17.188H4.89v9.516z" id="F"/></defs><use xlink:href="#F" transform="matrix(.1 0 0 -.1 257.409659 333.716838)"/><use x="311.318" xlink:href="#A" y="319.118" class="B C"/><defs><path d="M10.797 72.906h38.72v-8.312H19.828v-17.86q2.14.734 4.28 1.094 2.156.36 4.313.36 12.203 0 19.328-6.687 7.14-6.687 7.14-18.11 0-11.766-7.328-18.297-7.328-6.516-20.656-6.516-4.594 0-9.36.78-4.75.78-9.828 2.344v9.922q4.39-2.39 9.078-3.562 4.688-1.172 9.906-1.172 8.453 0 13.375 4.438 4.938 4.438 4.938 12.063 0 7.61-4.937 12.047-4.922 4.453-13.375 4.453-3.953 0-7.89-.875-3.922-.875-8.016-2.734z" id="G"/></defs><use xlink:href="#G" transform="matrix(.1 0 0 -.1 308.136932 333.716838)"/><defs><path d="M0 0h-3.5" id="H" class="B C D E"/></defs><use x="45" xlink:href="#H" y="309.695" class="B C"/><defs><path d="M10.688 12.406H21V0H10.688z" id="I"/></defs><g transform="matrix(.1 0 0 -.1 22.096875 313.494117)"><use xlink:href="#B"/><use x="63.623" xlink:href="#I"/><use x="95.41" xlink:href="#G"/></g><use x="45" xlink:href="#H" y="273.628" class="B C"/><g transform="matrix(.1 0 0 -.1 22.096875 277.427536)"><use xlink:href="#C"/><use x="63.623" xlink:href="#I"/><use x="95.41" xlink:href="#B"/></g><use x="45" xlink:href="#H" y="237.562" class="B C"/><g transform="matrix(.1 0 0 -.1 22.096875 241.360954)"><use xlink:href="#C"/><use x="63.623" xlink:href="#I"/><use x="95.41" xlink:href="#G"/></g><use x="45" xlink:href="#H" y="201.495" class="B C"/><g transform="matrix(.1 0 0 -.1 22.096875 205.294373)"><use xlink:href="#D"/><use x="63.623" xlink:href="#I"/><use x="95.41" xlink:href="#B"/></g><use x="45" xlink:href="#H" y="165.429" class="B C"/><g transform="matrix(.1 0 0 -.1 22.096875 169.227792)"><use xlink:href="#D"/><use x="63.623" xlink:href="#I"/><use x="95.41" xlink:href="#G"/></g><use x="45" xlink:href="#H" y="129.362" class="B C"/><g transform="matrix(.1 0 0 -.1 22.096875 133.16121)"><use xlink:href="#E"/><use x="63.623" xlink:href="#I"/><use x="95.41" xlink:href="#B"/></g><use x="45" xlink:href="#H" y="93.295" class="B C"/><g transform="matrix(.1 0 0 -.1 22.096875 97.094629)"><use xlink:href="#E"/><use x="63.623" xlink:href="#I"/><use x="95.41" xlink:href="#G"/></g><use x="45" xlink:href="#H" y="57.229" class="B C"/><g transform="matrix(.1 0 0 -.1 22.096875 61.028048)"><use xlink:href="#F"/><use x="63.623" xlink:href="#I"/><use x="95.41" xlink:href="#B"/></g><g fill="none" class="F"><g class="G H"><path d="M57.682 235.318l50.727 21.23 50.727-48.812 50.727 27.892 50.727-3.68 50.727-101.763" stroke="#1f77b4"/><path d="M57.682 256.382l50.727-13.722 50.727-111.765 50.727 175.674 50.727-23.557 50.727-227.435" stroke="#ff7f0e"/></g><g class="B C I"><path d="M45 319.118V43.027m279 276.09V43.027"/><path d="M45 319.118h279M45 43.027h279"/></g></g><path d="M52 80.383h38.348q2 0 2-2V50.027q0-2-2-2H52q-2 0-2 2v28.356q0 2 2 2z" fill="#fff" opacity=".8" stroke="#ccc" class="I"/><path d="M54 56.126h20" fill="none" stroke="#1f77b4" class="F G"/><defs><path d="M48.78 52.594v-8.406q-3.812 2.11-7.64 3.156-3.828 1.047-7.734 1.047-8.75 0-13.594-5.547-4.828-5.53-4.828-15.547 0-10.016 4.828-15.562 4.844-5.53 13.594-5.53 3.906 0 7.734 1.047 3.828 1.047 7.64 3.156V2.094Q45.016.344 40.984-.53q-4.016-.89-8.562-.89-12.36 0-19.64 7.766-7.266 7.766-7.266 20.953 0 13.375 7.344 21.03Q20.22 56 33.016 56q4.14 0 8.094-.86 3.953-.844 7.672-2.547z" id="J"/></defs><use xlink:href="#J" transform="matrix(.1 0 0 -.1 82 59.625637)"/><path d="M54 70.804h20" fill="none" stroke="#ff7f0e" class="F G"/><defs><path d="M48.688 27.297q0 9.906-4.078 15.547-4.078 5.64-11.203 5.64-7.14 0-11.22-5.64-4.078-5.64-4.078-15.547 0-9.906 4.078-15.547 4.078-5.64 11.22-5.64 7.125 0 11.203 5.64 4.078 5.64 4.078 15.547zM18.11 46.39q2.844 4.875 7.156 7.234Q29.594 56 35.594 56q9.97 0 16.188-7.906 6.234-7.906 6.234-20.797 0-12.89-6.234-20.812-6.22-7.906-16.187-7.906-6 0-10.328 2.375-4.312 2.375-7.156 7.25V0h-9.03v75.984h9.03z" id="K"/></defs><use xlink:href="#K" transform="matrix(.1 0 0 -.1 82 74.303763)"/><defs><clipPath id="L"><path d="M45 43.027h279v276.09H45z"/></clipPath></defs></svg>