<svg xmlns="http://www.w3.org/2000/svg" xmlns:xlink="http://www.w3.org/1999/xlink" height="479" viewBox="0 0 360 358.56" width="481" stroke-linecap="butt" stroke-linejoin="round"><style><![CDATA[.B{stroke:#000}.C{stroke-width:.8}.D{stroke-linecap:butt}.E{stroke-linejoin:round}]]></style><g fill="#fff"><path d="M0 358.56h360V0H0z"/><path d="M45 319.118h279V43.027H45z"/></g><defs><path d="M0 0v3.5" id="A" class="B C D E"/></defs><use x="83.045" xlink:href="#A" y="319.118" class="B C"/><defs><path d="M10.594 35.5h62.594v-8.297H10.594z" id="B"/><path d="M37.797 64.313L12.89 25.39h24.906zm-2.594 8.594H47.61V25.39h10.406v-8.203H47.61V0h-9.812v17.188H4.89v9.516z" id="C"/></defs><g transform="matrix(.1 0 0 -.1 75.674361 333.716838)"><use xlink:href="#B"/><use x="83.789" xlink:href="#C"/></g><use x="133.773" xlink:href="#A" y="319.118" class="B C"/><defs><path d="M19.188 8.297H53.61V0H7.328v8.297q5.61 5.813 15.297 15.594 9.703 9.797 12.188 12.64 4.734 5.313 6.61 9 1.89 3.688 1.89 7.25 0 5.813-4.078 9.47-4.078 3.672-10.625 3.672-4.64 0-9.797-1.61-5.14-1.61-11-4.89v9.97q5.953 2.39 11.125 3.61 5.188 1.22 9.484 1.22 11.328 0 18.063-5.672 6.734-5.656 6.734-15.125 0-4.5-1.687-8.53-1.672-4.016-6.125-9.484-1.22-1.422-7.766-8.187-6.53-6.766-18.453-18.922z" id="D"/></defs><g transform="matrix(.1 0 0 -.1 126.401634 333.716838)"><use xlink:href="#B"/><use x="83.789" xlink:href="#D"/></g><use x="184.5" xlink:href="#A" y="319.118" class="B C"/><defs><path d="M31.78 66.406q-7.61 0-11.453-7.5-3.828-7.484-3.828-22.53 0-14.984 3.828-22.484 3.844-7.5 11.453-7.5 7.672 0 11.5 7.5 3.844 7.5 3.844 22.484 0 15.047-3.844 22.53-3.828 7.5-11.5 7.5zm0 7.813q12.266 0 18.734-9.703 6.47-9.687 6.47-28.14 0-18.406-6.47-28.11-6.47-9.687-18.734-9.687-12.25 0-18.72 9.688-6.47 9.703-6.47 28.11 0 18.453 6.47 28.14 6.47 9.703 18.72 9.703z" id="E"/></defs><use xlink:href="#E" transform="matrix(.1 0 0 -.1 181.31875 333.716838)"/><use x="235.227" xlink:href="#A" y="319.118" class="B C"/><use xlink:href="#D" transform="matrix(.1 0 0 -.1 232.046023 333.716838)"/><use x="285.955" xlink:href="#A" y="319.118" class="B C"/><use xlink:href="#C" transform="matrix(.1 0 0 -.1 282.773295 333.716838)"/><defs><path d="M54.89 54.688l-19.78-26.61L55.906 0H45.313L29.39 21.484 13.484 0H2.875l21.25 28.61L4.688 54.688H15.28l14.5-19.484 14.5 19.484z" id="F"/></defs><use xlink:href="#F" transform="matrix(.1 0 0 -.1 181.540625 347.394963)"/><defs><path d="M0 0h-3.5" id="G" class="B C D E"/></defs><use x="45" xlink:href="#G" y="308.271" class="B C"/><defs><path d="M10.688 12.406H21V0H10.688z" id="H"/></defs><g transform="matrix(.1 0 0 -.1 22.096875 312.070662)"><use xlink:href="#E"/><use x="63.623" xlink:href="#H"/><use x="95.41" xlink:href="#E"/></g><use x="45" xlink:href="#G" y="257.392" class="B C"/><g transform="matrix(.1 0 0 -.1 22.096875 261.191205)"><use xlink:href="#E"/><use x="63.623" xlink:href="#H"/><use x="95.41" xlink:href="#D"/></g><use x="45" xlink:href="#G" y="206.513" class="B C"/><g transform="matrix(.1 0 0 -.1 22.096875 210.311747)"><use xlink:href="#E"/><use x="63.623" xlink:href="#H"/><use x="95.41" xlink:href="#C"/></g><use x="45" xlink:href="#G" y="155.633" class="B C"/><defs><path d="M33.016 40.375q-6.64 0-10.53-4.547-3.875-4.53-3.875-12.437 0-7.86 3.875-12.437 3.89-4.562 10.53-4.562 6.64 0 10.516 4.563 3.875 4.578 3.875 12.438 0 7.906-3.875 12.438-3.875 4.547-10.516 4.547zm19.578 30.922v-8.984q-3.72 1.75-7.5 2.672-3.78.938-7.5.938-9.766 0-14.922-6.594-5.14-6.594-5.875-19.922 2.875 4.25 7.22 6.516 4.36 2.266 9.578 2.266 10.984 0 17.36-6.672 6.375-6.656 6.375-18.125 0-11.234-6.64-18.03-6.64-6.78-17.672-6.78-12.656 0-19.344 9.688-6.687 9.703-6.687 28.11 0 17.28 8.203 27.563 8.203 10.28 22.016 10.28 3.72 0 7.5-.734 3.78-.734 7.89-2.187z" id="I"/></defs><g transform="matrix(.1 0 0 -.1 22.096875 159.43229)"><use xlink:href="#E"/><use x="63.623" xlink:href="#H"/><use x="95.41" xlink:href="#I"/></g><use x="45" xlink:href="#G" y="104.754" class="B C"/><defs><path d="M31.78 34.625q-7.03 0-11.062-3.766-4.016-3.766-4.016-10.344 0-6.594 4.016-10.36Q24.75 6.39 31.78 6.39q7.03 0 11.078 3.78 4.063 3.797 4.063 10.344 0 6.578-4.03 10.344-4.016 3.766-11.11 3.766zm-9.86 4.188q-6.344 1.563-9.89 5.906-3.53 4.36-3.53 10.61 0 8.734 6.22 13.813 6.234 5.078 17.063 5.078 10.89 0 17.094-5.078 6.203-5.078 6.203-13.812 0-6.25-3.547-10.61-3.53-4.344-9.828-5.906 7.125-1.656 11.094-6.5 3.984-4.828 3.984-11.797 0-10.61-6.47-16.28-6.47-5.656-18.53-5.656-12.047 0-18.53 5.656-6.47 5.672-6.47 16.28 0 6.97 4 11.797 4.016 4.844 11.14 6.5zm-3.61 15.578q0-5.656 3.53-8.828 3.547-3.172 9.938-3.172 6.36 0 9.938 3.172 3.594 3.172 3.594 8.828 0 5.672-3.594 8.844-3.578 3.172-9.937 3.172-6.39 0-9.937-3.172-3.53-3.172-3.53-8.844z" id="J"/></defs><g transform="matrix(.1 0 0 -.1 22.096875 108.552833)"><use xlink:href="#E"/><use x="63.623" xlink:href="#H"/><use x="95.41" xlink:href="#J"/></g><use x="45" xlink:href="#G" y="53.874" class="B C"/><defs><path d="M12.406 8.297h16.11v55.625l-17.53-3.516v8.984l17.438 3.516h9.86V8.297h16.11V0H12.406z" id="K"/></defs><g transform="matrix(.1 0 0 -.1 22.096875 57.673376)"><use xlink:href="#K"/><use x="63.623" xlink:href="#H"/><use x="95.41" xlink:href="#E"/></g><defs><path d="M32.172-5.078q-3.797-9.766-7.422-12.734-3.61-2.984-9.656-2.984H7.906v7.516h5.28q3.703 0 5.75 1.766Q21-9.766 23.484-3.22l1.61 4.094-22.11 53.813H12.5l17.094-42.766 17.094 42.766h9.516z" id="L"/></defs><use xlink:href="#L" transform="matrix(0 -.1 -.1 0 16.017187 184.032175)"/><g stroke-linecap="square" fill="none"><path clip-path="url(#M)" d="M57.682 306.57l2.562-.18 2.562-.198 2.562-.22 2.562-.242 2.562-.267 2.562-.295 2.562-.325 2.562-.36 2.562-.396 2.562-.437 2.562-.48 2.562-.53 2.562-.584 2.562-.643 2.562-.707 2.562-.778 2.562-.855 2.562-.94 2.562-1.03 2.562-1.13 2.562-1.238 2.562-1.355 2.562-1.48 2.562-1.617 2.562-1.764 2.562-1.92 2.562-2.09 2.562-2.267 2.562-2.457 2.562-2.657 2.562-2.868 2.562-3.088 2.562-3.317 2.562-3.553 2.562-3.796 2.562-4.043 2.562-4.292 2.562-4.54 2.562-4.788 2.562-5.028 2.562-5.26 2.562-5.48 2.562-5.683 2.562-5.868 2.562-6.03 2.562-6.168 2.562-6.278 2.562-6.358 2.562-6.406 5.124-12.83 2.562-6.358 2.562-6.278 2.562-6.168 2.562-6.03 2.562-5.868 2.562-5.683 2.562-5.48 2.562-5.26 2.562-5.028 2.562-4.788 2.562-4.54 2.562-4.292 2.562-4.043 2.562-3.796 2.562-3.553 2.562-3.317 2.562-3.088 2.562-2.868 2.562-2.657 2.562-2.457 2.562-2.267 2.562-2.088 2.562-1.92 2.562-1.764 2.562-1.617 2.562-1.48 2.562-1.355 2.562-1.238 2.562-1.13 2.562-1.03 2.562-.94 2.562-.855 2.562-.778 2.562-.707 2.562-.643 2.562-.584 2.562-.53 2.562-.48 2.562-.437 2.562-.396 2.562-.36 2.562-.325 2.562-.295 2.562-.267 2.562-.242 2.562-.22 2.562-.198 2.562-.18" stroke="#1f77b4" stroke-width="1.5"/><g stroke-linejoin="miter" class="B C"><path d="M45 319.118V43.027m279 276.09V43.027"/><path d="M45 319.118h279M45 43.027h279"/></g></g><defs><clipPath id="M"><path d="M45 43.027h279v276.09H45z"/></clipPath></defs></svg>