<svg xmlns="http://www.w3.org/2000/svg" xmlns:xlink="http://www.w3.org/1999/xlink" height="479" viewBox="0 0 360 358.56" width="481" stroke-linecap="butt" stroke-linejoin="round"><style><![CDATA[.B{stroke:#000}.C{stroke-width:.8}.D{stroke-linecap:butt}.E{stroke-linejoin:round}]]></style><g fill="#fff"><path d="M0 358.56h360V0H0z"/><path d="M45 319.118h279V43.027H45z"/></g><defs><path d="M0 0v3.5" id="A" class="B C D E"/></defs><use x="57.682" xlink:href="#A" y="319.118" class="B C"/><defs><path d="M31.78 66.406q-7.61 0-11.453-7.5-3.828-7.484-3.828-22.53 0-14.984 3.828-22.484 3.844-7.5 11.453-7.5 7.672 0 11.5 7.5 3.844 7.5 3.844 22.484 0 15.047-3.844 22.53-3.828 7.5-11.5 7.5zm0 7.813q12.266 0 18.734-9.703 6.47-9.687 6.47-28.14 0-18.406-6.47-28.11-6.47-9.687-18.734-9.687-12.25 0-18.72 9.688-6.47 9.703-6.47 28.11 0 18.453 6.47 28.14 6.47 9.703 18.72 9.703z" id="B"/><path d="M10.688 12.406H21V0H10.688z" id="C"/></defs><g transform="matrix(.1 0 0 -.1 49.730256 333.716838)"><use xlink:href="#B"/><use x="63.623" xlink:href="#C"/><use x="95.41" xlink:href="#B"/></g><use x="91.055" xlink:href="#A" y="319.118" class="B C"/><defs><path d="M19.188 8.297H53.61V0H7.328v8.297q5.61 5.813 15.297 15.594 9.703 9.797 12.188 12.64 4.734 5.313 6.61 9 1.89 3.688 1.89 7.25 0 5.813-4.078 9.47-4.078 3.672-10.625 3.672-4.64 0-9.797-1.61-5.14-1.61-11-4.89v9.97q5.953 2.39 11.125 3.61 5.188 1.22 9.484 1.22 11.328 0 18.063-5.672 6.734-5.656 6.734-15.125 0-4.5-1.687-8.53-1.672-4.016-6.125-9.484-1.22-1.422-7.766-8.187-6.53-6.766-18.453-18.922z" id="D"/><path d="M10.797 72.906h38.72v-8.312H19.828v-17.86q2.14.734 4.28 1.094 2.156.36 4.313.36 12.203 0 19.328-6.687 7.14-6.687 7.14-18.11 0-11.766-7.328-18.297-7.328-6.516-20.656-6.516-4.594 0-9.36.78-4.75.78-9.828 2.344v9.922q4.39-2.39 9.078-3.562 4.688-1.172 9.906-1.172 8.453 0 13.375 4.438 4.938 4.438 4.938 12.063 0 7.61-4.937 12.047-4.922 4.453-13.375 4.453-3.953 0-7.89-.875-3.922-.875-8.016-2.734z" id="E"/></defs><g transform="matrix(.1 0 0 -.1 83.103461 333.716838)"><use xlink:href="#D"/><use x="63.623" xlink:href="#C"/><use x="95.41" xlink:href="#E"/></g><use x="124.428" xlink:href="#A" y="319.118" class="B C"/><g transform="matrix(.1 0 0 -.1 116.476667 333.716838)"><use xlink:href="#E"/><use x="63.623" xlink:href="#C"/><use x="95.41" xlink:href="#B"/></g><use x="157.801" xlink:href="#A" y="319.118" class="B C"/><defs><path d="M8.203 72.906h46.875v-4.203L28.61 0H18.313L43.22 64.594H8.203z" id="F"/></defs><g transform="matrix(.1 0 0 -.1 149.849873 333.716838)"><use xlink:href="#F"/><use x="63.623" xlink:href="#C"/><use x="95.41" xlink:href="#E"/></g><use x="191.175" xlink:href="#A" y="319.118" class="B C"/><defs><path d="M12.406 8.297h16.11v55.625l-17.53-3.516v8.984l17.438 3.516h9.86V8.297h16.11V0H12.406z" id="G"/></defs><g transform="matrix(.1 0 0 -.1 180.041829 333.716838)"><use xlink:href="#G"/><use x="63.623" xlink:href="#B"/><use x="127.246" xlink:href="#C"/><use x="159.033" xlink:href="#B"/></g><use x="224.548" xlink:href="#A" y="319.118" class="B C"/><g transform="matrix(.1 0 0 -.1 213.415034 333.716838)"><use xlink:href="#G"/><use x="63.623" xlink:href="#D"/><use x="127.246" xlink:href="#C"/><use x="159.033" xlink:href="#E"/></g><use x="257.921" xlink:href="#A" y="319.118" class="B C"/><g transform="matrix(.1 0 0 -.1 246.78824 333.716838)"><use xlink:href="#G"/><use x="63.623" xlink:href="#E"/><use x="127.246" xlink:href="#C"/><use x="159.033" xlink:href="#B"/></g><use x="291.294" xlink:href="#A" y="319.118" class="B C"/><g transform="matrix(.1 0 0 -.1 280.161446 333.716838)"><use xlink:href="#G"/><use x="63.623" xlink:href="#F"/><use x="127.246" xlink:href="#C"/><use x="159.033" xlink:href="#E"/></g><defs><path d="M56.203 29.594v-4.39H14.89q.594-9.28 5.594-14.14 5-4.86 13.938-4.86 5.172 0 10.03 1.266 4.86 1.266 9.656 3.813v-8.5Q49.266.734 44.188-.344 39.11-1.422 33.89-1.422q-13.094 0-20.734 7.61-7.64 7.625-7.64 20.625 0 13.422 7.25 21.297Q20.016 56 32.328 56q11.03 0 17.453-7.11 6.422-7.094 6.422-19.297zm-8.984 2.64q-.094 7.36-4.125 11.75-4.03 4.406-10.672 4.406-7.516 0-12.03-4.25-4.516-4.25-5.203-11.97z" id="H"/><path d="M18.11 8.203v-29h-9.03v75.484h9.03V46.39q2.844 4.875 7.156 7.234Q29.594 56 35.594 56q9.97 0 16.188-7.906 6.234-7.906 6.234-20.797 0-12.89-6.234-20.812-6.22-7.906-16.187-7.906-6 0-10.328 2.375-4.312 2.375-7.156 7.25zm30.578 19.094q0 9.906-4.078 15.547-4.078 5.64-11.203 5.64-7.14 0-11.22-5.64-4.078-5.64-4.078-15.547 0-9.906 4.078-15.547 4.078-5.64 11.22-5.64 7.125 0 11.203 5.64 4.078 5.64 4.078 15.547z" id="I"/><path d="M30.61 48.39q-7.22 0-11.422-5.64-4.203-5.64-4.203-15.453 0-9.812 4.172-15.453 4.188-5.64 11.453-5.64 7.188 0 11.375 5.656 4.203 5.672 4.203 15.438 0 9.72-4.203 15.406-4.187 5.688-11.375 5.688zm0 7.61q11.72 0 18.406-7.625 6.703-7.61 6.703-21.078 0-13.422-6.703-21.078-6.687-7.64-18.406-7.64-11.766 0-18.437 7.64-6.656 7.656-6.656 21.078 0 13.47 6.656 21.078Q18.844 56 30.61 56z" id="J"/><path d="M48.78 52.594v-8.406q-3.812 2.11-7.64 3.156-3.828 1.047-7.734 1.047-8.75 0-13.594-5.547-4.828-5.53-4.828-15.547 0-10.016 4.828-15.562 4.844-5.53 13.594-5.53 3.906 0 7.734 1.047 3.828 1.047 7.64 3.156V2.094Q45.016.344 40.984-.53q-4.016-.89-8.562-.89-12.36 0-19.64 7.766-7.266 7.766-7.266 20.953 0 13.375 7.344 21.03Q20.22 56 33.016 56q4.14 0 8.094-.86 3.953-.844 7.672-2.547z" id="K"/><path d="M54.89 33.016V0h-8.984v32.72q0 7.766-3.03 11.61-3.03 3.86-9.078 3.86-7.28 0-11.484-4.64-4.203-4.625-4.203-12.64V0h-9.03v75.984h9.03V46.188q3.234 4.938 7.594 7.375Q30.078 56 35.797 56q9.422 0 14.25-5.828 4.844-5.828 4.844-17.156z" id="L"/></defs><g transform="matrix(.1 0 0 -.1 169.271875 347.394963)"><use xlink:href="#H"/><use x="61.523" xlink:href="#I"/><use x="125" xlink:href="#J"/><use x="186.182" xlink:href="#K"/><use x="241.162" xlink:href="#L"/></g><defs><path d="M0 0h-3.5" id="M" class="B C D E"/></defs><use x="45" xlink:href="#M" y="281.492" class="B C"/><defs><path d="M10.594 35.5h62.594v-8.297H10.594z" id="N"/></defs><g transform="matrix(.1 0 0 -.1 14.5 285.290935)"><use xlink:href="#G" y=".766"/><use xlink:href="#B" x="63.623" y=".766"/><use transform="matrix(.7 0 0 .7 128.203125 39.046875)" xlink:href="#N"/><use transform="matrix(.7 0 0 .7 186.855469 39.046875)" xlink:href="#D"/></g><use x="45" xlink:href="#M" y="200.79" class="B C"/><g transform="matrix(.1 0 0 -.1 14.5 204.588954)"><use xlink:href="#G" y=".684"/><use xlink:href="#B" x="63.623" y=".684"/><use transform="matrix(.7 0 0 .7 128.203125 38.965625)" xlink:href="#N"/><use transform="matrix(.7 0 0 .7 186.855469 38.965625)" xlink:href="#G"/></g><use x="45" xlink:href="#M" y="120.088" class="B C"/><g transform="matrix(.1 0 0 -.1 20.4 123.886973)"><use xlink:href="#G" y=".766"/><use xlink:href="#B" x="63.623" y=".766"/><use transform="matrix(.7 0 0 .7 128.203125 39.046875)" xlink:href="#B"/></g><defs><path d="M0 0h-2" id="O" stroke-width=".6" class="B D E"/></defs><g stroke-width=".6" class="B"><use x="45" xlink:href="#O" y="313.606"/><use x="45" xlink:href="#O" y="305.785"/><use x="45" xlink:href="#O" y="299.395"/><use x="45" xlink:href="#O" y="293.993"/><use x="45" xlink:href="#O" y="289.313"/><use x="45" xlink:href="#O" y="285.184"/><use x="45" xlink:href="#O" y="257.198"/><use x="45" xlink:href="#O" y="242.987"/><use x="45" xlink:href="#O" y="232.904"/><use x="45" xlink:href="#O" y="225.083"/><use x="45" xlink:href="#O" y="218.693"/><use x="45" xlink:href="#O" y="213.291"/><use x="45" xlink:href="#O" y="208.611"/><use x="45" xlink:href="#O" y="204.482"/><use x="45" xlink:href="#O" y="176.496"/><use x="45" xlink:href="#O" y="162.285"/><use x="45" xlink:href="#O" y="152.202"/><use x="45" xlink:href="#O" y="144.381"/><use x="45" xlink:href="#O" y="137.991"/><use x="45" xlink:href="#O" y="132.589"/><use x="45" xlink:href="#O" y="127.909"/><use x="45" xlink:href="#O" y="123.78"/><use x="45" xlink:href="#O" y="95.794"/><use x="45" xlink:href="#O" y="81.583"/><use x="45" xlink:href="#O" y="71.5"/><use x="45" xlink:href="#O" y="63.679"/><use x="45" xlink:href="#O" y="57.289"/><use x="45" xlink:href="#O" y="51.887"/><use x="45" xlink:href="#O" y="47.207"/><use x="45" xlink:href="#O" y="43.078"/></g><defs><path d="M64.406 67.28V56.89q-4.984 4.64-10.625 6.922-5.64 2.297-11.984 2.297-12.5 0-19.14-7.64-6.64-7.64-6.64-22.094 0-14.406 6.64-22.047 6.64-7.64 19.14-7.64 6.344 0 11.984 2.297 5.64 2.297 10.625 6.938V5.61q-5.172-3.516-10.97-5.28-5.78-1.75-12.22-1.75-16.562 0-26.094 10.125Q5.61 18.844 5.61 36.375q0 17.578 9.516 27.703 9.53 10.14 26.094 10.14 6.53 0 12.313-1.734 5.797-1.734 10.875-5.203z" id="P"/><path d="M41.11 46.297q-1.516.875-3.297 1.28Q36.03 48 33.89 48q-7.625 0-11.703-4.953-4.078-4.953-4.078-14.234V0h-9.03v54.688h9.03v-8.5q2.844 4.984 7.375 7.39Q30.03 56 36.53 56q.922 0 2.047-.125 1.125-.11 2.484-.36z" id="Q"/><path d="M44.28 53.078v-8.5q-3.797 1.953-7.906 2.922-4.094.984-8.5.984-6.687 0-10.03-2.047Q14.5 44.39 14.5 40.28q0-3.125 2.39-4.906 2.39-1.78 9.625-3.39l3.078-.687q9.563-2.047 13.594-5.78 4.03-3.734 4.03-10.422 0-7.625-6.03-12.078-6.03-4.437-16.578-4.437-4.39 0-9.156.86Q10.688.297 5.422 2v9.28q4.984-2.594 9.813-3.89 4.828-1.28 9.578-1.28 6.344 0 9.75 2.172 3.422 2.172 3.422 6.125 0 3.656-2.47 5.61-2.453 1.953-10.812 3.766l-3.125.734q-8.344 1.75-12.062 5.39-3.703 3.64-3.703 9.984 0 7.72 5.47 11.906Q16.75 56 26.813 56q4.97 0 9.36-.734 4.406-.72 8.11-2.187z" id="R"/><path d="M54.89 33.016V0h-8.984v32.72q0 7.766-3.03 11.61-3.03 3.86-9.078 3.86-7.28 0-11.484-4.64-4.203-4.625-4.203-12.64V0h-9.03v54.688h9.03v-8.5q3.234 4.938 7.594 7.375Q30.078 56 35.797 56q9.422 0 14.25-5.828 4.844-5.828 4.844-17.156z" id="S"/><path d="M18.313 70.22v-15.53h18.5v-6.984h-18.5V18.016q0-6.687 1.828-8.594 1.828-1.906 7.453-1.906h9.22V0h-9.22q-10.406 0-14.36 3.875-3.953 3.89-3.953 14.14v29.688H2.688v6.984H9.28v15.53z" id="T"/><path d="M32.172-5.078q-3.797-9.766-7.422-12.734-3.61-2.984-9.656-2.984H7.906v7.516h5.28q3.703 0 5.75 1.766Q21-9.766 23.484-3.22l1.61 4.094-22.11 53.813H12.5l17.094-42.766 17.094 42.766h9.516z" id="U"/></defs><g transform="matrix(0 -.1 -.1 0 8.420312 215.928269)"><use xlink:href="#P"/><use x="69.824" xlink:href="#Q"/><use x="110.906" xlink:href="#J"/><use x="172.088" xlink:href="#R"/><use x="224.188" xlink:href="#R"/><use x="276.287" xlink:href="#BP"/><use x="308.074" xlink:href="#H"/><use x="369.598" xlink:href="#S"/><use x="432.977" xlink:href="#T"/><use x="472.186" xlink:href="#Q"/><use x="513.268" xlink:href="#J"/><use x="574.449" xlink:href="#I"/><use x="637.926" xlink:href="#U"/></g><g stroke-linecap="square" fill="none"><path clip-path="url(#V)" d="M57.682 55.577l13.35 4.973 13.35 6.273 13.35 7.6 13.35 10.712 13.35 10.546 13.35 7.053 13.35 6.405 13.35 9.343 13.35 7.803 13.35 9.08 13.35 12.758 13.35 16.63 13.35 19.042 13.35 30.498 13.35 58.625 13.35 29.23 13.35 2.318 13.35-2.136 13.35 4.23" stroke="#1f77b4" stroke-width="1.5"/><g stroke-linejoin="miter" class="B C"><path d="M45 319.118V43.027m279 276.09V43.027"/><path d="M45 319.118h279M45 43.027h279"/></g></g><defs><clipPath id="V"><path d="M45 43.027h279v276.09H45z"/></clipPath></defs></svg>