<svg xmlns="http://www.w3.org/2000/svg" xmlns:xlink="http://www.w3.org/1999/xlink" height="479" viewBox="0 0 360 358.56" width="481" stroke-linecap="butt" stroke-linejoin="round"><style><![CDATA[.B{stroke:#000}.C{stroke-width:.8}.D{stroke-linecap:square}.E{fill:none}.F{clip-path:url(#e)}.G{stroke-width:1.5}.H{stroke-linejoin:miter}.I{stroke-linejoin:round}.J{stroke-linecap:butt}.K{stroke:#1f77b4}.L{stroke:#ff7f0e}.M{stroke:#2ca02c}.N{stroke:#d62728}.O{stroke:#9467bd}.P{stroke:#8c564b}]]></style><g fill="#fff"><path d="M0 358.56h360V0H0z"/><path d="M55.88 316.768h290.8v-303.5H55.88z"/></g><defs><path d="M0 0v3.5" id="A" class="B C I J"/></defs><use x="69.099" xlink:href="#A" y="316.768" class="B C"/><defs><path d="M31.78 66.406q-7.61 0-11.453-7.5-3.828-7.484-3.828-22.53 0-14.984 3.828-22.484 3.844-7.5 11.453-7.5 7.672 0 11.5 7.5 3.844 7.5 3.844 22.484 0 15.047-3.844 22.53-3.828 7.5-11.5 7.5zm0 7.813q12.266 0 18.734-9.703 6.47-9.687 6.47-28.14 0-18.406-6.47-28.11-6.47-9.687-18.734-9.687-12.25 0-18.72 9.688-6.47 9.703-6.47 28.11 0 18.453 6.47 28.14 6.47 9.703 18.72 9.703z" id="B"/><path d="M10.688 12.406H21V0H10.688z" id="C"/></defs><g transform="matrix(.1 0 0 -.1 61.14695 331.366278)"><use xlink:href="#B"/><use x="63.623" xlink:href="#C"/><use x="95.41" xlink:href="#B"/></g><use x="103.883" xlink:href="#A" y="316.768" class="B C"/><defs><path d="M19.188 8.297H53.61V0H7.328v8.297q5.61 5.813 15.297 15.594 9.703 9.797 12.188 12.64 4.734 5.313 6.61 9 1.89 3.688 1.89 7.25 0 5.813-4.078 9.47-4.078 3.672-10.625 3.672-4.64 0-9.797-1.61-5.14-1.61-11-4.89v9.97q5.953 2.39 11.125 3.61 5.188 1.22 9.484 1.22 11.328 0 18.063-5.672 6.734-5.656 6.734-15.125 0-4.5-1.687-8.53-1.672-4.016-6.125-9.484-1.22-1.422-7.766-8.187-6.53-6.766-18.453-18.922z" id="D"/><path d="M10.797 72.906h38.72v-8.312H19.828v-17.86q2.14.734 4.28 1.094 2.156.36 4.313.36 12.203 0 19.328-6.687 7.14-6.687 7.14-18.11 0-11.766-7.328-18.297-7.328-6.516-20.656-6.516-4.594 0-9.36.78-4.75.78-9.828 2.344v9.922q4.39-2.39 9.078-3.562 4.688-1.172 9.906-1.172 8.453 0 13.375 4.438 4.938 4.438 4.938 12.063 0 7.61-4.937 12.047-4.922 4.453-13.375 4.453-3.953 0-7.89-.875-3.922-.875-8.016-2.734z" id="E"/></defs><g transform="matrix(.1 0 0 -.1 95.931597 331.366278)"><use xlink:href="#D"/><use x="63.623" xlink:href="#C"/><use x="95.41" xlink:href="#E"/></g><use x="138.668" xlink:href="#A" y="316.768" class="B C"/><g transform="matrix(.1 0 0 -.1 130.716245 331.366278)"><use xlink:href="#E"/><use x="63.623" xlink:href="#C"/><use x="95.41" xlink:href="#B"/></g><use x="173.452" xlink:href="#A" y="316.768" class="B C"/><defs><path d="M8.203 72.906h46.875v-4.203L28.61 0H18.313L43.22 64.594H8.203z" id="F"/></defs><g transform="matrix(.1 0 0 -.1 165.500892 331.366278)"><use xlink:href="#F"/><use x="63.623" xlink:href="#C"/><use x="95.41" xlink:href="#E"/></g><use x="208.237" xlink:href="#A" y="316.768" class="B C"/><defs><path d="M12.406 8.297h16.11v55.625l-17.53-3.516v8.984l17.438 3.516h9.86V8.297h16.11V0H12.406z" id="G"/></defs><g transform="matrix(.1 0 0 -.1 197.10429 331.366278)"><use xlink:href="#G"/><use x="63.623" xlink:href="#B"/><use x="127.246" xlink:href="#C"/><use x="159.033" xlink:href="#B"/></g><use x="243.022" xlink:href="#A" y="316.768" class="B C"/><g transform="matrix(.1 0 0 -.1 231.888938 331.366278)"><use xlink:href="#G"/><use x="63.623" xlink:href="#D"/><use x="127.246" xlink:href="#C"/><use x="159.033" xlink:href="#E"/></g><use x="277.806" xlink:href="#A" y="316.768" class="B C"/><g transform="matrix(.1 0 0 -.1 266.673585 331.366278)"><use xlink:href="#G"/><use x="63.623" xlink:href="#E"/><use x="127.246" xlink:href="#C"/><use x="159.033" xlink:href="#B"/></g><use x="312.591" xlink:href="#A" y="316.768" class="B C"/><g transform="matrix(.1 0 0 -.1 301.458233 331.366278)"><use xlink:href="#G"/><use x="63.623" xlink:href="#F"/><use x="127.246" xlink:href="#C"/><use x="159.033" xlink:href="#E"/></g><defs><path d="M56.203 29.594v-4.39H14.89q.594-9.28 5.594-14.14 5-4.86 13.938-4.86 5.172 0 10.03 1.266 4.86 1.266 9.656 3.813v-8.5Q49.266.734 44.188-.344 39.11-1.422 33.89-1.422q-13.094 0-20.734 7.61-7.64 7.625-7.64 20.625 0 13.422 7.25 21.297Q20.016 56 32.328 56q11.03 0 17.453-7.11 6.422-7.094 6.422-19.297zm-8.984 2.64q-.094 7.36-4.125 11.75-4.03 4.406-10.672 4.406-7.516 0-12.03-4.25-4.516-4.25-5.203-11.97z" id="H"/><path d="M18.11 8.203v-29h-9.03v75.484h9.03V46.39q2.844 4.875 7.156 7.234Q29.594 56 35.594 56q9.97 0 16.188-7.906 6.234-7.906 6.234-20.797 0-12.89-6.234-20.812-6.22-7.906-16.187-7.906-6 0-10.328 2.375-4.312 2.375-7.156 7.25zm30.578 19.094q0 9.906-4.078 15.547-4.078 5.64-11.203 5.64-7.14 0-11.22-5.64-4.078-5.64-4.078-15.547 0-9.906 4.078-15.547 4.078-5.64 11.22-5.64 7.125 0 11.203 5.64 4.078 5.64 4.078 15.547z" id="I"/><path d="M30.61 48.39q-7.22 0-11.422-5.64-4.203-5.64-4.203-15.453 0-9.812 4.172-15.453 4.188-5.64 11.453-5.64 7.188 0 11.375 5.656 4.203 5.672 4.203 15.438 0 9.72-4.203 15.406-4.187 5.688-11.375 5.688zm0 7.61q11.72 0 18.406-7.625 6.703-7.61 6.703-21.078 0-13.422-6.703-21.078-6.687-7.64-18.406-7.64-11.766 0-18.437 7.64-6.656 7.656-6.656 21.078 0 13.47 6.656 21.078Q18.844 56 30.61 56z" id="J"/><path d="M48.78 52.594v-8.406q-3.812 2.11-7.64 3.156-3.828 1.047-7.734 1.047-8.75 0-13.594-5.547-4.828-5.53-4.828-15.547 0-10.016 4.828-15.562 4.844-5.53 13.594-5.53 3.906 0 7.734 1.047 3.828 1.047 7.64 3.156V2.094Q45.016.344 40.984-.53q-4.016-.89-8.562-.89-12.36 0-19.64 7.766-7.266 7.766-7.266 20.953 0 13.375 7.344 21.03Q20.22 56 33.016 56q4.14 0 8.094-.86 3.953-.844 7.672-2.547z" id="K"/><path d="M54.89 33.016V0h-8.984v32.72q0 7.766-3.03 11.61-3.03 3.86-9.078 3.86-7.28 0-11.484-4.64-4.203-4.625-4.203-12.64V0h-9.03v75.984h9.03V46.188q3.234 4.938 7.594 7.375Q30.078 56 35.797 56q9.422 0 14.25-5.828 4.844-5.828 4.844-17.156z" id="L"/></defs><g transform="matrix(.1 0 0 -.1 186.052048 345.044403)"><use xlink:href="#H"/><use x="61.523" xlink:href="#I"/><use x="125" xlink:href="#J"/><use x="186.182" xlink:href="#K"/><use x="241.162" xlink:href="#L"/></g><defs><path d="M0 0h-3.5" id="M" class="B C I J"/></defs><use x="55.88" xlink:href="#M" y="284.166" class="B C"/><defs><path d="M10.594 35.5h62.594v-8.297H10.594z" id="N"/></defs><g transform="matrix(.1 0 0 -.1 25.380346 287.965091)"><use xlink:href="#G" y=".684"/><use xlink:href="#B" x="63.623" y=".684"/><use transform="matrix(.7 0 0 .7 128.203125 38.965625)" xlink:href="#N"/><use transform="matrix(.7 0 0 .7 186.855469 38.965625)" xlink:href="#F"/></g><use x="55.88" xlink:href="#M" y="240.397" class="B C"/><g transform="matrix(.1 0 0 -.1 25.380346 244.196473)"><use xlink:href="#G" y=".684"/><use xlink:href="#B" x="63.623" y=".684"/><use transform="matrix(.7 0 0 .7 128.203125 38.965625)" xlink:href="#N"/><use transform="matrix(.7 0 0 .7 186.855469 38.965625)" xlink:href="#E"/></g><use x="55.88" xlink:href="#M" y="196.629" class="B C"/><defs><path d="M40.578 39.313Q47.656 37.797 51.625 33q3.984-4.78 3.984-11.812 0-10.78-7.422-16.703-7.422-5.906-21.094-5.906-4.578 0-9.437.906-4.86.906-10.03 2.72v9.516q4.094-2.39 8.97-3.61 4.89-1.22 10.22-1.22 9.266 0 14.125 3.656 4.86 3.656 4.86 10.64 0 6.453-4.516 10.078-4.516 3.64-12.562 3.64h-8.5v8.11h8.89q7.266 0 11.125 2.906 3.86 2.906 3.86 8.375 0 5.61-3.984 8.61-3.97 3.016-11.39 3.016-4.062 0-8.703-.89-4.64-.875-10.203-2.72v8.78q5.625 1.563 10.53 2.344 4.906.78 9.25.78 11.234 0 17.766-5.11 6.547-5.094 6.547-13.78 0-6.062-3.47-10.234-3.47-4.172-9.86-5.78z" id="O"/></defs><g transform="matrix(.1 0 0 -.1 25.380346 200.427855)"><use xlink:href="#G" y=".766"/><use xlink:href="#B" x="63.623" y=".766"/><use transform="matrix(.7 0 0 .7 128.203125 39.046875)" xlink:href="#N"/><use transform="matrix(.7 0 0 .7 186.855469 39.046875)" xlink:href="#O"/></g><use x="55.88" xlink:href="#M" y="152.86" class="B C"/><g transform="matrix(.1 0 0 -.1 25.380346 156.659236)"><use xlink:href="#G" y=".684"/><use xlink:href="#B" x="63.623" y=".684"/><use transform="matrix(.7 0 0 .7 128.203125 38.965625)" xlink:href="#N"/><use transform="matrix(.7 0 0 .7 186.855469 38.965625)" xlink:href="#G"/></g><use x="55.88" xlink:href="#M" y="109.091" class="B C"/><g transform="matrix(.1 0 0 -.1 31.280346 112.890618)"><use xlink:href="#G" y=".684"/><use xlink:href="#B" x="63.623" y=".684"/><use transform="matrix(.7 0 0 .7 128.203125 38.965625)" xlink:href="#G"/></g><use x="55.88" xlink:href="#M" y="65.323" class="B C"/><g transform="matrix(.1 0 0 -.1 31.280346 69.122)"><use xlink:href="#G" y=".766"/><use xlink:href="#B" x="63.623" y=".766"/><use transform="matrix(.7 0 0 .7 128.203125 39.046875)" xlink:href="#O"/></g><use x="55.88" xlink:href="#M" y="21.554" class="B C"/><g transform="matrix(.1 0 0 -.1 31.280346 25.353381)"><use xlink:href="#G" y=".684"/><use xlink:href="#B" x="63.623" y=".684"/><use transform="matrix(.7 0 0 .7 128.203125 38.965625)" xlink:href="#E"/></g><defs><path d="M9.813 72.906h14.703l18.594-49.61 18.703 49.61h14.703V0H66.89v64.016l-18.797-50h-9.906l-18.797 50V0H9.813z" id="P"/><path d="M53.516 70.516V60.89q-5.61 2.688-10.594 4-4.984 1.328-9.625 1.328-8.047 0-12.422-3.125-4.375-3.125-4.375-8.89 0-4.844 2.906-7.312 2.906-2.453 11.016-3.97l5.953-1.22q11.03-2.11 16.28-7.406 5.25-5.297 5.25-14.172 0-10.61-7.11-16.078-7.094-5.47-20.812-5.47-5.172 0-11.016 1.172Q13.14.922 6.89 3.22v10.156q6-3.36 11.766-5.078 5.766-1.703 11.328-1.703 8.438 0 13.03 3.313 4.594 3.328 4.594 9.484 0 5.36-3.297 8.39-3.297 3.03-10.812 4.547L27.484 33.5q-11.03 2.188-15.97 6.875-4.922 4.688-4.922 13.047 0 9.672 6.813 15.234 6.813 5.563 18.766 5.563 5.14 0 10.453-.937 5.328-.922 10.89-2.766z" id="Q"/><path d="M9.813 72.906h46.094v-8.312H19.672V43.016h34.72V34.72h-34.72V8.297h37.11V0H9.813z" id="R"/></defs><g transform="matrix(0 -.1 -.1 0 19.300659 175.664936)"><use xlink:href="#P"/><use x="86.279" xlink:href="#Q"/><use x="149.756" xlink:href="#R"/></g><path d="M69.1 28.96l13.914 5.382 13.914 5.647 13.914 6.296 13.914 6.956 13.914 8.022 13.914 9.478 13.914 10.84 13.914 13 13.914 15.68 13.914 19.273 13.914 23.64 13.914 29.537 13.914 37.088 13.914 44.883 13.914 18.822 13.914 5.11 13.914 4.57 13.914 4.84 13.914 4.942" class="D E F G K"/><defs><path d="M0 3a3 3 0 0 0 2.121-.879A3 3 0 0 0 3 0a3 3 0 0 0-.879-2.121A3 3 0 0 0 0-3a3 3 0 0 0-2.121.879A3 3 0 0 0-3 0a3 3 0 0 0 .879 2.121A3 3 0 0 0 0 3z" id="S" class="I K"/></defs><g fill="#1f77b4" class="F K"><use x="69.099" xlink:href="#S" y="28.959"/><use x="110.84" xlink:href="#S" y="46.284"/><use x="152.582" xlink:href="#S" y="70.74"/><use x="194.323" xlink:href="#S" y="110.269"/><use x="236.065" xlink:href="#S" y="182.718"/><use x="277.806" xlink:href="#S" y="283.512"/><use x="319.548" xlink:href="#S" y="298.03"/></g><path d="M69.1 28.96l13.914 5.382 13.914 5.647 13.914 6.294 13.914 6.954 13.914 8.02 13.914 9.465 13.914 10.81 13.914 12.854 13.914 14.847 13.914 14.38 13.914 6.5 13.914.777 13.914.072 13.914.006 13.914-.1 13.914.14 13.914-.16 13.914-.013 13.914.026" class="D E F G L"/><defs><path d="M0 3l3-6h-6z" id="T" class="H L"/></defs><g fill="#ff7f0e" class="F H L"><use x="69.099" xlink:href="#T" y="28.959"/><use x="110.84" xlink:href="#T" y="46.282"/><use x="152.582" xlink:href="#T" y="70.722"/><use x="194.323" xlink:href="#T" y="109.234"/><use x="236.065" xlink:href="#T" y="130.892"/><use x="277.806" xlink:href="#T" y="130.869"/><use x="319.548" xlink:href="#T" y="130.834"/></g><path d="M69.1 28.954l13.914 5.38 13.914 5.643 13.914 6.274 13.914 6.92 13.914 7.943 13.914 9.208 27.828 20.12 13.914 7.022 13.914 2.43 13.914.478 13.914-.032 13.914.038 13.914.008 13.914-.094 13.914.144 13.914-.15 13.914.006 13.914.04" class="D E F G M"/><defs><path d="M-3 3h6v-6h-6z" id="U" class="H M"/></defs><g fill="#2ca02c" class="F H M"><use x="69.099" xlink:href="#U" y="28.954"/><use x="110.84" xlink:href="#U" y="46.249"/><use x="152.582" xlink:href="#U" y="70.321"/><use x="194.323" xlink:href="#U" y="97.462"/><use x="236.065" xlink:href="#U" y="100.338"/><use x="277.806" xlink:href="#U" y="100.289"/><use x="319.548" xlink:href="#U" y="100.289"/></g><path d="M69.1 28.938l13.914 5.367 13.914 5.624 13.914 6.22 13.914 6.82 13.914 7.7 13.914 8.51 13.914 8.258 13.914 6.118 13.914 2.806 13.914.68 13.914.186 13.914-.058 13.914.04 13.914.01 13.914-.1 13.914.147 13.914-.147 13.914.012 13.914.046" class="D E F G N"/><defs><path d="M0 4.243L2.546 0 0-4.243-2.546 0z" id="V" class="H N"/></defs><g fill="#d62728" class="F H N"><use x="69.099" xlink:href="#V" y="28.938"/><use x="110.84" xlink:href="#V" y="46.149"/><use x="152.582" xlink:href="#V" y="69.176"/><use x="194.323" xlink:href="#V" y="86.358"/><use x="236.065" xlink:href="#V" y="87.166"/><use x="277.806" xlink:href="#V" y="87.126"/><use x="319.548" xlink:href="#V" y="87.137"/></g><path d="M69.1 28.45l41.742 14.993 13.914 4.664 13.914 3.9 13.914 2.625 13.914 1.35 13.914.363 13.914.203 13.914.01 13.914.093 13.914-.064 13.914.042 13.914.015 13.914-.087 13.914.15 13.914-.143 13.914.013 13.914.05" class="D E F G O"/><defs><path d="M-3 3l6-6m-6 0l6 6" id="W" class="I J O"/></defs><g fill="#9467bd" class="F O"><use x="69.099" xlink:href="#W" y="28.449"/><use x="110.84" xlink:href="#W" y="43.442"/><use x="152.582" xlink:href="#W" y="54.631"/><use x="194.323" xlink:href="#W" y="56.546"/><use x="236.065" xlink:href="#W" y="56.586"/><use x="277.806" xlink:href="#W" y="56.556"/><use x="319.548" xlink:href="#W" y="56.575"/></g><path d="M69.1 27.062l13.914 4.108 13.914 3.71 13.914 3.122 13.914 2.395 13.914 1.574 13.914.896 13.914.423 13.914.004 13.914.103 13.914-.01 13.914.1 13.914-.063 13.914.04 13.914.016 13.914-.087 13.914.15 13.914-.142 13.914.012 13.914.05" class="D E F G P"/><defs><path d="M-3 0h6M0 3v-6" id="X" class="I J P"/></defs><g fill="#8c564b" class="F P"><use x="69.099" xlink:href="#X" y="27.062"/><use x="110.84" xlink:href="#X" y="38.004"/><use x="152.582" xlink:href="#X" y="42.869"/><use x="194.323" xlink:href="#X" y="43.398"/><use x="236.065" xlink:href="#X" y="43.414"/><use x="277.806" xlink:href="#X" y="43.385"/><use x="319.548" xlink:href="#X" y="43.404"/></g><g class="B C D E H"><path d="M55.88 316.768v-303.5m290.8 303.5v-303.5"/><path d="M55.88 316.768h290.8m-290.8-303.5h290.8"/></g><path d="M62.88 311.768h89.697q2 0 2-2V222.7q0-2-2-2H62.88q-2 0-2 2v87.07q0 2 2 2z" fill="#fff" opacity=".8" stroke="#ccc" class="H"/><g class="K"><path d="M64.88 228.798h20" class="D E G"/><use x="74.88" xlink:href="#S" y="228.798" fill="#1f77b4"/></g><defs><path d="M19.28 29.5q-5.47 1.172-8.39 4.344Q7.953 36.97 7.953 41.5q0 6.89 5.578 10.75 5.516 3.813 15.078 3.813 3.72 0 7.86-.594 4.156-.578 8.938-1.75v-8.156q-4.734 1.406-8.64 2.047-3.953.64-7.422.64-5.812 0-9.172-2.25-3.422-2.25-3.422-5.375 0-3.422 3.313-5.61Q23.344 32.86 29 32.86h7.578v-7.422h-7.234q-6.687 0-10.203-2.484-3.812-2.734-3.812-7.03 0-4.39 4.11-7.125 4.14-2.734 11.516-2.734 4.547 0 8.703.875 4.14.922 7.61 2.734v-8.36q-4.39-1.36-8.5-2.047-4.14-.687-8.047-.687-11.625 0-17.922 4.453Q6.5 7.47 6.5 15.922q0 5.266 3.36 8.828 3.375 3.578 9.422 4.75z" id="Y"/><path d="M10.594 45.406h62.594v-8.203H10.594zm0-19.922h62.594v-8.297H10.594z" id="Z"/><path d="M9.813 72.906h13.28l32.328-60.984v60.984h9.563V0h-13.28L19.39 60.984V0H9.813z" id="a"/><path d="M31 75.875q-6.53-11.22-9.72-22.22Q18.11 42.672 18.11 31.39q0-11.266 3.203-22.328Q24.516-2 31-13.187h-7.812Q15.875-1.703 12.234 9.375q-3.64 11.078-3.64 22.016 0 10.89 3.61 21.922 3.625 11.047 10.984 22.563z" id="b"/><path d="M11.72 12.406h10.297V4l-8-15.625H7.72L11.72 4z" id="c"/><path d="M8.016 75.875h7.813Q23.14 64.36 26.78 53.313q3.64-11.03 3.64-21.922 0-10.937-3.64-22.016-3.64-11.078-10.953-22.562H8.016Q14.5-2 17.703 9.063q3.203 11.063 3.203 22.328 0 11.28-3.203 22.266-3.203 11-9.687 22.22z" id="d"/></defs><g transform="matrix(.1 0 0 -.1 92.880346 232.297528)"><use xlink:href="#Y"/><use x="54.053" xlink:href="#Z"/><use x="137.842" xlink:href="#a"/><use x="212.646" xlink:href="#b"/><use x="251.66" xlink:href="#B"/><use x="315.283" xlink:href="#c"/><use x="347.07" xlink:href="#B"/><use x="410.693" xlink:href="#d"/></g><g class="L"><path d="M64.88 243.476h20" class="D E G"/><use x="74.88" xlink:href="#T" y="243.476" fill="#ff7f0e" class="H"/></g><g transform="matrix(.1 0 0 -.1 92.880346 246.975653)"><use xlink:href="#Y"/><use x="54.053" xlink:href="#Z"/><use x="137.842" xlink:href="#a"/><use x="212.646" xlink:href="#b"/><use x="251.66" xlink:href="#B"/><use x="315.283" xlink:href="#c"/><use x="347.07" xlink:href="#G"/><use x="410.693" xlink:href="#d"/></g><g class="M"><path d="M64.88 258.154h20" class="D E G"/><use x="74.88" xlink:href="#U" y="258.154" fill="#2ca02c" class="H"/></g><g transform="matrix(.1 0 0 -.1 92.880346 261.653778)"><use xlink:href="#Y"/><use x="54.053" xlink:href="#Z"/><use x="137.842" xlink:href="#a"/><use x="212.646" xlink:href="#b"/><use x="251.66" xlink:href="#B"/><use x="315.283" xlink:href="#c"/><use x="347.07" xlink:href="#E"/><use x="410.693" xlink:href="#d"/></g><g class="N"><path d="M64.88 272.832h20" class="D E G"/><use x="74.88" xlink:href="#V" y="272.832" fill="#d62728" class="H"/></g><g transform="matrix(.1 0 0 -.1 92.880346 276.331903)"><use xlink:href="#Y"/><use x="54.053" xlink:href="#Z"/><use x="137.842" xlink:href="#a"/><use x="212.646" xlink:href="#b"/><use x="251.66" xlink:href="#B"/><use x="315.283" xlink:href="#c"/><use x="347.07" xlink:href="#G"/><use x="410.693" xlink:href="#B"/><use x="474.316" xlink:href="#d"/></g><g class="O"><path d="M64.88 287.5h20" class="D E G"/><use x="74.88" xlink:href="#W" y="287.51" fill="#9467bd"/></g><g transform="matrix(.1 0 0 -.1 92.880346 291.010028)"><use xlink:href="#Y"/><use x="54.053" xlink:href="#Z"/><use x="137.842" xlink:href="#a"/><use x="212.646" xlink:href="#b"/><use x="251.66" xlink:href="#B"/><use x="315.283" xlink:href="#c"/><use x="347.07" xlink:href="#E"/><use x="410.693" xlink:href="#B"/><use x="474.316" xlink:href="#d"/></g><g class="P"><path d="M64.88 302.188h20" class="D E G"/><use x="74.88" xlink:href="#X" y="302.188" fill="#8c564b"/></g><g transform="matrix(.1 0 0 -.1 92.880346 305.688153)"><use xlink:href="#Y"/><use x="54.053" xlink:href="#Z"/><use x="137.842" xlink:href="#a"/><use x="212.646" xlink:href="#b"/><use x="251.66" xlink:href="#B"/><use x="315.283" xlink:href="#c"/><use x="347.07" xlink:href="#G"/><use x="410.693" xlink:href="#B"/><use x="474.316" xlink:href="#B"/><use x="537.939" xlink:href="#d"/></g><defs><clipPath id="e"><path d="M55.88 13.267h290.8v303.5H55.88z"/></clipPath></defs></svg>