<svg xmlns="http://www.w3.org/2000/svg" width="315" height="382" preserveAspectRatio="xMinYMin meet" version="1"><g transform="translate(-126.8 -17.4)"><clipPath id="a"><path d="M152.9 31.5h273.8v342.3H152.9z"/></clipPath><path fill="#fff" d="M152.9 373.8h273.8V31.5H152.9M152.9 31.5h273.8-273.8M152.9 373.8V31.5"/><path fill="none" stroke="#323232" stroke-width="2.1" d="M221.3 373.8V31.5M289.8 373.8V31.5M358.3 373.8V31.5M152.9 305.3h273.8M152.9 236.9h273.8M152.9 168.4h273.8M152.9 100h273.8M358.3 31.5"/><path fill="none" stroke="#000" stroke-width="2.1" d="M152.9 31.5h273.8"/><g clip-path="url(#a)"><path fill="#dd0f23" d="M167.8 337.5v-.7l-.1-.4-.1-.3-.2-.3-.2-.3-.2-.2-.2-.3-.3-.2-.2-.2-.3-.2-.3-.1-.4-.1-.3-.1-.3-.1h-.4l-.3.1h-.4l-.3.1-.3.1-.3.2-.3.2-.3.2-.2.2-.2.3-.2.3-.2.3-.1.3-.1.3-.1.4v1l.1.3.1.4.1.3.2.3.2.2.2.3.3.2.2.3.3.1.3.2.4.1.3.1.3.1h.7l.3-.1.4-.1.3-.1.3-.1.3-.2.3-.2.2-.2.3-.3.2-.3.1-.3.2-.3.1-.3.1-.3v-.4"/></g><g clip-path="url(#a)"><path fill="#dd0f23" d="M168.4 352.6l-.1-.4v-.3l-.1-.3-.1-.4-.2-.3-.1-.3-.2-.2-.3-.3-.2-.2-.3-.2-.3-.2-.3-.1-.3-.1-.4-.1h-.3l-.4-.1-.3.1h-.3l-.4.1-.3.2-.3.1-.3.2-.2.2-.3.3-.2.2-.2.3-.2.3-.1.3-.1.3-.1.4v.7l.1.3v.3l.1.4.2.3.1.3.2.3.2.2.3.3.3.2.3.2.3.1.3.1.3.1.4.1h.6l.4-.1h.3l.3-.2.3-.1.3-.2.3-.2.3-.2.2-.3.2-.2.2-.3.1-.4.1-.3.1-.3v-.3"/></g><g clip-path="url(#a)"><path fill="#dd0f23" d="M174 326.9l-.1-.4v-.3l-.1-.3-.1-.4-.2-.3-.1-.3-.2-.2-.3-.3-.2-.2-.3-.2-.3-.2-.3-.1-.3-.1-.4-.1h-.3l-.4-.1-.3.1h-.3l-.4.1-.3.2-.3.1-.3.2-.2.2-.3.3-.2.2-.2.3-.2.3-.1.3-.1.4-.1.3v.7l.1.3v.3l.1.4.2.3.1.3.2.3.3.2.2.3.3.2.3.2.3.1.3.1.3.1.4.1h.6l.4-.1h.3l.3-.2.3-.1.3-.2.3-.2.3-.2.2-.3.2-.2.2-.3.1-.3.1-.4.1-.3v-.3"/></g><g clip-path="url(#a)"><path fill="#dd0f23" d="M179 305.6v-.4l-.1-.3-.1-.3-.1-.3-.1-.4-.2-.2-.2-.3-.3-.3-.2-.2-.3-.2-.3-.2-.3-.1-.3-.1-.4-.1h-1l-.3.1h-.4l-.3.2-.3.1-.3.2-.2.2-.3.3-.2.2-.2.3-.1.3-.2.3-.1.4v.3l-.1.3v.4l.1.3v.4l.1.3.2.3.1.3.2.3.3.2.2.3.3.2.3.2.3.1.3.1.3.1.4.1h1l.3-.1.3-.1.4-.2.2-.2.3-.2.3-.2.2-.3.2-.2.2-.3.1-.3.1-.4.1-.3.1-.3"/></g><g clip-path="url(#a)"><path fill="#dd0f23" d="M187.6 334.4l-.1-.3v-.3l-.1-.4-.1-.3-.2-.3-.1-.3-.3-.3-.2-.2-.2-.2-.3-.2-.3-.2-.3-.2-.4-.1h-.3l-.3-.1h-.7l-.4.1-.3.1-.3.1-.3.2-.3.2-.3.2-.2.2-.2.3-.2.3-.2.3-.1.3-.1.3-.1.3v1.1l.1.3.1.3.2.3.1.3.2.3.2.3.3.2.3.2.2.2.4.2.3.1.3.1h.3l.4.1.3-.1h.4l.3-.1.3-.1.3-.1.3-.2.3-.2.3-.3.2-.2.2-.3.2-.3.1-.3.1-.3.1-.3v-.4"/></g><g clip-path="url(#a)"><path fill="#dd0f23" d="M189.5 317.4v-.3l-.1-.3-.1-.4-.1-.3-.1-.3-.2-.3-.2-.3-.2-.2-.3-.2-.3-.2-.3-.2-.3-.1-.3-.2h-.3l-.4-.1h-.3l-.4.1h-.3l-.3.1-.3.1-.3.2-.3.2-.3.2-.2.2-.3.3-.2.3-.1.3-.1.3-.1.3-.1.4v1l.1.3.1.3.1.4.2.3.2.2.2.3.2.2.3.2.3.2.3.2.3.1.4.1h.3l.3.1h.4l.3-.1.4-.1.3-.1.3-.1.3-.2.3-.2.2-.2.2-.3.2-.3.2-.3.2-.3.1-.3v-.3l.1-.4"/></g><g clip-path="url(#a)"><path fill="#dd0f23" d="M192.9 294.9l-.1-.3v-.4l-.1-.3-.1-.3-.2-.3-.1-.3-.2-.3-.3-.3-.2-.2-.3-.2-.3-.2-.3-.1-.4-.1-.3-.1h-1l-.3.1-.4.1-.3.1-.3.1-.3.2-.2.2-.3.3-.2.2-.2.3-.2.3-.1.3-.1.4-.1.3v.7l.1.3v.4l.1.3.2.3.1.3.2.3.2.3.3.2.3.2.3.2.3.1.3.2h.3l.4.1h1l.3-.1.3-.1.3-.2.3-.2.3-.2.3-.2.2-.2.2-.3.2-.3.1-.3.1-.3.1-.4v-.3"/></g><g clip-path="url(#a)"><path fill="#dd0f23" d="M199.8 319.7v-.3l-.1-.3-.1-.4-.1-.3-.1-.3-.2-.3-.2-.3-.3-.2-.2-.3-.3-.1-.3-.2-.3-.2-.3-.1h-.4l-.3-.1h-.7l-.3.1-.3.1-.4.1-.3.2-.3.2-.2.2-.3.2-.2.3-.2.3-.1.3-.2.3-.1.3v.3l-.1.4v.3l.1.4.1.3.1.3.1.3.2.3.2.3.2.3.2.2.3.2.3.2.3.2.3.1.3.1h.4l.3.1.4-.1h.3l.3-.1.4-.1.3-.1.3-.2.2-.2.3-.3.2-.2.2-.3.2-.3.1-.3.1-.3.1-.3.1-.4"/></g><g clip-path="url(#a)"><path fill="#dd0f23" d="M206.2 265.6v-.7l-.1-.3-.1-.4-.2-.3-.1-.3-.3-.2-.2-.3-.2-.2-.3-.2-.3-.2-.3-.1-.4-.1-.3-.1-.3-.1h-.4l-.3.1h-.4l-.3.1-.3.1-.3.2-.3.2-.3.2-.2.3-.2.2-.2.3-.2.3-.1.3-.1.3-.1.4v1l.1.3.1.4.2.3.1.3.2.3.2.2.3.3.3.2.2.1.4.2.3.1.3.1.3.1h.7l.4-.1.3-.1.3-.1.3-.1.3-.2.3-.2.3-.2.2-.3.2-.3.2-.2.1-.4.1-.3.1-.3v-.4"/></g><g clip-path="url(#a)"><path fill="#dd0f23" d="M210.2 269.5v-.6l-.1-.4-.1-.3-.2-.3-.2-.3-.2-.3-.2-.2-.3-.2-.2-.2-.3-.2-.3-.2-.4-.1h-.3l-.3-.1h-.7l-.4.1-.3.1-.3.1-.3.2-.3.2-.3.2-.2.2-.2.3-.2.3-.2.3-.1.3-.1.3-.1.3v1.1l.1.3.1.3.1.3.2.3.2.3.2.3.3.2.2.2.3.2.3.2.4.1.3.1h.3l.4.1.3-.1h.4l.3-.1.3-.1.3-.1.3-.2.3-.2.2-.3.3-.2.2-.3.1-.3.2-.3.1-.3.1-.3v-.4"/></g><g clip-path="url(#a)"><path fill="#dd0f23" d="M216.9 257.4v-.4l-.1-.3-.1-.3-.1-.3-.1-.4-.2-.2-.2-.3-.3-.3-.2-.2-.3-.2-.3-.2-.3-.1-.3-.1-.4-.1h-1l-.3.1h-.3l-.4.2-.3.1-.3.2-.2.2-.3.3-.2.2-.2.3-.1.3-.2.3-.1.4v.3l-.1.3v.4l.1.3.1.4.1.3.1.3.2.3.2.3.2.2.2.3.3.2.3.2.3.1.3.1.3.1.4.1h.7l.3-.1h.3l.4-.1.3-.2.3-.2.2-.2.3-.2.2-.3.2-.2.2-.3.1-.3.1-.4.1-.3.1-.3"/></g><g clip-path="url(#a)"><path fill="#dd0f23" d="M222.2 246.2l-.1-.3v-.4l-.1-.3-.1-.3-.2-.3-.1-.3-.2-.3-.3-.2-.2-.3-.3-.2-.3-.1-.3-.2-.3-.1-.4-.1h-1l-.3.1-.4.1-.3.1-.3.2-.3.1-.2.3-.3.2-.2.3-.2.2-.2.3-.1.4-.1.3v.3l-.1.4v.3l.1.3v.4l.1.3.2.3.1.3.2.3.3.3.2.2.3.2.3.2.3.1.3.2.3.1h1.4l.3-.1.3-.1.3-.2.3-.1.3-.2.3-.3.2-.2.2-.3.2-.3.1-.3.1-.3.1-.4.1-.3"/></g><g clip-path="url(#a)"><path fill="#dd0f23" d="M222.8 278.5v-.4l-.1-.3-.1-.3-.1-.3-.1-.4-.2-.2-.2-.3-.2-.3-.3-.2-.3-.2-.3-.2-.3-.1-.3-.1-.4-.1h-1l-.3.1h-.3l-.4.2-.3.1-.2.2-.3.2-.3.3-.2.2-.2.3-.1.3-.2.3-.1.4v.3l-.1.3.1.4v.3l.1.4.1.3.1.3.2.3.2.3.2.2.2.3.3.2.3.2.3.1.3.1.3.1.4.1h.7l.3-.1h.3l.4-.1.3-.2.3-.2.2-.2.3-.2.2-.3.2-.2.2-.3.1-.3.2-.4v-.3l.1-.3"/></g><g clip-path="url(#a)"><path fill="#dd0f23" d="M231.6 295.5l-.1-.3v-.4l-.1-.3-.1-.3-.2-.3-.1-.3-.2-.3-.3-.2-.2-.3-.3-.2-.3-.1-.3-.2-.3-.1-.4-.1h-1l-.3.1-.4.1-.3.1-.3.2-.3.2-.2.2-.3.2-.2.3-.2.3-.2.3-.1.3-.1.3v.3l-.1.4v.3l.1.4v.3l.1.3.2.3.1.3.2.3.3.3.2.2.3.2.3.2.3.2.3.1.3.1h1.4l.3-.1.3-.1.3-.2.3-.1.3-.2.3-.3.2-.2.2-.3.2-.3.1-.3.1-.3.1-.4.1-.3"/></g><g clip-path="url(#a)"><path fill="#dd0f23" d="M233.6 242.2v-.3l-.1-.4v-.3l-.2-.3-.1-.3-.2-.3-.2-.3-.2-.2-.3-.3-.3-.2-.3-.1-.3-.2-.3-.1-.3-.1h-1.1l-.3.1-.3.1-.3.1-.3.2-.3.1-.3.3-.2.2-.3.3-.2.3-.1.3-.1.3-.1.3-.1.3v1.1l.1.3.1.3.1.3.2.3.2.3.2.3.2.2.3.2.3.2.3.2.3.1.4.1h1.3l.4-.1.3-.1.3-.2.3-.1.3-.2.2-.3.2-.2.2-.3.2-.3.2-.3.1-.3v-.4l.1-.3"/></g><g clip-path="url(#a)"><path fill="#dd0f23" d="M241.8 240.2v-.7l-.1-.3-.1-.3-.2-.3-.2-.3-.2-.3-.2-.2-.3-.3-.2-.2-.3-.1-.3-.2-.4-.1-.3-.1h-1l-.4.1-.3.1-.3.1-.3.2-.3.1-.3.3-.2.2-.2.3-.2.2-.2.3-.1.4-.1.3-.1.3v1l.1.4.1.3.2.3.1.3.2.3.2.3.3.2.3.2.2.2.3.1.4.2.3.1h1.4l.3-.1.3-.1.3-.2.3-.1.3-.2.2-.3.3-.2.2-.3.2-.3.1-.3.1-.3.1-.4v-.3"/></g><g clip-path="url(#a)"><path fill="#dd0f23" d="M242.2 269.7v-.7l-.1-.3-.1-.3-.2-.3-.2-.3-.2-.3-.2-.2-.3-.3-.2-.2-.3-.1-.4-.2-.3-.1-.3-.1h-1l-.4.1-.3.1-.3.1-.3.2-.3.1-.3.3-.2.2-.2.3-.2.3-.2.3-.1.3-.1.3-.1.3v1.1l.1.3.1.3.1.3.2.3.2.3.2.3.3.2.2.2.3.2.3.2.4.1.3.1h1.3l.4-.1.3-.1.3-.2.3-.1.3-.2.2-.3.3-.2.2-.3.1-.3.2-.3.1-.3.1-.4v-.3"/></g><g clip-path="url(#a)"><path fill="#dd0f23" d="M248.7 262.6v-.7l-.1-.4-.1-.3-.2-.3-.2-.3-.2-.2-.2-.3-.3-.2-.2-.2-.3-.2-.4-.1-.3-.1-.3-.1-.4-.1h-.3l-.3.1h-.4l-.3.1-.3.1-.3.2-.3.2-.3.2-.2.2-.2.3-.2.3-.2.3-.1.3-.1.3-.1.4v1l.1.3.1.4.1.3.2.3.2.2.2.3.3.2.2.3.3.1.3.2.4.1.3.1.3.1h.7l.3-.1.4-.1.3-.1.3-.1.3-.2.3-.2.2-.2.3-.3.2-.3.1-.3.2-.3.1-.3.1-.3v-.4"/></g><g clip-path="url(#a)"><path fill="#dd0f23" d="M255.7 222.4v-.7l-.1-.3-.1-.4-.2-.3-.2-.3-.2-.2-.2-.3-.3-.2-.2-.2-.3-.2-.3-.1-.4-.1-.3-.1h-1.4l-.3.1-.3.2-.3.1-.3.2-.3.2-.2.3-.2.2-.2.3-.2.3-.1.3-.1.4-.1.3v1l.1.4.1.3.1.3.2.3.2.3.2.2.3.3.2.2.3.2.3.1.4.1.3.1.3.1h.7l.4-.1h.3l.3-.1.3-.2.3-.2.3-.2.2-.2.3-.3.2-.2.1-.3.2-.3.1-.4.1-.3v-.3"/></g><g clip-path="url(#a)"><path fill="#dd0f23" d="M258.2 257.1l-.1-.3v-.4l-.1-.3-.1-.3-.2-.3-.1-.3-.2-.3-.3-.2-.2-.3-.3-.2-.3-.1-.3-.2-.3-.1-.4-.1h-1l-.3.1-.4.1-.3.1-.3.2-.3.1-.2.3-.3.2-.2.3-.2.2-.1.3-.2.4-.1.3v.3l-.1.4v.3l.1.3v.4l.1.3.2.3.1.3.2.3.3.3.2.2.3.2.3.2.3.1.3.2.3.1h1.4l.3-.1.3-.1.3-.2.3-.1.3-.2.3-.3.2-.2.2-.3.2-.3.1-.3.1-.3.1-.4.1-.3"/></g><g clip-path="url(#a)"><path fill="#dd0f23" d="M263.8 240.4v-.3l-.1-.3-.1-.4-.1-.3-.1-.3-.2-.3-.2-.3-.2-.2-.3-.3-.3-.1-.3-.2-.3-.2-.3-.1h-.4l-.3-.1h-.7l-.3.1-.3.1-.4.1-.3.2-.2.2-.3.2-.3.2-.2.3-.2.3-.1.3-.2.3-.1.3v.3l-.1.4v.3l.1.4.1.3.1.3.1.3.2.3.2.3.2.3.2.2.3.2.3.2.3.2.3.1.3.1h.4l.3.1.4-.1h.3l.3-.1.4-.1.3-.1.3-.2.2-.2.3-.3.2-.2.2-.3.2-.3.1-.3.2-.3v-.3l.1-.4"/></g><g clip-path="url(#a)"><path fill="#dd0f23" d="M271.1 280.5v-.6l-.1-.4-.1-.3-.2-.3-.2-.3-.2-.3-.2-.2-.3-.2-.2-.2-.3-.2-.3-.2-.4-.1h-.3l-.3-.1h-.7l-.4.1-.3.1-.3.1-.3.2-.3.2-.3.2-.2.2-.2.3-.2.3-.2.3-.1.3-.1.3-.1.4v1l.1.3.1.3.1.4.2.3.2.2.2.3.3.2.2.2.3.2.3.2.4.1.3.1h.3l.4.1.3-.1h.4l.3-.1.3-.1.3-.1.3-.2.3-.2.2-.2.3-.3.2-.3.1-.3.2-.3.1-.3.1-.3v-.4"/></g><g clip-path="url(#a)"><path fill="#dd0f23" d="M274.1 239.6v-.3l-.1-.4-.1-.3-.1-.3-.1-.3-.2-.3-.2-.3-.2-.2-.3-.3-.3-.2-.3-.1-.3-.2-.3-.1h-.3l-.4-.1h-.7l-.3.1-.3.1-.3.1-.4.2-.2.2-.3.2-.2.2-.3.3-.2.3-.1.3-.2.3v.3l-.1.3v1.1l.1.3.1.3.1.3.2.3.2.3.2.3.2.2.3.2.3.2.3.2.3.1.4.1h.3l.3.1.4-.1h.3l.3-.1.4-.1.3-.1.3-.2.2-.2.3-.3.2-.2.2-.3.2-.3.2-.3.1-.3v-.3l.1-.4"/></g><g clip-path="url(#a)"><path fill="#dd0f23" d="M279.8 232.7v-.4l-.1-.3-.1-.4-.1-.3-.1-.3-.2-.3-.2-.2-.3-.3-.2-.2-.3-.2-.3-.2-.3-.1-.3-.1-.4-.1-.3-.1h-.3l-.4.1h-.3l-.4.1-.3.1-.3.2-.3.2-.2.2-.3.2-.2.3-.2.3-.1.3-.2.3-.1.3v.4l-.1.3v.4l.1.3v.3l.1.4.2.3.1.3.2.3.3.2.2.2.3.3.3.1.3.2.3.1.3.1.4.1h.6l.4-.1.3-.1.3-.1.4-.1.2-.2.3-.2.3-.2.2-.3.2-.3.2-.3.1-.3.1-.3.1-.3.1-.4"/></g><g clip-path="url(#a)"><path fill="#dd0f23" d="M285.5 218v-.7l-.1-.3-.1-.3-.2-.3-.2-.3-.2-.3-.2-.2-.3-.3-.2-.2-.3-.1-.3-.2-.4-.1h-.3l-.3-.1h-.7l-.4.1-.3.1-.3.1-.3.2-.3.2-.3.2-.2.2-.2.3-.2.3-.2.3-.1.3-.1.3-.1.3v1.1l.1.3.1.3.1.3.2.3.2.3.2.3.3.2.2.2.3.2.3.2.4.1.3.1h1.4l.3-.1.3-.1.3-.1.3-.2.3-.2.2-.3.3-.2.2-.3.1-.3.2-.3.1-.3.1-.3v-.4"/></g><g clip-path="url(#a)"><path fill="#dd0f23" d="M287.9 231v-.3l-.1-.4-.1-.3-.1-.3-.2-.3-.1-.3-.2-.3-.3-.3-.2-.2-.3-.2-.3-.1-.3-.2-.3-.1-.4-.1h-1l-.3.1-.4.1-.3.1-.3.1-.3.2-.2.2-.3.3-.2.3-.2.2-.1.3-.2.4-.1.3v.3l-.1.4v.3l.1.3v.4l.1.3.2.3.1.3.2.3.3.3.2.2.3.2.3.2.3.1.3.2h.3l.4.1h1l.3-.1.3-.1.3-.2.3-.1.3-.3.3-.2.2-.2.2-.3.2-.3.1-.3.1-.3.1-.4.1-.3"/></g><g clip-path="url(#a)"><path fill="#dd0f23" d="M293 206.8l-.1-.3v-.3l-.1-.4-.1-.3-.2-.3-.1-.3-.3-.3-.2-.2-.2-.2-.3-.2-.3-.2-.3-.2-.4-.1h-.3l-.3-.1h-.7l-.3.1-.4.1-.3.1-.3.2-.3.2-.3.2-.2.2-.2.3-.2.3-.2.3-.1.3-.1.3-.1.3v1.1l.1.3.1.3.2.3.1.3.2.3.2.3.3.2.3.2.3.2.3.2.3.1.3.1h.3l.4.1.3-.1h.4l.3-.1.3-.1.3-.1.3-.2.3-.2.3-.3.2-.2.2-.3.2-.3.1-.3.1-.3.1-.3v-.4"/></g><g clip-path="url(#a)"><path fill="#dd0f23" d="M299 221.6v-.7l-.1-.3-.1-.4-.2-.3-.2-.3-.2-.2-.2-.3-.3-.2-.2-.2-.3-.2-.4-.1-.3-.1-.3-.1h-1.4l-.3.1-.3.2-.3.1-.3.2-.3.2-.2.3-.2.2-.2.3-.2.3-.1.3-.1.4-.1.3v1l.1.3.1.4.1.3.2.3.2.3.2.2.3.3.2.2.3.2.3.1.4.1.3.1.3.1h.7l.3-.1h.4l.3-.2.3-.1.3-.2.3-.2.2-.2.3-.3.2-.2.1-.3.2-.3.1-.4.1-.3v-.3"/></g><g clip-path="url(#a)"><path fill="#dd0f23" d="M305.1 181.5v-.7l-.1-.3-.1-.3-.2-.3-.2-.3-.2-.3-.2-.2-.3-.3-.2-.2-.3-.1-.3-.2-.4-.1-.3-.1h-1l-.4.1-.3.1-.3.1-.3.2-.3.1-.3.3-.2.2-.2.3-.2.2-.2.4-.1.3-.1.3-.1.3v1.1l.1.3.1.3.1.3.2.3.2.3.2.3.3.2.3.2.2.2.3.1.4.2.3.1h1.4l.3-.1.3-.1.3-.2.3-.1.3-.2.2-.3.3-.2.2-.3.1-.3.2-.3.1-.3.1-.4v-.3"/></g><g clip-path="url(#a)"><path fill="#dd0f23" d="M309.7 180.5v-.4l-.1-.3-.1-.4-.1-.3-.1-.3-.2-.3-.2-.2-.2-.3-.3-.2-.3-.2-.3-.2-.3-.1-.3-.1-.3-.1-.4-.1h-.3l-.4.1h-.3l-.3.1-.4.1-.3.2-.2.2-.3.2-.2.2-.3.3-.2.3-.1.3-.2.3-.1.3V181l.1.3.1.4.1.3.2.3.2.3.2.2.2.2.3.3.3.1.3.2.3.1.4.1.3.1h.7l.3-.1.3-.1.4-.1.3-.1.3-.2.2-.2.3-.2.2-.3.2-.3.2-.3.1-.3.2-.3v-.3l.1-.4"/></g><g clip-path="url(#a)"><path fill="#dd0f23" d="M311.3 167.4v-.3l-.1-.4-.1-.3-.1-.3-.1-.3-.2-.3-.2-.3-.2-.2-.3-.3-.3-.2-.3-.1-.3-.2-.3-.1-.3-.1h-1.1l-.3.1-.3.1-.4.1-.3.2-.2.1-.3.3-.3.2-.2.3-.2.2-.1.4-.2.3-.1.3v1.4l.1.3.1.3.1.3.2.3.2.3.2.3.2.2.3.2.3.2.3.2.3.1.3.1H308.5l.3-.1.4-.1.3-.2.3-.1.2-.2.3-.3.2-.2.2-.3.2-.3.1-.3.2-.3v-.4l.1-.3"/></g><g clip-path="url(#a)"><path fill="#dd0f23" d="M317.5 128.6v-.6l-.1-.4-.1-.3-.2-.3-.2-.3-.2-.3-.2-.2-.3-.2-.2-.2-.3-.2-.3-.1-.4-.2h-.3l-.3-.1h-.7l-.4.1-.3.1-.3.1-.3.2-.3.2-.3.2-.2.2-.2.3-.2.3-.2.3-.1.3-.1.3-.1.4v1l.1.3.1.3.1.4.2.3.2.2.2.3.3.2.2.2.3.2.3.2.4.1.3.1h.3l.4.1h.3l.3-.1.4-.1.3-.1.3-.1.3-.2.3-.2.2-.2.3-.3.2-.3.1-.3.2-.3.1-.3.1-.3v-.4"/></g><g clip-path="url(#a)"><path fill="#dd0f23" d="M322 163.6v-.3l-.1-.4-.1-.3-.1-.3-.1-.3-.2-.3-.2-.3-.3-.3-.2-.2-.3-.2-.3-.2-.3-.1-.3-.1-.4-.1h-1l-.3.1-.3.1-.4.1-.3.1-.2.2-.3.2-.3.3-.2.2-.2.3-.1.3-.2.3-.1.4v.3l-.1.4v.3l.1.3.1.4.1.3.1.3.2.3.2.3.2.3.2.2.3.2.3.2.3.1.3.2h.3l.4.1h1l.3-.1.4-.1.3-.2.3-.2.2-.2.3-.2.2-.2.2-.3.2-.3.1-.3.2-.3v-.4l.1-.3"/></g><g clip-path="url(#a)"><path fill="#dd0f23" d="M326.1 208.8l-.1-.4v-.3l-.1-.4-.1-.3-.2-.3-.1-.3-.2-.3-.3-.2-.2-.2-.3-.2-.3-.2-.3-.1-.3-.1-.4-.1-.3-.1h-.4l-.3.1h-.3l-.4.1-.3.1-.3.2-.3.2-.2.2-.3.2-.2.3-.2.3-.2.3-.1.3-.1.3v.4l-.1.3v.4l.1.3v.3l.1.4.2.3.1.3.2.2.3.3.2.2.3.3.3.1.3.2.3.1.3.1.4.1h.6l.4-.1.3-.1.3-.1.3-.1.3-.2.3-.2.3-.2.2-.3.2-.3.2-.3.1-.3.1-.3.1-.3.1-.4"/></g><g clip-path="url(#a)"><path fill="#dd0f23" d="M334.3 97.3v-.7l-.1-.3-.1-.3-.2-.3-.2-.3-.2-.3-.2-.2-.3-.3-.2-.2-.3-.1-.3-.2-.4-.1h-.3l-.3-.1h-.7l-.4.1-.3.1-.3.1-.3.2-.3.2-.3.2-.2.2-.2.3-.2.3-.2.3-.1.3-.1.3-.1.3v1.1l.1.3.1.3.2.3.1.3.2.3.2.3.3.2.3.2.2.2.3.2.4.1.3.1h1.4l.3-.1.3-.1.3-.2.3-.1.3-.2.2-.3.3-.2.2-.3.2-.3.1-.3.1-.3.1-.4v-.3"/></g><g clip-path="url(#a)"><path fill="#dd0f23" d="M336.8 156.4v-.3l-.1-.4-.1-.3-.1-.3-.1-.3-.2-.3-.2-.3-.2-.3-.3-.2-.3-.2-.3-.2-.3-.1-.3-.1-.4-.1h-1l-.3.1-.3.1-.4.1-.3.1-.2.2-.3.2-.3.3-.2.3-.2.2-.1.3-.2.4-.1.3v.3l-.1.4.1.3v.3l.1.4.1.3.1.3.2.3.2.3.2.3.2.2.3.2.3.2.3.1.3.2h.3l.4.1h1l.3-.1.4-.1.3-.2.3-.1.2-.3.3-.2.2-.2.2-.3.2-.3.1-.3.2-.3v-.4l.1-.3"/></g><g clip-path="url(#a)"><path fill="#dd0f23" d="M342.2 154.5v-.3l-.1-.4-.1-.3-.1-.3-.1-.3-.2-.3-.2-.3-.3-.3-.2-.2-.3-.2-.3-.2-.3-.1-.3-.1-.4-.1h-1l-.3.1-.4.1-.3.1-.3.1-.3.2-.2.2-.3.3-.2.2-.2.3-.1.3-.2.3-.1.4v.3l-.1.4v.3l.1.3v.4l.1.3.2.3.1.3.2.3.3.2.2.3.3.2.3.2.3.1.3.2h.3l.4.1h1l.3-.1.3-.1.4-.2.2-.2.3-.2.3-.2.2-.2.2-.3.2-.3.1-.3.1-.4.1-.3.1-.3"/></g><g clip-path="url(#a)"><path fill="#dd0f23" d="M348.6 163.3v-.3l-.1-.4-.1-.3-.1-.3-.1-.3-.2-.3-.2-.3-.3-.2-.2-.3-.3-.2-.3-.1-.3-.2-.3-.1-.4-.1h-1l-.3.1-.3.1-.4.1-.3.2-.3.1-.2.3-.3.2-.2.3-.2.2-.1.3-.2.4-.1.3v.3l-.1.4v.3l.1.3v.4l.2.3.1.3.2.3.2.3.2.3.2.2.3.2.3.2.3.1.3.2.3.1H345.8l.3-.1.4-.1.3-.2.3-.1.2-.2.3-.3.2-.2.2-.3.2-.3.1-.3.1-.3.1-.4.1-.3"/></g><g clip-path="url(#a)"><path fill="#dd0f23" d="M353.5 187.5v-.4l-.1-.3-.1-.3-.1-.4-.1-.3-.2-.3-.2-.2-.2-.3-.3-.2-.3-.2-.3-.2-.3-.1-.3-.1-.3-.1h-.4l-.3-.1-.4.1h-.3l-.3.1-.4.2-.3.1-.2.2-.3.2-.2.3-.3.2-.2.3-.1.3-.2.3v.3l-.1.4v1l.1.3.1.4.1.3.2.3.2.3.2.2.2.3.3.2.3.2.3.1.3.1.4.1.3.1h.7l.3-.1h.3l.4-.2.3-.1.3-.2.2-.2.3-.2.2-.3.2-.2.2-.3.1-.4.2-.3v-.3l.1-.3"/></g><g clip-path="url(#a)"><path fill="#dd0f23" d="M358 143.1v-.4l-.1-.3-.1-.3-.1-.3-.1-.4-.2-.2-.2-.3-.3-.3-.2-.2-.3-.2-.3-.2-.3-.1-.3-.1-.4-.1h-1l-.3.1h-.3l-.4.2-.3.1-.3.2-.2.2-.3.3-.2.2-.2.3-.1.3-.2.3-.1.4v.3l-.1.3v.4l.1.3.1.4.1.3.1.3.2.3.2.3.2.2.2.3.3.2.3.2.3.1.3.1.3.1.4.1h.7l.3-.1h.3l.4-.1.3-.2.3-.2.2-.2.3-.2.2-.3.2-.2.2-.3.1-.3.1-.4.1-.3.1-.3"/></g><g clip-path="url(#a)"><path fill="#dd0f23" d="M360.4 124.9v-.6l-.1-.4-.1-.3-.2-.3-.2-.3-.2-.3-.2-.2-.3-.2-.2-.2-.3-.2-.3-.2-.4-.1h-.3l-.3-.1h-.7l-.4.1-.3.1-.3.1-.3.2-.3.2-.3.2-.2.2-.2.3-.2.3-.2.3-.1.3-.1.3-.1.4v1l.1.3.1.3.1.4.2.3.2.2.2.3.3.2.2.2.3.2.3.2.4.1.3.1h.3l.4.1.3-.1h.3l.4-.1.3-.1.3-.1.3-.2.3-.2.2-.2.3-.3.2-.3.1-.3.2-.3.1-.3.1-.3v-.4"/></g><g clip-path="url(#a)"><path fill="#dd0f23" d="M366 128.9v-.3l-.1-.4-.1-.3-.1-.3-.1-.3-.2-.3-.2-.3-.2-.3-.3-.2-.3-.2-.3-.2-.3-.1-.3-.1-.3-.1h-1.1l-.3.1-.3.1-.3.1-.4.1-.2.2-.3.2-.2.3-.3.2-.2.3-.1.3-.1.4-.1.3-.1.3v1l.1.4.1.3.1.3.2.3.2.3.2.3.2.2.3.2.3.2.3.1.3.2h.4l.3.1h1l.3-.1.4-.1.3-.2.3-.2.3-.2.2-.2.2-.2.2-.3.2-.3.2-.3.1-.3v-.4l.1-.3"/></g><g clip-path="url(#a)"><path fill="#dd0f23" d="M372.8 89.6v-.7l-.1-.3-.1-.3-.2-.3-.2-.3-.2-.3-.2-.2-.3-.3-.2-.2-.3-.1-.4-.2-.3-.1-.3-.1h-1l-.4.1-.3.1-.3.1-.3.2-.3.1-.3.3-.2.2-.2.3-.2.3-.2.3-.1.3-.1.3-.1.3v1.1l.1.3.1.3.1.3.2.3.2.3.2.3.3.2.2.2.3.2.3.2.3.1.4.1h1.3l.4-.1.3-.1.3-.2.3-.1.3-.2.2-.3.3-.2.2-.3.1-.3.2-.3.1-.3.1-.4v-.3"/></g><g clip-path="url(#a)"><path fill="#dd0f23" d="M375.1 110.9v-.7l-.1-.3-.1-.3-.2-.3-.2-.3-.2-.3-.2-.2-.3-.3-.2-.2-.3-.1-.3-.2-.4-.1-.3-.1h-1l-.4.1-.3.1-.3.1-.3.2-.3.1-.3.3-.2.2-.2.3-.2.2-.2.3-.1.4-.1.3-.1.3v1l.1.4.1.3.2.3.1.3.2.3.2.3.3.2.3.2.2.2.4.1.3.2.3.1h1.4l.3-.1.3-.1.3-.2.3-.1.3-.2.2-.3.3-.2.2-.3.2-.3.1-.3.1-.3.1-.4v-.3"/></g><g clip-path="url(#a)"><path fill="#dd0f23" d="M380.4 89.4v-.3l-.1-.4-.1-.3-.1-.3-.1-.3-.2-.3-.2-.3-.2-.3-.3-.2-.3-.2-.3-.2-.3-.1-.3-.1-.3-.1h-1.1l-.3.1-.3.1-.3.1-.4.1-.2.2-.3.2-.2.3-.3.2-.2.3-.1.3-.1.4-.1.3-.1.3v1l.1.4.1.3.1.3.2.3.2.3.2.3.2.2.3.2.3.2.3.1.3.2h.4l.3.1h1l.3-.1.4-.1.3-.2.3-.2.2-.2.3-.2.2-.2.2-.3.2-.3.1-.3.2-.3V90l.1-.3"/></g><g clip-path="url(#a)"><path fill="#dd0f23" d="M387.1 48.9v-.4l-.1-.3-.1-.3-.1-.3-.1-.4-.2-.2-.2-.3-.2-.3-.3-.2-.3-.2-.3-.2-.3-.1-.3-.1-.3-.1h-1.1l-.3.1h-.3l-.4.2-.3.1-.2.2-.3.2-.3.3-.2.2-.2.3-.1.3-.2.3-.1.4v.3l-.1.3.1.4v.3l.1.4.1.3.1.3.2.3.2.3.2.2.2.3.3.2.3.2.3.1.3.1.3.1.4.1h1l.3-.1.4-.1.3-.2.3-.2.2-.2.3-.2.2-.3.2-.2.2-.3.1-.3.2-.4v-.3l.1-.3"/></g><g clip-path="url(#a)"><path fill="#dd0f23" d="M390.8 48l-.1-.3v-.3l-.1-.4-.1-.3-.2-.3-.1-.3-.3-.3-.2-.2-.2-.3-.3-.2-.3-.1-.3-.2-.4-.1h-.3l-.3-.1h-.7l-.3.1-.4.1-.3.1-.3.2-.3.2-.2.2-.3.2-.2.3-.2.3-.2.3-.1.3-.1.3-.1.3v1.1l.1.3.1.3.2.3.1.3.2.3.2.3.3.2.3.2.3.2.3.2.3.1.3.1h.3l.4.1.3-.1h.4l.3-.1.3-.1.3-.1.3-.2.3-.2.3-.3.2-.2.2-.3.2-.3.1-.3.1-.3.1-.3v-.4"/></g><g clip-path="url(#a)"><path fill="#dd0f23" d="M396.6 97.3l-.1-.4v-.3l-.1-.3-.1-.3-.2-.4-.1-.2-.2-.3-.3-.3-.2-.2-.3-.2-.3-.2-.3-.1-.3-.1-.4-.1h-1l-.3.1-.4.1-.3.1-.3.1-.3.2-.2.2-.3.3-.2.2-.2.3-.2.3-.1.3-.1.4-.1.3v.7l.1.3v.4l.1.3.2.3.1.3.2.3.3.2.2.3.3.2.3.2.3.1.3.1.3.1.4.1h1l.3-.1.3-.1.3-.2.3-.2.3-.2.3-.2.2-.2.2-.3.2-.3.1-.3.1-.4.1-.3v-.3"/></g><g clip-path="url(#a)"><path fill="#dd0f23" d="M402.3 46v-.7l-.1-.3-.1-.4-.2-.3-.2-.3-.2-.2-.2-.3-.3-.2-.2-.2-.3-.2-.4-.1-.3-.1-.3-.1h-.4l-.3-.1-.3.1h-.4l-.3.1-.3.2-.3.1-.3.2-.3.2-.2.3-.2.2-.2.3-.2.3-.1.3-.1.4-.1.3v1l.1.3.1.4.1.3.2.3.2.3.2.2.3.3.2.2.3.2.3.1.4.1.3.1.3.1h.7l.3-.1h.4l.3-.2.3-.1.3-.2.3-.2.2-.2.3-.3.2-.2.1-.3.2-.3.1-.4.1-.3v-.3"/></g><g clip-path="url(#a)"><path fill="#dd0f23" d="M409.5 102v-.6l-.1-.4-.1-.3-.2-.3-.2-.3-.2-.3-.2-.2-.3-.2-.2-.2-.3-.2-.4-.2-.3-.1h-.3l-.3-.1h-.7l-.4.1-.3.1-.3.1-.3.2-.3.2-.3.2-.2.2-.2.3-.2.3-.2.3-.1.3-.1.3-.1.4v1l.1.3.1.3.1.4.2.3.2.2.2.3.3.2.2.2.3.2.3.2.4.1.3.1h.3l.4.1h.3l.3-.1.4-.1.3-.1.3-.1.3-.2.3-.2.2-.2.3-.3.2-.3.1-.3.2-.3.1-.3.1-.3v-.4"/></g><g clip-path="url(#a)"><path fill="#00f" d="M426.3 45l-4.3 4.6-3 3.2-2.8 3.3-3 3.2-2.9 3.2-2.9 3.2-2.9 3.2-2.9 3.3-2.9 3.2-2.9 3.2-2.9 3.2L390 85l-3 3.3-2.8 3.2-2.9 3.2-2.9 3.2-2.9 3.3-3 3.2-2.8 3.2-3 3.2-2.8 3.2-3 3.3-2.8 3.2-3 3.2-2.9 3.2-2.9 3.2-2.9 3.2-2.9 3.3-2.9 3.2-2.9 3.2-2.9 3.2-2.9 3.3-2.9 3.2-2.9 3.2-2.9 3.2-2.9 3.2-2.9 3.3-2.9 3.2-3 3.2-2.8 3.2-3 3.2-2.8 3.3-3 3.2-2.8 3.2-3 3.2-2.9 3.2-2.9 3.3-2.8 3.2-3 3.2-2.8 3.2-3 3.3-2.9 3.2-2.9 3.2-2.9 3.2-2.9 3.2-2.9 3.3-2.9 3.2-2.9 3.2-2.9 3.2-3 3.2-2.8 3.2-3 3.3-2.8 3.2-3 3.2-2.8 3.3-3 3.2-2.8 3.2-3 3.2-2.8 3.2-3 3.2-2.8 3.3-3 3.2-2.9 3.2-2.9 3.2-2.9 3.2-2.9 3.3-2.9 3.2-2.9 3.2-2.9 3.2-2.9 3.2-2.9 3.3-2.9 3.2-2.9 3.2-2.9 3.2-2.9 3.3-3 3.2-2.8 3.2-3 3.2-2.8 3.2-3 3.3-2.8 3.2-3 3.2-2.8 3.2-3 3.2-2.9 3.2-2.9 3.3-2.9 3.2-2.8 3.2-3 3.3 3.7 3.3 3-3.2 2.8-3.2 3-3.3 2.9-3.2 2.9-3.2 2.9-3.3 2.9-3.2 2.9-3.2 2.9-3.2 2.9-3.2 2.9-3.2 3-3.3 2.8-3.2 3-3.2 2.8-3.2 2.9-3.2 3-3.3 2.8-3.2 3-3.2 2.8-3.2 3-3.3 2.8-3.2 3-3.2 2.8-3.2 3-3.2 2.9-3.3 2.9-3.2 2.9-3.2 2.9-3.2 2.9-3.2 2.9-3.3 2.9-3.2 2.9-3.2 2.9-3.2 2.9-3.2 2.9-3.2 2.9-3.3 3-3.2 2.8-3.2 3-3.3 2.8-3.2 3-3.2 2.8-3.2 3-3.2 2.9-3.2 2.9-3.3 2.9-3.2 2.9-3.2 2.8-3.2 3-3.2 2.9-3.3 2.9-3.2 2.9-3.2 2.9-3.2 2.9-3.3 2.9-3.2 2.9-3.2 2.9-3.2 3-3.2 2.8-3.3 3-3.2 2.8-3.2 3-3.2 2.8-3.2 3-3.3 2.8-3.2 3-3.2 2.8-3.2 3-3.2 2.8-3.3 3-3.2 2.9-3.2 2.9-3.2 2.9-3.3 2.9-3.2 2.9-3.2 2.9-3.2 2.9-3.2 2.9-3.2 3-3.3 2.8-3.2 2.9-3.2 2.9-3.2L385 98l3-3.3 2.8-3.2 3-3.2 2.8-3.2 3-3.3 2.8-3.2 3-3.2 2.9-3.2 2.9-3.2 2.9-3.3 2.9-3.2 2.9-3.2 2.9-3.2 5.9-6.4.3-.4-2.7-4.3z"/></g><g><path fill="none" stroke="#323232" stroke-width="2.1" d="M221.3 373.8v-4.3M289.8 373.8v-4.3M358.3 373.8v-4.3M152.9 373.8h273.8"/><text fill="#323232" font-family="Helvetica" font-size="22.5" text-anchor="middle" transform="translate(152.9 395)">-2</text><text fill="#323232" font-family="Helvetica" font-size="22.5" text-anchor="middle" transform="translate(221.3 395)">-1</text><text fill="#323232" font-family="Helvetica" font-size="22.5" text-anchor="middle" transform="translate(289.8 395)">0</text><text fill="#323232" font-family="Helvetica" font-size="22.5" text-anchor="middle" transform="translate(358.3 395)">1</text><text fill="#323232" font-family="Helvetica" font-size="22.5" text-anchor="middle" transform="translate(426.7 395)">2</text><path fill="none" stroke="#323232" stroke-width="2.1" d="M152.9 305.3h2.7M152.9 236.9h2.7M152.9 168.4h2.7M152.9 100h2.7M152.9 373.8V31.5"/><text fill="#323232" font-family="Helvetica" font-size="22.5" text-anchor="end" transform="translate(147.4 379.2)">1</text><text fill="#323232" font-family="Helvetica" font-size="22.5" text-anchor="end" transform="translate(147.4 310.7)">2</text><text fill="#323232" font-family="Helvetica" font-size="22.5" text-anchor="end" transform="translate(147.4 242.3)">3</text><text fill="#323232" font-family="Helvetica" font-size="22.5" text-anchor="end" transform="translate(147.4 173.8)">4</text><text fill="#323232" font-family="Helvetica" font-size="22.5" text-anchor="end" transform="translate(147.4 105.4)">5</text><text fill="#323232" font-family="Helvetica" font-size="22.5" text-anchor="end" transform="translate(147.4 36.9)">6</text><path fill="none" stroke="#000" stroke-width="2.1" d="M152.9 373.8v-3.4M152.9 373.8"/></g><path fill="none" stroke="#000" stroke-width="2.1" d="M426.7 373.8V31.5"/></g></svg>