<svg xmlns="http://www.w3.org/2000/svg" xmlns:xlink="http://www.w3.org/1999/xlink" height="479" viewBox="0 0 864 358.56" width="1153" stroke-linecap="butt" stroke-linejoin="round"><style><![CDATA[.B{stroke:#000}.C{stroke-width:.8}.D{clip-path:url(#h)}.E{stroke-linecap:butt}.F{stroke-linejoin:round}.G{stroke-linejoin:miter}]]></style><g fill="#fff"><path d="M0 358.56h864V0H0z"/><path d="M44.57 316.768h806.1V14.7H44.57z"/></g><path d="M81.2 316.768h6.647v-69.282H81.2zm74.8 0h6.647v-55.88H156zm74.768 0h6.647v-32.633h-6.647zm74.778 0h6.647v-31.26h-6.647zm74.78 0h6.647v-66.722h-6.647zm74.778 0h6.647v-72.3h-6.647zm74.777 0h6.647v-84.524h-6.647zm74.78 0h6.647v-44.952h-6.647zm74.777 0h6.647v-38.905h-6.647zm74.778 0h6.647v-57.38h-6.647z" fill="#1f77b4" class="D"/><path d="M87.858 316.768h6.647V-874.696h-6.647zm74.78 0h6.647v-954.6h-6.647zm74.777 0h6.647v-456.905h-6.647zm74.778 0h6.647v-1012.1h-6.647zm74.777 0h6.647v-819.625h-6.647zm74.78 0h6.647V-872.78h-6.647zm74.778 0h6.647V-903.165h-6.647zm74.778 0h6.647v-591.903h-6.647zm74.78 0h6.647v-666.56h-6.647zm74.778 0h6.647v-832.746h-6.647z" fill="#ff7f0e" class="D"/><path d="M94.505 316.768h6.647v-52.775h-6.647zm74.78 0h6.647V296.37h-6.647zm74.777 0h6.647v-30.34h-6.647zm74.778 0h6.647V286.08h-6.647zm74.778 0h6.647V272h-6.647zm74.78 0h6.647V255.3h-6.647zm74.777 0h6.647v-63.345h-6.647zm74.778 0h6.647V280h-6.647zm74.78 0h6.647v-51.03h-6.647zm74.768 0h6.647v-48.444H767.5z" fill="#2ca02c" class="D"/><path d="M101.152 316.768h6.647v-53.286h-6.647zm74.778 0h6.647V295.37h-6.647zm74.77 0h6.647V286.03H250.7zm74.777 0h6.647v-30.623h-6.647zm74.788 0h6.647v-45.36h-6.647zm74.78 0h6.647V254.07h-6.647zm74.777 0h6.647v-61.272h-6.647zm74.778 0h6.647v-36.892H624.6zm74.78 0h6.647V264.54h-6.647zm74.777 0h6.647V267.32h-6.647z" fill="#d62728" class="D"/><path d="M107.8 316.768h6.647v-52.202H107.8zm74.777 0h6.647v-22.832h-6.647zm74.78 0h6.647v-29.952h-6.647zm74.778 0h6.647v-29.35h-6.647zm74.777 0h6.647v-46.296h-6.647zm74.778 0h6.647v-63.03H481.7zm74.78 0h6.647v-59.62h-6.647zm74.777 0h6.647v-37.052h-6.647zm74.78 0h6.647v-52.304h-6.647zm74.778 0h6.647v-49.15h-6.647z" fill="#9467bd" class="D"/><path d="M114.446 316.768h6.647v-52.3h-6.647zm74.778 0h6.647v-20.46h-6.647zm74.78 0h6.647v-30.144h-6.647zm74.777 0h6.647V286.06h-6.647zm74.78 0h6.647V271.3h-6.647zm74.778 0h6.647V255.92h-6.647zm74.778 0h6.647v-63.323h-6.647zm74.778 0h6.647v-36.696h-6.647zm74.778 0h6.647v-50.873h-6.647zm74.777 0h6.647v-48.415h-6.647z" fill="#8c564b" class="D"/><path d="M121.093 316.768h6.647v-48.193h-6.647zm74.777 0h6.647V295.83h-6.647zm74.78 0h6.647v-27.993h-6.647zm74.778 0h6.647v-31.716h-6.647zm74.778 0h6.647v-49.1h-6.647zm74.78 0h6.647v-54.235h-6.647zm74.777 0h6.647v-63.483h-6.647zm74.777 0h6.647v-34.12h-6.647zm74.78 0h6.647v-50.656h-6.647zm74.778 0h6.647V270.97h-6.647z" fill="#e377c2" class="D"/><path d="M127.74 316.768h6.647V264.57h-6.647zm74.778 0h6.647v-20.3h-6.647zm74.78 0h6.647v-30.152h-6.647zm74.778 0h6.647v-30.755h-6.647zm74.777 0h6.647v-46.036h-6.647zm74.78 0h6.647V255.98h-6.647zm74.767 0h6.647V253.8H576.4zm74.788 0h6.647v-36.445h-6.647zm74.778 0h6.647v-50.8h-6.647zm74.78 0h6.647v-48.2h-6.647z" fill="#7f7f7f" class="D"/><path d="M134.387 316.768h6.647V267.37h-6.647zm74.778 0h6.647v-19.854h-6.647zm74.78 0h6.647V288.17h-6.647zm74.778 0h6.647v-31.45h-6.647zm74.777 0h6.647v-48.15H433.5zm74.78 0h6.647v-56.782h-6.647zm74.777 0h6.647v-64.146h-6.647zm74.778 0h6.647v-35.996h-6.647zm74.778 0h6.647V267.2h-6.647zm74.78 0h6.647v-47.63h-6.647z" fill="#bcbd22" class="D"/><defs><path d="M0 0v3.5" id="A" class="B C E F"/></defs><use x="111.123" xlink:href="#A" y="316.768" class="B C"/><defs><path d="M31.78 66.406q-7.61 0-11.453-7.5-3.828-7.484-3.828-22.53 0-14.984 3.828-22.484 3.844-7.5 11.453-7.5 7.672 0 11.5 7.5 3.844 7.5 3.844 22.484 0 15.047-3.844 22.53-3.828 7.5-11.5 7.5zm0 7.813q12.266 0 18.734-9.703 6.47-9.687 6.47-28.14 0-18.406-6.47-28.11-6.47-9.687-18.734-9.687-12.25 0-18.72 9.688-6.47 9.703-6.47 28.11 0 18.453 6.47 28.14 6.47 9.703 18.72 9.703z" id="B"/></defs><use xlink:href="#B" transform="matrix(.1 0 0 -.1 107.941431 331.366278)"/><use x="260.679" xlink:href="#A" y="316.768" class="B C"/><defs><path d="M19.188 8.297H53.61V0H7.328v8.297q5.61 5.813 15.297 15.594 9.703 9.797 12.188 12.64 4.734 5.313 6.61 9 1.89 3.688 1.89 7.25 0 5.813-4.078 9.47-4.078 3.672-10.625 3.672-4.64 0-9.797-1.61-5.14-1.61-11-4.89v9.97q5.953 2.39 11.125 3.61 5.188 1.22 9.484 1.22 11.328 0 18.063-5.672 6.734-5.656 6.734-15.125 0-4.5-1.687-8.53-1.672-4.016-6.125-9.484-1.22-1.422-7.766-8.187-6.53-6.766-18.453-18.922z" id="C"/></defs><use xlink:href="#C" transform="matrix(.1 0 0 -.1 257.498017 331.366278)"/><use x="410.236" xlink:href="#A" y="316.768" class="B C"/><defs><path d="M37.797 64.313L12.89 25.39h24.906zm-2.594 8.594H47.61V25.39h10.406v-8.203H47.61V0h-9.812v17.188H4.89v9.516z" id="D"/></defs><use xlink:href="#D" transform="matrix(.1 0 0 -.1 407.054603 331.366278)"/><use x="559.792" xlink:href="#A" y="316.768" class="B C"/><defs><path d="M33.016 40.375q-6.64 0-10.53-4.547-3.875-4.53-3.875-12.437 0-7.86 3.875-12.437 3.89-4.562 10.53-4.562 6.64 0 10.516 4.563 3.875 4.578 3.875 12.438 0 7.906-3.875 12.438-3.875 4.547-10.516 4.547zm19.578 30.922v-8.984q-3.72 1.75-7.5 2.672-3.78.938-7.5.938-9.766 0-14.922-6.594-5.14-6.594-5.875-19.922 2.875 4.25 7.22 6.516 4.36 2.266 9.578 2.266 10.984 0 17.36-6.672 6.375-6.656 6.375-18.125 0-11.234-6.64-18.03-6.64-6.78-17.672-6.78-12.656 0-19.344 9.688-6.687 9.703-6.687 28.11 0 17.28 8.203 27.563 8.203 10.28 22.016 10.28 3.72 0 7.5-.734 3.78-.734 7.89-2.187z" id="E"/></defs><use xlink:href="#E" transform="matrix(.1 0 0 -.1 556.61119 331.366278)"/><use x="709.349" xlink:href="#A" y="316.768" class="B C"/><defs><path d="M31.78 34.625q-7.03 0-11.062-3.766-4.016-3.766-4.016-10.344 0-6.594 4.016-10.36Q24.75 6.39 31.78 6.39q7.03 0 11.078 3.78 4.063 3.797 4.063 10.344 0 6.578-4.03 10.344-4.016 3.766-11.11 3.766zm-9.86 4.188q-6.344 1.563-9.89 5.906-3.53 4.36-3.53 10.61 0 8.734 6.22 13.813 6.234 5.078 17.063 5.078 10.89 0 17.094-5.078 6.203-5.078 6.203-13.812 0-6.25-3.547-10.61-3.53-4.344-9.828-5.906 7.125-1.656 11.094-6.5 3.984-4.828 3.984-11.797 0-10.61-6.47-16.28-6.47-5.656-18.53-5.656-12.047 0-18.53 5.656-6.47 5.672-6.47 16.28 0 6.97 4 11.797 4.016 4.844 11.14 6.5zm-3.61 15.578q0-5.656 3.53-8.828 3.547-3.172 9.938-3.172 6.36 0 9.938 3.172 3.594 3.172 3.594 8.828 0 5.672-3.594 8.844-3.578 3.172-9.937 3.172-6.39 0-9.937-3.172-3.53-3.172-3.53-8.844z" id="F"/></defs><use xlink:href="#F" transform="matrix(.1 0 0 -.1 706.167776 331.366278)"/><defs><path d="M44.28 53.078v-8.5q-3.797 1.953-7.906 2.922-4.094.984-8.5.984-6.687 0-10.03-2.047Q14.5 44.39 14.5 40.28q0-3.125 2.39-4.906 2.39-1.78 9.625-3.39l3.078-.687q9.563-2.047 13.594-5.78 4.03-3.734 4.03-10.422 0-7.625-6.03-12.078-6.03-4.437-16.578-4.437-4.39 0-9.156.86Q10.688.297 5.422 2v9.28q4.984-2.594 9.813-3.89 4.828-1.28 9.578-1.28 6.344 0 9.75 2.172 3.422 2.172 3.422 6.125 0 3.656-2.47 5.61-2.453 1.953-10.812 3.766l-3.125.734q-8.344 1.75-12.062 5.39-3.703 3.64-3.703 9.984 0 7.72 5.47 11.906Q16.75 56 26.813 56q4.97 0 9.36-.734 4.406-.72 8.11-2.187z" id="G"/><path d="M34.28 27.484q-10.89 0-15.094-2.484-4.203-2.484-4.203-8.5 0-4.78 3.156-7.594 3.156-2.797 8.563-2.797 7.484 0 12 5.297 4.516 5.297 4.516 14.078v2zm17.922 3.72V0H43.22v8.297Q40.14 3.328 35.547.953q-4.594-2.375-11.234-2.375-8.39 0-13.36 4.72Q6 8.016 6 15.922q0 9.22 6.172 13.906 6.188 4.688 18.438 4.688h12.61v.89q0 6.203-4.078 9.594-4.078 3.39-11.453 3.39-4.687 0-9.14-1.125-4.437-1.125-8.53-3.375v8.313q4.922 1.906 9.563 2.844 4.64.953 9.03.953 11.875 0 17.734-6.156 5.86-6.14 5.86-18.64z" id="H"/><path d="M52 44.188q3.375 6.063 8.063 8.938Q64.75 56 71.094 56q8.547 0 13.188-5.984 4.64-5.97 4.64-17V0h-9.03v32.72q0 7.86-2.797 11.656-2.78 3.813-8.484 3.813-6.984 0-11.047-4.64-4.047-4.625-4.047-12.64V0h-9.03v32.72q0 7.906-2.78 11.688-2.78 3.78-8.594 3.78-6.89 0-10.953-4.656-4.047-4.656-4.047-12.625V0h-9.03v54.688h9.03v-8.5q3.078 5.03 7.375 7.422Q29.78 56 35.688 56q5.97 0 10.14-3.03Q50 49.953 52 44.188z" id="I"/><path d="M18.11 8.203v-29h-9.03v75.484h9.03V46.39q2.844 4.875 7.156 7.234Q29.594 56 35.594 56q9.97 0 16.188-7.906 6.234-7.906 6.234-20.797 0-12.89-6.234-20.812-6.22-7.906-16.187-7.906-6 0-10.328 2.375-4.312 2.375-7.156 7.25zm30.578 19.094q0 9.906-4.078 15.547-4.078 5.64-11.203 5.64-7.14 0-11.22-5.64-4.078-5.64-4.078-15.547 0-9.906 4.078-15.547 4.078-5.64 11.22-5.64 7.125 0 11.203 5.64 4.078 5.64 4.078 15.547z" id="J"/><path d="M9.422 75.984h8.984V0H9.422z" id="K"/><path d="M56.203 29.594v-4.39H14.89q.594-9.28 5.594-14.14 5-4.86 13.938-4.86 5.172 0 10.03 1.266 4.86 1.266 9.656 3.813v-8.5Q49.266.734 44.188-.344 39.11-1.422 33.89-1.422q-13.094 0-20.734 7.61-7.64 7.625-7.64 20.625 0 13.422 7.25 21.297Q20.016 56 32.328 56q11.03 0 17.453-7.11 6.422-7.094 6.422-19.297zm-8.984 2.64q-.094 7.36-4.125 11.75-4.03 4.406-10.672 4.406-7.516 0-12.03-4.25-4.516-4.25-5.203-11.97z" id="L"/></defs><g transform="matrix(.1 0 0 -.1 429.446094 345.044403)"><use xlink:href="#G"/><use x="52.1" xlink:href="#H"/><use x="113.379" xlink:href="#I"/><use x="210.791" xlink:href="#J"/><use x="274.268" xlink:href="#K"/><use x="302.051" xlink:href="#L"/></g><defs><path d="M0 0h-3.5" id="M" class="B C E F"/></defs><use x="44.57" xlink:href="#M" y="316.768" class="B C"/><use xlink:href="#B" transform="matrix(.1 0 0 -.1 31.2075 320.567059)"/><use x="44.57" xlink:href="#M" y="273.615" class="B C"/><defs><path d="M12.406 8.297h16.11v55.625l-17.53-3.516v8.984l17.438 3.516h9.86V8.297h16.11V0H12.406z" id="N"/></defs><g transform="matrix(.1 0 0 -.1 24.845 277.414647)"><use xlink:href="#N"/><use x="63.623" xlink:href="#B"/></g><use x="44.57" xlink:href="#M" y="230.463" class="B C"/><g transform="matrix(.1 0 0 -.1 24.845 234.262236)"><use xlink:href="#C"/><use x="63.623" xlink:href="#B"/></g><use x="44.57" xlink:href="#M" y="187.311" class="B C"/><defs><path d="M40.578 39.313Q47.656 37.797 51.625 33q3.984-4.78 3.984-11.812 0-10.78-7.422-16.703-7.422-5.906-21.094-5.906-4.578 0-9.437.906-4.86.906-10.03 2.72v9.516q4.094-2.39 8.97-3.61 4.89-1.22 10.22-1.22 9.266 0 14.125 3.656 4.86 3.656 4.86 10.64 0 6.453-4.516 10.078-4.516 3.64-12.562 3.64h-8.5v8.11h8.89q7.266 0 11.125 2.906 3.86 2.906 3.86 8.375 0 5.61-3.984 8.61-3.97 3.016-11.39 3.016-4.062 0-8.703-.89-4.64-.875-10.203-2.72v8.78q5.625 1.563 10.53 2.344 4.906.78 9.25.78 11.234 0 17.766-5.11 6.547-5.094 6.547-13.78 0-6.062-3.47-10.234-3.47-4.172-9.86-5.78z" id="O"/></defs><g transform="matrix(.1 0 0 -.1 24.845 191.109824)"><use xlink:href="#O"/><use x="63.623" xlink:href="#B"/></g><use x="44.57" xlink:href="#M" y="144.158" class="B C"/><g transform="matrix(.1 0 0 -.1 24.845 147.957413)"><use xlink:href="#D"/><use x="63.623" xlink:href="#B"/></g><use x="44.57" xlink:href="#M" y="101.006" class="B C"/><defs><path d="M10.797 72.906h38.72v-8.312H19.828v-17.86q2.14.734 4.28 1.094 2.156.36 4.313.36 12.203 0 19.328-6.687 7.14-6.687 7.14-18.11 0-11.766-7.328-18.297-7.328-6.516-20.656-6.516-4.594 0-9.36.78-4.75.78-9.828 2.344v9.922q4.39-2.39 9.078-3.562 4.688-1.172 9.906-1.172 8.453 0 13.375 4.438 4.938 4.438 4.938 12.063 0 7.61-4.937 12.047-4.922 4.453-13.375 4.453-3.953 0-7.89-.875-3.922-.875-8.016-2.734z" id="P"/></defs><g transform="matrix(.1 0 0 -.1 24.845 104.805002)"><use xlink:href="#P"/><use x="63.623" xlink:href="#B"/></g><use x="44.57" xlink:href="#M" y="57.853" class="B C"/><g transform="matrix(.1 0 0 -.1 24.845 61.65259)"><use xlink:href="#E"/><use x="63.623" xlink:href="#B"/></g><use x="44.57" xlink:href="#M" y="14.701" class="B C"/><defs><path d="M8.203 72.906h46.875v-4.203L28.61 0H18.313L43.22 64.594H8.203z" id="Q"/></defs><g transform="matrix(.1 0 0 -.1 24.845 18.500179)"><use xlink:href="#Q"/><use x="63.623" xlink:href="#B"/></g><defs><path d="M44.39 34.188q3.172-1.078 6.172-4.594 3-3.516 6.03-9.672L66.61 0H56l-9.312 18.703q-3.625 7.328-7.016 9.72-3.39 2.39-9.25 2.39h-10.75V0h-9.86v72.906h22.266q12.5 0 18.656-5.234 6.156-5.22 6.156-15.766 0-6.89-3.203-11.437-3.203-4.53-9.297-6.28zm-24.72 30.61V38.922h12.406q7.125 0 10.766 3.297 3.64 3.297 3.64 9.688 0 6.39-3.64 9.64-3.64 3.25-10.766 3.25z" id="R"/><path d="M9.813 72.906h14.703l18.594-49.61 18.703 49.61h14.703V0H66.89v64.016l-18.797-50h-9.906l-18.797 50V0H9.813z" id="S"/><path d="M53.516 70.516V60.89q-5.61 2.688-10.594 4-4.984 1.328-9.625 1.328-8.047 0-12.422-3.125-4.375-3.125-4.375-8.89 0-4.844 2.906-7.312 2.906-2.453 11.016-3.97l5.953-1.22q11.03-2.11 16.28-7.406 5.25-5.297 5.25-14.172 0-10.61-7.11-16.078-7.094-5.47-20.812-5.47-5.172 0-11.016 1.172Q13.14.922 6.89 3.22v10.156q6-3.36 11.766-5.078 5.766-1.703 11.328-1.703 8.438 0 13.03 3.313 4.594 3.328 4.594 9.484 0 5.36-3.297 8.39-3.297 3.03-10.812 4.547L27.484 33.5q-11.03 2.188-15.97 6.875-4.922 4.688-4.922 13.047 0 9.672 6.813 15.234 6.813 5.563 18.766 5.563 5.14 0 10.453-.937 5.328-.922 10.89-2.766z" id="T"/><path d="M9.813 72.906h46.094v-8.312H19.672V43.016h34.72V34.72h-34.72V8.297h37.11V0H9.813z" id="U"/></defs><g transform="matrix(0 -.1 -.1 0 18.765313 179.856275)"><use xlink:href="#R"/><use x="69.482" xlink:href="#S"/><use x="155.762" xlink:href="#T"/><use x="219.238" xlink:href="#U"/></g><g stroke-linecap="square" fill="none" class="B C G"><path d="M44.57 316.768V14.7m806.1 302.068V14.7"/><path d="M44.57 316.768h806.1M44.57 14.7h806.1"/></g><path d="M345.7 52.057h497.98q2 0 2-2V21.7q0-2-2-2H345.7q-2 0-2 2v28.356q0 2 2 2z" fill="#fff" opacity=".8" stroke="#ccc" class="G"/><path d="M347.7 31.3h20v-7h-20z" fill="#1f77b4"/><defs><path d="M34.188 63.188l-13.39-36.28H47.61zm-5.578 9.72h11.188L67.578 0h-10.25l-6.64 18.703h-32.86L11.188 0H.78z" id="V"/><path d="M45.406 46.39v29.594h8.984V0h-8.984v8.203Q42.578 3.328 38.25.953q-4.312-2.375-10.375-2.375-9.906 0-16.14 7.906-6.22 7.922-6.22 20.813 0 12.89 6.22 20.797Q17.97 56 27.875 56q6.063 0 10.375-2.375 4.328-2.36 7.156-7.234zm-30.61-19.094q0-9.906 4.078-15.547 4.078-5.64 11.203-5.64 7.125 0 11.22 5.64 4.11 5.64 4.11 15.547 0 9.906-4.11 15.547-4.094 5.64-11.22 5.64-7.125 0-11.203-5.64-4.078-5.64-4.078-15.547z" id="W"/><path d="M18.313 70.22v-15.53h18.5v-6.984h-18.5V18.016q0-6.687 1.828-8.594 1.828-1.906 7.453-1.906h9.22V0h-9.22q-10.406 0-14.36 3.875-3.953 3.89-3.953 14.14v29.688H2.688v6.984H9.28v15.53z" id="X"/></defs><g transform="matrix(.1 0 0 -.1 375.700312 31.299397)"><use xlink:href="#V"/><use x="68.393" xlink:href="#W"/><use x="131.869" xlink:href="#H"/><use x="193.148" xlink:href="#W"/><use x="256.625" xlink:href="#L"/><use x="318.148" xlink:href="#K"/><use x="345.932" xlink:href="#X"/><use x="385.141" xlink:href="#H"/></g><path d="M347.7 45.978h20v-7h-20z" fill="#ff7f0e"/><defs><path d="M45.406 27.984q0 9.766-4.03 15.125-4.016 5.375-11.297 5.375-7.22 0-11.25-5.375-4.03-5.36-4.03-15.125 0-9.72 4.03-15.094 4.03-5.375 11.25-5.375 7.28 0 11.297 5.375 4.03 5.375 4.03 15.094zM54.39 6.78q0-13.953-6.203-20.766Q42-20.797 29.203-20.797q-4.734 0-8.937.703-4.203.703-8.156 2.172v8.734q3.953-2.14 7.813-3.156 3.86-1.03 7.86-1.03 8.844 0 13.234 4.61 4.39 4.61 4.39 13.938v4.453Q42.625 4.78 38.28 2.39 33.938 0 27.875 0 17.828 0 11.672 7.656q-6.156 7.672-6.156 20.328 0 12.688 6.156 20.344Q17.828 56 27.875 56q6.063 0 10.406-2.39 4.344-2.39 7.125-7.22v8.297h8.984z" id="Y"/><path d="M41.11 46.297q-1.516.875-3.297 1.28Q36.03 48 33.89 48q-7.625 0-11.703-4.953-4.078-4.953-4.078-14.234V0h-9.03v54.688h9.03v-8.5q2.844 4.984 7.375 7.39Q30.03 56 36.53 56q.922 0 2.047-.125 1.125-.11 2.484-.36z" id="Z"/></defs><g transform="matrix(.1 0 0 -.1 375.700312 45.977522)"><use xlink:href="#V"/><use x="68.393" xlink:href="#W"/><use x="131.869" xlink:href="#H"/><use x="193.148" xlink:href="#Y"/><use x="256.625" xlink:href="#Z"/><use x="297.738" xlink:href="#H"/><use x="359.018" xlink:href="#W"/></g><path d="M440.344 31.3h20v-7h-20z" fill="#2ca02c"/><g transform="matrix(.1 0 0 -.1 468.344062 31.299397)"><use xlink:href="#V"/><use x="68.393" xlink:href="#W"/><use x="131.869" xlink:href="#H"/><use x="193.148" xlink:href="#I"/></g><path d="M440.344 45.978h20v-7h-20z" fill="#d62728"/><defs><path d="M54.89 54.688l-19.78-26.61L55.906 0H45.313L29.39 21.484 13.484 0H2.875l21.25 28.61L4.688 54.688H15.28l14.5-19.484 14.5 19.484z" id="a"/></defs><g transform="matrix(.1 0 0 -.1 468.344062 45.977522)"><use xlink:href="#V"/><use x="68.393" xlink:href="#W"/><use x="131.869" xlink:href="#H"/><use x="193.148" xlink:href="#I"/><use x="290.561" xlink:href="#H"/><use x="351.84" xlink:href="#a"/></g><path d="M529.447 31.3h20v-7h-20z" fill="#9467bd"/><g transform="matrix(.1 0 0 -.1 557.447187 31.299397)"><use xlink:href="#V"/><use x="68.408" xlink:href="#S"/><use x="154.688" xlink:href="#T"/><use x="218.164" xlink:href="#Y"/><use x="281.641" xlink:href="#Z"/><use x="322.754" xlink:href="#H"/><use x="384.033" xlink:href="#W"/></g><path d="M529.447 45.978h20v-7h-20z" fill="#8c564b"/><defs><path d="M9.813 72.906h13.28l32.328-60.984v60.984h9.563V0h-13.28L19.39 60.984V0H9.813z" id="b"/><path d="M30.61 48.39q-7.22 0-11.422-5.64-4.203-5.64-4.203-15.453 0-9.812 4.172-15.453 4.188-5.64 11.453-5.64 7.188 0 11.375 5.656 4.203 5.672 4.203 15.438 0 9.72-4.203 15.406-4.187 5.688-11.375 5.688zm0 7.61q11.72 0 18.406-7.625 6.703-7.61 6.703-21.078 0-13.422-6.703-21.078-6.687-7.64-18.406-7.64-11.766 0-18.437 7.64-6.656 7.656-6.656 21.078 0 13.47 6.656 21.078Q18.844 56 30.61 56z" id="c"/><path d="M2.984 54.688H12.5l17.094-45.89 17.094 45.89h9.516L35.688 0H23.484z" id="d"/></defs><g transform="matrix(.1 0 0 -.1 557.447187 45.977522)"><use xlink:href="#b"/><use x="74.805" xlink:href="#L"/><use x="136.328" xlink:href="#G"/><use x="188.428" xlink:href="#X"/><use x="227.637" xlink:href="#L"/><use x="289.16" xlink:href="#Z"/><use x="330.242" xlink:href="#c"/><use x="391.424" xlink:href="#d"/><use x="450.604" xlink:href="#Cd"/><use x="482.391" xlink:href="#V"/><use x="550.783" xlink:href="#W"/><use x="614.26" xlink:href="#H"/><use x="675.539" xlink:href="#I"/></g><path d="M654.744 31.3h20v-7h-20z" fill="#e377c2"/><defs><path d="M54.89 33.016V0h-8.984v32.72q0 7.766-3.03 11.61-3.03 3.86-9.078 3.86-7.28 0-11.484-4.64-4.203-4.625-4.203-12.64V0h-9.03v54.688h9.03v-8.5q3.234 4.938 7.594 7.375Q30.078 56 35.797 56q9.422 0 14.25-5.828 4.844-5.828 4.844-17.156z" id="e"/></defs><g transform="matrix(.1 0 0 -.1 682.744062 31.299397)"><use xlink:href="#b"/><use x="74.805" xlink:href="#L"/><use x="136.328" xlink:href="#G"/><use x="188.428" xlink:href="#X"/><use x="227.637" xlink:href="#L"/><use x="289.16" xlink:href="#Z"/><use x="330.242" xlink:href="#c"/><use x="391.424" xlink:href="#d"/><use x="450.604" xlink:href="#Cd"/><use x="482.391" xlink:href="#S"/><use x="568.67" xlink:href="#c"/><use x="629.852" xlink:href="#I"/><use x="727.264" xlink:href="#L"/><use x="788.787" xlink:href="#e"/><use x="852.166" xlink:href="#X"/></g><path d="M654.744 45.978h20v-7h-20z" fill="#7f7f7f"/><g transform="matrix(.1 0 0 -.1 682.744062 45.977522)"><use xlink:href="#R"/><use x="69.482" xlink:href="#S"/><use x="155.762" xlink:href="#T"/><use x="219.238" xlink:href="#J"/><use x="282.715" xlink:href="#Z"/><use x="323.797" xlink:href="#c"/><use x="384.979" xlink:href="#J"/></g><path d="M791.883 31.3h20v-7h-20z" fill="#bcbd22"/><defs><path d="M59.516 10.406v19.578h-16.11v8.11H69.28V6.78Q63.578 2.734 56.688.656 49.813-1.422 42-1.422q-17.094 0-26.75 9.984-9.64 10-9.64 27.813 0 17.875 9.64 27.86Q24.906 74.22 42 74.22q7.125 0 13.547-1.766 6.422-1.75 11.844-5.172v-10.5q-5.47 4.64-11.625 6.984-6.156 2.344-12.937 2.344-13.39 0-20.11-7.47-6.703-7.47-6.703-22.266 0-14.75 6.703-22.22 6.72-7.47 20.11-7.47 5.22 0 9.313.906 4.11.906 7.375 2.813z" id="f"/><path d="M19.672 64.797V8.11h11.922q15.094 0 22.094 6.828 7 6.844 7 21.594 0 14.64-7 21.453-7 6.813-22.094 6.813zm-9.86 8.11h20.266q21.188 0 31.094-8.812 9.922-8.812 9.922-27.562 0-18.86-9.97-27.703Q51.172 0 30.078 0H9.813z" id="g"/></defs><g transform="matrix(.1 0 0 -.1 819.883125 31.299397)"><use xlink:href="#T"/><use x="63.477" xlink:href="#f"/><use x="140.967" xlink:href="#g"/></g><defs><clipPath id="h"><path d="M44.57 14.7h806.1v302.067H44.57z"/></clipPath></defs></svg>