<svg xmlns="http://www.w3.org/2000/svg" xmlns:xlink="http://www.w3.org/1999/xlink" height="479" viewBox="0 0 360 358.56" width="481" stroke-linecap="butt" stroke-linejoin="round"><style><![CDATA[.B{stroke-linecap:square}.C{fill:none}.D{clip-path:url(#t)}.E{stroke-width:1.5}.F{stroke-linejoin:miter}.G{stroke:#000}.H{stroke-width:.8}.I{stroke-linejoin:round}.J{stroke-linecap:butt}.K{stroke:#1f77b4}.L{stroke:#ff7f0e}.M{stroke:#2ca02c}.N{stroke:#d62728}.O{stroke:#9467bd}.P{stroke:#8c564b}.Q{stroke:#e377c2}.R{stroke:#7f7f7f}.S{stroke:#bcbd22}.T{stroke-linejoin:bevel}]]></style><g fill="#fff"><path d="M0 358.56h360V0H0z"/><path d="M47.72 316.768h297.25v-303.5H47.72z"/></g><defs><path d="M0 0v3.5" id="A" class="G H I J"/></defs><use x="61.231" xlink:href="#A" y="316.768" class="G H"/><defs><path d="M31.78 66.406q-7.61 0-11.453-7.5-3.828-7.484-3.828-22.53 0-14.984 3.828-22.484 3.844-7.5 11.453-7.5 7.672 0 11.5 7.5 3.844 7.5 3.844 22.484 0 15.047-3.844 22.53-3.828 7.5-11.5 7.5zm0 7.813q12.266 0 18.734-9.703 6.47-9.687 6.47-28.14 0-18.406-6.47-28.11-6.47-9.687-18.734-9.687-12.25 0-18.72 9.688-6.47 9.703-6.47 28.11 0 18.453 6.47 28.14 6.47 9.703 18.72 9.703z" id="B"/></defs><use xlink:href="#B" transform="matrix(.1 0 0 -.1 58.050052 331.366278)"/><use x="117.528" xlink:href="#A" y="316.768" class="G H"/><defs><path d="M10.797 72.906h38.72v-8.312H19.828v-17.86q2.14.734 4.28 1.094 2.156.36 4.313.36 12.203 0 19.328-6.687 7.14-6.687 7.14-18.11 0-11.766-7.328-18.297-7.328-6.516-20.656-6.516-4.594 0-9.36.78-4.75.78-9.828 2.344v9.922q4.39-2.39 9.078-3.562 4.688-1.172 9.906-1.172 8.453 0 13.375 4.438 4.938 4.438 4.938 12.063 0 7.61-4.937 12.047-4.922 4.453-13.375 4.453-3.953 0-7.89-.875-3.922-.875-8.016-2.734z" id="C"/></defs><use xlink:href="#C" transform="matrix(.1 0 0 -.1 114.347142 331.366278)"/><use x="173.825" xlink:href="#A" y="316.768" class="G H"/><defs><path d="M12.406 8.297h16.11v55.625l-17.53-3.516v8.984l17.438 3.516h9.86V8.297h16.11V0H12.406z" id="D"/></defs><g transform="matrix(.1 0 0 -.1 167.462982 331.366278)"><use xlink:href="#D"/><use x="63.623" xlink:href="#B"/></g><use x="230.123" xlink:href="#A" y="316.768" class="G H"/><g transform="matrix(.1 0 0 -.1 223.760072 331.366278)"><use xlink:href="#D"/><use x="63.623" xlink:href="#C"/></g><use x="286.42" xlink:href="#A" y="316.768" class="G H"/><defs><path d="M19.188 8.297H53.61V0H7.328v8.297q5.61 5.813 15.297 15.594 9.703 9.797 12.188 12.64 4.734 5.313 6.61 9 1.89 3.688 1.89 7.25 0 5.813-4.078 9.47-4.078 3.672-10.625 3.672-4.64 0-9.797-1.61-5.14-1.61-11-4.89v9.97q5.953 2.39 11.125 3.61 5.188 1.22 9.484 1.22 11.328 0 18.063-5.672 6.734-5.656 6.734-15.125 0-4.5-1.687-8.53-1.672-4.016-6.125-9.484-1.22-1.422-7.766-8.187-6.53-6.766-18.453-18.922z" id="E"/></defs><g transform="matrix(.1 0 0 -.1 280.057163 331.366278)"><use xlink:href="#E"/><use x="63.623" xlink:href="#B"/></g><use x="342.717" xlink:href="#A" y="316.768" class="G H"/><g transform="matrix(.1 0 0 -.1 336.354253 331.366278)"><use xlink:href="#E"/><use x="63.623" xlink:href="#C"/></g><defs><path d="M56.203 29.594v-4.39H14.89q.594-9.28 5.594-14.14 5-4.86 13.938-4.86 5.172 0 10.03 1.266 4.86 1.266 9.656 3.813v-8.5Q49.266.734 44.188-.344 39.11-1.422 33.89-1.422q-13.094 0-20.734 7.61-7.64 7.625-7.64 20.625 0 13.422 7.25 21.297Q20.016 56 32.328 56q11.03 0 17.453-7.11 6.422-7.094 6.422-19.297zm-8.984 2.64q-.094 7.36-4.125 11.75-4.03 4.406-10.672 4.406-7.516 0-12.03-4.25-4.516-4.25-5.203-11.97z" id="F"/><path d="M18.11 8.203v-29h-9.03v75.484h9.03V46.39q2.844 4.875 7.156 7.234Q29.594 56 35.594 56q9.97 0 16.188-7.906 6.234-7.906 6.234-20.797 0-12.89-6.234-20.812-6.22-7.906-16.187-7.906-6 0-10.328 2.375-4.312 2.375-7.156 7.25zm30.578 19.094q0 9.906-4.078 15.547-4.078 5.64-11.203 5.64-7.14 0-11.22-5.64-4.078-5.64-4.078-15.547 0-9.906 4.078-15.547 4.078-5.64 11.22-5.64 7.125 0 11.203 5.64 4.078 5.64 4.078 15.547z" id="G"/><path d="M30.61 48.39q-7.22 0-11.422-5.64-4.203-5.64-4.203-15.453 0-9.812 4.172-15.453 4.188-5.64 11.453-5.64 7.188 0 11.375 5.656 4.203 5.672 4.203 15.438 0 9.72-4.203 15.406-4.187 5.688-11.375 5.688zm0 7.61q11.72 0 18.406-7.625 6.703-7.61 6.703-21.078 0-13.422-6.703-21.078-6.687-7.64-18.406-7.64-11.766 0-18.437 7.64-6.656 7.656-6.656 21.078 0 13.47 6.656 21.078Q18.844 56 30.61 56z" id="H"/><path d="M48.78 52.594v-8.406q-3.812 2.11-7.64 3.156-3.828 1.047-7.734 1.047-8.75 0-13.594-5.547-4.828-5.53-4.828-15.547 0-10.016 4.828-15.562 4.844-5.53 13.594-5.53 3.906 0 7.734 1.047 3.828 1.047 7.64 3.156V2.094Q45.016.344 40.984-.53q-4.016-.89-8.562-.89-12.36 0-19.64 7.766-7.266 7.766-7.266 20.953 0 13.375 7.344 21.03Q20.22 56 33.016 56q4.14 0 8.094-.86 3.953-.844 7.672-2.547z" id="I"/><path d="M54.89 33.016V0h-8.984v32.72q0 7.766-3.03 11.61-3.03 3.86-9.078 3.86-7.28 0-11.484-4.64-4.203-4.625-4.203-12.64V0h-9.03v75.984h9.03V46.188q3.234 4.938 7.594 7.375Q30.078 56 35.797 56q9.422 0 14.25-5.828 4.844-5.828 4.844-17.156z" id="J"/></defs><g transform="matrix(.1 0 0 -.1 181.116193 345.044403)"><use xlink:href="#F"/><use x="61.523" xlink:href="#G"/><use x="125" xlink:href="#H"/><use x="186.182" xlink:href="#I"/><use x="241.162" xlink:href="#J"/></g><defs><path d="M0 0h-3.5" id="K" class="G H I J"/></defs><use x="47.72" xlink:href="#K" y="290.9" class="G H"/><defs><path d="M10.688 12.406H21V0H10.688z" id="L"/></defs><g transform="matrix(.1 0 0 -.1 24.816875 294.699262)"><use xlink:href="#B"/><use x="63.623" xlink:href="#L"/><use x="95.41" xlink:href="#B"/></g><use x="47.72" xlink:href="#K" y="237.878" class="G H"/><g transform="matrix(.1 0 0 -.1 24.816875 241.677137)"><use xlink:href="#B"/><use x="63.623" xlink:href="#L"/><use x="95.41" xlink:href="#E"/></g><use x="47.72" xlink:href="#K" y="184.856" class="G H"/><defs><path d="M37.797 64.313L12.89 25.39h24.906zm-2.594 8.594H47.61V25.39h10.406v-8.203H47.61V0h-9.812v17.188H4.89v9.516z" id="M"/></defs><g transform="matrix(.1 0 0 -.1 24.816875 188.655012)"><use xlink:href="#B"/><use x="63.623" xlink:href="#L"/><use x="95.41" xlink:href="#M"/></g><use x="47.72" xlink:href="#K" y="131.834" class="G H"/><defs><path d="M33.016 40.375q-6.64 0-10.53-4.547-3.875-4.53-3.875-12.437 0-7.86 3.875-12.437 3.89-4.562 10.53-4.562 6.64 0 10.516 4.563 3.875 4.578 3.875 12.438 0 7.906-3.875 12.438-3.875 4.547-10.516 4.547zm19.578 30.922v-8.984q-3.72 1.75-7.5 2.672-3.78.938-7.5.938-9.766 0-14.922-6.594-5.14-6.594-5.875-19.922 2.875 4.25 7.22 6.516 4.36 2.266 9.578 2.266 10.984 0 17.36-6.672 6.375-6.656 6.375-18.125 0-11.234-6.64-18.03-6.64-6.78-17.672-6.78-12.656 0-19.344 9.688-6.687 9.703-6.687 28.11 0 17.28 8.203 27.563 8.203 10.28 22.016 10.28 3.72 0 7.5-.734 3.78-.734 7.89-2.187z" id="N"/></defs><g transform="matrix(.1 0 0 -.1 24.816875 135.632888)"><use xlink:href="#B"/><use x="63.623" xlink:href="#L"/><use x="95.41" xlink:href="#N"/></g><use x="47.72" xlink:href="#K" y="78.812" class="G H"/><defs><path d="M31.78 34.625q-7.03 0-11.062-3.766-4.016-3.766-4.016-10.344 0-6.594 4.016-10.36Q24.75 6.39 31.78 6.39q7.03 0 11.078 3.78 4.063 3.797 4.063 10.344 0 6.578-4.03 10.344-4.016 3.766-11.11 3.766zm-9.86 4.188q-6.344 1.563-9.89 5.906-3.53 4.36-3.53 10.61 0 8.734 6.22 13.813 6.234 5.078 17.063 5.078 10.89 0 17.094-5.078 6.203-5.078 6.203-13.812 0-6.25-3.547-10.61-3.53-4.344-9.828-5.906 7.125-1.656 11.094-6.5 3.984-4.828 3.984-11.797 0-10.61-6.47-16.28-6.47-5.656-18.53-5.656-12.047 0-18.53 5.656-6.47 5.672-6.47 16.28 0 6.97 4 11.797 4.016 4.844 11.14 6.5zm-3.61 15.578q0-5.656 3.53-8.828 3.547-3.172 9.938-3.172 6.36 0 9.938 3.172 3.594 3.172 3.594 8.828 0 5.672-3.594 8.844-3.578 3.172-9.937 3.172-6.39 0-9.937-3.172-3.53-3.172-3.53-8.844z" id="O"/></defs><g transform="matrix(.1 0 0 -.1 24.816875 82.610763)"><use xlink:href="#B"/><use x="63.623" xlink:href="#L"/><use x="95.41" xlink:href="#O"/></g><use x="47.72" xlink:href="#K" y="25.789" class="G H"/><g transform="matrix(.1 0 0 -.1 24.816875 29.588639)"><use xlink:href="#D"/><use x="63.623" xlink:href="#L"/><use x="95.41" xlink:href="#B"/></g><defs><path d="M19.672 64.797v-27.39h12.406q6.89 0 10.64 3.563 3.766 3.563 3.766 10.156 0 6.547-3.766 10.11-3.75 3.563-10.64 3.563zm-9.86 8.11h22.266q12.266 0 18.53-5.547 6.28-5.547 6.28-16.234 0-10.797-6.28-16.312-6.266-5.516-18.53-5.516H19.672V0h-9.86z" id="P"/><path d="M34.28 27.484q-10.89 0-15.094-2.484-4.203-2.484-4.203-8.5 0-4.78 3.156-7.594 3.156-2.797 8.563-2.797 7.484 0 12 5.297 4.516 5.297 4.516 14.078v2zm17.922 3.72V0H43.22v8.297Q40.14 3.328 35.547.953q-4.594-2.375-11.234-2.375-8.39 0-13.36 4.72Q6 8.016 6 15.922q0 9.22 6.172 13.906 6.188 4.688 18.438 4.688h12.61v.89q0 6.203-4.078 9.594-4.078 3.39-11.453 3.39-4.687 0-9.14-1.125-4.437-1.125-8.53-3.375v8.313q4.922 1.906 9.563 2.844 4.64.953 9.03.953 11.875 0 17.734-6.156 5.86-6.14 5.86-18.64z" id="Q"/><path d="M41.11 46.297q-1.516.875-3.297 1.28Q36.03 48 33.89 48q-7.625 0-11.703-4.953-4.078-4.953-4.078-14.234V0h-9.03v54.688h9.03v-8.5q2.844 4.984 7.375 7.39Q30.03 56 36.53 56q.922 0 2.047-.125 1.125-.11 2.484-.36z" id="R"/><path d="M44.28 53.078v-8.5q-3.797 1.953-7.906 2.922-4.094.984-8.5.984-6.687 0-10.03-2.047Q14.5 44.39 14.5 40.28q0-3.125 2.39-4.906 2.39-1.78 9.625-3.39l3.078-.687q9.563-2.047 13.594-5.78 4.03-3.734 4.03-10.422 0-7.625-6.03-12.078-6.03-4.437-16.578-4.437-4.39 0-9.156.86Q10.688.297 5.422 2v9.28q4.984-2.594 9.813-3.89 4.828-1.28 9.578-1.28 6.344 0 9.75 2.172 3.422 2.172 3.422 6.125 0 3.656-2.47 5.61-2.453 1.953-10.812 3.766l-3.125.734q-8.344 1.75-12.062 5.39-3.703 3.64-3.703 9.984 0 7.72 5.47 11.906Q16.75 56 26.813 56q4.97 0 9.36-.734 4.406-.72 8.11-2.187z" id="S"/><path d="M54.89 33.016V0h-8.984v32.72q0 7.766-3.03 11.61-3.03 3.86-9.078 3.86-7.28 0-11.484-4.64-4.203-4.625-4.203-12.64V0h-9.03v54.688h9.03v-8.5q3.234 4.938 7.594 7.375Q30.078 56 35.797 56q9.422 0 14.25-5.828 4.844-5.828 4.844-17.156z" id="T"/><path d="M17.922 72.906v-27.11H9.625v27.11z" id="U"/><path d="M9.422 75.984h8.984V0H9.422z" id="V"/><path d="M18.313 70.22v-15.53h18.5v-6.984h-18.5V18.016q0-6.687 1.828-8.594 1.828-1.906 7.453-1.906h9.22V0h-9.22q-10.406 0-14.36 3.875-3.953 3.89-3.953 14.14v29.688H2.688v6.984H9.28v15.53z" id="W"/><path d="M9.422 54.688h8.984V0H9.422zm0 21.297h8.984v-11.39H9.422z" id="X"/></defs><g transform="matrix(0 -.1 -.1 0 18.737187 217.650874)"><use xlink:href="#P"/><use x="60.256" xlink:href="#F"/><use x="121.779" xlink:href="#Q"/><use x="183.059" xlink:href="#R"/><use x="224.172" xlink:href="#S"/><use x="276.271" xlink:href="#H"/><use x="337.453" xlink:href="#T"/><use x="400.832" xlink:href="#U"/><use x="428.322" xlink:href="#S"/><use x="480.422" xlink:href="#AN"/><use x="512.209" xlink:href="#I"/><use x="567.189" xlink:href="#H"/><use x="628.371" xlink:href="#R"/><use x="669.469" xlink:href="#R"/><use x="710.551" xlink:href="#F"/><use x="772.074" xlink:href="#V"/><use x="799.857" xlink:href="#Q"/><use x="861.137" xlink:href="#W"/><use x="900.346" xlink:href="#X"/><use x="928.129" xlink:href="#H"/><use x="989.311" xlink:href="#T"/></g><path d="M61.23 302.006l11.26-10.05 11.26-9.38L95 270.583l11.26-12.8 11.26-13.59 11.26-15.57 11.26-16.115 11.26-16.2 11.26-16.11 22.52-31.754 11.26-14.624 11.26-13.434 11.26-14.82 11.26-13.122 11.26-12.067 11.26-12.16 11.26-9.806 11.26-8.917 11.26-7.51 11.26-5.595 11.26-3.96 11.26-2.608 11.26-1.397" class="B C D E K"/><defs><path d="M0 3a3 3 0 0 0 2.121-.879A3 3 0 0 0 3 0a3 3 0 0 0-.879-2.121A3 3 0 0 0 0-3a3 3 0 0 0-2.121.879A3 3 0 0 0-3 0a3 3 0 0 0 .879 2.121A3 3 0 0 0 0 3z" id="Y" class="I K"/></defs><g fill="#1f77b4" class="D K"><use x="61.231" xlink:href="#Y" y="302.006"/><use x="95.01" xlink:href="#Y" y="270.583"/><use x="128.788" xlink:href="#Y" y="228.633"/><use x="162.566" xlink:href="#Y" y="180.209"/><use x="196.344" xlink:href="#Y" y="133.831"/><use x="230.123" xlink:href="#Y" y="92.457"/><use x="263.901" xlink:href="#Y" y="58.425"/><use x="297.679" xlink:href="#Y" y="36.402"/><use x="331.457" xlink:href="#Y" y="28.435"/></g><path d="M61.23 302.972l11.26-3.786 11.26-.72 11.26-1.46 11.26-1.176 11.26.227 11.26-2.23 11.26-.713 11.26-1.487 11.26-.538 11.26-.34 11.26-.985 11.26-1.346 11.26-.316 11.26-.545 11.26-.364 11.26-1.446 11.26.522 11.26-1.233 11.26-.223 11.26-.747 11.26-.08 11.26-1.86 11.26.088 11.26-.016" class="B C D E L"/><defs><path d="M0 3l3-6h-6z" id="Z" class="F L"/></defs><g fill="#ff7f0e" class="D F L"><use x="61.231" xlink:href="#Z" y="302.972"/><use x="95.01" xlink:href="#Z" y="297.006"/><use x="128.788" xlink:href="#Z" y="293.829"/><use x="162.566" xlink:href="#Z" y="291.09"/><use x="196.344" xlink:href="#Z" y="288.42"/><use x="230.123" xlink:href="#Z" y="287.195"/><use x="263.901" xlink:href="#Z" y="285.038"/><use x="297.679" xlink:href="#Z" y="283.989"/><use x="331.457" xlink:href="#Z" y="282.2"/></g><path d="M61.23 277.31l11.26-67.174 11.26-62.132L95 99.118l11.26-32.65 11.26-21.506 11.26-10.574 11.26-4.858 11.26-1.76 11.26-.568 11.26-.103 11.26-.024 11.26.01h11.26l11.26-.013 11.26.014 22.52-.014 11.26.03 22.52-.02 45.038.008" class="B C D E M"/><defs><path d="M-3 3h6v-6h-6z" id="a" class="F M"/></defs><g fill="#2ca02c" class="D F M"><use x="61.231" xlink:href="#a" y="277.309"/><use x="95.01" xlink:href="#a" y="99.118"/><use x="128.788" xlink:href="#a" y="34.388"/><use x="162.566" xlink:href="#a" y="27.202"/><use x="196.344" xlink:href="#a" y="27.084"/><use x="230.123" xlink:href="#a" y="27.085"/><use x="263.901" xlink:href="#a" y="27.1"/><use x="297.679" xlink:href="#a" y="27.086"/><use x="331.457" xlink:href="#a" y="27.089"/></g><path d="M61.23 290.884l11.26-34.557 11.26-41.552L95 168.803l11.26-40.8 11.26-38.062 11.26-30.64 11.26-20.114 11.26-9.167 11.26-2.558 11.26-.357 11.26-.032 11.26.01 11.26-.001 11.26-.013 11.26.013 22.52-.015 11.26.03 22.52-.02 45.038.008" class="B C D E N"/><defs><path d="M0 4.243L2.546 0 0-4.243-2.546 0z" id="b" class="F N"/></defs><g fill="#d62728" class="D F N"><use x="61.231" xlink:href="#b" y="290.884"/><use x="95.01" xlink:href="#b" y="168.803"/><use x="128.788" xlink:href="#b" y="59.301"/><use x="162.566" xlink:href="#b" y="27.462"/><use x="196.344" xlink:href="#b" y="27.084"/><use x="230.123" xlink:href="#b" y="27.083"/><use x="263.901" xlink:href="#b" y="27.097"/><use x="297.679" xlink:href="#b" y="27.082"/><use x="331.457" xlink:href="#b" y="27.085"/></g><path d="M61.23 277.3l11.26-67.14 11.26-61.497L95 102.006l11.26-29.792 11.26-19.996 11.26-10.91 11.26-6.343 11.26-3.423 11.26-2 11.26-1.07 11.26-.6 11.26-.34 11.26-.187 11.26-.13 33.778-.12 11.26.018 11.26-.025 11.26-.007 22.52.002 11.26-.02 11.26.02" class="B C D E O"/><defs><path d="M-3 3l6-6m-6 0l6 6" id="c" class="I J O"/></defs><g fill="#9467bd" class="D O"><use x="61.231" xlink:href="#c" y="277.31"/><use x="95.01" xlink:href="#c" y="102.006"/><use x="128.788" xlink:href="#c" y="41.309"/><use x="162.566" xlink:href="#c" y="29.542"/><use x="196.344" xlink:href="#c" y="27.531"/><use x="230.123" xlink:href="#c" y="27.165"/><use x="263.901" xlink:href="#c" y="27.112"/><use x="297.679" xlink:href="#c" y="27.083"/><use x="331.457" xlink:href="#c" y="27.084"/></g><path d="M61.23 277.837l11.26-66.825 11.26-62.1L95 99.877l11.26-32.846 11.26-21.712 11.26-10.738 11.26-4.965 11.26-1.814 11.26-.592 11.26-.1 11.26-.026 11.26.01h11.26l11.26-.013 11.26.014 22.52-.014 11.26.03 22.52-.02 45.038.008" class="B C D E P"/><defs><path d="M-3 0h6M0 3v-6" id="d" class="I J P"/></defs><g fill="#8c564b" class="D P"><use x="61.231" xlink:href="#d" y="277.837"/><use x="95.01" xlink:href="#d" y="99.877"/><use x="128.788" xlink:href="#d" y="34.581"/><use x="162.566" xlink:href="#d" y="27.211"/><use x="196.344" xlink:href="#d" y="27.084"/><use x="230.123" xlink:href="#d" y="27.084"/><use x="263.901" xlink:href="#d" y="27.1"/><use x="297.679" xlink:href="#d" y="27.085"/><use x="331.457" xlink:href="#d" y="27.088"/></g><path d="M61.23 29.06l11.26-1.9 45.038-.05 11.26.028 11.26-.01 11.26.032 11.26-.027 11.26.013 11.26-.01 11.26.01 11.26-.004 11.26-.012 11.26.015 22.52-.016 11.26.032 11.26-.018 11.26-.006 45.038.01" class="B C D E Q"/><defs><path d="M3 0l-6-3v6z" id="e" class="F Q"/></defs><g fill="#e377c2" class="D F Q"><use x="61.231" xlink:href="#e" y="29.06"/><use x="95.01" xlink:href="#e" y="27.133"/><use x="128.788" xlink:href="#e" y="27.127"/><use x="162.566" xlink:href="#e" y="27.122"/><use x="196.344" xlink:href="#e" y="27.136"/><use x="230.123" xlink:href="#e" y="27.135"/><use x="263.901" xlink:href="#e" y="27.151"/><use x="297.679" xlink:href="#e" y="27.13"/><use x="331.457" xlink:href="#e" y="27.136"/></g><path d="M61.23 275.092l11.26-77.305 11.26-75.564L95 66.815l11.26-29.2 11.26-9.75 11.26-.79 11.26-.008 11.26.03 11.26-.028 11.26.013 11.26-.01 11.26.01 11.26-.001 11.26-.013 11.26.013 22.52-.016 11.26.03 22.52-.02 45.038.008" class="B C D E R"/><defs><path d="M0-3L-2.853-.927l1.1 3.354h3.527l1.1-3.354z" id="f" class="F R"/></defs><g fill="#7f7f7f" class="D F R"><use x="61.231" xlink:href="#f" y="275.092"/><use x="95.01" xlink:href="#f" y="66.815"/><use x="128.788" xlink:href="#f" y="27.078"/><use x="162.566" xlink:href="#f" y="27.073"/><use x="196.344" xlink:href="#f" y="27.087"/><use x="230.123" xlink:href="#f" y="27.086"/><use x="263.901" xlink:href="#f" y="27.101"/><use x="297.679" xlink:href="#f" y="27.085"/><use x="331.457" xlink:href="#f" y="27.088"/></g><path d="M61.23 31.097l11.26-3.98L95 27.1h11.26l11.26-.03 11.26.025 11.26-.008 11.26.03 11.26-.027 11.26.013 11.26-.01 11.26.01 11.26-.003 11.26-.013 11.26.014 22.52-.016 11.26.03 33.778-.018 11.26.005 11.26-.02 11.26.022" class="B C D E S"/><defs><path d="M0-3L-.674-.927h-2.18L-1.1.354l-.674 2.073L0 1.146l1.763 1.28L1.1.354l1.763-1.28H.674z" id="g" class="S T"/></defs><g fill="#bcbd22" class="D S T"><use x="61.231" xlink:href="#g" y="31.097"/><use x="95.01" xlink:href="#g" y="27.1"/><use x="128.788" xlink:href="#g" y="27.095"/><use x="162.566" xlink:href="#g" y="27.09"/><use x="196.344" xlink:href="#g" y="27.104"/><use x="230.123" xlink:href="#g" y="27.103"/><use x="263.901" xlink:href="#g" y="27.117"/><use x="297.679" xlink:href="#g" y="27.099"/><use x="331.457" xlink:href="#g" y="27.105"/></g><g class="B C F G H"><path d="M47.72 316.768v-303.5m297.25 303.5v-303.5"/><path d="M47.72 316.768h297.25M47.72 13.267h297.25"/></g><path d="M216.83 232.57h121.14q2 0 2-2V99.466q0-2-2-2H216.83q-2 0-2 2V230.57q0 2 2 2z" fill="#fff" opacity=".8" stroke="#ccc" class="F"/><g class="K"><path d="M218.83 105.564h20" class="B C E"/><use x="228.83" xlink:href="#Y" y="105.564" fill="#1f77b4"/></g><defs><path d="M34.188 63.188l-13.39-36.28H47.61zm-5.578 9.72h11.188L67.578 0h-10.25l-6.64 18.703h-32.86L11.188 0H.78z" id="h"/><path d="M45.406 46.39v29.594h8.984V0h-8.984v8.203Q42.578 3.328 38.25.953q-4.312-2.375-10.375-2.375-9.906 0-16.14 7.906-6.22 7.922-6.22 20.813 0 12.89 6.22 20.797Q17.97 56 27.875 56q6.063 0 10.375-2.375 4.328-2.36 7.156-7.234zm-30.61-19.094q0-9.906 4.078-15.547 4.078-5.64 11.203-5.64 7.125 0 11.22 5.64 4.11 5.64 4.11 15.547 0 9.906-4.11 15.547-4.094 5.64-11.22 5.64-7.125 0-11.203-5.64-4.078-5.64-4.078-15.547z" id="i"/></defs><g transform="matrix(.1 0 0 -.1 246.829574 109.064155)"><use xlink:href="#h"/><use x="68.393" xlink:href="#i"/><use x="131.869" xlink:href="#Q"/><use x="193.148" xlink:href="#i"/><use x="256.625" xlink:href="#F"/><use x="318.148" xlink:href="#V"/><use x="345.932" xlink:href="#W"/><use x="385.141" xlink:href="#Q"/></g><g class="L"><path d="M218.83 120.242h20" class="B C E"/><use x="228.83" xlink:href="#Z" y="120.242" fill="#ff7f0e" class="F"/></g><defs><path d="M45.406 27.984q0 9.766-4.03 15.125-4.016 5.375-11.297 5.375-7.22 0-11.25-5.375-4.03-5.36-4.03-15.125 0-9.72 4.03-15.094 4.03-5.375 11.25-5.375 7.28 0 11.297 5.375 4.03 5.375 4.03 15.094zM54.39 6.78q0-13.953-6.203-20.766Q42-20.797 29.203-20.797q-4.734 0-8.937.703-4.203.703-8.156 2.172v8.734q3.953-2.14 7.813-3.156 3.86-1.03 7.86-1.03 8.844 0 13.234 4.61 4.39 4.61 4.39 13.938v4.453Q42.625 4.78 38.28 2.39 33.938 0 27.875 0 17.828 0 11.672 7.656q-6.156 7.672-6.156 20.328 0 12.688 6.156 20.344Q17.828 56 27.875 56q6.063 0 10.406-2.39 4.344-2.39 7.125-7.22v8.297h8.984z" id="j"/></defs><g transform="matrix(.1 0 0 -.1 246.829574 123.74228)"><use xlink:href="#h"/><use x="68.393" xlink:href="#i"/><use x="131.869" xlink:href="#Q"/><use x="193.148" xlink:href="#j"/><use x="256.625" xlink:href="#R"/><use x="297.738" xlink:href="#Q"/><use x="359.018" xlink:href="#i"/></g><g class="M"><path d="M218.83 134.92h20" class="B C E"/><use x="228.83" xlink:href="#a" y="134.92" fill="#2ca02c" class="F"/></g><defs><path d="M52 44.188q3.375 6.063 8.063 8.938Q64.75 56 71.094 56q8.547 0 13.188-5.984 4.64-5.97 4.64-17V0h-9.03v32.72q0 7.86-2.797 11.656-2.78 3.813-8.484 3.813-6.984 0-11.047-4.64-4.047-4.625-4.047-12.64V0h-9.03v32.72q0 7.906-2.78 11.688-2.78 3.78-8.594 3.78-6.89 0-10.953-4.656-4.047-4.656-4.047-12.625V0h-9.03v54.688h9.03v-8.5q3.078 5.03 7.375 7.422Q29.78 56 35.688 56q5.97 0 10.14-3.03Q50 49.953 52 44.188z" id="k"/></defs><g transform="matrix(.1 0 0 -.1 246.829574 138.420405)"><use xlink:href="#h"/><use x="68.393" xlink:href="#i"/><use x="131.869" xlink:href="#Q"/><use x="193.148" xlink:href="#k"/></g><g class="N"><path d="M218.83 149.6h20" class="B C E"/><use x="228.83" xlink:href="#b" y="149.599" fill="#d62728" class="F"/></g><defs><path d="M54.89 54.688l-19.78-26.61L55.906 0H45.313L29.39 21.484 13.484 0H2.875l21.25 28.61L4.688 54.688H15.28l14.5-19.484 14.5 19.484z" id="l"/></defs><g transform="matrix(.1 0 0 -.1 246.829574 153.09853)"><use xlink:href="#h"/><use x="68.393" xlink:href="#i"/><use x="131.869" xlink:href="#Q"/><use x="193.148" xlink:href="#k"/><use x="290.561" xlink:href="#Q"/><use x="351.84" xlink:href="#l"/></g><g class="O"><path d="M218.83 164.277h20" class="B C E"/><use x="228.83" xlink:href="#c" y="164.277" fill="#9467bd"/></g><defs><path d="M9.813 72.906h14.703l18.594-49.61 18.703 49.61h14.703V0H66.89v64.016l-18.797-50h-9.906l-18.797 50V0H9.813z" id="m"/><path d="M53.516 70.516V60.89q-5.61 2.688-10.594 4-4.984 1.328-9.625 1.328-8.047 0-12.422-3.125-4.375-3.125-4.375-8.89 0-4.844 2.906-7.312 2.906-2.453 11.016-3.97l5.953-1.22q11.03-2.11 16.28-7.406 5.25-5.297 5.25-14.172 0-10.61-7.11-16.078-7.094-5.47-20.812-5.47-5.172 0-11.016 1.172Q13.14.922 6.89 3.22v10.156q6-3.36 11.766-5.078 5.766-1.703 11.328-1.703 8.438 0 13.03 3.313 4.594 3.328 4.594 9.484 0 5.36-3.297 8.39-3.297 3.03-10.812 4.547L27.484 33.5q-11.03 2.188-15.97 6.875-4.922 4.688-4.922 13.047 0 9.672 6.813 15.234 6.813 5.563 18.766 5.563 5.14 0 10.453-.937 5.328-.922 10.89-2.766z" id="n"/></defs><g transform="matrix(.1 0 0 -.1 246.829574 167.776655)"><use xlink:href="#h"/><use x="68.408" xlink:href="#m"/><use x="154.688" xlink:href="#n"/><use x="218.164" xlink:href="#j"/><use x="281.641" xlink:href="#R"/><use x="322.754" xlink:href="#Q"/><use x="384.033" xlink:href="#i"/></g><g class="P"><path d="M218.83 178.955h20" class="B C E"/><use x="228.83" xlink:href="#d" y="178.955" fill="#8c564b"/></g><defs><path d="M9.813 72.906h13.28l32.328-60.984v60.984h9.563V0h-13.28L19.39 60.984V0H9.813z" id="o"/><path d="M2.984 54.688H12.5l17.094-45.89 17.094 45.89h9.516L35.688 0H23.484z" id="p"/></defs><g transform="matrix(.1 0 0 -.1 246.829574 182.45478)"><use xlink:href="#o"/><use x="74.805" xlink:href="#F"/><use x="136.328" xlink:href="#S"/><use x="188.428" xlink:href="#W"/><use x="227.637" xlink:href="#F"/><use x="289.16" xlink:href="#R"/><use x="330.242" xlink:href="#H"/><use x="391.424" xlink:href="#p"/><use x="450.604" xlink:href="#AN"/><use x="482.391" xlink:href="#h"/><use x="550.783" xlink:href="#i"/><use x="614.26" xlink:href="#Q"/><use x="675.539" xlink:href="#k"/></g><g class="Q"><path d="M218.83 193.633h20" class="B C E"/><use x="228.83" xlink:href="#e" y="193.633" fill="#e377c2" class="F"/></g><g transform="matrix(.1 0 0 -.1 246.829574 197.132905)"><use xlink:href="#o"/><use x="74.805" xlink:href="#F"/><use x="136.328" xlink:href="#S"/><use x="188.428" xlink:href="#W"/><use x="227.637" xlink:href="#F"/><use x="289.16" xlink:href="#R"/><use x="330.242" xlink:href="#H"/><use x="391.424" xlink:href="#p"/><use x="450.604" xlink:href="#AN"/><use x="482.391" xlink:href="#m"/><use x="568.67" xlink:href="#H"/><use x="629.852" xlink:href="#k"/><use x="727.264" xlink:href="#F"/><use x="788.787" xlink:href="#T"/><use x="852.166" xlink:href="#W"/></g><g class="R"><path d="M218.83 208.31h20" class="B C E"/><use x="228.83" xlink:href="#f" y="208.311" fill="#7f7f7f" class="F"/></g><defs><path d="M44.39 34.188q3.172-1.078 6.172-4.594 3-3.516 6.03-9.672L66.61 0H56l-9.312 18.703q-3.625 7.328-7.016 9.72-3.39 2.39-9.25 2.39h-10.75V0h-9.86v72.906h22.266q12.5 0 18.656-5.234 6.156-5.22 6.156-15.766 0-6.89-3.203-11.437-3.203-4.53-9.297-6.28zm-24.72 30.61V38.922h12.406q7.125 0 10.766 3.297 3.64 3.297 3.64 9.688 0 6.39-3.64 9.64-3.64 3.25-10.766 3.25z" id="q"/></defs><g transform="matrix(.1 0 0 -.1 246.829574 211.81103)"><use xlink:href="#q"/><use x="69.482" xlink:href="#m"/><use x="155.762" xlink:href="#n"/><use x="219.238" xlink:href="#G"/><use x="282.715" xlink:href="#R"/><use x="323.797" xlink:href="#H"/><use x="384.979" xlink:href="#G"/></g><g class="S"><path d="M218.83 222.99h20" class="B C E"/><use x="228.83" xlink:href="#g" y="222.989" fill="#bcbd22" class="T"/></g><defs><path d="M59.516 10.406v19.578h-16.11v8.11H69.28V6.78Q63.578 2.734 56.688.656 49.813-1.422 42-1.422q-17.094 0-26.75 9.984-9.64 10-9.64 27.813 0 17.875 9.64 27.86Q24.906 74.22 42 74.22q7.125 0 13.547-1.766 6.422-1.75 11.844-5.172v-10.5q-5.47 4.64-11.625 6.984-6.156 2.344-12.937 2.344-13.39 0-20.11-7.47-6.703-7.47-6.703-22.266 0-14.75 6.703-22.22 6.72-7.47 20.11-7.47 5.22 0 9.313.906 4.11.906 7.375 2.813z" id="r"/><path d="M19.672 64.797V8.11h11.922q15.094 0 22.094 6.828 7 6.844 7 21.594 0 14.64-7 21.453-7 6.813-22.094 6.813zm-9.86 8.11h20.266q21.188 0 31.094-8.812 9.922-8.812 9.922-27.562 0-18.86-9.97-27.703Q51.172 0 30.078 0H9.813z" id="s"/></defs><g transform="matrix(.1 0 0 -.1 246.829574 226.489155)"><use xlink:href="#n"/><use x="63.477" xlink:href="#r"/><use x="140.967" xlink:href="#s"/></g><defs><clipPath id="t"><path d="M47.72 13.267h297.25v303.5H47.72z"/></clipPath></defs></svg>