<svg xmlns="http://www.w3.org/2000/svg" xmlns:xlink="http://www.w3.org/1999/xlink" height="479" viewBox="0 0 360 358.56" width="481" stroke-linecap="butt" stroke-linejoin="round"><style><![CDATA[.B{stroke:#000}.C{stroke-width:.8}.D{stroke-linecap:square}.E{fill:none}.F{clip-path:url(#l)}.G{stroke-width:1.5}.H{stroke-linejoin:miter}.I{stroke-linejoin:round}.J{stroke-linecap:butt}.K{stroke:#1f77b4}.L{stroke:#ff7f0e}.M{stroke:#2ca02c}.N{stroke:#d62728}.O{stroke:#9467bd}.P{stroke:#8c564b}]]></style><g fill="#fff"><path d="M0 358.56h360V0H0z"/><path d="M47.72 316.768h298.96v-303.5H47.72z"/></g><defs><path d="M0 0v3.5" id="A" class="B C I J"/></defs><use x="61.309" xlink:href="#A" y="316.768" class="B C"/><defs><path d="M31.78 66.406q-7.61 0-11.453-7.5-3.828-7.484-3.828-22.53 0-14.984 3.828-22.484 3.844-7.5 11.453-7.5 7.672 0 11.5 7.5 3.844 7.5 3.844 22.484 0 15.047-3.844 22.53-3.828 7.5-11.5 7.5zm0 7.813q12.266 0 18.734-9.703 6.47-9.687 6.47-28.14 0-18.406-6.47-28.11-6.47-9.687-18.734-9.687-12.25 0-18.72 9.688-6.47 9.703-6.47 28.11 0 18.453 6.47 28.14 6.47 9.703 18.72 9.703z" id="B"/><path d="M10.688 12.406H21V0H10.688z" id="C"/></defs><g transform="matrix(.1 0 0 -.1 53.357528 331.366278)"><use xlink:href="#B"/><use x="63.623" xlink:href="#C"/><use x="95.41" xlink:href="#B"/></g><use x="97.07" xlink:href="#A" y="316.768" class="B C"/><defs><path d="M19.188 8.297H53.61V0H7.328v8.297q5.61 5.813 15.297 15.594 9.703 9.797 12.188 12.64 4.734 5.313 6.61 9 1.89 3.688 1.89 7.25 0 5.813-4.078 9.47-4.078 3.672-10.625 3.672-4.64 0-9.797-1.61-5.14-1.61-11-4.89v9.97q5.953 2.39 11.125 3.61 5.188 1.22 9.484 1.22 11.328 0 18.063-5.672 6.734-5.656 6.734-15.125 0-4.5-1.687-8.53-1.672-4.016-6.125-9.484-1.22-1.422-7.766-8.187-6.53-6.766-18.453-18.922z" id="D"/><path d="M10.797 72.906h38.72v-8.312H19.828v-17.86q2.14.734 4.28 1.094 2.156.36 4.313.36 12.203 0 19.328-6.687 7.14-6.687 7.14-18.11 0-11.766-7.328-18.297-7.328-6.516-20.656-6.516-4.594 0-9.36.78-4.75.78-9.828 2.344v9.922q4.39-2.39 9.078-3.562 4.688-1.172 9.906-1.172 8.453 0 13.375 4.438 4.938 4.438 4.938 12.063 0 7.61-4.937 12.047-4.922 4.453-13.375 4.453-3.953 0-7.89-.875-3.922-.875-8.016-2.734z" id="E"/></defs><g transform="matrix(.1 0 0 -.1 89.118294 331.366278)"><use xlink:href="#D"/><use x="63.623" xlink:href="#C"/><use x="95.41" xlink:href="#E"/></g><use x="132.831" xlink:href="#A" y="316.768" class="B C"/><g transform="matrix(.1 0 0 -.1 124.87906 331.366278)"><use xlink:href="#E"/><use x="63.623" xlink:href="#C"/><use x="95.41" xlink:href="#B"/></g><use x="168.591" xlink:href="#A" y="316.768" class="B C"/><defs><path d="M8.203 72.906h46.875v-4.203L28.61 0H18.313L43.22 64.594H8.203z" id="F"/></defs><g transform="matrix(.1 0 0 -.1 160.639825 331.366278)"><use xlink:href="#F"/><use x="63.623" xlink:href="#C"/><use x="95.41" xlink:href="#E"/></g><use x="204.352" xlink:href="#A" y="316.768" class="B C"/><defs><path d="M12.406 8.297h16.11v55.625l-17.53-3.516v8.984l17.438 3.516h9.86V8.297h16.11V0H12.406z" id="G"/></defs><g transform="matrix(.1 0 0 -.1 193.219341 331.366278)"><use xlink:href="#G"/><use x="63.623" xlink:href="#B"/><use x="127.246" xlink:href="#C"/><use x="159.033" xlink:href="#B"/></g><use x="240.113" xlink:href="#A" y="316.768" class="B C"/><g transform="matrix(.1 0 0 -.1 228.980106 331.366278)"><use xlink:href="#G"/><use x="63.623" xlink:href="#D"/><use x="127.246" xlink:href="#C"/><use x="159.033" xlink:href="#E"/></g><use x="275.874" xlink:href="#A" y="316.768" class="B C"/><g transform="matrix(.1 0 0 -.1 264.740872 331.366278)"><use xlink:href="#G"/><use x="63.623" xlink:href="#E"/><use x="127.246" xlink:href="#C"/><use x="159.033" xlink:href="#B"/></g><use x="311.634" xlink:href="#A" y="316.768" class="B C"/><g transform="matrix(.1 0 0 -.1 300.501637 331.366278)"><use xlink:href="#G"/><use x="63.623" xlink:href="#F"/><use x="127.246" xlink:href="#C"/><use x="159.033" xlink:href="#E"/></g><defs><path d="M56.203 29.594v-4.39H14.89q.594-9.28 5.594-14.14 5-4.86 13.938-4.86 5.172 0 10.03 1.266 4.86 1.266 9.656 3.813v-8.5Q49.266.734 44.188-.344 39.11-1.422 33.89-1.422q-13.094 0-20.734 7.61-7.64 7.625-7.64 20.625 0 13.422 7.25 21.297Q20.016 56 32.328 56q11.03 0 17.453-7.11 6.422-7.094 6.422-19.297zm-8.984 2.64q-.094 7.36-4.125 11.75-4.03 4.406-10.672 4.406-7.516 0-12.03-4.25-4.516-4.25-5.203-11.97z" id="H"/><path d="M18.11 8.203v-29h-9.03v75.484h9.03V46.39q2.844 4.875 7.156 7.234Q29.594 56 35.594 56q9.97 0 16.188-7.906 6.234-7.906 6.234-20.797 0-12.89-6.234-20.812-6.22-7.906-16.187-7.906-6 0-10.328 2.375-4.312 2.375-7.156 7.25zm30.578 19.094q0 9.906-4.078 15.547-4.078 5.64-11.203 5.64-7.14 0-11.22-5.64-4.078-5.64-4.078-15.547 0-9.906 4.078-15.547 4.078-5.64 11.22-5.64 7.125 0 11.203 5.64 4.078 5.64 4.078 15.547z" id="I"/><path d="M30.61 48.39q-7.22 0-11.422-5.64-4.203-5.64-4.203-15.453 0-9.812 4.172-15.453 4.188-5.64 11.453-5.64 7.188 0 11.375 5.656 4.203 5.672 4.203 15.438 0 9.72-4.203 15.406-4.187 5.688-11.375 5.688zm0 7.61q11.72 0 18.406-7.625 6.703-7.61 6.703-21.078 0-13.422-6.703-21.078-6.687-7.64-18.406-7.64-11.766 0-18.437 7.64-6.656 7.656-6.656 21.078 0 13.47 6.656 21.078Q18.844 56 30.61 56z" id="J"/><path d="M48.78 52.594v-8.406q-3.812 2.11-7.64 3.156-3.828 1.047-7.734 1.047-8.75 0-13.594-5.547-4.828-5.53-4.828-15.547 0-10.016 4.828-15.562 4.844-5.53 13.594-5.53 3.906 0 7.734 1.047 3.828 1.047 7.64 3.156V2.094Q45.016.344 40.984-.53q-4.016-.89-8.562-.89-12.36 0-19.64 7.766-7.266 7.766-7.266 20.953 0 13.375 7.344 21.03Q20.22 56 33.016 56q4.14 0 8.094-.86 3.953-.844 7.672-2.547z" id="K"/><path d="M54.89 33.016V0h-8.984v32.72q0 7.766-3.03 11.61-3.03 3.86-9.078 3.86-7.28 0-11.484-4.64-4.203-4.625-4.203-12.64V0h-9.03v75.984h9.03V46.188q3.234 4.938 7.594 7.375Q30.078 56 35.797 56q9.422 0 14.25-5.828 4.844-5.828 4.844-17.156z" id="L"/></defs><g transform="matrix(.1 0 0 -.1 181.971875 345.044403)"><use xlink:href="#H"/><use x="61.523" xlink:href="#I"/><use x="125" xlink:href="#J"/><use x="186.182" xlink:href="#K"/><use x="241.162" xlink:href="#L"/></g><defs><path d="M0 0h-3.5" id="M" class="B C I J"/></defs><use x="47.72" xlink:href="#M" y="315.137" class="B C"/><g transform="matrix(.1 0 0 -.1 24.816875 318.936091)"><use xlink:href="#B"/><use x="63.623" xlink:href="#C"/><use x="95.41" xlink:href="#B"/></g><use x="47.72" xlink:href="#M" y="257.522" class="B C"/><g transform="matrix(.1 0 0 -.1 24.816875 261.321162)"><use xlink:href="#B"/><use x="63.623" xlink:href="#C"/><use x="95.41" xlink:href="#D"/></g><use x="47.72" xlink:href="#M" y="199.907" class="B C"/><defs><path d="M37.797 64.313L12.89 25.39h24.906zm-2.594 8.594H47.61V25.39h10.406v-8.203H47.61V0h-9.812v17.188H4.89v9.516z" id="N"/></defs><g transform="matrix(.1 0 0 -.1 24.816875 203.706232)"><use xlink:href="#B"/><use x="63.623" xlink:href="#C"/><use x="95.41" xlink:href="#N"/></g><use x="47.72" xlink:href="#M" y="142.292" class="B C"/><defs><path d="M33.016 40.375q-6.64 0-10.53-4.547-3.875-4.53-3.875-12.437 0-7.86 3.875-12.437 3.89-4.562 10.53-4.562 6.64 0 10.516 4.563 3.875 4.578 3.875 12.438 0 7.906-3.875 12.438-3.875 4.547-10.516 4.547zm19.578 30.922v-8.984q-3.72 1.75-7.5 2.672-3.78.938-7.5.938-9.766 0-14.922-6.594-5.14-6.594-5.875-19.922 2.875 4.25 7.22 6.516 4.36 2.266 9.578 2.266 10.984 0 17.36-6.672 6.375-6.656 6.375-18.125 0-11.234-6.64-18.03-6.64-6.78-17.672-6.78-12.656 0-19.344 9.688-6.687 9.703-6.687 28.11 0 17.28 8.203 27.563 8.203 10.28 22.016 10.28 3.72 0 7.5-.734 3.78-.734 7.89-2.187z" id="O"/></defs><g transform="matrix(.1 0 0 -.1 24.816875 146.091303)"><use xlink:href="#B"/><use x="63.623" xlink:href="#C"/><use x="95.41" xlink:href="#O"/></g><use x="47.72" xlink:href="#M" y="84.677" class="B C"/><defs><path d="M31.78 34.625q-7.03 0-11.062-3.766-4.016-3.766-4.016-10.344 0-6.594 4.016-10.36Q24.75 6.39 31.78 6.39q7.03 0 11.078 3.78 4.063 3.797 4.063 10.344 0 6.578-4.03 10.344-4.016 3.766-11.11 3.766zm-9.86 4.188q-6.344 1.563-9.89 5.906-3.53 4.36-3.53 10.61 0 8.734 6.22 13.813 6.234 5.078 17.063 5.078 10.89 0 17.094-5.078 6.203-5.078 6.203-13.812 0-6.25-3.547-10.61-3.53-4.344-9.828-5.906 7.125-1.656 11.094-6.5 3.984-4.828 3.984-11.797 0-10.61-6.47-16.28-6.47-5.656-18.53-5.656-12.047 0-18.53 5.656-6.47 5.672-6.47 16.28 0 6.97 4 11.797 4.016 4.844 11.14 6.5zm-3.61 15.578q0-5.656 3.53-8.828 3.547-3.172 9.938-3.172 6.36 0 9.938 3.172 3.594 3.172 3.594 8.828 0 5.672-3.594 8.844-3.578 3.172-9.937 3.172-6.39 0-9.937-3.172-3.53-3.172-3.53-8.844z" id="P"/></defs><g transform="matrix(.1 0 0 -.1 24.816875 88.476374)"><use xlink:href="#B"/><use x="63.623" xlink:href="#C"/><use x="95.41" xlink:href="#P"/></g><use x="47.72" xlink:href="#M" y="27.062" class="B C"/><g transform="matrix(.1 0 0 -.1 24.816875 30.861444)"><use xlink:href="#G"/><use x="63.623" xlink:href="#C"/><use x="95.41" xlink:href="#B"/></g><defs><path d="M19.672 64.797v-27.39h12.406q6.89 0 10.64 3.563 3.766 3.563 3.766 10.156 0 6.547-3.766 10.11-3.75 3.563-10.64 3.563zm-9.86 8.11h22.266q12.266 0 18.53-5.547 6.28-5.547 6.28-16.234 0-10.797-6.28-16.312-6.266-5.516-18.53-5.516H19.672V0h-9.86z" id="Q"/><path d="M34.28 27.484q-10.89 0-15.094-2.484-4.203-2.484-4.203-8.5 0-4.78 3.156-7.594 3.156-2.797 8.563-2.797 7.484 0 12 5.297 4.516 5.297 4.516 14.078v2zm17.922 3.72V0H43.22v8.297Q40.14 3.328 35.547.953q-4.594-2.375-11.234-2.375-8.39 0-13.36 4.72Q6 8.016 6 15.922q0 9.22 6.172 13.906 6.188 4.688 18.438 4.688h12.61v.89q0 6.203-4.078 9.594-4.078 3.39-11.453 3.39-4.687 0-9.14-1.125-4.437-1.125-8.53-3.375v8.313q4.922 1.906 9.563 2.844 4.64.953 9.03.953 11.875 0 17.734-6.156 5.86-6.14 5.86-18.64z" id="R"/><path d="M41.11 46.297q-1.516.875-3.297 1.28Q36.03 48 33.89 48q-7.625 0-11.703-4.953-4.078-4.953-4.078-14.234V0h-9.03v54.688h9.03v-8.5q2.844 4.984 7.375 7.39Q30.03 56 36.53 56q.922 0 2.047-.125 1.125-.11 2.484-.36z" id="S"/><path d="M44.28 53.078v-8.5q-3.797 1.953-7.906 2.922-4.094.984-8.5.984-6.687 0-10.03-2.047Q14.5 44.39 14.5 40.28q0-3.125 2.39-4.906 2.39-1.78 9.625-3.39l3.078-.687q9.563-2.047 13.594-5.78 4.03-3.734 4.03-10.422 0-7.625-6.03-12.078-6.03-4.437-16.578-4.437-4.39 0-9.156.86Q10.688.297 5.422 2v9.28q4.984-2.594 9.813-3.89 4.828-1.28 9.578-1.28 6.344 0 9.75 2.172 3.422 2.172 3.422 6.125 0 3.656-2.47 5.61-2.453 1.953-10.812 3.766l-3.125.734q-8.344 1.75-12.062 5.39-3.703 3.64-3.703 9.984 0 7.72 5.47 11.906Q16.75 56 26.813 56q4.97 0 9.36-.734 4.406-.72 8.11-2.187z" id="T"/><path d="M54.89 33.016V0h-8.984v32.72q0 7.766-3.03 11.61-3.03 3.86-9.078 3.86-7.28 0-11.484-4.64-4.203-4.625-4.203-12.64V0h-9.03v54.688h9.03v-8.5q3.234 4.938 7.594 7.375Q30.078 56 35.797 56q9.422 0 14.25-5.828 4.844-5.828 4.844-17.156z" id="U"/><path d="M17.922 72.906v-27.11H9.625v27.11z" id="V"/><path d="M9.422 75.984h8.984V0H9.422z" id="W"/><path d="M18.313 70.22v-15.53h18.5v-6.984h-18.5V18.016q0-6.687 1.828-8.594 1.828-1.906 7.453-1.906h9.22V0h-9.22q-10.406 0-14.36 3.875-3.953 3.89-3.953 14.14v29.688H2.688v6.984H9.28v15.53z" id="X"/><path d="M9.422 54.688h8.984V0H9.422zm0 21.297h8.984v-11.39H9.422z" id="Y"/></defs><g transform="matrix(0 -.1 -.1 0 18.737187 217.650874)"><use xlink:href="#Q"/><use x="60.256" xlink:href="#H"/><use x="121.779" xlink:href="#R"/><use x="183.059" xlink:href="#S"/><use x="224.172" xlink:href="#T"/><use x="276.271" xlink:href="#J"/><use x="337.453" xlink:href="#U"/><use x="400.832" xlink:href="#V"/><use x="428.322" xlink:href="#T"/><use x="480.422" xlink:href="#AU"/><use x="512.209" xlink:href="#K"/><use x="567.189" xlink:href="#J"/><use x="628.371" xlink:href="#S"/><use x="669.469" xlink:href="#S"/><use x="710.551" xlink:href="#H"/><use x="772.074" xlink:href="#W"/><use x="799.857" xlink:href="#R"/><use x="861.137" xlink:href="#X"/><use x="900.346" xlink:href="#Y"/><use x="928.129" xlink:href="#J"/><use x="989.311" xlink:href="#U"/></g><path d="M61.31 300.34l14.304-73.157 14.304-67.81 14.304-53.59 14.304-35.662 14.304-23.37 14.304-11.663 14.304-5.32 14.304-1.97 14.304-.592 14.304-.127 28.61-.02h100.13" class="D E F G K"/><defs><path d="M0 3a3 3 0 0 0 2.121-.879A3 3 0 0 0 3 0a3 3 0 0 0-.879-2.121A3 3 0 0 0 0-3a3 3 0 0 0-2.121.879A3 3 0 0 0-3 0a3 3 0 0 0 .879 2.121A3 3 0 0 0 0 3z" id="Z" class="I K"/></defs><g fill="#1f77b4" class="F K"><use x="61.309" xlink:href="#Z" y="300.341"/><use x="104.222" xlink:href="#Z" y="105.787"/><use x="147.135" xlink:href="#Z" y="35.092"/><use x="190.048" xlink:href="#Z" y="27.209"/><use x="232.961" xlink:href="#Z" y="27.062"/><use x="275.874" xlink:href="#Z" y="27.062"/><use x="318.787" xlink:href="#Z" y="27.062"/></g><path d="M61.31 300.34l14.304-73.166 14.304-67.806 14.304-53.564 14.304-35.663L132.83 46.76l14.304-11.656 14.304-5.318 14.304-1.97 14.304-.592 14.304-.127 28.61-.02h100.13" class="D E F G L"/><defs><path d="M0 3l3-6h-6z" id="a" class="H L"/></defs><g fill="#ff7f0e" class="F H L"><use x="61.309" xlink:href="#a" y="300.34"/><use x="104.222" xlink:href="#a" y="105.805"/><use x="147.135" xlink:href="#a" y="35.103"/><use x="190.048" xlink:href="#a" y="27.223"/><use x="232.961" xlink:href="#a" y="27.077"/><use x="275.874" xlink:href="#a" y="27.077"/><use x="318.787" xlink:href="#a" y="27.077"/></g><path d="M61.31 300.345L75.613 227.2l14.304-67.735 14.304-53.415 14.304-35.623 14.304-23.404 14.304-11.604 14.304-5.308 14.304-1.953 14.304-.6 14.304-.123 28.61-.02 100.13.001" class="D E F G M"/><defs><path d="M-3 3h6v-6h-6z" id="b" class="H M"/></defs><g fill="#2ca02c" class="F H M"><use x="61.309" xlink:href="#b" y="300.345"/><use x="104.222" xlink:href="#b" y="106.05"/><use x="147.135" xlink:href="#b" y="35.418"/><use x="190.048" xlink:href="#b" y="27.559"/><use x="232.961" xlink:href="#b" y="27.417"/><use x="275.874" xlink:href="#b" y="27.418"/><use x="318.787" xlink:href="#b" y="27.422"/></g><path d="M61.31 300.37l14.304-72.993 14.304-67.514 14.304-53.12 14.304-35.478 14.304-23.37 14.304-11.5 14.304-5.28 14.304-1.912 14.304-.617 14.304-.112 14.304-.026 14.304.01 100.13-.001" class="D E F G N"/><defs><path d="M0 4.243L2.546 0 0-4.243-2.546 0z" id="c" class="H N"/></defs><g fill="#d62728" class="F H N"><use x="61.309" xlink:href="#c" y="300.369"/><use x="104.222" xlink:href="#c" y="106.743"/><use x="147.135" xlink:href="#c" y="36.405"/><use x="190.048" xlink:href="#c" y="28.597"/><use x="232.961" xlink:href="#c" y="28.469"/><use x="275.874" xlink:href="#c" y="28.47"/><use x="318.787" xlink:href="#c" y="28.486"/></g><path d="M61.31 301.213l14.304-67.794 14.304-61.697 14.304-47.65 14.304-31.784L132.83 70.97l14.304-9.287 14.304-4.585 14.304-1.38 14.304-.88 14.304.117 14.304-.118 14.304.15 14.304-.078 14.304-.257 14.304.31 14.304-.272 14.304.115 14.304.386 14.304-.36" class="D E F G O"/><defs><path d="M-3 3l6-6m-6 0l6 6" id="d" class="I J O"/></defs><g fill="#9467bd" class="F O"><use x="61.309" xlink:href="#d" y="301.213"/><use x="104.222" xlink:href="#d" y="124.072"/><use x="147.135" xlink:href="#d" y="61.682"/><use x="190.048" xlink:href="#d" y="54.836"/><use x="232.961" xlink:href="#d" y="54.986"/><use x="275.874" xlink:href="#d" y="54.961"/><use x="318.787" xlink:href="#d" y="55.19"/></g><path d="M61.31 302.972l14.304-57.313 14.304-51.022 14.304-38.86 14.304-26.04 14.304-17.6 14.304-6.862 14.304-3.184 14.304-1.28 14.304-.832 14.304.35 14.304-.445 14.304.302 14.304.067 14.304-.707 14.304.68 14.304-.704 14.304.51 14.304.728 14.304-.79" class="D E F G P"/><defs><path d="M-3 0h6M0 3v-6" id="e" class="I J P"/></defs><g fill="#8c564b" class="F P"><use x="61.309" xlink:href="#e" y="302.972"/><use x="104.222" xlink:href="#e" y="155.776"/><use x="147.135" xlink:href="#e" y="105.284"/><use x="190.048" xlink:href="#e" y="99.989"/><use x="232.961" xlink:href="#e" y="100.196"/><use x="275.874" xlink:href="#e" y="100.236"/><use x="318.787" xlink:href="#e" y="100.768"/></g><g class="B C D E H"><path d="M47.72 316.768v-303.5m298.96 303.5v-303.5"/><path d="M47.72 316.768h298.96M47.72 13.267h298.96"/></g><path d="M249.983 311.768h89.697q2 0 2-2V222.7q0-2-2-2h-89.697q-2 0-2 2v87.07q0 2 2 2z" fill="#fff" opacity=".8" stroke="#ccc" class="H"/><g class="K"><path d="M251.983 228.798h20" class="D E G"/><use x="261.983" xlink:href="#Z" y="228.798" fill="#1f77b4"/></g><defs><path d="M19.28 29.5q-5.47 1.172-8.39 4.344Q7.953 36.97 7.953 41.5q0 6.89 5.578 10.75 5.516 3.813 15.078 3.813 3.72 0 7.86-.594 4.156-.578 8.938-1.75v-8.156q-4.734 1.406-8.64 2.047-3.953.64-7.422.64-5.812 0-9.172-2.25-3.422-2.25-3.422-5.375 0-3.422 3.313-5.61Q23.344 32.86 29 32.86h7.578v-7.422h-7.234q-6.687 0-10.203-2.484-3.812-2.734-3.812-7.03 0-4.39 4.11-7.125 4.14-2.734 11.516-2.734 4.547 0 8.703.875 4.14.922 7.61 2.734v-8.36q-4.39-1.36-8.5-2.047-4.14-.687-8.047-.687-11.625 0-17.922 4.453Q6.5 7.47 6.5 15.922q0 5.266 3.36 8.828 3.375 3.578 9.422 4.75z" id="f"/><path d="M10.594 45.406h62.594v-8.203H10.594zm0-19.922h62.594v-8.297H10.594z" id="g"/><path d="M9.813 72.906h13.28l32.328-60.984v60.984h9.563V0h-13.28L19.39 60.984V0H9.813z" id="h"/><path d="M31 75.875q-6.53-11.22-9.72-22.22Q18.11 42.672 18.11 31.39q0-11.266 3.203-22.328Q24.516-2 31-13.187h-7.812Q15.875-1.703 12.234 9.375q-3.64 11.078-3.64 22.016 0 10.89 3.61 21.922 3.625 11.047 10.984 22.563z" id="i"/><path d="M11.72 12.406h10.297V4l-8-15.625H7.72L11.72 4z" id="j"/><path d="M8.016 75.875h7.813Q23.14 64.36 26.78 53.313q3.64-11.03 3.64-21.922 0-10.937-3.64-22.016-3.64-11.078-10.953-22.562H8.016Q14.5-2 17.703 9.063q3.203 11.063 3.203 22.328 0 11.28-3.203 22.266-3.203 11-9.687 22.22z" id="k"/></defs><g transform="matrix(.1 0 0 -.1 279.983125 232.297528)"><use xlink:href="#f"/><use x="54.053" xlink:href="#g"/><use x="137.842" xlink:href="#h"/><use x="212.646" xlink:href="#i"/><use x="251.66" xlink:href="#B"/><use x="315.283" xlink:href="#j"/><use x="347.07" xlink:href="#B"/><use x="410.693" xlink:href="#k"/></g><g class="L"><path d="M251.983 243.476h20" class="D E G"/><use x="261.983" xlink:href="#a" y="243.476" fill="#ff7f0e" class="H"/></g><g transform="matrix(.1 0 0 -.1 279.983125 246.975653)"><use xlink:href="#f"/><use x="54.053" xlink:href="#g"/><use x="137.842" xlink:href="#h"/><use x="212.646" xlink:href="#i"/><use x="251.66" xlink:href="#B"/><use x="315.283" xlink:href="#j"/><use x="347.07" xlink:href="#G"/><use x="410.693" xlink:href="#k"/></g><g class="M"><path d="M251.983 258.154h20" class="D E G"/><use x="261.983" xlink:href="#b" y="258.154" fill="#2ca02c" class="H"/></g><g transform="matrix(.1 0 0 -.1 279.983125 261.653778)"><use xlink:href="#f"/><use x="54.053" xlink:href="#g"/><use x="137.842" xlink:href="#h"/><use x="212.646" xlink:href="#i"/><use x="251.66" xlink:href="#B"/><use x="315.283" xlink:href="#j"/><use x="347.07" xlink:href="#E"/><use x="410.693" xlink:href="#k"/></g><g class="N"><path d="M251.983 272.832h20" class="D E G"/><use x="261.983" xlink:href="#c" y="272.832" fill="#d62728" class="H"/></g><g transform="matrix(.1 0 0 -.1 279.983125 276.331903)"><use xlink:href="#f"/><use x="54.053" xlink:href="#g"/><use x="137.842" xlink:href="#h"/><use x="212.646" xlink:href="#i"/><use x="251.66" xlink:href="#B"/><use x="315.283" xlink:href="#j"/><use x="347.07" xlink:href="#G"/><use x="410.693" xlink:href="#B"/><use x="474.316" xlink:href="#k"/></g><g class="O"><path d="M251.983 287.5h20" class="D E G"/><use x="261.983" xlink:href="#d" y="287.51" fill="#9467bd"/></g><g transform="matrix(.1 0 0 -.1 279.983125 291.010028)"><use xlink:href="#f"/><use x="54.053" xlink:href="#g"/><use x="137.842" xlink:href="#h"/><use x="212.646" xlink:href="#i"/><use x="251.66" xlink:href="#B"/><use x="315.283" xlink:href="#j"/><use x="347.07" xlink:href="#E"/><use x="410.693" xlink:href="#B"/><use x="474.316" xlink:href="#k"/></g><g class="P"><path d="M251.983 302.188h20" class="D E G"/><use x="261.983" xlink:href="#e" y="302.188" fill="#8c564b"/></g><g transform="matrix(.1 0 0 -.1 279.983125 305.688153)"><use xlink:href="#f"/><use x="54.053" xlink:href="#g"/><use x="137.842" xlink:href="#h"/><use x="212.646" xlink:href="#i"/><use x="251.66" xlink:href="#B"/><use x="315.283" xlink:href="#j"/><use x="347.07" xlink:href="#G"/><use x="410.693" xlink:href="#B"/><use x="474.316" xlink:href="#B"/><use x="537.939" xlink:href="#k"/></g><defs><clipPath id="l"><path d="M47.72 13.267h298.96v303.5H47.72z"/></clipPath></defs></svg>