<svg xmlns="http://www.w3.org/2000/svg" xmlns:xlink="http://www.w3.org/1999/xlink" height="479" viewBox="0 0 360 358.56" width="481" stroke-linecap="butt" stroke-linejoin="round"><style><![CDATA[.B{stroke-linecap:square}.C{fill:none}.D{clip-path:url(#q)}.E{stroke-width:1.5}.F{stroke-linejoin:miter}.G{stroke:#000}.H{stroke-width:.8}.I{stroke-linejoin:round}.J{stroke-linecap:butt}.K{stroke:#1f77b4}.L{stroke:#ff7f0e}.M{stroke:#2ca02c}.N{stroke:#d62728}.O{stroke:#9467bd}.P{stroke:#8c564b}.Q{stroke:#e377c2}.R{stroke:#7f7f7f}.S{stroke:#bcbd22}.T{stroke-linejoin:bevel}]]></style><g fill="#fff"><path d="M0 358.56h360V0H0z"/><path d="M50.15 316.768H344.97v-303.5H50.15z"/></g><defs><path d="M0 0v3.5" id="A" class="G H I J"/></defs><use x="63.551" xlink:href="#A" y="316.768" class="G H"/><defs><path d="M31.78 66.406q-7.61 0-11.453-7.5-3.828-7.484-3.828-22.53 0-14.984 3.828-22.484 3.844-7.5 11.453-7.5 7.672 0 11.5 7.5 3.844 7.5 3.844 22.484 0 15.047-3.844 22.53-3.828 7.5-11.5 7.5zm0 7.813q12.266 0 18.734-9.703 6.47-9.687 6.47-28.14 0-18.406-6.47-28.11-6.47-9.687-18.734-9.687-12.25 0-18.72 9.688-6.47 9.703-6.47 28.11 0 18.453 6.47 28.14 6.47 9.703 18.72 9.703z" id="B"/></defs><use xlink:href="#B" transform="matrix(.1 0 0 -.1 60.369797 331.366278)"/><use x="119.388" xlink:href="#A" y="316.768" class="G H"/><defs><path d="M10.797 72.906h38.72v-8.312H19.828v-17.86q2.14.734 4.28 1.094 2.156.36 4.313.36 12.203 0 19.328-6.687 7.14-6.687 7.14-18.11 0-11.766-7.328-18.297-7.328-6.516-20.656-6.516-4.594 0-9.36.78-4.75.78-9.828 2.344v9.922q4.39-2.39 9.078-3.562 4.688-1.172 9.906-1.172 8.453 0 13.375 4.438 4.938 4.438 4.938 12.063 0 7.61-4.937 12.047-4.922 4.453-13.375 4.453-3.953 0-7.89-.875-3.922-.875-8.016-2.734z" id="C"/></defs><use xlink:href="#C" transform="matrix(.1 0 0 -.1 116.20662 331.366278)"/><use x="175.225" xlink:href="#A" y="316.768" class="G H"/><defs><path d="M12.406 8.297h16.11v55.625l-17.53-3.516v8.984l17.438 3.516h9.86V8.297h16.11V0H12.406z" id="D"/></defs><g transform="matrix(.1 0 0 -.1 168.862193 331.366278)"><use xlink:href="#D"/><use x="63.623" xlink:href="#B"/></g><use x="231.062" xlink:href="#A" y="316.768" class="G H"/><g transform="matrix(.1 0 0 -.1 224.699017 331.366278)"><use xlink:href="#D"/><use x="63.623" xlink:href="#C"/></g><use x="286.898" xlink:href="#A" y="316.768" class="G H"/><defs><path d="M19.188 8.297H53.61V0H7.328v8.297q5.61 5.813 15.297 15.594 9.703 9.797 12.188 12.64 4.734 5.313 6.61 9 1.89 3.688 1.89 7.25 0 5.813-4.078 9.47-4.078 3.672-10.625 3.672-4.64 0-9.797-1.61-5.14-1.61-11-4.89v9.97q5.953 2.39 11.125 3.61 5.188 1.22 9.484 1.22 11.328 0 18.063-5.672 6.734-5.656 6.734-15.125 0-4.5-1.687-8.53-1.672-4.016-6.125-9.484-1.22-1.422-7.766-8.187-6.53-6.766-18.453-18.922z" id="E"/></defs><g transform="matrix(.1 0 0 -.1 280.53584 331.366278)"><use xlink:href="#E"/><use x="63.623" xlink:href="#B"/></g><use x="342.735" xlink:href="#A" y="316.768" class="G H"/><g transform="matrix(.1 0 0 -.1 336.372663 331.366278)"><use xlink:href="#E"/><use x="63.623" xlink:href="#C"/></g><defs><path d="M56.203 29.594v-4.39H14.89q.594-9.28 5.594-14.14 5-4.86 13.938-4.86 5.172 0 10.03 1.266 4.86 1.266 9.656 3.813v-8.5Q49.266.734 44.188-.344 39.11-1.422 33.89-1.422q-13.094 0-20.734 7.61-7.64 7.625-7.64 20.625 0 13.422 7.25 21.297Q20.016 56 32.328 56q11.03 0 17.453-7.11 6.422-7.094 6.422-19.297zm-8.984 2.64q-.094 7.36-4.125 11.75-4.03 4.406-10.672 4.406-7.516 0-12.03-4.25-4.516-4.25-5.203-11.97z" id="F"/><path d="M18.11 8.203v-29h-9.03v75.484h9.03V46.39q2.844 4.875 7.156 7.234Q29.594 56 35.594 56q9.97 0 16.188-7.906 6.234-7.906 6.234-20.797 0-12.89-6.234-20.812-6.22-7.906-16.187-7.906-6 0-10.328 2.375-4.312 2.375-7.156 7.25zm30.578 19.094q0 9.906-4.078 15.547-4.078 5.64-11.203 5.64-7.14 0-11.22-5.64-4.078-5.64-4.078-15.547 0-9.906 4.078-15.547 4.078-5.64 11.22-5.64 7.125 0 11.203 5.64 4.078 5.64 4.078 15.547z" id="G"/><path d="M30.61 48.39q-7.22 0-11.422-5.64-4.203-5.64-4.203-15.453 0-9.812 4.172-15.453 4.188-5.64 11.453-5.64 7.188 0 11.375 5.656 4.203 5.672 4.203 15.438 0 9.72-4.203 15.406-4.187 5.688-11.375 5.688zm0 7.61q11.72 0 18.406-7.625 6.703-7.61 6.703-21.078 0-13.422-6.703-21.078-6.687-7.64-18.406-7.64-11.766 0-18.437 7.64-6.656 7.656-6.656 21.078 0 13.47 6.656 21.078Q18.844 56 30.61 56z" id="H"/><path d="M48.78 52.594v-8.406q-3.812 2.11-7.64 3.156-3.828 1.047-7.734 1.047-8.75 0-13.594-5.547-4.828-5.53-4.828-15.547 0-10.016 4.828-15.562 4.844-5.53 13.594-5.53 3.906 0 7.734 1.047 3.828 1.047 7.64 3.156V2.094Q45.016.344 40.984-.53q-4.016-.89-8.562-.89-12.36 0-19.64 7.766-7.266 7.766-7.266 20.953 0 13.375 7.344 21.03Q20.22 56 33.016 56q4.14 0 8.094-.86 3.953-.844 7.672-2.547z" id="I"/><path d="M54.89 33.016V0h-8.984v32.72q0 7.766-3.03 11.61-3.03 3.86-9.078 3.86-7.28 0-11.484-4.64-4.203-4.625-4.203-12.64V0h-9.03v75.984h9.03V46.188q3.234 4.938 7.594 7.375Q30.078 56 35.797 56q9.422 0 14.25-5.828 4.844-5.828 4.844-17.156z" id="J"/></defs><g transform="matrix(.1 0 0 -.1 182.331298 345.044403)"><use xlink:href="#F"/><use x="61.523" xlink:href="#G"/><use x="125" xlink:href="#H"/><use x="186.182" xlink:href="#I"/><use x="241.162" xlink:href="#J"/></g><defs><path d="M0 0h-3.5" id="K" class="G H I J"/></defs><use x="50.15" xlink:href="#K" y="302.594" class="G H"/><g transform="matrix(.1 0 0 -.1 25.550209 306.392901)"><use xlink:href="#D" y=".766"/><use xlink:href="#B" x="63.623" y=".766"/><use transform="matrix(.7 0 0 .7 128.203125 39.046875)" xlink:href="#E"/></g><use x="50.15" xlink:href="#K" y="202.809" class="G H"/><defs><path d="M40.578 39.313Q47.656 37.797 51.625 33q3.984-4.78 3.984-11.812 0-10.78-7.422-16.703-7.422-5.906-21.094-5.906-4.578 0-9.437.906-4.86.906-10.03 2.72v9.516q4.094-2.39 8.97-3.61 4.89-1.22 10.22-1.22 9.266 0 14.125 3.656 4.86 3.656 4.86 10.64 0 6.453-4.516 10.078-4.516 3.64-12.562 3.64h-8.5v8.11h8.89q7.266 0 11.125 2.906 3.86 2.906 3.86 8.375 0 5.61-3.984 8.61-3.97 3.016-11.39 3.016-4.062 0-8.703-.89-4.64-.875-10.203-2.72v8.78q5.625 1.563 10.53 2.344 4.906.78 9.25.78 11.234 0 17.766-5.11 6.547-5.094 6.547-13.78 0-6.062-3.47-10.234-3.47-4.172-9.86-5.78z" id="L"/></defs><g transform="matrix(.1 0 0 -.1 25.550209 206.608415)"><use xlink:href="#D" y=".766"/><use xlink:href="#B" x="63.623" y=".766"/><use transform="matrix(.7 0 0 .7 128.203125 39.046875)" xlink:href="#L"/></g><use x="50.15" xlink:href="#K" y="103.025" class="G H"/><defs><path d="M37.797 64.313L12.89 25.39h24.906zm-2.594 8.594H47.61V25.39h10.406v-8.203H47.61V0h-9.812v17.188H4.89v9.516z" id="M"/></defs><g transform="matrix(.1 0 0 -.1 25.550209 106.823928)"><use xlink:href="#D" y=".684"/><use xlink:href="#B" x="63.623" y=".684"/><use transform="matrix(.7 0 0 .7 128.203125 38.965625)" xlink:href="#M"/></g><defs><path d="M0 0h-2" id="N" stroke-width=".6" class="G I J"/></defs><g stroke-width=".6" class="G"><use x="50.15" xlink:href="#N" y="312.264"/><use x="50.15" xlink:href="#N" y="307.16"/><use x="50.15" xlink:href="#N" y="272.556"/><use x="50.15" xlink:href="#N" y="254.984"/><use x="50.15" xlink:href="#N" y="242.517"/><use x="50.15" xlink:href="#N" y="232.847"/><use x="50.15" xlink:href="#N" y="224.946"/><use x="50.15" xlink:href="#N" y="218.266"/><use x="50.15" xlink:href="#N" y="212.479"/><use x="50.15" xlink:href="#N" y="207.375"/><use x="50.15" xlink:href="#N" y="172.771"/><use x="50.15" xlink:href="#N" y="155.2"/><use x="50.15" xlink:href="#N" y="142.733"/><use x="50.15" xlink:href="#N" y="133.063"/><use x="50.15" xlink:href="#N" y="125.162"/><use x="50.15" xlink:href="#N" y="118.482"/><use x="50.15" xlink:href="#N" y="112.695"/><use x="50.15" xlink:href="#N" y="107.591"/><use x="50.15" xlink:href="#N" y="72.987"/><use x="50.15" xlink:href="#N" y="55.415"/><use x="50.15" xlink:href="#N" y="42.948"/><use x="50.15" xlink:href="#N" y="33.278"/><use x="50.15" xlink:href="#N" y="25.377"/><use x="50.15" xlink:href="#N" y="18.697"/><use x="50.15" xlink:href="#N" y="12.91"/></g><defs><path d="M9.813 72.906h14.703l18.594-49.61 18.703 49.61h14.703V0H66.89v64.016l-18.797-50h-9.906l-18.797 50V0H9.813z" id="O"/><path d="M53.516 70.516V60.89q-5.61 2.688-10.594 4-4.984 1.328-9.625 1.328-8.047 0-12.422-3.125-4.375-3.125-4.375-8.89 0-4.844 2.906-7.312 2.906-2.453 11.016-3.97l5.953-1.22q11.03-2.11 16.28-7.406 5.25-5.297 5.25-14.172 0-10.61-7.11-16.078-7.094-5.47-20.812-5.47-5.172 0-11.016 1.172Q13.14.922 6.89 3.22v10.156q6-3.36 11.766-5.078 5.766-1.703 11.328-1.703 8.438 0 13.03 3.313 4.594 3.328 4.594 9.484 0 5.36-3.297 8.39-3.297 3.03-10.812 4.547L27.484 33.5q-11.03 2.188-15.97 6.875-4.922 4.688-4.922 13.047 0 9.672 6.813 15.234 6.813 5.563 18.766 5.563 5.14 0 10.453-.937 5.328-.922 10.89-2.766z" id="P"/><path d="M9.813 72.906h46.094v-8.312H19.672V43.016h34.72V34.72h-34.72V8.297h37.11V0H9.813z" id="Q"/></defs><g transform="matrix(0 -.1 -.1 0 19.470522 175.664936)"><use xlink:href="#O"/><use x="86.279" xlink:href="#P"/><use x="149.756" xlink:href="#Q"/></g><path d="M63.55 27.468l11.167 4.153 11.167 3.876 11.167 4.5 11.167 4.433 11.167 4.785 11.167 5.816 11.167 5.7 11.167 5.946 11.167 6.16 11.167 6.78 11.167 7.37 11.167 7.83 11.167 7.97 11.167 9.036 11.167 9.647 11.167 10.61 11.167 11.225 11.167 12.98 11.167 13.845 11.167 15.816 11.167 17.082 11.167 19.695 11.167 20.603 11.167 20.764" class="B C D E K"/><defs><path d="M0 3a3 3 0 0 0 2.121-.879A3 3 0 0 0 3 0a3 3 0 0 0-.879-2.121A3 3 0 0 0 0-3a3 3 0 0 0-2.121.879A3 3 0 0 0-3 0a3 3 0 0 0 .879 2.121A3 3 0 0 0 0 3z" id="R" class="I K"/></defs><g fill="#1f77b4" class="D K"><use x="63.551" xlink:href="#R" y="27.468"/><use x="97.053" xlink:href="#R" y="40.007"/><use x="130.555" xlink:href="#R" y="55.04"/><use x="164.057" xlink:href="#R" y="72.845"/><use x="197.559" xlink:href="#R" y="94.828"/><use x="231.062" xlink:href="#R" y="121.48"/><use x="264.564" xlink:href="#R" y="156.294"/><use x="298.066" xlink:href="#R" y="203.036"/><use x="331.568" xlink:href="#R" y="264.098"/></g><path d="M63.55 27.062l11.167 1.54 11.167.483 11.167.65 11.167.212 11.167.178 11.167.896 11.167.513 11.167.4 11.167.128 11.167.342 11.167.42 11.167.454 11.167.023 11.167.332 11.167.314 11.167.37 11.167-.137 11.167.672 11.167.12 11.167.308 11.167.12 11.167.152 11.167.48 11.167.083" class="B C D E L"/><defs><path d="M0 3l3-6h-6z" id="S" class="F L"/></defs><g fill="#ff7f0e" class="D F L"><use x="63.551" xlink:href="#S" y="27.062"/><use x="97.053" xlink:href="#S" y="29.733"/><use x="130.555" xlink:href="#S" y="31.019"/><use x="164.057" xlink:href="#S" y="32.061"/><use x="197.559" xlink:href="#S" y="33.277"/><use x="231.062" xlink:href="#S" y="33.946"/><use x="264.564" xlink:href="#S" y="34.853"/><use x="298.066" xlink:href="#S" y="35.4"/><use x="331.568" xlink:href="#S" y="36.114"/></g><path d="M63.55 36.9l11.167 24.473 11.167 25.64 11.167 28.362 11.167 31.093 11.167 35.104 11.167 38.796 11.167 37.654L152.9 285.93l11.167 12.794 11.167 3.098 11.167.85 11.167-.265 11.167.18 11.167.05 11.167-.412 11.167.67 11.167-.67 11.167.054 11.167.21 11.167.16 11.167-.072 11.167-.2 11.167.163 11.167-.297" class="B C D E M"/><defs><path d="M-3 3h6v-6h-6z" id="T" class="F M"/></defs><g fill="#2ca02c" class="D F M"><use x="63.551" xlink:href="#T" y="36.91"/><use x="97.053" xlink:href="#T" y="115.386"/><use x="130.555" xlink:href="#T" y="220.379"/><use x="164.057" xlink:href="#T" y="298.723"/><use x="197.559" xlink:href="#T" y="302.406"/><use x="231.062" xlink:href="#T" y="302.222"/><use x="264.564" xlink:href="#T" y="302.276"/><use x="298.066" xlink:href="#T" y="302.574"/><use x="331.568" xlink:href="#T" y="302.23"/></g><path d="M63.55 31.923l11.167 13.105 11.167 14.494L97.053 76.82l11.167 20.363 11.167 25.197 11.167 32.273 11.167 40.554L152.9 245.47l11.167 43.002 11.167 12.9 11.167 1.32 11.167-.283 11.167.197 11.167.065 11.167-.39 11.167.682 11.167-.656 11.167.067 11.167.224 11.167.175 11.167-.073 11.167-.216 11.167.173 11.167-.3" class="B C D E N"/><defs><path d="M0 4.243L2.546 0 0-4.243-2.546 0z" id="U" class="F N"/></defs><g fill="#d62728" class="D F N"><use x="63.551" xlink:href="#U" y="31.923"/><use x="97.053" xlink:href="#U" y="76.82"/><use x="130.555" xlink:href="#U" y="154.653"/><use x="164.057" xlink:href="#U" y="288.471"/><use x="197.559" xlink:href="#U" y="302.419"/><use x="231.062" xlink:href="#U" y="302.291"/><use x="264.564" xlink:href="#U" y="302.383"/><use x="298.066" xlink:href="#U" y="302.709"/><use x="331.568" xlink:href="#U" y="302.367"/></g><path d="M63.55 36.91l11.167 24.464L85.886 86.77l11.167 26.72 11.167 26.462 11.167 26.282 11.167 25.982 11.167 23.7 11.167 21.26 11.167 18.523 11.167 15.256 11.167 11.5 11.167 7.54 11.167 5.155 11.167 3.18 11.167 1.487 11.167 1.593 11.167.124 11.167.397 11.167.47 11.167.28 11.167-.01 11.167-.194 11.167.222 11.167-.294" class="B C D E O"/><defs><path d="M-3 3l6-6m-6 0l6 6" id="V" class="I J O"/></defs><g fill="#9467bd" class="D O"><use x="63.551" xlink:href="#V" y="36.909"/><use x="97.053" xlink:href="#V" y="113.488"/><use x="130.555" xlink:href="#V" y="192.214"/><use x="164.057" xlink:href="#V" y="255.706"/><use x="197.559" xlink:href="#V" y="290.004"/><use x="231.062" xlink:href="#V" y="299.826"/><use x="264.564" xlink:href="#V" y="301.939"/><use x="298.066" xlink:href="#V" y="302.68"/><use x="331.568" xlink:href="#V" y="302.414"/></g><path d="M63.55 36.713L74.718 61.08l11.167 25.533 11.167 28.236 11.167 30.94 11.167 34.918 11.167 38.62 11.167 37.647 11.167 28.263 11.167 13.243 11.167 3.294 11.167.898 11.167-.263 11.167.186 11.167.045 11.167-.4 11.167.667 11.167-.67 11.167.054 11.167.215 11.167.165 11.167-.065 11.167-.23 11.167.174 11.167-.3" class="B C D E P"/><defs><path d="M-3 0h6M0 3v-6" id="W" class="I J P"/></defs><g fill="#8c564b" class="D P"><use x="63.551" xlink:href="#W" y="36.713"/><use x="97.053" xlink:href="#W" y="114.85"/><use x="130.555" xlink:href="#W" y="219.326"/><use x="164.057" xlink:href="#W" y="298.478"/><use x="197.559" xlink:href="#W" y="302.407"/><use x="231.062" xlink:href="#W" y="302.228"/><use x="264.564" xlink:href="#W" y="302.28"/><use x="298.066" xlink:href="#W" y="302.595"/><use x="331.568" xlink:href="#W" y="302.242"/></g><path d="M63.55 241.66l11.167 58.97 11.167-.053 11.167.176 11.167-.058 11.167-.15 11.167.2 11.167.127 11.167-.595 11.167.245 11.167-.16 11.167.497 11.167-.346 11.167.294 11.167-.02 11.167-.368 11.167.67 11.167-.67 11.167.05 11.167.246 11.167.176 11.167-.012 11.167-.288 11.167.184 11.167-.27" class="B C D E Q"/><defs><path d="M3 0l-6-3v6z" id="X" class="F Q"/></defs><g fill="#e377c2" class="D F Q"><use x="63.551" xlink:href="#X" y="241.661"/><use x="97.053" xlink:href="#X" y="300.754"/><use x="130.555" xlink:href="#X" y="300.747"/><use x="164.057" xlink:href="#X" y="300.525"/><use x="197.559" xlink:href="#X" y="300.517"/><use x="231.062" xlink:href="#X" y="300.424"/><use x="264.564" xlink:href="#X" y="300.472"/><use x="298.066" xlink:href="#X" y="300.882"/><use x="331.568" xlink:href="#X" y="300.507"/></g><path d="M63.55 37.643l11.167 27.692 11.167 34.307 11.167 45.31 11.167 64.032 11.167 74.92 11.167 18.616 11.167.1 11.167-.613 11.167.274 11.167-.105 11.167.428 11.167-.32 11.167.218 11.167.052 11.167-.396 11.167.678 11.167-.65 11.167.065 11.167.225 11.167.178 11.167-.057 11.167-.238 11.167.185 11.167-.298" class="B C D E R"/><defs><path d="M0-3L-2.853-.927l1.1 3.354h3.527l1.1-3.354z" id="Y" class="F R"/></defs><g fill="#7f7f7f" class="D F R"><use x="63.551" xlink:href="#Y" y="37.643"/><use x="97.053" xlink:href="#Y" y="144.951"/><use x="130.555" xlink:href="#Y" y="302.518"/><use x="164.057" xlink:href="#Y" y="302.269"/><use x="197.559" xlink:href="#Y" y="302.272"/><use x="231.062" xlink:href="#Y" y="302.147"/><use x="264.564" xlink:href="#Y" y="302.239"/><use x="298.066" xlink:href="#Y" y="302.585"/><use x="331.568" xlink:href="#Y" y="302.234"/></g><path d="M63.55 219.885l11.167 81.926 11.167-.073 11.167.166 11.167-.046 11.167-.197 11.167.257 11.167.094 11.167-.596 11.167.26 11.167-.124 11.167.47 11.167-.35 11.167.254 11.167.025 11.167-.398 11.167.675 11.167-.658 11.167.08 11.167.225 11.167.18 11.167-.027 11.167-.283 11.167.198 11.167-.296" class="B C D E S"/><defs><path d="M0-3L-.674-.927h-2.18L-1.1.354l-.674 2.073L0 1.146l1.763 1.28L1.1.354l1.763-1.28H.674z" id="Z" class="S T"/></defs><g fill="#bcbd22" class="D S T"><use x="63.551" xlink:href="#Z" y="219.885"/><use x="97.053" xlink:href="#Z" y="301.904"/><use x="130.555" xlink:href="#Z" y="301.917"/><use x="164.057" xlink:href="#Z" y="301.676"/><use x="197.559" xlink:href="#Z" y="301.672"/><use x="231.062" xlink:href="#Z" y="301.553"/><use x="264.564" xlink:href="#Z" y="301.649"/><use x="298.066" xlink:href="#Z" y="302.028"/><use x="331.568" xlink:href="#Z" y="301.648"/></g><g class="B C F G H"><path d="M50.15 316.768v-303.5m294.82 303.5v-303.5"/><path d="M50.15 316.768h294.82M50.15 13.267h294.82"/></g><path d="M216.83 232.57h121.14q2 0 2-2V99.466q0-2-2-2H216.83q-2 0-2 2V230.57q0 2 2 2z" fill="#fff" opacity=".8" stroke="#ccc" class="F"/><g class="K"><path d="M218.83 105.564h20" class="B C E"/><use x="228.83" xlink:href="#R" y="105.564" fill="#1f77b4"/></g><defs><path d="M34.188 63.188l-13.39-36.28H47.61zm-5.578 9.72h11.188L67.578 0h-10.25l-6.64 18.703h-32.86L11.188 0H.78z" id="a"/><path d="M45.406 46.39v29.594h8.984V0h-8.984v8.203Q42.578 3.328 38.25.953q-4.312-2.375-10.375-2.375-9.906 0-16.14 7.906-6.22 7.922-6.22 20.813 0 12.89 6.22 20.797Q17.97 56 27.875 56q6.063 0 10.375-2.375 4.328-2.36 7.156-7.234zm-30.61-19.094q0-9.906 4.078-15.547 4.078-5.64 11.203-5.64 7.125 0 11.22 5.64 4.11 5.64 4.11 15.547 0 9.906-4.11 15.547-4.094 5.64-11.22 5.64-7.125 0-11.203-5.64-4.078-5.64-4.078-15.547z" id="b"/><path d="M34.28 27.484q-10.89 0-15.094-2.484-4.203-2.484-4.203-8.5 0-4.78 3.156-7.594 3.156-2.797 8.563-2.797 7.484 0 12 5.297 4.516 5.297 4.516 14.078v2zm17.922 3.72V0H43.22v8.297Q40.14 3.328 35.547.953q-4.594-2.375-11.234-2.375-8.39 0-13.36 4.72Q6 8.016 6 15.922q0 9.22 6.172 13.906 6.188 4.688 18.438 4.688h12.61v.89q0 6.203-4.078 9.594-4.078 3.39-11.453 3.39-4.687 0-9.14-1.125-4.437-1.125-8.53-3.375v8.313q4.922 1.906 9.563 2.844 4.64.953 9.03.953 11.875 0 17.734-6.156 5.86-6.14 5.86-18.64z" id="c"/><path d="M9.422 75.984h8.984V0H9.422z" id="d"/><path d="M18.313 70.22v-15.53h18.5v-6.984h-18.5V18.016q0-6.687 1.828-8.594 1.828-1.906 7.453-1.906h9.22V0h-9.22q-10.406 0-14.36 3.875-3.953 3.89-3.953 14.14v29.688H2.688v6.984H9.28v15.53z" id="e"/></defs><g transform="matrix(.1 0 0 -.1 246.829574 109.064155)"><use xlink:href="#a"/><use x="68.393" xlink:href="#b"/><use x="131.869" xlink:href="#c"/><use x="193.148" xlink:href="#b"/><use x="256.625" xlink:href="#F"/><use x="318.148" xlink:href="#d"/><use x="345.932" xlink:href="#e"/><use x="385.141" xlink:href="#c"/></g><g class="L"><path d="M218.83 120.242h20" class="B C E"/><use x="228.83" xlink:href="#S" y="120.242" fill="#ff7f0e" class="F"/></g><defs><path d="M45.406 27.984q0 9.766-4.03 15.125-4.016 5.375-11.297 5.375-7.22 0-11.25-5.375-4.03-5.36-4.03-15.125 0-9.72 4.03-15.094 4.03-5.375 11.25-5.375 7.28 0 11.297 5.375 4.03 5.375 4.03 15.094zM54.39 6.78q0-13.953-6.203-20.766Q42-20.797 29.203-20.797q-4.734 0-8.937.703-4.203.703-8.156 2.172v8.734q3.953-2.14 7.813-3.156 3.86-1.03 7.86-1.03 8.844 0 13.234 4.61 4.39 4.61 4.39 13.938v4.453Q42.625 4.78 38.28 2.39 33.938 0 27.875 0 17.828 0 11.672 7.656q-6.156 7.672-6.156 20.328 0 12.688 6.156 20.344Q17.828 56 27.875 56q6.063 0 10.406-2.39 4.344-2.39 7.125-7.22v8.297h8.984z" id="f"/><path d="M41.11 46.297q-1.516.875-3.297 1.28Q36.03 48 33.89 48q-7.625 0-11.703-4.953-4.078-4.953-4.078-14.234V0h-9.03v54.688h9.03v-8.5q2.844 4.984 7.375 7.39Q30.03 56 36.53 56q.922 0 2.047-.125 1.125-.11 2.484-.36z" id="g"/></defs><g transform="matrix(.1 0 0 -.1 246.829574 123.74228)"><use xlink:href="#a"/><use x="68.393" xlink:href="#b"/><use x="131.869" xlink:href="#c"/><use x="193.148" xlink:href="#f"/><use x="256.625" xlink:href="#g"/><use x="297.738" xlink:href="#c"/><use x="359.018" xlink:href="#b"/></g><g class="M"><path d="M218.83 134.92h20" class="B C E"/><use x="228.83" xlink:href="#T" y="134.92" fill="#2ca02c" class="F"/></g><defs><path d="M52 44.188q3.375 6.063 8.063 8.938Q64.75 56 71.094 56q8.547 0 13.188-5.984 4.64-5.97 4.64-17V0h-9.03v32.72q0 7.86-2.797 11.656-2.78 3.813-8.484 3.813-6.984 0-11.047-4.64-4.047-4.625-4.047-12.64V0h-9.03v32.72q0 7.906-2.78 11.688-2.78 3.78-8.594 3.78-6.89 0-10.953-4.656-4.047-4.656-4.047-12.625V0h-9.03v54.688h9.03v-8.5q3.078 5.03 7.375 7.422Q29.78 56 35.688 56q5.97 0 10.14-3.03Q50 49.953 52 44.188z" id="h"/></defs><g transform="matrix(.1 0 0 -.1 246.829574 138.420405)"><use xlink:href="#a"/><use x="68.393" xlink:href="#b"/><use x="131.869" xlink:href="#c"/><use x="193.148" xlink:href="#h"/></g><g class="N"><path d="M218.83 149.6h20" class="B C E"/><use x="228.83" xlink:href="#U" y="149.599" fill="#d62728" class="F"/></g><defs><path d="M54.89 54.688l-19.78-26.61L55.906 0H45.313L29.39 21.484 13.484 0H2.875l21.25 28.61L4.688 54.688H15.28l14.5-19.484 14.5 19.484z" id="i"/></defs><g transform="matrix(.1 0 0 -.1 246.829574 153.09853)"><use xlink:href="#a"/><use x="68.393" xlink:href="#b"/><use x="131.869" xlink:href="#c"/><use x="193.148" xlink:href="#h"/><use x="290.561" xlink:href="#c"/><use x="351.84" xlink:href="#i"/></g><g class="O"><path d="M218.83 164.277h20" class="B C E"/><use x="228.83" xlink:href="#V" y="164.277" fill="#9467bd"/></g><g transform="matrix(.1 0 0 -.1 246.829574 167.776655)"><use xlink:href="#a"/><use x="68.408" xlink:href="#O"/><use x="154.688" xlink:href="#P"/><use x="218.164" xlink:href="#f"/><use x="281.641" xlink:href="#g"/><use x="322.754" xlink:href="#c"/><use x="384.033" xlink:href="#b"/></g><g class="P"><path d="M218.83 178.955h20" class="B C E"/><use x="228.83" xlink:href="#W" y="178.955" fill="#8c564b"/></g><defs><path d="M9.813 72.906h13.28l32.328-60.984v60.984h9.563V0h-13.28L19.39 60.984V0H9.813z" id="j"/><path d="M44.28 53.078v-8.5q-3.797 1.953-7.906 2.922-4.094.984-8.5.984-6.687 0-10.03-2.047Q14.5 44.39 14.5 40.28q0-3.125 2.39-4.906 2.39-1.78 9.625-3.39l3.078-.687q9.563-2.047 13.594-5.78 4.03-3.734 4.03-10.422 0-7.625-6.03-12.078-6.03-4.437-16.578-4.437-4.39 0-9.156.86Q10.688.297 5.422 2v9.28q4.984-2.594 9.813-3.89 4.828-1.28 9.578-1.28 6.344 0 9.75 2.172 3.422 2.172 3.422 6.125 0 3.656-2.47 5.61-2.453 1.953-10.812 3.766l-3.125.734q-8.344 1.75-12.062 5.39-3.703 3.64-3.703 9.984 0 7.72 5.47 11.906Q16.75 56 26.813 56q4.97 0 9.36-.734 4.406-.72 8.11-2.187z" id="k"/><path d="M2.984 54.688H12.5l17.094-45.89 17.094 45.89h9.516L35.688 0H23.484z" id="l"/></defs><g transform="matrix(.1 0 0 -.1 246.829574 182.45478)"><use xlink:href="#j"/><use x="74.805" xlink:href="#F"/><use x="136.328" xlink:href="#k"/><use x="188.428" xlink:href="#e"/><use x="227.637" xlink:href="#F"/><use x="289.16" xlink:href="#g"/><use x="330.242" xlink:href="#H"/><use x="391.424" xlink:href="#l"/><use x="450.604" xlink:href="#CA"/><use x="482.391" xlink:href="#a"/><use x="550.783" xlink:href="#b"/><use x="614.26" xlink:href="#c"/><use x="675.539" xlink:href="#h"/></g><g class="Q"><path d="M218.83 193.633h20" class="B C E"/><use x="228.83" xlink:href="#X" y="193.633" fill="#e377c2" class="F"/></g><defs><path d="M54.89 33.016V0h-8.984v32.72q0 7.766-3.03 11.61-3.03 3.86-9.078 3.86-7.28 0-11.484-4.64-4.203-4.625-4.203-12.64V0h-9.03v54.688h9.03v-8.5q3.234 4.938 7.594 7.375Q30.078 56 35.797 56q9.422 0 14.25-5.828 4.844-5.828 4.844-17.156z" id="m"/></defs><g transform="matrix(.1 0 0 -.1 246.829574 197.132905)"><use xlink:href="#j"/><use x="74.805" xlink:href="#F"/><use x="136.328" xlink:href="#k"/><use x="188.428" xlink:href="#e"/><use x="227.637" xlink:href="#F"/><use x="289.16" xlink:href="#g"/><use x="330.242" xlink:href="#H"/><use x="391.424" xlink:href="#l"/><use x="450.604" xlink:href="#CA"/><use x="482.391" xlink:href="#O"/><use x="568.67" xlink:href="#H"/><use x="629.852" xlink:href="#h"/><use x="727.264" xlink:href="#F"/><use x="788.787" xlink:href="#m"/><use x="852.166" xlink:href="#e"/></g><g class="R"><path d="M218.83 208.31h20" class="B C E"/><use x="228.83" xlink:href="#Y" y="208.311" fill="#7f7f7f" class="F"/></g><defs><path d="M44.39 34.188q3.172-1.078 6.172-4.594 3-3.516 6.03-9.672L66.61 0H56l-9.312 18.703q-3.625 7.328-7.016 9.72-3.39 2.39-9.25 2.39h-10.75V0h-9.86v72.906h22.266q12.5 0 18.656-5.234 6.156-5.22 6.156-15.766 0-6.89-3.203-11.437-3.203-4.53-9.297-6.28zm-24.72 30.61V38.922h12.406q7.125 0 10.766 3.297 3.64 3.297 3.64 9.688 0 6.39-3.64 9.64-3.64 3.25-10.766 3.25z" id="n"/></defs><g transform="matrix(.1 0 0 -.1 246.829574 211.81103)"><use xlink:href="#n"/><use x="69.482" xlink:href="#O"/><use x="155.762" xlink:href="#P"/><use x="219.238" xlink:href="#G"/><use x="282.715" xlink:href="#g"/><use x="323.797" xlink:href="#H"/><use x="384.979" xlink:href="#G"/></g><g class="S"><path d="M218.83 222.99h20" class="B C E"/><use x="228.83" xlink:href="#Z" y="222.989" fill="#bcbd22" class="T"/></g><defs><path d="M59.516 10.406v19.578h-16.11v8.11H69.28V6.78Q63.578 2.734 56.688.656 49.813-1.422 42-1.422q-17.094 0-26.75 9.984-9.64 10-9.64 27.813 0 17.875 9.64 27.86Q24.906 74.22 42 74.22q7.125 0 13.547-1.766 6.422-1.75 11.844-5.172v-10.5q-5.47 4.64-11.625 6.984-6.156 2.344-12.937 2.344-13.39 0-20.11-7.47-6.703-7.47-6.703-22.266 0-14.75 6.703-22.22 6.72-7.47 20.11-7.47 5.22 0 9.313.906 4.11.906 7.375 2.813z" id="o"/><path d="M19.672 64.797V8.11h11.922q15.094 0 22.094 6.828 7 6.844 7 21.594 0 14.64-7 21.453-7 6.813-22.094 6.813zm-9.86 8.11h20.266q21.188 0 31.094-8.812 9.922-8.812 9.922-27.562 0-18.86-9.97-27.703Q51.172 0 30.078 0H9.813z" id="p"/></defs><g transform="matrix(.1 0 0 -.1 246.829574 226.489155)"><use xlink:href="#P"/><use x="63.477" xlink:href="#o"/><use x="140.967" xlink:href="#p"/></g><defs><clipPath id="q"><path d="M50.15 13.267H344.97v303.5H50.15z"/></clipPath></defs></svg>