<svg xmlns="http://www.w3.org/2000/svg" xmlns:xlink="http://www.w3.org/1999/xlink" height="479" viewBox="0 0 864 358.56" width="1153" stroke-linecap="butt" stroke-linejoin="round"><style><![CDATA[.B{stroke:#000}.C{stroke-width:.8}.D{clip-path:url(#a)}.E{stroke-linecap:butt}.F{stroke-linejoin:round}.G{stroke-linejoin:miter}]]></style><g fill="#fff"><path d="M0 358.56h864V0H0z"/><path d="M50.87 316.768h799.8v-303.5H50.87z"/></g><g fill="#1f77b4" class="D"><use xlink:href="#B"/><use xlink:href="#B" x="74.195"/><use xlink:href="#B" x="148.388"/><use xlink:href="#B" x="222.582"/><path d="M384 316.768h9.893H384z"/><use xlink:href="#B" x="370.969"/><use xlink:href="#B" x="445.163"/><use xlink:href="#B" x="519.357"/><use xlink:href="#B" x="593.551"/><use xlink:href="#B" x="667.745"/></g><path d="M97.118 316.768H107v-2.316h-9.893zm74.192 0h9.893v-1.716H171.3zm74.195 0h9.893v-1.82h-9.893zm74.195 0h9.893v-2.255H319.7zm74.193 0h9.893v-2.146h-9.893zm74.194 0h9.893v-2.6h-9.893zm74.193 0h9.893v-2.195h-9.893zm74.195 0h9.893v-2.832h-9.893zm74.195 0h9.893v-1.93h-9.893zm74.192 0h9.893v-2.82h-9.893z" fill="#ff7f0e" class="D"/><path d="M107 316.768h9.893v-11.36H107zm74.204 0h9.893v-8.48h-9.893zm74.194 0h9.893v-9.225h-9.893zm74.194 0h9.893v-11.04h-9.893zm74.194 0h9.893v-10.8h-9.893zm74.194 0h9.893V303.47h-9.893zm74.193 0h9.893v-10.95h-9.893zm74.194 0h9.893v-14.104h-9.893zm74.193 0h9.893v-9.727h-9.893zm74.195 0h9.893v-14.335h-9.893z" fill="#2ca02c" class="D"/><path d="M116.903 316.768h9.893v-22.186h-9.893zm74.193 0h9.893v-16.666h-9.893zm74.204 0h9.893v-18.194H265.3zm74.184 0h9.893V294.76h-9.893zm74.194 0h9.893v-21.783h-9.893zm74.194 0h9.893v-26.992h-9.893zm74.194 0h9.893v-21.9h-9.893zm74.194 0h9.893v-28.27h-9.893zm74.194 0h9.893V297.38h-9.893zm74.193 0h9.893V287.94h-9.893z" fill="#d62728" class="D"/><path d="M126.795 316.768h9.893V206.48h-9.893zm74.195 0h9.893V235.38H201zm74.193 0h9.893v-87.845h-9.893zm74.194 0h9.893V208.226h-9.893zm74.193 0h9.893V208.844h-9.893zm74.194 0h9.893v-136.38h-9.893zm74.194 0h9.893v-110.06h-9.893zm74.194 0h9.893V176.135h-9.893zm74.194 0h9.893v-93.4h-9.893zm74.194 0h9.893v-144.07h-9.893z" fill="#9467bd" class="D"/><path d="M136.688 316.768h9.893V95.332h-9.893zm74.192 0h9.893V153.352h-9.893zm74.195 0h9.893V143.395h-9.893zm74.195 0h9.893V100.474h-9.893zm74.193 0h9.893v-214.4h-9.893zm74.194 0h9.893V43.115h-9.893zm74.193 0h9.893V97.173h-9.893zm74.195 0h9.893V36.003h-9.893zm74.195 0h9.893v-185.38h-9.893zm74.192 0h9.893V27.72h-9.893z" fill="#8c564b" class="D"/><defs><path d="M0 0v3.5" id="A" class="B C E F"/><path id="B" d="M87.225 316.768h9.893-9.893z"/></defs><use x="116.903" xlink:href="#A" y="316.768" class="B C"/><defs><path d="M31.78 66.406q-7.61 0-11.453-7.5-3.828-7.484-3.828-22.53 0-14.984 3.828-22.484 3.844-7.5 11.453-7.5 7.672 0 11.5 7.5 3.844 7.5 3.844 22.484 0 15.047-3.844 22.53-3.828 7.5-11.5 7.5zm0 7.813q12.266 0 18.734-9.703 6.47-9.687 6.47-28.14 0-18.406-6.47-28.11-6.47-9.687-18.734-9.687-12.25 0-18.72 9.688-6.47 9.703-6.47 28.11 0 18.453 6.47 28.14 6.47 9.703 18.72 9.703z" id="C"/></defs><use xlink:href="#C" transform="matrix(.1 0 0 -.1 113.721301 331.366278)"/><use x="265.29" xlink:href="#A" y="316.768" class="B C"/><defs><path d="M19.188 8.297H53.61V0H7.328v8.297q5.61 5.813 15.297 15.594 9.703 9.797 12.188 12.64 4.734 5.313 6.61 9 1.89 3.688 1.89 7.25 0 5.813-4.078 9.47-4.078 3.672-10.625 3.672-4.64 0-9.797-1.61-5.14-1.61-11-4.89v9.97q5.953 2.39 11.125 3.61 5.188 1.22 9.484 1.22 11.328 0 18.063-5.672 6.734-5.656 6.734-15.125 0-4.5-1.687-8.53-1.672-4.016-6.125-9.484-1.22-1.422-7.766-8.187-6.53-6.766-18.453-18.922z" id="D"/></defs><use xlink:href="#D" transform="matrix(.1 0 0 -.1 262.109056 331.366278)"/><use x="413.678" xlink:href="#A" y="316.768" class="B C"/><defs><path d="M37.797 64.313L12.89 25.39h24.906zm-2.594 8.594H47.61V25.39h10.406v-8.203H47.61V0h-9.812v17.188H4.89v9.516z" id="E"/></defs><use xlink:href="#E" transform="matrix(.1 0 0 -.1 410.496811 331.366278)"/><use x="562.066" xlink:href="#A" y="316.768" class="B C"/><defs><path d="M33.016 40.375q-6.64 0-10.53-4.547-3.875-4.53-3.875-12.437 0-7.86 3.875-12.437 3.89-4.562 10.53-4.562 6.64 0 10.516 4.563 3.875 4.578 3.875 12.438 0 7.906-3.875 12.438-3.875 4.547-10.516 4.547zm19.578 30.922v-8.984q-3.72 1.75-7.5 2.672-3.78.938-7.5.938-9.766 0-14.922-6.594-5.14-6.594-5.875-19.922 2.875 4.25 7.22 6.516 4.36 2.266 9.578 2.266 10.984 0 17.36-6.672 6.375-6.656 6.375-18.125 0-11.234-6.64-18.03-6.64-6.78-17.672-6.78-12.656 0-19.344 9.688-6.687 9.703-6.687 28.11 0 17.28 8.203 27.563 8.203 10.28 22.016 10.28 3.72 0 7.5-.734 3.78-.734 7.89-2.187z" id="F"/></defs><use xlink:href="#F" transform="matrix(.1 0 0 -.1 558.884566 331.366278)"/><use x="710.454" xlink:href="#A" y="316.768" class="B C"/><defs><path d="M31.78 34.625q-7.03 0-11.062-3.766-4.016-3.766-4.016-10.344 0-6.594 4.016-10.36Q24.75 6.39 31.78 6.39q7.03 0 11.078 3.78 4.063 3.797 4.063 10.344 0 6.578-4.03 10.344-4.016 3.766-11.11 3.766zm-9.86 4.188q-6.344 1.563-9.89 5.906-3.53 4.36-3.53 10.61 0 8.734 6.22 13.813 6.234 5.078 17.063 5.078 10.89 0 17.094-5.078 6.203-5.078 6.203-13.812 0-6.25-3.547-10.61-3.53-4.344-9.828-5.906 7.125-1.656 11.094-6.5 3.984-4.828 3.984-11.797 0-10.61-6.47-16.28-6.47-5.656-18.53-5.656-12.047 0-18.53 5.656-6.47 5.672-6.47 16.28 0 6.97 4 11.797 4.016 4.844 11.14 6.5zm-3.61 15.578q0-5.656 3.53-8.828 3.547-3.172 9.938-3.172 6.36 0 9.938 3.172 3.594 3.172 3.594 8.828 0 5.672-3.594 8.844-3.578 3.172-9.937 3.172-6.39 0-9.937-3.172-3.53-3.172-3.53-8.844z" id="G"/></defs><use xlink:href="#G" transform="matrix(.1 0 0 -.1 707.272321 331.366278)"/><defs><path d="M44.28 53.078v-8.5q-3.797 1.953-7.906 2.922-4.094.984-8.5.984-6.687 0-10.03-2.047Q14.5 44.39 14.5 40.28q0-3.125 2.39-4.906 2.39-1.78 9.625-3.39l3.078-.687q9.563-2.047 13.594-5.78 4.03-3.734 4.03-10.422 0-7.625-6.03-12.078-6.03-4.437-16.578-4.437-4.39 0-9.156.86Q10.688.297 5.422 2v9.28q4.984-2.594 9.813-3.89 4.828-1.28 9.578-1.28 6.344 0 9.75 2.172 3.422 2.172 3.422 6.125 0 3.656-2.47 5.61-2.453 1.953-10.812 3.766l-3.125.734q-8.344 1.75-12.062 5.39-3.703 3.64-3.703 9.984 0 7.72 5.47 11.906Q16.75 56 26.813 56q4.97 0 9.36-.734 4.406-.72 8.11-2.187z" id="H"/><path d="M34.28 27.484q-10.89 0-15.094-2.484-4.203-2.484-4.203-8.5 0-4.78 3.156-7.594 3.156-2.797 8.563-2.797 7.484 0 12 5.297 4.516 5.297 4.516 14.078v2zm17.922 3.72V0H43.22v8.297Q40.14 3.328 35.547.953q-4.594-2.375-11.234-2.375-8.39 0-13.36 4.72Q6 8.016 6 15.922q0 9.22 6.172 13.906 6.188 4.688 18.438 4.688h12.61v.89q0 6.203-4.078 9.594-4.078 3.39-11.453 3.39-4.687 0-9.14-1.125-4.437-1.125-8.53-3.375v8.313q4.922 1.906 9.563 2.844 4.64.953 9.03.953 11.875 0 17.734-6.156 5.86-6.14 5.86-18.64z" id="I"/><path d="M52 44.188q3.375 6.063 8.063 8.938Q64.75 56 71.094 56q8.547 0 13.188-5.984 4.64-5.97 4.64-17V0h-9.03v32.72q0 7.86-2.797 11.656-2.78 3.813-8.484 3.813-6.984 0-11.047-4.64-4.047-4.625-4.047-12.64V0h-9.03v32.72q0 7.906-2.78 11.688-2.78 3.78-8.594 3.78-6.89 0-10.953-4.656-4.047-4.656-4.047-12.625V0h-9.03v54.688h9.03v-8.5q3.078 5.03 7.375 7.422Q29.78 56 35.688 56q5.97 0 10.14-3.03Q50 49.953 52 44.188z" id="J"/><path d="M18.11 8.203v-29h-9.03v75.484h9.03V46.39q2.844 4.875 7.156 7.234Q29.594 56 35.594 56q9.97 0 16.188-7.906 6.234-7.906 6.234-20.797 0-12.89-6.234-20.812-6.22-7.906-16.187-7.906-6 0-10.328 2.375-4.312 2.375-7.156 7.25zm30.578 19.094q0 9.906-4.078 15.547-4.078 5.64-11.203 5.64-7.14 0-11.22-5.64-4.078-5.64-4.078-15.547 0-9.906 4.078-15.547 4.078-5.64 11.22-5.64 7.125 0 11.203 5.64 4.078 5.64 4.078 15.547z" id="K"/><path d="M9.422 75.984h8.984V0H9.422z" id="L"/><path d="M56.203 29.594v-4.39H14.89q.594-9.28 5.594-14.14 5-4.86 13.938-4.86 5.172 0 10.03 1.266 4.86 1.266 9.656 3.813v-8.5Q49.266.734 44.188-.344 39.11-1.422 33.89-1.422q-13.094 0-20.734 7.61-7.64 7.625-7.64 20.625 0 13.422 7.25 21.297Q20.016 56 32.328 56q11.03 0 17.453-7.11 6.422-7.094 6.422-19.297zm-8.984 2.64q-.094 7.36-4.125 11.75-4.03 4.406-10.672 4.406-7.516 0-12.03-4.25-4.516-4.25-5.203-11.97z" id="M"/></defs><g transform="matrix(.1 0 0 -.1 432.596094 345.044403)"><use xlink:href="#H"/><use x="52.1" xlink:href="#I"/><use x="113.379" xlink:href="#J"/><use x="210.791" xlink:href="#K"/><use x="274.268" xlink:href="#L"/><use x="302.051" xlink:href="#M"/></g><defs><path d="M0 0h-3.5" id="N" class="B C E F"/></defs><use x="50.87" xlink:href="#N" y="316.768" class="B C"/><use xlink:href="#C" transform="matrix(.1 0 0 -.1 37.5075 320.567059)"/><use x="50.87" xlink:href="#N" y="275.766" class="B C"/><g transform="matrix(.1 0 0 -.1 31.145 279.564994)"><use xlink:href="#D"/><use x="63.623" xlink:href="#C"/></g><use x="50.87" xlink:href="#N" y="234.764" class="B C"/><g transform="matrix(.1 0 0 -.1 31.145 238.562929)"><use xlink:href="#E"/><use x="63.623" xlink:href="#C"/></g><use x="50.87" xlink:href="#N" y="193.762" class="B C"/><g transform="matrix(.1 0 0 -.1 31.145 197.560864)"><use xlink:href="#F"/><use x="63.623" xlink:href="#C"/></g><use x="50.87" xlink:href="#N" y="152.76" class="B C"/><g transform="matrix(.1 0 0 -.1 31.145 156.558799)"><use xlink:href="#G"/><use x="63.623" xlink:href="#C"/></g><use x="50.87" xlink:href="#N" y="111.758" class="B C"/><defs><path d="M12.406 8.297h16.11v55.625l-17.53-3.516v8.984l17.438 3.516h9.86V8.297h16.11V0H12.406z" id="O"/></defs><g transform="matrix(.1 0 0 -.1 24.7825 115.556734)"><use xlink:href="#O"/><use x="63.623" xlink:href="#C"/><use x="127.246" xlink:href="#C"/></g><use x="50.87" xlink:href="#N" y="70.755" class="B C"/><g transform="matrix(.1 0 0 -.1 24.7825 74.554669)"><use xlink:href="#O"/><use x="63.623" xlink:href="#D"/><use x="127.246" xlink:href="#C"/></g><use x="50.87" xlink:href="#N" y="29.753" class="B C"/><g transform="matrix(.1 0 0 -.1 24.7825 33.552604)"><use xlink:href="#O"/><use x="63.623" xlink:href="#E"/><use x="127.246" xlink:href="#C"/></g><defs><path d="M44.39 34.188q3.172-1.078 6.172-4.594 3-3.516 6.03-9.672L66.61 0H56l-9.312 18.703q-3.625 7.328-7.016 9.72-3.39 2.39-9.25 2.39h-10.75V0h-9.86v72.906h22.266q12.5 0 18.656-5.234 6.156-5.22 6.156-15.766 0-6.89-3.203-11.437-3.203-4.53-9.297-6.28zm-24.72 30.61V38.922h12.406q7.125 0 10.766 3.297 3.64 3.297 3.64 9.688 0 6.39-3.64 9.64-3.64 3.25-10.766 3.25z" id="P"/><path d="M9.813 72.906h14.703l18.594-49.61 18.703 49.61h14.703V0H66.89v64.016l-18.797-50h-9.906l-18.797 50V0H9.813z" id="Q"/><path d="M53.516 70.516V60.89q-5.61 2.688-10.594 4-4.984 1.328-9.625 1.328-8.047 0-12.422-3.125-4.375-3.125-4.375-8.89 0-4.844 2.906-7.312 2.906-2.453 11.016-3.97l5.953-1.22q11.03-2.11 16.28-7.406 5.25-5.297 5.25-14.172 0-10.61-7.11-16.078-7.094-5.47-20.812-5.47-5.172 0-11.016 1.172Q13.14.922 6.89 3.22v10.156q6-3.36 11.766-5.078 5.766-1.703 11.328-1.703 8.438 0 13.03 3.313 4.594 3.328 4.594 9.484 0 5.36-3.297 8.39-3.297 3.03-10.812 4.547L27.484 33.5q-11.03 2.188-15.97 6.875-4.922 4.688-4.922 13.047 0 9.672 6.813 15.234 6.813 5.563 18.766 5.563 5.14 0 10.453-.937 5.328-.922 10.89-2.766z" id="R"/><path d="M9.813 72.906h46.094v-8.312H19.672V43.016h34.72V34.72h-34.72V8.297h37.11V0H9.813z" id="S"/></defs><g transform="matrix(0 -.1 -.1 0 18.702813 179.139155)"><use xlink:href="#P"/><use x="69.482" xlink:href="#Q"/><use x="155.762" xlink:href="#R"/><use x="219.238" xlink:href="#S"/></g><g stroke-linecap="square" fill="none" class="B C G"><path d="M50.87 316.768v-303.5m799.8 303.5v-303.5"/><path d="M50.87 316.768h799.8m-799.8-303.5h799.8"/></g><path d="M57.87 50.623h474.31q2 0 2-2V20.267q0-2-2-2H57.87q-2 0-2 2v28.356q0 2 2 2z" fill="#fff" opacity=".8" stroke="#ccc" class="G"/><path d="M59.87 29.865h20v-7h-20z" fill="#1f77b4"/><defs><path d="M19.28 29.5q-5.47 1.172-8.39 4.344Q7.953 36.97 7.953 41.5q0 6.89 5.578 10.75 5.516 3.813 15.078 3.813 3.72 0 7.86-.594 4.156-.578 8.938-1.75v-8.156q-4.734 1.406-8.64 2.047-3.953.64-7.422.64-5.812 0-9.172-2.25-3.422-2.25-3.422-5.375 0-3.422 3.313-5.61Q23.344 32.86 29 32.86h7.578v-7.422h-7.234q-6.687 0-10.203-2.484-3.812-2.734-3.812-7.03 0-4.39 4.11-7.125 4.14-2.734 11.516-2.734 4.547 0 8.703.875 4.14.922 7.61 2.734v-8.36q-4.39-1.36-8.5-2.047-4.14-.687-8.047-.687-11.625 0-17.922 4.453Q6.5 7.47 6.5 15.922q0 5.266 3.36 8.828 3.375 3.578 9.422 4.75z" id="T"/><path d="M10.594 45.406h62.594v-8.203H10.594zm0-19.922h62.594v-8.297H10.594z" id="U"/><path d="M9.813 72.906h13.28l32.328-60.984v60.984h9.563V0h-13.28L19.39 60.984V0H9.813z" id="V"/><path d="M31 75.875q-6.53-11.22-9.72-22.22Q18.11 42.672 18.11 31.39q0-11.266 3.203-22.328Q24.516-2 31-13.187h-7.812Q15.875-1.703 12.234 9.375q-3.64 11.078-3.64 22.016 0 10.89 3.61 21.922 3.625 11.047 10.984 22.563z" id="W"/><path d="M11.72 12.406h10.297V4l-8-15.625H7.72L11.72 4z" id="X"/><path d="M8.016 75.875h7.813Q23.14 64.36 26.78 53.313q3.64-11.03 3.64-21.922 0-10.937-3.64-22.016-3.64-11.078-10.953-22.562H8.016Q14.5-2 17.703 9.063q3.203 11.063 3.203 22.328 0 11.28-3.203 22.266-3.203 11-9.687 22.22z" id="Y"/></defs><g transform="matrix(.1 0 0 -.1 87.87 29.865158)"><use xlink:href="#T"/><use x="54.053" xlink:href="#U"/><use x="137.842" xlink:href="#V"/><use x="212.646" xlink:href="#W"/><use x="251.66" xlink:href="#C"/><use x="315.283" xlink:href="#X"/><use x="347.07" xlink:href="#C"/><use x="410.693" xlink:href="#Y"/></g><path d="M59.87 44.543h20v-7h-20z" fill="#ff7f0e"/><g transform="matrix(.1 0 0 -.1 87.87 44.543283)"><use xlink:href="#T"/><use x="54.053" xlink:href="#U"/><use x="137.842" xlink:href="#V"/><use x="212.646" xlink:href="#W"/><use x="251.66" xlink:href="#C"/><use x="315.283" xlink:href="#X"/><use x="347.07" xlink:href="#O"/><use x="410.693" xlink:href="#Y"/></g><path d="M152.842 29.865h20v-7h-20z" fill="#2ca02c"/><defs><path d="M10.797 72.906h38.72v-8.312H19.828v-17.86q2.14.734 4.28 1.094 2.156.36 4.313.36 12.203 0 19.328-6.687 7.14-6.687 7.14-18.11 0-11.766-7.328-18.297-7.328-6.516-20.656-6.516-4.594 0-9.36.78-4.75.78-9.828 2.344v9.922q4.39-2.39 9.078-3.562 4.688-1.172 9.906-1.172 8.453 0 13.375 4.438 4.938 4.438 4.938 12.063 0 7.61-4.937 12.047-4.922 4.453-13.375 4.453-3.953 0-7.89-.875-3.922-.875-8.016-2.734z" id="Z"/></defs><g transform="matrix(.1 0 0 -.1 180.841875 29.865158)"><use xlink:href="#T"/><use x="54.053" xlink:href="#U"/><use x="137.842" xlink:href="#V"/><use x="212.646" xlink:href="#W"/><use x="251.66" xlink:href="#C"/><use x="315.283" xlink:href="#X"/><use x="347.07" xlink:href="#Z"/><use x="410.693" xlink:href="#Y"/></g><path d="M245.814 29.865h20v-7h-20z" fill="#d62728"/><g transform="matrix(.1 0 0 -.1 273.81375 29.865158)"><use xlink:href="#T"/><use x="54.053" xlink:href="#U"/><use x="137.842" xlink:href="#V"/><use x="212.646" xlink:href="#W"/><use x="251.66" xlink:href="#C"/><use x="315.283" xlink:href="#X"/><use x="347.07" xlink:href="#O"/><use x="410.693" xlink:href="#C"/><use x="474.316" xlink:href="#Y"/></g><path d="M345.148 29.865h20v-7h-20z" fill="#9467bd"/><g transform="matrix(.1 0 0 -.1 373.148125 29.865158)"><use xlink:href="#T"/><use x="54.053" xlink:href="#U"/><use x="137.842" xlink:href="#V"/><use x="212.646" xlink:href="#W"/><use x="251.66" xlink:href="#C"/><use x="315.283" xlink:href="#X"/><use x="347.07" xlink:href="#Z"/><use x="410.693" xlink:href="#C"/><use x="474.316" xlink:href="#Y"/></g><path d="M444.483 29.865h20v-7h-20z" fill="#8c564b"/><g transform="matrix(.1 0 0 -.1 472.4825 29.865158)"><use xlink:href="#T"/><use x="54.053" xlink:href="#U"/><use x="137.842" xlink:href="#V"/><use x="212.646" xlink:href="#W"/><use x="251.66" xlink:href="#C"/><use x="315.283" xlink:href="#X"/><use x="347.07" xlink:href="#O"/><use x="410.693" xlink:href="#C"/><use x="474.316" xlink:href="#C"/><use x="537.939" xlink:href="#Y"/></g><defs><clipPath id="a"><path d="M50.87 13.267h799.8v303.5H50.87z"/></clipPath></defs></svg>