<svg xmlns="http://www.w3.org/2000/svg" xmlns:xlink="http://www.w3.org/1999/xlink" height="479" viewBox="0 0 360 358.56" width="481" stroke-linecap="butt" stroke-linejoin="round"><style><![CDATA[.B{stroke:#000}.C{stroke-width:.8}.D{stroke-linejoin:miter}.E{stroke-linecap:square}.F{fill:none}.G{clip-path:url(#a)}.H{stroke-width:1.5}.I{stroke-linejoin:round}.J{stroke-linecap:butt}.K{stroke:#1f77b4}.L{stroke:#ff7f0e}.M{stroke:#2ca02c}.N{stroke:#d62728}]]></style><g fill="#fff"><path d="M0 358.56h360V0H0z"/><path d="M56.015 316.768H346.68v-303.5H56.015z"/></g><defs><path d="M0 0v3.5" id="A" class="B C I J"/></defs><use x="69.227" xlink:href="#A" y="316.768" class="B C"/><defs><path d="M31.78 66.406q-7.61 0-11.453-7.5-3.828-7.484-3.828-22.53 0-14.984 3.828-22.484 3.844-7.5 11.453-7.5 7.672 0 11.5 7.5 3.844 7.5 3.844 22.484 0 15.047-3.844 22.53-3.828 7.5-11.5 7.5zm0 7.813q12.266 0 18.734-9.703 6.47-9.687 6.47-28.14 0-18.406-6.47-28.11-6.47-9.687-18.734-9.687-12.25 0-18.72 9.688-6.47 9.703-6.47 28.11 0 18.453 6.47 28.14 6.47 9.703 18.72 9.703z" id="B"/><path d="M10.688 12.406H21V0H10.688z" id="C"/></defs><g transform="matrix(.1 0 0 -.1 61.275813 331.366278)"><use xlink:href="#B"/><use x="63.623" xlink:href="#C"/><use x="95.41" xlink:href="#B"/></g><use x="103.996" xlink:href="#A" y="316.768" class="B C"/><defs><path d="M19.188 8.297H53.61V0H7.328v8.297q5.61 5.813 15.297 15.594 9.703 9.797 12.188 12.64 4.734 5.313 6.61 9 1.89 3.688 1.89 7.25 0 5.813-4.078 9.47-4.078 3.672-10.625 3.672-4.64 0-9.797-1.61-5.14-1.61-11-4.89v9.97q5.953 2.39 11.125 3.61 5.188 1.22 9.484 1.22 11.328 0 18.063-5.672 6.734-5.656 6.734-15.125 0-4.5-1.687-8.53-1.672-4.016-6.125-9.484-1.22-1.422-7.766-8.187-6.53-6.766-18.453-18.922z" id="D"/><path d="M10.797 72.906h38.72v-8.312H19.828v-17.86q2.14.734 4.28 1.094 2.156.36 4.313.36 12.203 0 19.328-6.687 7.14-6.687 7.14-18.11 0-11.766-7.328-18.297-7.328-6.516-20.656-6.516-4.594 0-9.36.78-4.75.78-9.828 2.344v9.922q4.39-2.39 9.078-3.562 4.688-1.172 9.906-1.172 8.453 0 13.375 4.438 4.938 4.438 4.938 12.063 0 7.61-4.937 12.047-4.922 4.453-13.375 4.453-3.953 0-7.89-.875-3.922-.875-8.016-2.734z" id="E"/></defs><g transform="matrix(.1 0 0 -.1 96.044313 331.366278)"><use xlink:href="#D"/><use x="63.623" xlink:href="#C"/><use x="95.41" xlink:href="#E"/></g><use x="138.764" xlink:href="#A" y="316.768" class="B C"/><g transform="matrix(.1 0 0 -.1 130.812812 331.366278)"><use xlink:href="#E"/><use x="63.623" xlink:href="#C"/><use x="95.41" xlink:href="#B"/></g><use x="173.533" xlink:href="#A" y="316.768" class="B C"/><defs><path d="M8.203 72.906h46.875v-4.203L28.61 0H18.313L43.22 64.594H8.203z" id="F"/></defs><g transform="matrix(.1 0 0 -.1 165.581311 331.366278)"><use xlink:href="#F"/><use x="63.623" xlink:href="#C"/><use x="95.41" xlink:href="#E"/></g><use x="208.301" xlink:href="#A" y="316.768" class="B C"/><defs><path d="M12.406 8.297h16.11v55.625l-17.53-3.516v8.984l17.438 3.516h9.86V8.297h16.11V0H12.406z" id="G"/></defs><g transform="matrix(.1 0 0 -.1 197.16856 331.366278)"><use xlink:href="#G"/><use x="63.623" xlink:href="#B"/><use x="127.246" xlink:href="#C"/><use x="159.033" xlink:href="#B"/></g><use x="243.07" xlink:href="#A" y="316.768" class="B C"/><g transform="matrix(.1 0 0 -.1 231.93706 331.366278)"><use xlink:href="#G"/><use x="63.623" xlink:href="#D"/><use x="127.246" xlink:href="#C"/><use x="159.033" xlink:href="#E"/></g><use x="277.838" xlink:href="#A" y="316.768" class="B C"/><g transform="matrix(.1 0 0 -.1 266.705559 331.366278)"><use xlink:href="#G"/><use x="63.623" xlink:href="#E"/><use x="127.246" xlink:href="#C"/><use x="159.033" xlink:href="#B"/></g><use x="312.607" xlink:href="#A" y="316.768" class="B C"/><g transform="matrix(.1 0 0 -.1 301.474058 331.366278)"><use xlink:href="#G"/><use x="63.623" xlink:href="#F"/><use x="127.246" xlink:href="#C"/><use x="159.033" xlink:href="#E"/></g><defs><path d="M56.203 29.594v-4.39H14.89q.594-9.28 5.594-14.14 5-4.86 13.938-4.86 5.172 0 10.03 1.266 4.86 1.266 9.656 3.813v-8.5Q49.266.734 44.188-.344 39.11-1.422 33.89-1.422q-13.094 0-20.734 7.61-7.64 7.625-7.64 20.625 0 13.422 7.25 21.297Q20.016 56 32.328 56q11.03 0 17.453-7.11 6.422-7.094 6.422-19.297zm-8.984 2.64q-.094 7.36-4.125 11.75-4.03 4.406-10.672 4.406-7.516 0-12.03-4.25-4.516-4.25-5.203-11.97z" id="H"/><path d="M18.11 8.203v-29h-9.03v75.484h9.03V46.39q2.844 4.875 7.156 7.234Q29.594 56 35.594 56q9.97 0 16.188-7.906 6.234-7.906 6.234-20.797 0-12.89-6.234-20.812-6.22-7.906-16.187-7.906-6 0-10.328 2.375-4.312 2.375-7.156 7.25zm30.578 19.094q0 9.906-4.078 15.547-4.078 5.64-11.203 5.64-7.14 0-11.22-5.64-4.078-5.64-4.078-15.547 0-9.906 4.078-15.547 4.078-5.64 11.22-5.64 7.125 0 11.203 5.64 4.078 5.64 4.078 15.547z" id="I"/><path d="M30.61 48.39q-7.22 0-11.422-5.64-4.203-5.64-4.203-15.453 0-9.812 4.172-15.453 4.188-5.64 11.453-5.64 7.188 0 11.375 5.656 4.203 5.672 4.203 15.438 0 9.72-4.203 15.406-4.187 5.688-11.375 5.688zm0 7.61q11.72 0 18.406-7.625 6.703-7.61 6.703-21.078 0-13.422-6.703-21.078-6.687-7.64-18.406-7.64-11.766 0-18.437 7.64-6.656 7.656-6.656 21.078 0 13.47 6.656 21.078Q18.844 56 30.61 56z" id="J"/><path d="M48.78 52.594v-8.406q-3.812 2.11-7.64 3.156-3.828 1.047-7.734 1.047-8.75 0-13.594-5.547-4.828-5.53-4.828-15.547 0-10.016 4.828-15.562 4.844-5.53 13.594-5.53 3.906 0 7.734 1.047 3.828 1.047 7.64 3.156V2.094Q45.016.344 40.984-.53q-4.016-.89-8.562-.89-12.36 0-19.64 7.766-7.266 7.766-7.266 20.953 0 13.375 7.344 21.03Q20.22 56 33.016 56q4.14 0 8.094-.86 3.953-.844 7.672-2.547z" id="K"/><path d="M54.89 33.016V0h-8.984v32.72q0 7.766-3.03 11.61-3.03 3.86-9.078 3.86-7.28 0-11.484-4.64-4.203-4.625-4.203-12.64V0h-9.03v75.984h9.03V46.188q3.234 4.938 7.594 7.375Q30.078 56 35.797 56q9.422 0 14.25-5.828 4.844-5.828 4.844-17.156z" id="L"/></defs><g transform="matrix(.1 0 0 -.1 186.119548 345.044403)"><use xlink:href="#H"/><use x="61.523" xlink:href="#I"/><use x="125" xlink:href="#J"/><use x="186.182" xlink:href="#K"/><use x="241.162" xlink:href="#L"/></g><defs><path d="M0 0h-3.5" id="M" class="B C I J"/></defs><use x="56.015" xlink:href="#M" y="278.917" class="B C"/><defs><path d="M10.594 35.5h62.594v-8.297H10.594z" id="N"/><path d="M37.797 64.313L12.89 25.39h24.906zm-2.594 8.594H47.61V25.39h10.406v-8.203H47.61V0h-9.812v17.188H4.89v9.516z" id="O"/></defs><g transform="matrix(.1 0 0 -.1 25.515346 282.715818)"><use xlink:href="#G" y=".684"/><use xlink:href="#B" x="63.623" y=".684"/><use transform="matrix(.7 0 0 .7 128.203125 38.965625)" xlink:href="#N"/><use transform="matrix(.7 0 0 .7 186.855469 38.965625)" xlink:href="#O"/></g><use x="56.015" xlink:href="#M" y="235.788" class="B C"/><defs><path d="M40.578 39.313Q47.656 37.797 51.625 33q3.984-4.78 3.984-11.812 0-10.78-7.422-16.703-7.422-5.906-21.094-5.906-4.578 0-9.437.906-4.86.906-10.03 2.72v9.516q4.094-2.39 8.97-3.61 4.89-1.22 10.22-1.22 9.266 0 14.125 3.656 4.86 3.656 4.86 10.64 0 6.453-4.516 10.078-4.516 3.64-12.562 3.64h-8.5v8.11h8.89q7.266 0 11.125 2.906 3.86 2.906 3.86 8.375 0 5.61-3.984 8.61-3.97 3.016-11.39 3.016-4.062 0-8.703-.89-4.64-.875-10.203-2.72v8.78q5.625 1.563 10.53 2.344 4.906.78 9.25.78 11.234 0 17.766-5.11 6.547-5.094 6.547-13.78 0-6.062-3.47-10.234-3.47-4.172-9.86-5.78z" id="P"/></defs><g transform="matrix(.1 0 0 -.1 25.515346 239.587013)"><use xlink:href="#G" y=".766"/><use xlink:href="#B" x="63.623" y=".766"/><use transform="matrix(.7 0 0 .7 128.203125 39.046875)" xlink:href="#N"/><use transform="matrix(.7 0 0 .7 186.855469 39.046875)" xlink:href="#P"/></g><use x="56.015" xlink:href="#M" y="192.659" class="B C"/><g transform="matrix(.1 0 0 -.1 25.515346 196.458208)"><use xlink:href="#G" y=".766"/><use xlink:href="#B" x="63.623" y=".766"/><use transform="matrix(.7 0 0 .7 128.203125 39.046875)" xlink:href="#N"/><use transform="matrix(.7 0 0 .7 186.855469 39.046875)" xlink:href="#D"/></g><use x="56.015" xlink:href="#M" y="149.53" class="B C"/><g transform="matrix(.1 0 0 -.1 25.515346 153.329402)"><use xlink:href="#G" y=".684"/><use xlink:href="#B" x="63.623" y=".684"/><use transform="matrix(.7 0 0 .7 128.203125 38.965625)" xlink:href="#N"/><use transform="matrix(.7 0 0 .7 186.855469 38.965625)" xlink:href="#G"/></g><use x="56.015" xlink:href="#M" y="106.401" class="B C"/><g transform="matrix(.1 0 0 -.1 31.415346 110.200597)"><use xlink:href="#G" y=".766"/><use xlink:href="#B" x="63.623" y=".766"/><use transform="matrix(.7 0 0 .7 128.203125 39.046875)" xlink:href="#B"/></g><use x="56.015" xlink:href="#M" y="63.273" class="B C"/><g transform="matrix(.1 0 0 -.1 31.415346 67.071791)"><use xlink:href="#G" y=".684"/><use xlink:href="#B" x="63.623" y=".684"/><use transform="matrix(.7 0 0 .7 128.203125 38.965625)" xlink:href="#G"/></g><use x="56.015" xlink:href="#M" y="20.144" class="B C"/><g transform="matrix(.1 0 0 -.1 31.415346 23.942986)"><use xlink:href="#G" y=".766"/><use xlink:href="#B" x="63.623" y=".766"/><use transform="matrix(.7 0 0 .7 128.203125 39.046875)" xlink:href="#D"/></g><defs><path d="M0 0h-2" id="Q" stroke-width=".6" class="B I J"/></defs><g stroke-width=".6" class="B"><use x="56.015" xlink:href="#Q" y="309.062"/><use x="56.015" xlink:href="#Q" y="301.468"/><use x="56.015" xlink:href="#Q" y="296.079"/><use x="56.015" xlink:href="#Q" y="291.9"/><use x="56.015" xlink:href="#Q" y="288.485"/><use x="56.015" xlink:href="#Q" y="285.597"/><use x="56.015" xlink:href="#Q" y="283.096"/><use x="56.015" xlink:href="#Q" y="280.89"/><use x="56.015" xlink:href="#Q" y="265.934"/><use x="56.015" xlink:href="#Q" y="258.339"/><use x="56.015" xlink:href="#Q" y="252.95"/><use x="56.015" xlink:href="#Q" y="248.771"/><use x="56.015" xlink:href="#Q" y="245.356"/><use x="56.015" xlink:href="#Q" y="242.469"/><use x="56.015" xlink:href="#Q" y="239.967"/><use x="56.015" xlink:href="#Q" y="237.761"/><use x="56.015" xlink:href="#Q" y="222.805"/><use x="56.015" xlink:href="#Q" y="215.21"/><use x="56.015" xlink:href="#Q" y="209.822"/><use x="56.015" xlink:href="#Q" y="205.642"/><use x="56.015" xlink:href="#Q" y="202.227"/><use x="56.015" xlink:href="#Q" y="199.34"/><use x="56.015" xlink:href="#Q" y="196.839"/><use x="56.015" xlink:href="#Q" y="194.632"/><use x="56.015" xlink:href="#Q" y="179.676"/><use x="56.015" xlink:href="#Q" y="172.081"/><use x="56.015" xlink:href="#Q" y="166.693"/><use x="56.015" xlink:href="#Q" y="162.513"/><use x="56.015" xlink:href="#Q" y="159.098"/><use x="56.015" xlink:href="#Q" y="156.211"/><use x="56.015" xlink:href="#Q" y="153.71"/><use x="56.015" xlink:href="#Q" y="151.504"/><use x="56.015" xlink:href="#Q" y="136.547"/><use x="56.015" xlink:href="#Q" y="128.953"/><use x="56.015" xlink:href="#Q" y="123.564"/><use x="56.015" xlink:href="#Q" y="119.384"/><use x="56.015" xlink:href="#Q" y="115.969"/><use x="56.015" xlink:href="#Q" y="113.082"/><use x="56.015" xlink:href="#Q" y="110.581"/><use x="56.015" xlink:href="#Q" y="108.375"/><use x="56.015" xlink:href="#Q" y="93.418"/><use x="56.015" xlink:href="#Q" y="85.824"/><use x="56.015" xlink:href="#Q" y="80.435"/><use x="56.015" xlink:href="#Q" y="76.256"/><use x="56.015" xlink:href="#Q" y="72.841"/><use x="56.015" xlink:href="#Q" y="69.953"/><use x="56.015" xlink:href="#Q" y="67.452"/><use x="56.015" xlink:href="#Q" y="65.246"/><use x="56.015" xlink:href="#Q" y="50.29"/><use x="56.015" xlink:href="#Q" y="42.695"/><use x="56.015" xlink:href="#Q" y="37.306"/><use x="56.015" xlink:href="#Q" y="33.127"/><use x="56.015" xlink:href="#Q" y="29.712"/><use x="56.015" xlink:href="#Q" y="26.825"/><use x="56.015" xlink:href="#Q" y="24.323"/><use x="56.015" xlink:href="#Q" y="22.117"/></g><defs><path d="M9.813 72.906h14.703l18.594-49.61 18.703 49.61h14.703V0H66.89v64.016l-18.797-50h-9.906l-18.797 50V0H9.813z" id="R"/><path d="M53.516 70.516V60.89q-5.61 2.688-10.594 4-4.984 1.328-9.625 1.328-8.047 0-12.422-3.125-4.375-3.125-4.375-8.89 0-4.844 2.906-7.312 2.906-2.453 11.016-3.97l5.953-1.22q11.03-2.11 16.28-7.406 5.25-5.297 5.25-14.172 0-10.61-7.11-16.078-7.094-5.47-20.812-5.47-5.172 0-11.016 1.172Q13.14.922 6.89 3.22v10.156q6-3.36 11.766-5.078 5.766-1.703 11.328-1.703 8.438 0 13.03 3.313 4.594 3.328 4.594 9.484 0 5.36-3.297 8.39-3.297 3.03-10.812 4.547L27.484 33.5q-11.03 2.188-15.97 6.875-4.922 4.688-4.922 13.047 0 9.672 6.813 15.234 6.813 5.563 18.766 5.563 5.14 0 10.453-.937 5.328-.922 10.89-2.766z" id="S"/><path d="M9.813 72.906h46.094v-8.312H19.672V43.016h34.72V34.72h-34.72V8.297h37.11V0H9.813z" id="T"/></defs><g transform="matrix(0 -.1 -.1 0 19.435659 175.664936)"><use xlink:href="#R"/><use x="86.279" xlink:href="#S"/><use x="149.756" xlink:href="#T"/></g><path d="M69.227 113.022L83.135 254.23l13.907 15.922 13.907 3.123 13.907 2.344 13.907 2.216 13.907 2.313 13.907 2.384 13.907 2 13.907 2.128 13.907 1.547 13.907 2 27.815 3.796 13.907 1.438 13.907 1.62 13.907 1.588 13.907 1.545 13.907 1.38 13.907 1.398" class="E F G H K"/><defs><path d="M0 3a3 3 0 0 0 2.121-.879A3 3 0 0 0 3 0a3 3 0 0 0-.879-2.121A3 3 0 0 0 0-3a3 3 0 0 0-2.121.879A3 3 0 0 0-3 0a3 3 0 0 0 .879 2.121A3 3 0 0 0 0 3z" id="U" class="I K"/></defs><g fill="#1f77b4" class="G K"><use x="69.227" xlink:href="#U" y="113.022"/><use x="110.95" xlink:href="#U" y="273.275"/><use x="152.672" xlink:href="#U" y="280.147"/><use x="194.394" xlink:href="#U" y="286.659"/><use x="236.116" xlink:href="#U" y="292.112"/><use x="277.838" xlink:href="#U" y="297.06"/><use x="319.561" xlink:href="#U" y="301.574"/></g><path d="M69.227 70.232l13.907 147.236 13.907 7.068 13.907 2.685 13.907 2.723 13.907 2.642 13.907 2.603 13.907 2.457 13.907 2.337 13.907 2.247 13.907 2.088 13.907 2.02 13.907 1.9 13.907 1.832 27.815 3.473 13.907 1.6 13.907 1.614 13.907 1.51 13.907 1.416" class="E F G H L"/><defs><path d="M0 3l3-6h-6z" id="V" class="D L"/></defs><g fill="#ff7f0e" class="D G L"><use x="69.227" xlink:href="#V" y="70.232"/><use x="110.95" xlink:href="#V" y="227.221"/><use x="152.672" xlink:href="#V" y="235.189"/><use x="194.394" xlink:href="#V" y="242.23"/><use x="236.116" xlink:href="#V" y="248.227"/><use x="277.838" xlink:href="#V" y="253.532"/><use x="319.561" xlink:href="#V" y="258.256"/></g><path d="M69.227 40.048l13.907 147.464 13.907 7.153 13.907 2.712 27.815 5.35 13.907 2.466 13.907 2.416 13.907 2.264 13.907 2.208 13.907 2.056 13.907 2.02 13.907 1.882 13.907 1.855 13.907 1.73 13.907 1.66 13.907 1.61 13.907 1.547 13.907 1.485 13.907 1.415" class="E F G H M"/><defs><path d="M-3 3h6v-6h-6z" id="W" class="D M"/></defs><g fill="#2ca02c" class="D G M"><use x="69.227" xlink:href="#W" y="40.048"/><use x="110.95" xlink:href="#W" y="197.378"/><use x="152.672" xlink:href="#W" y="205.195"/><use x="194.394" xlink:href="#W" y="212.083"/><use x="236.116" xlink:href="#W" y="218.041"/><use x="277.838" xlink:href="#W" y="223.286"/><use x="319.561" xlink:href="#W" y="227.928"/></g><path d="M69.227 27.062L83.135 174.52l13.907 7.108 13.907 2.7 13.907 2.712 13.907 2.64 13.907 2.514 13.907 2.4 13.907 2.29 13.907 2.186 13.907 2.086 13.907 2.012 13.907 1.896 13.907 1.823 13.907 1.736 13.907 1.687 13.907 1.612 13.907 1.546 13.907 1.474 13.907 1.438" class="E F G H N"/><defs><path d="M0 4.243L2.546 0 0-4.243-2.546 0z" id="X" class="D N"/></defs><g fill="#d62728" class="D G N"><use x="69.227" xlink:href="#X" y="27.062"/><use x="110.95" xlink:href="#X" y="184.337"/><use x="152.672" xlink:href="#X" y="192.204"/><use x="194.394" xlink:href="#X" y="199.071"/><use x="236.116" xlink:href="#X" y="205.065"/><use x="277.838" xlink:href="#X" y="210.31"/><use x="319.561" xlink:href="#X" y="214.942"/></g><g class="B C D E F"><path d="M56.015 316.768v-303.5m290.665 303.5v-303.5"/><path d="M56.015 316.768H346.68M56.015 13.267H346.68"/></g><path d="M268.278 79.98h71.402q2 0 2-2V20.267q0-2-2-2h-71.402q-2 0-2 2V77.98q0 2 2 2z" fill="#fff" opacity=".8" stroke="#ccc" class="D"/><g class="K"><path d="M270.278 26.365h20" class="E F H"/><use x="280.278" xlink:href="#U" y="26.365" fill="#1f77b4"/></g><defs><path d="M9.813 72.906h9.86V8.297h35.5V0H9.813z" id="Y"/><path d="M10.594 45.406h62.594v-8.203H10.594zm0-19.922h62.594v-8.297H10.594z" id="Z"/></defs><g transform="matrix(.1 0 0 -.1 298.278437 29.865158)"><use xlink:href="#Y"/><use x="55.713" xlink:href="#Z"/><use x="139.502" xlink:href="#G"/><use x="203.125" xlink:href="#B"/></g><g class="L"><path d="M270.278 41.043h20" class="E F H"/><use x="280.278" xlink:href="#V" y="41.043" fill="#ff7f0e" class="D"/></g><g transform="matrix(.1 0 0 -.1 298.278437 44.543283)"><use xlink:href="#Y"/><use x="55.713" xlink:href="#Z"/><use x="139.502" xlink:href="#G"/><use x="203.125" xlink:href="#B"/><use x="266.748" xlink:href="#B"/></g><g class="M"><path d="M270.278 55.72h20" class="E F H"/><use x="280.278" xlink:href="#W" y="55.721" fill="#2ca02c" class="D"/></g><g transform="matrix(.1 0 0 -.1 298.278437 59.221408)"><use xlink:href="#Y"/><use x="55.713" xlink:href="#Z"/><use x="139.502" xlink:href="#E"/><use x="203.125" xlink:href="#B"/><use x="266.748" xlink:href="#B"/></g><g class="N"><path d="M270.278 70.4h20" class="E F H"/><use x="280.278" xlink:href="#X" y="70.4" fill="#d62728" class="D"/></g><g transform="matrix(.1 0 0 -.1 298.278437 73.899533)"><use xlink:href="#Y"/><use x="55.713" xlink:href="#Z"/><use x="139.502" xlink:href="#G"/><use x="203.125" xlink:href="#B"/><use x="266.748" xlink:href="#B"/><use x="330.371" xlink:href="#B"/></g><defs><clipPath id="a"><path d="M56.015 13.267H346.68v303.5H56.015z"/></clipPath></defs></svg>