<svg xmlns="http://www.w3.org/2000/svg" xmlns:xlink="http://www.w3.org/1999/xlink" height="479" viewBox="0 0 360 358.56" width="481" stroke-linecap="butt" stroke-linejoin="round"><style><![CDATA[.B{stroke:#000}.C{stroke-width:.8}.D{stroke-linejoin:miter}.E{stroke-linecap:square}.F{fill:none}.G{clip-path:url(#g)}.H{stroke-width:1.5}.I{stroke-linejoin:round}.J{stroke:#1f77b4}.K{stroke:#ff7f0e}.L{stroke:#2ca02c}.M{stroke:#d62728}.N{stroke-linecap:butt}]]></style><g fill="#fff"><path d="M0 358.56h360V0H0z"/><path d="M60.5 316.768h286.18v-303.5H60.5z"/></g><defs><path d="M0 0v3.5" id="A" class="B C I N"/></defs><use x="73.508" xlink:href="#A" y="316.768" class="B C"/><defs><path d="M31.78 66.406q-7.61 0-11.453-7.5-3.828-7.484-3.828-22.53 0-14.984 3.828-22.484 3.844-7.5 11.453-7.5 7.672 0 11.5 7.5 3.844 7.5 3.844 22.484 0 15.047-3.844 22.53-3.828 7.5-11.5 7.5zm0 7.813q12.266 0 18.734-9.703 6.47-9.687 6.47-28.14 0-18.406-6.47-28.11-6.47-9.687-18.734-9.687-12.25 0-18.72 9.688-6.47 9.703-6.47 28.11 0 18.453 6.47 28.14 6.47 9.703 18.72 9.703z" id="B"/><path d="M10.688 12.406H21V0H10.688z" id="C"/></defs><g transform="matrix(.1 0 0 -.1 65.556619 331.366278)"><use xlink:href="#B"/><use x="63.623" xlink:href="#C"/><use x="95.41" xlink:href="#B"/></g><use x="107.74" xlink:href="#A" y="316.768" class="B C"/><defs><path d="M19.188 8.297H53.61V0H7.328v8.297q5.61 5.813 15.297 15.594 9.703 9.797 12.188 12.64 4.734 5.313 6.61 9 1.89 3.688 1.89 7.25 0 5.813-4.078 9.47-4.078 3.672-10.625 3.672-4.64 0-9.797-1.61-5.14-1.61-11-4.89v9.97q5.953 2.39 11.125 3.61 5.188 1.22 9.484 1.22 11.328 0 18.063-5.672 6.734-5.656 6.734-15.125 0-4.5-1.687-8.53-1.672-4.016-6.125-9.484-1.22-1.422-7.766-8.187-6.53-6.766-18.453-18.922z" id="D"/><path d="M10.797 72.906h38.72v-8.312H19.828v-17.86q2.14.734 4.28 1.094 2.156.36 4.313.36 12.203 0 19.328-6.687 7.14-6.687 7.14-18.11 0-11.766-7.328-18.297-7.328-6.516-20.656-6.516-4.594 0-9.36.78-4.75.78-9.828 2.344v9.922q4.39-2.39 9.078-3.562 4.688-1.172 9.906-1.172 8.453 0 13.375 4.438 4.938 4.438 4.938 12.063 0 7.61-4.937 12.047-4.922 4.453-13.375 4.453-3.953 0-7.89-.875-3.922-.875-8.016-2.734z" id="E"/></defs><g transform="matrix(.1 0 0 -.1 99.788677 331.366278)"><use xlink:href="#D"/><use x="63.623" xlink:href="#C"/><use x="95.41" xlink:href="#E"/></g><use x="141.972" xlink:href="#A" y="316.768" class="B C"/><g transform="matrix(.1 0 0 -.1 134.020734 331.366278)"><use xlink:href="#E"/><use x="63.623" xlink:href="#C"/><use x="95.41" xlink:href="#B"/></g><use x="176.204" xlink:href="#A" y="316.768" class="B C"/><defs><path d="M8.203 72.906h46.875v-4.203L28.61 0H18.313L43.22 64.594H8.203z" id="F"/></defs><g transform="matrix(.1 0 0 -.1 168.252792 331.366278)"><use xlink:href="#F"/><use x="63.623" xlink:href="#C"/><use x="95.41" xlink:href="#E"/></g><use x="210.436" xlink:href="#A" y="316.768" class="B C"/><defs><path d="M12.406 8.297h16.11v55.625l-17.53-3.516v8.984l17.438 3.516h9.86V8.297h16.11V0H12.406z" id="G"/></defs><g transform="matrix(.1 0 0 -.1 199.303599 331.366278)"><use xlink:href="#G"/><use x="63.623" xlink:href="#B"/><use x="127.246" xlink:href="#C"/><use x="159.033" xlink:href="#B"/></g><use x="244.668" xlink:href="#A" y="316.768" class="B C"/><g transform="matrix(.1 0 0 -.1 233.535656 331.366278)"><use xlink:href="#G"/><use x="63.623" xlink:href="#D"/><use x="127.246" xlink:href="#C"/><use x="159.033" xlink:href="#E"/></g><use x="278.901" xlink:href="#A" y="316.768" class="B C"/><g transform="matrix(.1 0 0 -.1 267.767714 331.366278)"><use xlink:href="#G"/><use x="63.623" xlink:href="#E"/><use x="127.246" xlink:href="#C"/><use x="159.033" xlink:href="#B"/></g><use x="313.133" xlink:href="#A" y="316.768" class="B C"/><g transform="matrix(.1 0 0 -.1 301.999771 331.366278)"><use xlink:href="#G"/><use x="63.623" xlink:href="#F"/><use x="127.246" xlink:href="#C"/><use x="159.033" xlink:href="#E"/></g><defs><path d="M56.203 29.594v-4.39H14.89q.594-9.28 5.594-14.14 5-4.86 13.938-4.86 5.172 0 10.03 1.266 4.86 1.266 9.656 3.813v-8.5Q49.266.734 44.188-.344 39.11-1.422 33.89-1.422q-13.094 0-20.734 7.61-7.64 7.625-7.64 20.625 0 13.422 7.25 21.297Q20.016 56 32.328 56q11.03 0 17.453-7.11 6.422-7.094 6.422-19.297zm-8.984 2.64q-.094 7.36-4.125 11.75-4.03 4.406-10.672 4.406-7.516 0-12.03-4.25-4.516-4.25-5.203-11.97z" id="H"/><path d="M18.11 8.203v-29h-9.03v75.484h9.03V46.39q2.844 4.875 7.156 7.234Q29.594 56 35.594 56q9.97 0 16.188-7.906 6.234-7.906 6.234-20.797 0-12.89-6.234-20.812-6.22-7.906-16.187-7.906-6 0-10.328 2.375-4.312 2.375-7.156 7.25zm30.578 19.094q0 9.906-4.078 15.547-4.078 5.64-11.203 5.64-7.14 0-11.22-5.64-4.078-5.64-4.078-15.547 0-9.906 4.078-15.547 4.078-5.64 11.22-5.64 7.125 0 11.203 5.64 4.078 5.64 4.078 15.547z" id="I"/><path d="M30.61 48.39q-7.22 0-11.422-5.64-4.203-5.64-4.203-15.453 0-9.812 4.172-15.453 4.188-5.64 11.453-5.64 7.188 0 11.375 5.656 4.203 5.672 4.203 15.438 0 9.72-4.203 15.406-4.187 5.688-11.375 5.688zm0 7.61q11.72 0 18.406-7.625 6.703-7.61 6.703-21.078 0-13.422-6.703-21.078-6.687-7.64-18.406-7.64-11.766 0-18.437 7.64-6.656 7.656-6.656 21.078 0 13.47 6.656 21.078Q18.844 56 30.61 56z" id="J"/><path d="M48.78 52.594v-8.406q-3.812 2.11-7.64 3.156-3.828 1.047-7.734 1.047-8.75 0-13.594-5.547-4.828-5.53-4.828-15.547 0-10.016 4.828-15.562 4.844-5.53 13.594-5.53 3.906 0 7.734 1.047 3.828 1.047 7.64 3.156V2.094Q45.016.344 40.984-.53q-4.016-.89-8.562-.89-12.36 0-19.64 7.766-7.266 7.766-7.266 20.953 0 13.375 7.344 21.03Q20.22 56 33.016 56q4.14 0 8.094-.86 3.953-.844 7.672-2.547z" id="K"/><path d="M54.89 33.016V0h-8.984v32.72q0 7.766-3.03 11.61-3.03 3.86-9.078 3.86-7.28 0-11.484-4.64-4.203-4.625-4.203-12.64V0h-9.03v75.984h9.03V46.188q3.234 4.938 7.594 7.375Q30.078 56 35.797 56q9.422 0 14.25-5.828 4.844-5.828 4.844-17.156z" id="L"/></defs><g transform="matrix(.1 0 0 -.1 188.361875 345.044403)"><use xlink:href="#H"/><use x="61.523" xlink:href="#I"/><use x="125" xlink:href="#J"/><use x="186.182" xlink:href="#K"/><use x="241.162" xlink:href="#L"/></g><defs><path d="M0 0h-3.5" id="M" class="B C I N"/></defs><use x="60.5" xlink:href="#M" y="302.918" class="B C"/><defs><path d="M10.984 1.516V10.5q3.72-1.766 7.516-2.687 3.813-.922 7.484-.922 9.766 0 14.906 6.563 5.156 6.563 5.89 19.953-2.828-4.203-7.187-6.453-4.344-2.25-9.61-2.25-10.937 0-17.312 6.61-6.375 6.625-6.375 18.11 0 11.22 6.64 18 6.64 6.797 17.672 6.797 12.656 0 19.313-9.703 6.672-9.687 6.672-28.14 0-17.234-8.187-27.516-8.172-10.28-21.984-10.28-3.72 0-7.53.734-3.797.734-7.906 2.203zM30.61 32.422q6.64 0 10.516 4.53 3.89 4.547 3.89 12.47 0 7.86-3.89 12.422-3.875 4.563-10.516 4.563-6.64 0-10.516-4.562-3.875-4.562-3.875-12.422 0-7.922 3.875-12.47 3.875-4.53 10.516-4.53z" id="N"/><path d="M31.78 34.625q-7.03 0-11.062-3.766-4.016-3.766-4.016-10.344 0-6.594 4.016-10.36Q24.75 6.39 31.78 6.39q7.03 0 11.078 3.78 4.063 3.797 4.063 10.344 0 6.578-4.03 10.344-4.016 3.766-11.11 3.766zm-9.86 4.188q-6.344 1.563-9.89 5.906-3.53 4.36-3.53 10.61 0 8.734 6.22 13.813 6.234 5.078 17.063 5.078 10.89 0 17.094-5.078 6.203-5.078 6.203-13.812 0-6.25-3.547-10.61-3.53-4.344-9.828-5.906 7.125-1.656 11.094-6.5 3.984-4.828 3.984-11.797 0-10.61-6.47-16.28-6.47-5.656-18.53-5.656-12.047 0-18.53 5.656-6.47 5.672-6.47 16.28 0 6.97 4 11.797 4.016 4.844 11.14 6.5zm-3.61 15.578q0-5.656 3.53-8.828 3.547-3.172 9.938-3.172 6.36 0 9.938 3.172 3.594 3.172 3.594 8.828 0 5.672-3.594 8.844-3.578 3.172-9.937 3.172-6.39 0-9.937-3.172-3.53-3.172-3.53-8.844z" id="O"/><path d="M37.797 64.313L12.89 25.39h24.906zm-2.594 8.594H47.61V25.39h10.406v-8.203H47.61V0h-9.812v17.188H4.89v9.516z" id="P"/></defs><g transform="matrix(.1 0 0 -.1 24.871875 306.717557)"><use xlink:href="#B"/><use x="63.623" xlink:href="#C"/><use x="95.41" xlink:href="#N"/><use x="159.033" xlink:href="#O"/><use x="222.656" xlink:href="#P"/></g><use x="60.5" xlink:href="#M" y="268.436" class="B C"/><defs><path d="M33.016 40.375q-6.64 0-10.53-4.547-3.875-4.53-3.875-12.437 0-7.86 3.875-12.437 3.89-4.562 10.53-4.562 6.64 0 10.516 4.563 3.875 4.578 3.875 12.438 0 7.906-3.875 12.438-3.875 4.547-10.516 4.547zm19.578 30.922v-8.984q-3.72 1.75-7.5 2.672-3.78.938-7.5.938-9.766 0-14.922-6.594-5.14-6.594-5.875-19.922 2.875 4.25 7.22 6.516 4.36 2.266 9.578 2.266 10.984 0 17.36-6.672 6.375-6.656 6.375-18.125 0-11.234-6.64-18.03-6.64-6.78-17.672-6.78-12.656 0-19.344 9.688-6.687 9.703-6.687 28.11 0 17.28 8.203 27.563 8.203 10.28 22.016 10.28 3.72 0 7.5-.734 3.78-.734 7.89-2.187z" id="Q"/></defs><g transform="matrix(.1 0 0 -.1 24.871875 272.235414)"><use xlink:href="#B"/><use x="63.623" xlink:href="#C"/><use x="95.41" xlink:href="#N"/><use x="159.033" xlink:href="#O"/><use x="222.656" xlink:href="#Q"/></g><use x="60.5" xlink:href="#M" y="233.954" class="B C"/><g transform="matrix(.1 0 0 -.1 24.871875 237.753272)"><use xlink:href="#B"/><use x="63.623" xlink:href="#C"/><use x="95.41" xlink:href="#N"/><use x="159.033" xlink:href="#O"/><use x="222.656" xlink:href="#O"/></g><use x="60.5" xlink:href="#M" y="199.472" class="B C"/><g transform="matrix(.1 0 0 -.1 24.871875 203.271129)"><use xlink:href="#B"/><use x="63.623" xlink:href="#C"/><use x="95.41" xlink:href="#N"/><use x="159.033" xlink:href="#N"/><use x="222.656" xlink:href="#B"/></g><use x="60.5" xlink:href="#M" y="164.99" class="B C"/><g transform="matrix(.1 0 0 -.1 24.871875 168.788987)"><use xlink:href="#B"/><use x="63.623" xlink:href="#C"/><use x="95.41" xlink:href="#N"/><use x="159.033" xlink:href="#N"/><use x="222.656" xlink:href="#D"/></g><use x="60.5" xlink:href="#M" y="130.508" class="B C"/><g transform="matrix(.1 0 0 -.1 24.871875 134.306844)"><use xlink:href="#B"/><use x="63.623" xlink:href="#C"/><use x="95.41" xlink:href="#N"/><use x="159.033" xlink:href="#N"/><use x="222.656" xlink:href="#P"/></g><use x="60.5" xlink:href="#M" y="96.025" class="B C"/><g transform="matrix(.1 0 0 -.1 24.871875 99.824702)"><use xlink:href="#B"/><use x="63.623" xlink:href="#C"/><use x="95.41" xlink:href="#N"/><use x="159.033" xlink:href="#N"/><use x="222.656" xlink:href="#Q"/></g><use x="60.5" xlink:href="#M" y="61.543" class="B C"/><g transform="matrix(.1 0 0 -.1 24.871875 65.342559)"><use xlink:href="#B"/><use x="63.623" xlink:href="#C"/><use x="95.41" xlink:href="#N"/><use x="159.033" xlink:href="#N"/><use x="222.656" xlink:href="#O"/></g><use x="60.5" xlink:href="#M" y="27.061" class="B C"/><g transform="matrix(.1 0 0 -.1 24.871875 30.860417)"><use xlink:href="#G"/><use x="63.623" xlink:href="#C"/><use x="95.41" xlink:href="#B"/><use x="159.033" xlink:href="#B"/><use x="222.656" xlink:href="#B"/></g><defs><path d="M19.672 64.797v-27.39h12.406q6.89 0 10.64 3.563 3.766 3.563 3.766 10.156 0 6.547-3.766 10.11-3.75 3.563-10.64 3.563zm-9.86 8.11h22.266q12.266 0 18.53-5.547 6.28-5.547 6.28-16.234 0-10.797-6.28-16.312-6.266-5.516-18.53-5.516H19.672V0h-9.86z" id="R"/><path d="M34.28 27.484q-10.89 0-15.094-2.484-4.203-2.484-4.203-8.5 0-4.78 3.156-7.594 3.156-2.797 8.563-2.797 7.484 0 12 5.297 4.516 5.297 4.516 14.078v2zm17.922 3.72V0H43.22v8.297Q40.14 3.328 35.547.953q-4.594-2.375-11.234-2.375-8.39 0-13.36 4.72Q6 8.016 6 15.922q0 9.22 6.172 13.906 6.188 4.688 18.438 4.688h12.61v.89q0 6.203-4.078 9.594-4.078 3.39-11.453 3.39-4.687 0-9.14-1.125-4.437-1.125-8.53-3.375v8.313q4.922 1.906 9.563 2.844 4.64.953 9.03.953 11.875 0 17.734-6.156 5.86-6.14 5.86-18.64z" id="S"/><path d="M41.11 46.297q-1.516.875-3.297 1.28Q36.03 48 33.89 48q-7.625 0-11.703-4.953-4.078-4.953-4.078-14.234V0h-9.03v54.688h9.03v-8.5q2.844 4.984 7.375 7.39Q30.03 56 36.53 56q.922 0 2.047-.125 1.125-.11 2.484-.36z" id="T"/><path d="M44.28 53.078v-8.5q-3.797 1.953-7.906 2.922-4.094.984-8.5.984-6.687 0-10.03-2.047Q14.5 44.39 14.5 40.28q0-3.125 2.39-4.906 2.39-1.78 9.625-3.39l3.078-.687q9.563-2.047 13.594-5.78 4.03-3.734 4.03-10.422 0-7.625-6.03-12.078-6.03-4.437-16.578-4.437-4.39 0-9.156.86Q10.688.297 5.422 2v9.28q4.984-2.594 9.813-3.89 4.828-1.28 9.578-1.28 6.344 0 9.75 2.172 3.422 2.172 3.422 6.125 0 3.656-2.47 5.61-2.453 1.953-10.812 3.766l-3.125.734q-8.344 1.75-12.062 5.39-3.703 3.64-3.703 9.984 0 7.72 5.47 11.906Q16.75 56 26.813 56q4.97 0 9.36-.734 4.406-.72 8.11-2.187z" id="U"/><path d="M54.89 33.016V0h-8.984v32.72q0 7.766-3.03 11.61-3.03 3.86-9.078 3.86-7.28 0-11.484-4.64-4.203-4.625-4.203-12.64V0h-9.03v54.688h9.03v-8.5q3.234 4.938 7.594 7.375Q30.078 56 35.797 56q9.422 0 14.25-5.828 4.844-5.828 4.844-17.156z" id="V"/><path d="M17.922 72.906v-27.11H9.625v27.11z" id="W"/><path d="M9.422 75.984h8.984V0H9.422z" id="X"/><path d="M18.313 70.22v-15.53h18.5v-6.984h-18.5V18.016q0-6.687 1.828-8.594 1.828-1.906 7.453-1.906h9.22V0h-9.22q-10.406 0-14.36 3.875-3.953 3.89-3.953 14.14v29.688H2.688v6.984H9.28v15.53z" id="Y"/><path d="M9.422 54.688h8.984V0H9.422zm0 21.297h8.984v-11.39H9.422z" id="Z"/></defs><g transform="matrix(0 -.1 -.1 0 18.792188 217.650874)"><use xlink:href="#R"/><use x="60.256" xlink:href="#H"/><use x="121.779" xlink:href="#S"/><use x="183.059" xlink:href="#T"/><use x="224.172" xlink:href="#U"/><use x="276.271" xlink:href="#J"/><use x="337.453" xlink:href="#V"/><use x="400.832" xlink:href="#W"/><use x="428.322" xlink:href="#U"/><use x="480.422" xlink:href="#Ae"/><use x="512.209" xlink:href="#K"/><use x="567.189" xlink:href="#J"/><use x="628.371" xlink:href="#T"/><use x="669.469" xlink:href="#T"/><use x="710.551" xlink:href="#H"/><use x="772.074" xlink:href="#X"/><use x="799.857" xlink:href="#S"/><use x="861.137" xlink:href="#Y"/><use x="900.346" xlink:href="#Z"/><use x="928.129" xlink:href="#J"/><use x="989.311" xlink:href="#V"/></g><path d="M73.508 302.87L87.2 27.208l13.693-.12 13.693-.005 13.693-.01 205.392-.012" class="E F G H J"/><defs><path d="M0 3a3 3 0 0 0 2.121-.879A3 3 0 0 0 3 0a3 3 0 0 0-.879-2.121A3 3 0 0 0 0-3a3 3 0 0 0-2.121.879A3 3 0 0 0-3 0a3 3 0 0 0 .879 2.121A3 3 0 0 0 0 3z" id="a" class="I J"/></defs><g fill="#1f77b4" class="G J"><use x="73.508" xlink:href="#a" y="302.871"/><use x="114.587" xlink:href="#a" y="27.084"/><use x="155.665" xlink:href="#a" y="27.069"/><use x="196.744" xlink:href="#a" y="27.067"/><use x="237.822" xlink:href="#a" y="27.064"/><use x="278.901" xlink:href="#a" y="27.063"/><use x="319.979" xlink:href="#a" y="27.062"/></g><path d="M73.508 300.074L87.2 27.14l13.693-.047 232.778-.03" class="E F G H K"/><defs><path d="M0 3l3-6h-6z" id="b" class="D K"/></defs><g fill="#ff7f0e" class="D G K"><use x="73.508" xlink:href="#b" y="300.074"/><use x="114.587" xlink:href="#b" y="27.089"/><use x="155.665" xlink:href="#b" y="27.069"/><use x="196.744" xlink:href="#b" y="27.068"/><use x="237.822" xlink:href="#b" y="27.063"/><use x="278.901" xlink:href="#b" y="27.063"/><use x="319.979" xlink:href="#b" y="27.062"/></g><path d="M73.508 302.972L87.2 27.134l13.693-.043 232.778-.03" class="E F G H L"/><defs><path d="M-3 3h6v-6h-6z" id="c" class="D L"/></defs><g fill="#2ca02c" class="D G L"><use x="73.508" xlink:href="#c" y="302.972"/><use x="114.587" xlink:href="#c" y="27.089"/><use x="155.665" xlink:href="#c" y="27.069"/><use x="196.744" xlink:href="#c" y="27.068"/><use x="237.822" xlink:href="#c" y="27.063"/><use x="278.901" xlink:href="#c" y="27.063"/><use x="319.979" xlink:href="#c" y="27.062"/></g><path d="M73.508 302.725L87.2 27.136l13.693-.044 232.778-.03" class="E F G H M"/><defs><path d="M0 4.243L2.546 0 0-4.243-2.546 0z" id="d" class="D M"/></defs><g fill="#d62728" class="D G M"><use x="73.508" xlink:href="#d" y="302.725"/><use x="114.587" xlink:href="#d" y="27.089"/><use x="155.665" xlink:href="#d" y="27.069"/><use x="196.744" xlink:href="#d" y="27.068"/><use x="237.822" xlink:href="#d" y="27.063"/><use x="278.901" xlink:href="#d" y="27.063"/><use x="319.979" xlink:href="#d" y="27.062"/></g><g class="B C D E F"><path d="M60.5 316.768v-303.5m286.18 303.5v-303.5"/><path d="M60.5 316.768h286.18M60.5 13.267h286.18"/></g><path d="M268.278 311.768h71.402q2 0 2-2v-57.712q0-2-2-2h-71.402q-2 0-2 2v57.712q0 2 2 2z" fill="#fff" opacity=".8" stroke="#ccc" class="D"/><g class="J"><path d="M270.278 258.154h20" class="E F H"/><use x="280.278" xlink:href="#a" y="258.154" fill="#1f77b4"/></g><defs><path d="M9.813 72.906h9.86V8.297h35.5V0H9.813z" id="e"/><path d="M10.594 45.406h62.594v-8.203H10.594zm0-19.922h62.594v-8.297H10.594z" id="f"/></defs><g transform="matrix(.1 0 0 -.1 298.278437 261.653778)"><use xlink:href="#e"/><use x="55.713" xlink:href="#f"/><use x="139.502" xlink:href="#G"/><use x="203.125" xlink:href="#B"/></g><g class="K"><path d="M270.278 272.832h20" class="E F H"/><use x="280.278" xlink:href="#b" y="272.832" fill="#ff7f0e" class="D"/></g><g transform="matrix(.1 0 0 -.1 298.278437 276.331903)"><use xlink:href="#e"/><use x="55.713" xlink:href="#f"/><use x="139.502" xlink:href="#G"/><use x="203.125" xlink:href="#B"/><use x="266.748" xlink:href="#B"/></g><g class="L"><path d="M270.278 287.5h20" class="E F H"/><use x="280.278" xlink:href="#c" y="287.51" fill="#2ca02c" class="D"/></g><g transform="matrix(.1 0 0 -.1 298.278437 291.010028)"><use xlink:href="#e"/><use x="55.713" xlink:href="#f"/><use x="139.502" xlink:href="#E"/><use x="203.125" xlink:href="#B"/><use x="266.748" xlink:href="#B"/></g><g class="M"><path d="M270.278 302.188h20" class="E F H"/><use x="280.278" xlink:href="#d" y="302.188" fill="#d62728" class="D"/></g><g transform="matrix(.1 0 0 -.1 298.278437 305.688153)"><use xlink:href="#e"/><use x="55.713" xlink:href="#f"/><use x="139.502" xlink:href="#G"/><use x="203.125" xlink:href="#B"/><use x="266.748" xlink:href="#B"/><use x="330.371" xlink:href="#B"/></g><defs><clipPath id="g"><path d="M60.5 13.267h286.18v303.5H60.5z"/></clipPath></defs></svg>