<svg xmlns="http://www.w3.org/2000/svg" xmlns:xlink="http://www.w3.org/1999/xlink" height="479" viewBox="0 0 360 358.56" width="481" stroke-linecap="butt" stroke-linejoin="round"><style><![CDATA[.B{stroke-linecap:square}.C{fill:none}.D{stroke-linejoin:miter}.E{stroke:#000}.F{stroke-width:.8}.G{clip-path:url(#b)}.H{stroke-width:1.5}.I{stroke-linejoin:round}.J{stroke-linecap:butt}.K{stroke:#1f77b4}.L{stroke:#ff7f0e}.M{stroke:#2ca02c}.N{stroke:#d62728}.O{stroke:#9467bd}]]></style><g fill="#fff"><path d="M0 358.56h360V0H0z"/><path d="M47.8 345.293h298.87V13.267H47.8z"/></g><defs><path d="M0 0v3.5" id="A" class="E F I J"/></defs><g class="E F"><use x="61.395" xlink:href="#A" y="345.293"/><use x="121.773" xlink:href="#A" y="345.293"/><use x="182.151" xlink:href="#A" y="345.293"/><use x="242.528" xlink:href="#A" y="345.293"/><use x="302.906" xlink:href="#A" y="345.293"/></g><defs><path d="M0 0h-3.5" id="B" class="E F I J"/></defs><use x="47.81" xlink:href="#B" y="336.908" class="E F"/><defs><path d="M31.78 66.406q-7.61 0-11.453-7.5-3.828-7.484-3.828-22.53 0-14.984 3.828-22.484 3.844-7.5 11.453-7.5 7.672 0 11.5 7.5 3.844 7.5 3.844 22.484 0 15.047-3.844 22.53-3.828 7.5-11.5 7.5zm0 7.813q12.266 0 18.734-9.703 6.47-9.687 6.47-28.14 0-18.406-6.47-28.11-6.47-9.687-18.734-9.687-12.25 0-18.72 9.688-6.47 9.703-6.47 28.11 0 18.453 6.47 28.14 6.47 9.703 18.72 9.703z" id="C"/><path d="M10.688 12.406H21V0H10.688z" id="D"/></defs><g transform="matrix(.1 0 0 -.1 24.906875 340.706988)"><use xlink:href="#C"/><use x="63.623" xlink:href="#D"/><use x="95.41" xlink:href="#C"/></g><use x="47.81" xlink:href="#B" y="275.688" class="E F"/><defs><path d="M10.797 72.906h38.72v-8.312H19.828v-17.86q2.14.734 4.28 1.094 2.156.36 4.313.36 12.203 0 19.328-6.687 7.14-6.687 7.14-18.11 0-11.766-7.328-18.297-7.328-6.516-20.656-6.516-4.594 0-9.36.78-4.75.78-9.828 2.344v9.922q4.39-2.39 9.078-3.562 4.688-1.172 9.906-1.172 8.453 0 13.375 4.438 4.938 4.438 4.938 12.063 0 7.61-4.937 12.047-4.922 4.453-13.375 4.453-3.953 0-7.89-.875-3.922-.875-8.016-2.734z" id="E"/></defs><g transform="matrix(.1 0 0 -.1 24.906875 279.48761)"><use xlink:href="#C"/><use x="63.623" xlink:href="#D"/><use x="95.41" xlink:href="#E"/></g><use x="47.81" xlink:href="#B" y="214.469" class="E F"/><defs><path d="M12.406 8.297h16.11v55.625l-17.53-3.516v8.984l17.438 3.516h9.86V8.297h16.11V0H12.406z" id="F"/></defs><g transform="matrix(.1 0 0 -.1 24.906875 218.268232)"><use xlink:href="#F"/><use x="63.623" xlink:href="#D"/><use x="95.41" xlink:href="#C"/></g><use x="47.81" xlink:href="#B" y="153.25" class="E F"/><g transform="matrix(.1 0 0 -.1 24.906875 157.048854)"><use xlink:href="#F"/><use x="63.623" xlink:href="#D"/><use x="95.41" xlink:href="#E"/></g><use x="47.81" xlink:href="#B" y="92.03" class="E F"/><defs><path d="M19.188 8.297H53.61V0H7.328v8.297q5.61 5.813 15.297 15.594 9.703 9.797 12.188 12.64 4.734 5.313 6.61 9 1.89 3.688 1.89 7.25 0 5.813-4.078 9.47-4.078 3.672-10.625 3.672-4.64 0-9.797-1.61-5.14-1.61-11-4.89v9.97q5.953 2.39 11.125 3.61 5.188 1.22 9.484 1.22 11.328 0 18.063-5.672 6.734-5.656 6.734-15.125 0-4.5-1.687-8.53-1.672-4.016-6.125-9.484-1.22-1.422-7.766-8.187-6.53-6.766-18.453-18.922z" id="G"/></defs><g transform="matrix(.1 0 0 -.1 24.906875 95.829476)"><use xlink:href="#G"/><use x="63.623" xlink:href="#D"/><use x="95.41" xlink:href="#C"/></g><use x="47.81" xlink:href="#B" y="30.811" class="E F"/><g transform="matrix(.1 0 0 -.1 24.906875 34.610097)"><use xlink:href="#G"/><use x="63.623" xlink:href="#D"/><use x="95.41" xlink:href="#E"/></g><defs><path d="M19.672 64.797v-27.39h12.406q6.89 0 10.64 3.563 3.766 3.563 3.766 10.156 0 6.547-3.766 10.11-3.75 3.563-10.64 3.563zm-9.86 8.11h22.266q12.266 0 18.53-5.547 6.28-5.547 6.28-16.234 0-10.797-6.28-16.312-6.266-5.516-18.53-5.516H19.672V0h-9.86z" id="H"/><path d="M41.11 46.297q-1.516.875-3.297 1.28Q36.03 48 33.89 48q-7.625 0-11.703-4.953-4.078-4.953-4.078-14.234V0h-9.03v54.688h9.03v-8.5q2.844 4.984 7.375 7.39Q30.03 56 36.53 56q.922 0 2.047-.125 1.125-.11 2.484-.36z" id="I"/><path d="M56.203 29.594v-4.39H14.89q.594-9.28 5.594-14.14 5-4.86 13.938-4.86 5.172 0 10.03 1.266 4.86 1.266 9.656 3.813v-8.5Q49.266.734 44.188-.344 39.11-1.422 33.89-1.422q-13.094 0-20.734 7.61-7.64 7.625-7.64 20.625 0 13.422 7.25 21.297Q20.016 56 32.328 56q11.03 0 17.453-7.11 6.422-7.094 6.422-19.297zm-8.984 2.64q-.094 7.36-4.125 11.75-4.03 4.406-10.672 4.406-7.516 0-12.03-4.25-4.516-4.25-5.203-11.97z" id="J"/><path d="M45.406 46.39v29.594h8.984V0h-8.984v8.203Q42.578 3.328 38.25.953q-4.312-2.375-10.375-2.375-9.906 0-16.14 7.906-6.22 7.922-6.22 20.813 0 12.89 6.22 20.797Q17.97 56 27.875 56q6.063 0 10.375-2.375 4.328-2.36 7.156-7.234zm-30.61-19.094q0-9.906 4.078-15.547 4.078-5.64 11.203-5.64 7.125 0 11.22 5.64 4.11 5.64 4.11 15.547 0 9.906-4.11 15.547-4.094 5.64-11.22 5.64-7.125 0-11.203-5.64-4.078-5.64-4.078-15.547z" id="K"/><path d="M9.422 54.688h8.984V0H9.422zm0 21.297h8.984v-11.39H9.422z" id="L"/><path d="M48.78 52.594v-8.406q-3.812 2.11-7.64 3.156-3.828 1.047-7.734 1.047-8.75 0-13.594-5.547-4.828-5.53-4.828-15.547 0-10.016 4.828-15.562 4.844-5.53 13.594-5.53 3.906 0 7.734 1.047 3.828 1.047 7.64 3.156V2.094Q45.016.344 40.984-.53q-4.016-.89-8.562-.89-12.36 0-19.64 7.766-7.266 7.766-7.266 20.953 0 13.375 7.344 21.03Q20.22 56 33.016 56q4.14 0 8.094-.86 3.953-.844 7.672-2.547z" id="M"/><path d="M18.313 70.22v-15.53h18.5v-6.984h-18.5V18.016q0-6.687 1.828-8.594 1.828-1.906 7.453-1.906h9.22V0h-9.22q-10.406 0-14.36 3.875-3.953 3.89-3.953 14.14v29.688H2.688v6.984H9.28v15.53z" id="N"/><path d="M40.484 47.406q-3.172 0-3.172-7.078V6.844q4.625 0 9.266 5.078 4.156 4.53 4.156 15.422 0 10.156-4.203 15.625-3.422 4.438-6.047 4.438zm0 7.672q6.828 0 13.03-6.437 6.688-6.89 6.688-21.297 0-13.234-6.687-21.094-6.297-7.422-16.203-7.422v-19.625h-8.937V-1.22q-9.72 0-16.266 7.47-6.64 7.625-6.64 21.047 0 13.97 6.64 21.094 4.984 5.328 13.094 6.688v-7.953Q21.97 46 19.14 42.188q-4.203-5.61-4.203-14.89 0-9.86 4.203-15.484 3.766-5.03 9.234-5.03v33.547q0 14.75 12.11 14.75z" id="O"/></defs><g transform="matrix(0 -.1 -.1 0 18.827187 207.835469)"><use xlink:href="#H"/><use x="60.287" xlink:href="#I"/><use x="101.369" xlink:href="#J"/><use x="162.893" xlink:href="#K"/><use x="226.369" xlink:href="#L"/><use x="254.152" xlink:href="#M"/><use x="309.133" xlink:href="#N"/><use x="348.342" xlink:href="#J"/><use x="409.865" xlink:href="#K"/><use x="473.342" xlink:href="#x"/><use x="505.129" xlink:href="#O"/></g><path d="M61.395 81.47l30.19 61.728 30.19-15.227 30.19-63.52 30.19-34.885 30.19 155.5 30.19 2.505 30.19 74.605 30.19-116.506 30.19 137.59" class="B C G H K"/><defs><path d="M0 3a3 3 0 0 0 2.121-.879A3 3 0 0 0 3 0a3 3 0 0 0-.879-2.121A3 3 0 0 0 0-3a3 3 0 0 0-2.121.879A3 3 0 0 0-3 0a3 3 0 0 0 .879 2.121A3 3 0 0 0 0 3z" id="P" class="I K"/></defs><g fill="#1f77b4" class="G K"><use x="61.395" xlink:href="#P" y="81.469"/><use x="151.962" xlink:href="#P" y="64.449"/><use x="242.528" xlink:href="#P" y="187.579"/><use x="333.095" xlink:href="#P" y="283.268"/></g><path d="M61.395 80.673l30.19 61.738 30.19-12.366 30.19-65.228 30.19-36.37 30.19 153.584 30.19 5.94 30.19 73.305 30.19-112.712 30.19 153.552" class="B C G H L"/><defs><path d="M0 3l3-6h-6z" id="Q" class="D L"/></defs><g fill="#ff7f0e" class="D G L"><use x="61.395" xlink:href="#Q" y="80.673"/><use x="151.962" xlink:href="#Q" y="64.817"/><use x="242.528" xlink:href="#Q" y="187.97"/><use x="333.095" xlink:href="#Q" y="302.115"/></g><path d="M61.395 81.45l30.19 60.866 30.19-11.5 30.19-65.502 30.19-36.933 30.19 153.807 30.19 6.354 30.19 71.634 30.19-111.8 30.19 155.38" class="B C G H M"/><defs><path d="M-3 3h6v-6h-6z" id="R" class="D M"/></defs><g fill="#2ca02c" class="D G M"><use x="61.395" xlink:href="#R" y="81.449"/><use x="151.962" xlink:href="#R" y="65.313"/><use x="242.528" xlink:href="#R" y="188.541"/><use x="333.095" xlink:href="#R" y="303.755"/></g><path d="M61.395 80.938l30.19 61.306 30.19-10.032 30.19-66.82 30.19-37.032L212.34 182.4l30.19 6.138 30.19 71.718 30.19-111.972 30.19 155.176" class="B C G H N"/><defs><path d="M0 4.243L2.546 0 0-4.243-2.546 0z" id="S" class="D N"/></defs><g fill="#d62728" class="D G N"><use x="61.395" xlink:href="#S" y="80.938"/><use x="151.962" xlink:href="#S" y="65.391"/><use x="242.528" xlink:href="#S" y="188.539"/><use x="333.095" xlink:href="#S" y="303.46"/></g><path d="M61.395 286.842l30.19-114.117 30.19 157.476 30.19-95.482 30.19-112.843 30.19 78.22 30.19 102.433 30.19-68.274 30.19 54.14 30.19-119.284" class="B C G H O"/><defs><path d="M-3 3l6-6m-6 0l6 6" id="T" class="I J O"/></defs><g fill="#9467bd" class="G O"><use x="61.395" xlink:href="#T" y="286.842"/><use x="151.962" xlink:href="#T" y="234.719"/><use x="242.528" xlink:href="#T" y="302.53"/><use x="333.095" xlink:href="#T" y="169.113"/></g><g class="B C D E F"><path d="M47.8 345.293V13.267m298.88 332.026V13.267"/><path d="M47.8 345.293h298.87M47.8 13.267h298.87"/></g><path d="M242.877 94.657h96.803q2 0 2-2v-72.39q0-2-2-2h-96.803q-2 0-2 2v72.39q0 2 2 2z" fill="#fff" opacity=".8" stroke="#ccc" class="D"/><g class="K"><path d="M244.877 26.365h20" class="B C H"/><use x="254.877" xlink:href="#P" y="26.365" fill="#1f77b4"/></g><defs><path d="M9.813 72.906h9.86V8.297h35.5V0H9.813z" id="U"/><path d="M10.594 45.406h62.594v-8.203H10.594zm0-19.922h62.594v-8.297H10.594z" id="V"/></defs><g transform="matrix(.1 0 0 -.1 272.876875 29.865158)"><use xlink:href="#U"/><use x="55.713" xlink:href="#V"/><use x="139.502" xlink:href="#F"/><use x="203.125" xlink:href="#C"/></g><g class="L"><path d="M244.877 41.043h20" class="B C H"/><use x="254.877" xlink:href="#Q" y="41.043" fill="#ff7f0e" class="D"/></g><g transform="matrix(.1 0 0 -.1 272.876875 44.543283)"><use xlink:href="#U"/><use x="55.713" xlink:href="#V"/><use x="139.502" xlink:href="#F"/><use x="203.125" xlink:href="#C"/><use x="266.748" xlink:href="#C"/></g><g class="M"><path d="M244.877 55.72h20" class="B C H"/><use x="254.877" xlink:href="#R" y="55.721" fill="#2ca02c" class="D"/></g><g transform="matrix(.1 0 0 -.1 272.876875 59.221407)"><use xlink:href="#U"/><use x="55.713" xlink:href="#V"/><use x="139.502" xlink:href="#E"/><use x="203.125" xlink:href="#C"/><use x="266.748" xlink:href="#C"/></g><g class="N"><path d="M244.877 70.4h20" class="B C H"/><use x="254.877" xlink:href="#S" y="70.4" fill="#d62728" class="D"/></g><g transform="matrix(.1 0 0 -.1 272.876875 73.899533)"><use xlink:href="#U"/><use x="55.713" xlink:href="#V"/><use x="139.502" xlink:href="#F"/><use x="203.125" xlink:href="#C"/><use x="266.748" xlink:href="#C"/><use x="330.371" xlink:href="#C"/></g><g class="O"><path d="M244.877 85.078h20" class="B C H"/><use x="254.877" xlink:href="#T" y="85.078" fill="#9467bd"/></g><defs><path d="M59.516 10.406v19.578h-16.11v8.11H69.28V6.78Q63.578 2.734 56.688.656 49.813-1.422 42-1.422q-17.094 0-26.75 9.984-9.64 10-9.64 27.813 0 17.875 9.64 27.86Q24.906 74.22 42 74.22q7.125 0 13.547-1.766 6.422-1.75 11.844-5.172v-10.5q-5.47 4.64-11.625 6.984-6.156 2.344-12.937 2.344-13.39 0-20.11-7.47-6.703-7.47-6.703-22.266 0-14.75 6.703-22.22 6.72-7.47 20.11-7.47 5.22 0 9.313.906 4.11.906 7.375 2.813z" id="W"/><path d="M30.61 48.39q-7.22 0-11.422-5.64-4.203-5.64-4.203-15.453 0-9.812 4.172-15.453 4.188-5.64 11.453-5.64 7.188 0 11.375 5.656 4.203 5.672 4.203 15.438 0 9.72-4.203 15.406-4.187 5.688-11.375 5.688zm0 7.61q11.72 0 18.406-7.625 6.703-7.61 6.703-21.078 0-13.422-6.703-21.078-6.687-7.64-18.406-7.64-11.766 0-18.437 7.64-6.656 7.656-6.656 21.078 0 13.47 6.656 21.078Q18.844 56 30.61 56z" id="X"/><path d="M8.5 21.578v33.11h8.984V21.922q0-7.766 3.016-11.656 3.03-3.875 9.094-3.875 7.266 0 11.484 4.64 4.234 4.64 4.234 12.656v31h8.984V0h-8.984v8.406Q42.047 3.422 37.72 1q-4.312-2.422-10.03-2.422-9.422 0-14.312 5.86Q8.5 10.297 8.5 21.578zM31.11 56z" id="Y"/><path d="M54.89 33.016V0h-8.984v32.72q0 7.766-3.03 11.61-3.03 3.86-9.078 3.86-7.28 0-11.484-4.64-4.203-4.625-4.203-12.64V0h-9.03v54.688h9.03v-8.5q3.234 4.938 7.594 7.375Q30.078 56 35.797 56q9.422 0 14.25-5.828 4.844-5.828 4.844-17.156z" id="Z"/><path d="M54.89 33.016V0h-8.984v32.72q0 7.766-3.03 11.61-3.03 3.86-9.078 3.86-7.28 0-11.484-4.64-4.203-4.625-4.203-12.64V0h-9.03v75.984h9.03V46.188q3.234 4.938 7.594 7.375Q30.078 56 35.797 56q9.422 0 14.25-5.828 4.844-5.828 4.844-17.156z" id="a"/></defs><g transform="matrix(.1 0 0 -.1 272.876875 88.577657)"><use xlink:href="#W"/><use x="77.49" xlink:href="#I"/><use x="118.572" xlink:href="#X"/><use x="179.754" xlink:href="#Y"/><use x="243.133" xlink:href="#Z"/><use x="306.512" xlink:href="#K"/><use x="369.988" xlink:href="#x"/><use x="401.775" xlink:href="#N"/><use x="440.984" xlink:href="#I"/><use x="482.098" xlink:href="#Y"/><use x="545.477" xlink:href="#N"/><use x="584.686" xlink:href="#a"/></g><defs><clipPath id="b"><path d="M47.8 13.267h298.87v332.027H47.8z"/></clipPath></defs></svg>