<svg xmlns="http://www.w3.org/2000/svg" xmlns:xlink="http://www.w3.org/1999/xlink" height="479" viewBox="0 0 360 358.56" width="481" stroke-linecap="butt" stroke-linejoin="round"><style><![CDATA[.B{stroke-linecap:square}.C{fill:none}.D{stroke-linejoin:miter}.E{clip-path:url(#b)}.F{stroke-width:1.5}.G{stroke:#000}.H{stroke-width:.8}.I{stroke-linejoin:round}.J{stroke-linecap:butt}.K{stroke:#1f77b4}.L{stroke:#ff7f0e}.M{stroke:#2ca02c}.N{stroke:#d62728}.O{stroke:#9467bd}]]></style><g fill="#fff"><path d="M0 358.56h360V0H0z"/><path d="M56.1 345.293h290.6V13.267H56.1z"/></g><defs><path d="M0 0v3.5" id="A" class="G H I J"/></defs><g class="G H"><use x="69.299" xlink:href="#A" y="345.293"/><use x="128.004" xlink:href="#A" y="345.293"/><use x="186.709" xlink:href="#A" y="345.293"/><use x="245.414" xlink:href="#A" y="345.293"/><use x="304.119" xlink:href="#A" y="345.293"/></g><defs><path d="M0 0h-3.5" id="B" class="G H I J"/></defs><use x="56.09" xlink:href="#B" y="309.838" class="G H"/><defs><path d="M10.594 35.5h62.594v-8.297H10.594z" id="C"/><path d="M12.406 8.297h16.11v55.625l-17.53-3.516v8.984l17.438 3.516h9.86V8.297h16.11V0H12.406z" id="D"/><path d="M10.688 12.406H21V0H10.688z" id="E"/><path d="M31.78 66.406q-7.61 0-11.453-7.5-3.828-7.484-3.828-22.53 0-14.984 3.828-22.484 3.844-7.5 11.453-7.5 7.672 0 11.5 7.5 3.844 7.5 3.844 22.484 0 15.047-3.844 22.53-3.828 7.5-11.5 7.5zm0 7.813q12.266 0 18.734-9.703 6.47-9.687 6.47-28.14 0-18.406-6.47-28.11-6.47-9.687-18.734-9.687-12.25 0-18.72 9.688-6.47 9.703-6.47 28.11 0 18.453 6.47 28.14 6.47 9.703 18.72 9.703z" id="F"/></defs><g transform="matrix(.1 0 0 -.1 24.807188 313.636738)"><use xlink:href="#C"/><use x="83.789" xlink:href="#D"/><use x="147.412" xlink:href="#E"/><use x="179.199" xlink:href="#F"/></g><use x="56.09" xlink:href="#B" y="247.638" class="G H"/><defs><path d="M10.797 72.906h38.72v-8.312H19.828v-17.86q2.14.734 4.28 1.094 2.156.36 4.313.36 12.203 0 19.328-6.687 7.14-6.687 7.14-18.11 0-11.766-7.328-18.297-7.328-6.516-20.656-6.516-4.594 0-9.36.78-4.75.78-9.828 2.344v9.922q4.39-2.39 9.078-3.562 4.688-1.172 9.906-1.172 8.453 0 13.375 4.438 4.938 4.438 4.938 12.063 0 7.61-4.937 12.047-4.922 4.453-13.375 4.453-3.953 0-7.89-.875-3.922-.875-8.016-2.734z" id="G"/></defs><g transform="matrix(.1 0 0 -.1 24.807188 251.43763)"><use xlink:href="#C"/><use x="83.789" xlink:href="#F"/><use x="147.412" xlink:href="#E"/><use x="179.199" xlink:href="#G"/></g><use x="56.09" xlink:href="#B" y="185.439" class="G H"/><g transform="matrix(.1 0 0 -.1 33.186875 189.238523)"><use xlink:href="#F"/><use x="63.623" xlink:href="#E"/><use x="95.41" xlink:href="#F"/></g><use x="56.09" xlink:href="#B" y="123.24" class="G H"/><g transform="matrix(.1 0 0 -.1 33.186875 127.039416)"><use xlink:href="#F"/><use x="63.623" xlink:href="#E"/><use x="95.41" xlink:href="#G"/></g><use x="56.09" xlink:href="#B" y="61.041" class="G H"/><g transform="matrix(.1 0 0 -.1 33.186875 64.840309)"><use xlink:href="#D"/><use x="63.623" xlink:href="#E"/><use x="95.41" xlink:href="#F"/></g><defs><path d="M19.672 64.797v-27.39h12.406q6.89 0 10.64 3.563 3.766 3.563 3.766 10.156 0 6.547-3.766 10.11-3.75 3.563-10.64 3.563zm-9.86 8.11h22.266q12.266 0 18.53-5.547 6.28-5.547 6.28-16.234 0-10.797-6.28-16.312-6.266-5.516-18.53-5.516H19.672V0h-9.86z" id="H"/><path d="M41.11 46.297q-1.516.875-3.297 1.28Q36.03 48 33.89 48q-7.625 0-11.703-4.953-4.078-4.953-4.078-14.234V0h-9.03v54.688h9.03v-8.5q2.844 4.984 7.375 7.39Q30.03 56 36.53 56q.922 0 2.047-.125 1.125-.11 2.484-.36z" id="I"/><path d="M56.203 29.594v-4.39H14.89q.594-9.28 5.594-14.14 5-4.86 13.938-4.86 5.172 0 10.03 1.266 4.86 1.266 9.656 3.813v-8.5Q49.266.734 44.188-.344 39.11-1.422 33.89-1.422q-13.094 0-20.734 7.61-7.64 7.625-7.64 20.625 0 13.422 7.25 21.297Q20.016 56 32.328 56q11.03 0 17.453-7.11 6.422-7.094 6.422-19.297zm-8.984 2.64q-.094 7.36-4.125 11.75-4.03 4.406-10.672 4.406-7.516 0-12.03-4.25-4.516-4.25-5.203-11.97z" id="J"/><path d="M45.406 46.39v29.594h8.984V0h-8.984v8.203Q42.578 3.328 38.25.953q-4.312-2.375-10.375-2.375-9.906 0-16.14 7.906-6.22 7.922-6.22 20.813 0 12.89 6.22 20.797Q17.97 56 27.875 56q6.063 0 10.375-2.375 4.328-2.36 7.156-7.234zm-30.61-19.094q0-9.906 4.078-15.547 4.078-5.64 11.203-5.64 7.125 0 11.22 5.64 4.11 5.64 4.11 15.547 0 9.906-4.11 15.547-4.094 5.64-11.22 5.64-7.125 0-11.203-5.64-4.078-5.64-4.078-15.547z" id="K"/><path d="M9.422 54.688h8.984V0H9.422zm0 21.297h8.984v-11.39H9.422z" id="L"/><path d="M48.78 52.594v-8.406q-3.812 2.11-7.64 3.156-3.828 1.047-7.734 1.047-8.75 0-13.594-5.547-4.828-5.53-4.828-15.547 0-10.016 4.828-15.562 4.844-5.53 13.594-5.53 3.906 0 7.734 1.047 3.828 1.047 7.64 3.156V2.094Q45.016.344 40.984-.53q-4.016-.89-8.562-.89-12.36 0-19.64 7.766-7.266 7.766-7.266 20.953 0 13.375 7.344 21.03Q20.22 56 33.016 56q4.14 0 8.094-.86 3.953-.844 7.672-2.547z" id="M"/><path d="M18.313 70.22v-15.53h18.5v-6.984h-18.5V18.016q0-6.687 1.828-8.594 1.828-1.906 7.453-1.906h9.22V0h-9.22q-10.406 0-14.36 3.875-3.953 3.89-3.953 14.14v29.688H2.688v6.984H9.28v15.53z" id="N"/><path d="M34.28 27.484q-10.89 0-15.094-2.484-4.203-2.484-4.203-8.5 0-4.78 3.156-7.594 3.156-2.797 8.563-2.797 7.484 0 12 5.297 4.516 5.297 4.516 14.078v2zm17.922 3.72V0H43.22v8.297Q40.14 3.328 35.547.953q-4.594-2.375-11.234-2.375-8.39 0-13.36 4.72Q6 8.016 6 15.922q0 9.22 6.172 13.906 6.188 4.688 18.438 4.688h12.61v.89q0 6.203-4.078 9.594-4.078 3.39-11.453 3.39-4.687 0-9.14-1.125-4.437-1.125-8.53-3.375v8.313q4.922 1.906 9.563 2.844 4.64.953 9.03.953 11.875 0 17.734-6.156 5.86-6.14 5.86-18.64z" id="O"/></defs><g transform="matrix(0 -.1 -.1 0 18.7275 207.601094)"><use xlink:href="#H"/><use x="60.287" xlink:href="#I"/><use x="101.369" xlink:href="#J"/><use x="162.893" xlink:href="#K"/><use x="226.369" xlink:href="#L"/><use x="254.152" xlink:href="#M"/><use x="309.133" xlink:href="#N"/><use x="348.342" xlink:href="#J"/><use x="409.865" xlink:href="#K"/><use x="473.342" xlink:href="#u"/><use x="505.129" xlink:href="#O"/></g><path d="M69.3 97.97L98.65 283.488l29.353-161.548 29.353 137.803 29.353-2.127L216.06 91.752l29.353 2.438 29.353-65.83 29.353 294.393 29.353-118.247" class="B C E F K"/><defs><path d="M0 3a3 3 0 0 0 2.121-.879A3 3 0 0 0 3 0a3 3 0 0 0-.879-2.121A3 3 0 0 0 0-3a3 3 0 0 0-2.121.879A3 3 0 0 0-3 0a3 3 0 0 0 .879 2.121A3 3 0 0 0 0 3z" id="P" class="I K"/></defs><g fill="#1f77b4" class="E K"><use x="69.299" xlink:href="#P" y="97.971"/><use x="157.356" xlink:href="#P" y="259.743"/><use x="245.414" xlink:href="#P" y="94.19"/><use x="333.471" xlink:href="#P" y="204.505"/></g><path d="M69.3 96.02L98.65 276.434l29.353-156.085 29.353 136.747 29.353 7.077L216.06 93.037l29.353-.733 29.353-63.827 29.353 301.08 29.353-128.205" class="B C E F L"/><defs><path d="M0 3l3-6h-6z" id="Q" class="D L"/></defs><g fill="#ff7f0e" class="D E L"><use x="69.299" xlink:href="#Q" y="96.019"/><use x="157.356" xlink:href="#Q" y="257.097"/><use x="245.414" xlink:href="#Q" y="92.304"/><use x="333.471" xlink:href="#Q" y="201.353"/></g><path d="M69.3 95.727l29.353 180.01 29.353-156 29.353 137.243 29.353 6.413 29.353-170.4 29.353-1.65 29.353-62.916L304.12 330.2 333.47 201.4" class="B C E F M"/><defs><path d="M-3 3h6v-6h-6z" id="R" class="D M"/></defs><g fill="#2ca02c" class="D E M"><use x="69.299" xlink:href="#R" y="95.727"/><use x="157.356" xlink:href="#R" y="256.977"/><use x="245.414" xlink:href="#R" y="91.342"/><use x="333.471" xlink:href="#R" y="201.41"/></g><path d="M69.3 95.548l29.353 180.3 29.353-156.218 29.353 136.147 29.353 7.848L216.06 93.02l29.353-1.547 29.353-63.037L304.12 330.11l29.353-128.614" class="B C E F N"/><defs><path d="M0 4.243L2.546 0 0-4.243-2.546 0z" id="S" class="D N"/></defs><g fill="#d62728" class="D E N"><use x="69.299" xlink:href="#S" y="95.548"/><use x="157.356" xlink:href="#S" y="255.777"/><use x="245.414" xlink:href="#S" y="91.474"/><use x="333.471" xlink:href="#S" y="201.497"/></g><path d="M69.3 206.89l29.353-93.95 29.353 67.25 29.353 142.166 29.353-27.71L216.06 43.038l29.353 30.245L274.766 44.4l29.353 78.53 29.353 199.334" class="B C E F O"/><defs><path d="M-3 3l6-6m-6 0l6 6" id="T" class="I J O"/></defs><g fill="#9467bd" class="E O"><use x="69.299" xlink:href="#T" y="206.889"/><use x="157.356" xlink:href="#T" y="322.354"/><use x="245.414" xlink:href="#T" y="73.283"/><use x="333.471" xlink:href="#T" y="322.264"/></g><g class="B C D G H"><path d="M56.1 345.293V13.267m290.58 332.026V13.267"/><path d="M56.1 345.293h290.6M56.1 13.267h290.6"/></g><path d="M63.1 94.657h96.803q2 0 2-2v-72.39q0-2-2-2H63.1q-2 0-2 2v72.39q0 2 2 2z" fill="#fff" opacity=".8" stroke="#ccc" class="D"/><g class="K"><path d="M65.1 26.365h20" class="B C F"/><use x="75.09" xlink:href="#P" y="26.365" fill="#1f77b4"/></g><defs><path d="M9.813 72.906h9.86V8.297h35.5V0H9.813z" id="U"/><path d="M10.594 45.406h62.594v-8.203H10.594zm0-19.922h62.594v-8.297H10.594z" id="V"/></defs><g transform="matrix(.1 0 0 -.1 93.09 29.865158)"><use xlink:href="#U"/><use x="55.713" xlink:href="#V"/><use x="139.502" xlink:href="#D"/><use x="203.125" xlink:href="#F"/></g><g class="L"><path d="M65.1 41.043h20" class="B C F"/><use x="75.09" xlink:href="#Q" y="41.043" fill="#ff7f0e" class="D"/></g><g transform="matrix(.1 0 0 -.1 93.09 44.543283)"><use xlink:href="#U"/><use x="55.713" xlink:href="#V"/><use x="139.502" xlink:href="#D"/><use x="203.125" xlink:href="#F"/><use x="266.748" xlink:href="#F"/></g><g class="M"><path d="M65.1 55.72h20" class="B C F"/><use x="75.09" xlink:href="#R" y="55.721" fill="#2ca02c" class="D"/></g><g transform="matrix(.1 0 0 -.1 93.09 59.221407)"><use xlink:href="#U"/><use x="55.713" xlink:href="#V"/><use x="139.502" xlink:href="#G"/><use x="203.125" xlink:href="#F"/><use x="266.748" xlink:href="#F"/></g><g class="N"><path d="M65.1 70.4h20" class="B C F"/><use x="75.09" xlink:href="#S" y="70.4" fill="#d62728" class="D"/></g><g transform="matrix(.1 0 0 -.1 93.09 73.899533)"><use xlink:href="#U"/><use x="55.713" xlink:href="#V"/><use x="139.502" xlink:href="#D"/><use x="203.125" xlink:href="#F"/><use x="266.748" xlink:href="#F"/><use x="330.371" xlink:href="#F"/></g><g class="O"><path d="M65.1 85.078h20" class="B C F"/><use x="75.09" xlink:href="#T" y="85.078" fill="#9467bd"/></g><defs><path d="M59.516 10.406v19.578h-16.11v8.11H69.28V6.78Q63.578 2.734 56.688.656 49.813-1.422 42-1.422q-17.094 0-26.75 9.984-9.64 10-9.64 27.813 0 17.875 9.64 27.86Q24.906 74.22 42 74.22q7.125 0 13.547-1.766 6.422-1.75 11.844-5.172v-10.5q-5.47 4.64-11.625 6.984-6.156 2.344-12.937 2.344-13.39 0-20.11-7.47-6.703-7.47-6.703-22.266 0-14.75 6.703-22.22 6.72-7.47 20.11-7.47 5.22 0 9.313.906 4.11.906 7.375 2.813z" id="W"/><path d="M30.61 48.39q-7.22 0-11.422-5.64-4.203-5.64-4.203-15.453 0-9.812 4.172-15.453 4.188-5.64 11.453-5.64 7.188 0 11.375 5.656 4.203 5.672 4.203 15.438 0 9.72-4.203 15.406-4.187 5.688-11.375 5.688zm0 7.61q11.72 0 18.406-7.625 6.703-7.61 6.703-21.078 0-13.422-6.703-21.078-6.687-7.64-18.406-7.64-11.766 0-18.437 7.64-6.656 7.656-6.656 21.078 0 13.47 6.656 21.078Q18.844 56 30.61 56z" id="X"/><path d="M8.5 21.578v33.11h8.984V21.922q0-7.766 3.016-11.656 3.03-3.875 9.094-3.875 7.266 0 11.484 4.64 4.234 4.64 4.234 12.656v31h8.984V0h-8.984v8.406Q42.047 3.422 37.72 1q-4.312-2.422-10.03-2.422-9.422 0-14.312 5.86Q8.5 10.297 8.5 21.578zM31.11 56z" id="Y"/><path d="M54.89 33.016V0h-8.984v32.72q0 7.766-3.03 11.61-3.03 3.86-9.078 3.86-7.28 0-11.484-4.64-4.203-4.625-4.203-12.64V0h-9.03v54.688h9.03v-8.5q3.234 4.938 7.594 7.375Q30.078 56 35.797 56q9.422 0 14.25-5.828 4.844-5.828 4.844-17.156z" id="Z"/><path d="M54.89 33.016V0h-8.984v32.72q0 7.766-3.03 11.61-3.03 3.86-9.078 3.86-7.28 0-11.484-4.64-4.203-4.625-4.203-12.64V0h-9.03v75.984h9.03V46.188q3.234 4.938 7.594 7.375Q30.078 56 35.797 56q9.422 0 14.25-5.828 4.844-5.828 4.844-17.156z" id="a"/></defs><g transform="matrix(.1 0 0 -.1 93.09 88.577657)"><use xlink:href="#W"/><use x="77.49" xlink:href="#I"/><use x="118.572" xlink:href="#X"/><use x="179.754" xlink:href="#Y"/><use x="243.133" xlink:href="#Z"/><use x="306.512" xlink:href="#K"/><use x="369.988" xlink:href="#u"/><use x="401.775" xlink:href="#N"/><use x="440.984" xlink:href="#I"/><use x="482.098" xlink:href="#Y"/><use x="545.477" xlink:href="#N"/><use x="584.686" xlink:href="#a"/></g><defs><clipPath id="b"><path d="M56.1 13.267h290.6v332.027H56.1z"/></clipPath></defs></svg>