<svg xmlns="http://www.w3.org/2000/svg" xmlns:xlink="http://www.w3.org/1999/xlink" height="383" viewBox="0 0 432 286.56" width="577" stroke-linecap="butt" stroke-linejoin="round"><style><![CDATA[.B{stroke:#000}.C{stroke-width:.8}.D{stroke-linecap:butt}.E{stroke-linejoin:round}.F{stroke-linecap:square}.G{clip-path:url(#Z)}.H{stroke-linejoin:miter}]]></style><g fill="#fff"><path d="M0 286.56h432V0H0z"/><path d="M56.398 244.093H418.68V25.313H56.398z"/></g><defs><path d="M0 0v3.5" id="A" class="B C D E"/></defs><use x="72.866" xlink:href="#A" y="244.093" class="B C"/><defs><path d="M31.78 66.406q-7.61 0-11.453-7.5-3.828-7.484-3.828-22.53 0-14.984 3.828-22.484 3.844-7.5 11.453-7.5 7.672 0 11.5 7.5 3.844 7.5 3.844 22.484 0 15.047-3.844 22.53-3.828 7.5-11.5 7.5zm0 7.813q12.266 0 18.734-9.703 6.47-9.687 6.47-28.14 0-18.406-6.47-28.11-6.47-9.687-18.734-9.687-12.25 0-18.72 9.688-6.47 9.703-6.47 28.11 0 18.453 6.47 28.14 6.47 9.703 18.72 9.703z" id="B"/></defs><use xlink:href="#B" transform="matrix(.1 0 0 -.1 69.684356 258.691838)"/><use x="237.539" xlink:href="#A" y="244.093" class="B C"/><defs><path d="M9.125 54.688H61.53l-1.766-8.984h-6.89l-6.53-33.594q-.687-3.516.234-5.078.89-1.516 3.563-1.516.734 0 1.813.156 1.125.094 1.47.14l-1.266-6.5q-1.812-.625-3.672-.922-1.906-.297-3.703-.297-5.86 0-7.47 3.172-1.625 3.234.047 11.828l6.344 32.61H23.53L14.656 0H5.47l8.89 45.703H7.375z" id="C"/><path d="M25.39 72.906h8.297L8.297-9.28H0z" id="D"/><path d="M19.188 8.297H53.61V0H7.328v8.297q5.61 5.813 15.297 15.594 9.703 9.797 12.188 12.64 4.734 5.313 6.61 9 1.89 3.688 1.89 7.25 0 5.813-4.078 9.47-4.078 3.672-10.625 3.672-4.64 0-9.797-1.61-5.14-1.61-11-4.89v9.97q5.953 2.39 11.125 3.61 5.188 1.22 9.484 1.22 11.328 0 18.063-5.672 6.734-5.656 6.734-15.125 0-4.5-1.687-8.53-1.672-4.016-6.125-9.484-1.22-1.422-7.766-8.187-6.53-6.766-18.453-18.922z" id="E"/></defs><g transform="matrix(.1 0 0 -.1 229.639127 258.691838)"><use xlink:href="#C" y=".781"/><use xlink:href="#D" x="60.205" y=".781"/><use xlink:href="#E" x="93.85" y=".781"/></g><use x="402.213" xlink:href="#A" y="244.093" class="B C"/><use xlink:href="#C" y=".313" transform="matrix(.1 0 0 -.1 399.162648 258.691838)"/><defs><path d="M54.89 54.688l-19.78-26.61L55.906 0H45.313L29.39 21.484 13.484 0H2.875l21.25 28.61L4.688 54.688H15.28l14.5-19.484 14.5 19.484z" id="F"/></defs><use xlink:href="#F" transform="matrix(.1 0 0 -.1 234.579752 272.369962)"/><defs><path d="M0 0h-3.5" id="G" class="B C D E"/></defs><use x="56.398" xlink:href="#G" y="192.647" class="B C"/><defs><path d="M10.594 35.5h62.594v-8.297H10.594z" id="H"/></defs><g transform="matrix(.1 0 0 -.1 25.198254 196.445823)"><use xlink:href="#H" y=".781"/><use xlink:href="#C" x="83.789" y=".781"/><use xlink:href="#D" x="143.994" y=".781"/><use xlink:href="#E" x="177.639" y=".781"/></g><use x="56.398" xlink:href="#G" y="140.184" class="B C"/><use xlink:href="#B" transform="matrix(.1 0 0 -.1 43.035754 143.982747)"/><use x="56.398" xlink:href="#G" y="87.72" class="B C"/><g transform="matrix(.1 0 0 -.1 33.598254 91.519671)"><use xlink:href="#C" y=".781"/><use xlink:href="#D" x="60.205" y=".781"/><use xlink:href="#E" x="93.85" y=".781"/></g><use x="56.398" xlink:href="#G" y="35.257" class="B C"/><use xlink:href="#C" y=".313" transform="matrix(.1 0 0 -.1 43.298254 39.056594)"/><defs><path d="M78.563 9.86V0H8.547l46.53 72.906H66.89L26.813 9.86z" id="I"/><path d="M-.203 72.906h10.61L30.61 42.922l20.078 29.984H61.28L35.5 34.72V0h-9.906v34.72z" id="J"/></defs><g transform="matrix(0 -.1 -.1 0 19.118567 143.828881)"><use xlink:href="#I"/><use x="89.648" xlink:href="#m"/><use x="121.436" xlink:href="#J"/></g><g fill="none" class="F"><path d="M72.866 35.257l1.317 198.89 2.635-134.46 1.317-3.384 1.317-2.08 1.317-1.46 1.317-1.105 1.317-.883 2.635-1.365 2.635-1.052 3.952-1.263 5.27-1.374 6.587-1.468 10.54-2.08 15.81-2.848 25.03-4.257 44.79-7.364 201.56-32.45" stroke="#1f77b4" class="G"/><path d="M72.866 35.257l1.317 198.89 2.635-134.56 1.317-3.104 1.317-2.065 1.317-1.474 1.317-1.123 1.317-.9 2.635-1.4 2.635-1.07 3.952-1.282 5.27-1.39 6.587-1.482 9.222-1.842 14.49-2.646 23.713-4.067 40.84-6.745 80.36-13 129.104-20.74" stroke="#ff7f0e" class="G"/><g class="B C H"><path d="M56.398 244.093V25.313m362.282 218.78V25.313"/><path d="M56.398 244.093H418.68M56.398 25.313H418.68"/></g></g><defs><path d="M9.813 72.906h9.86V8.297h35.5V0H9.813z" id="K"/><path d="M10.594 45.406h62.594v-8.203H10.594zm0-19.922h62.594v-8.297H10.594z" id="L"/><path d="M10.797 72.906h38.72v-8.312H19.828v-17.86q2.14.734 4.28 1.094 2.156.36 4.313.36 12.203 0 19.328-6.687 7.14-6.687 7.14-18.11 0-11.766-7.328-18.297-7.328-6.516-20.656-6.516-4.594 0-9.36.78-4.75.78-9.828 2.344v9.922q4.39-2.39 9.078-3.562 4.688-1.172 9.906-1.172 8.453 0 13.375 4.438 4.938 4.438 4.938 12.063 0 7.61-4.937 12.047-4.922 4.453-13.375 4.453-3.953 0-7.89-.875-3.922-.875-8.016-2.734z" id="M"/></defs><g transform="matrix(.12 0 0 -.12 217.71569 19.3128)"><use xlink:href="#K"/><use x="55.713" xlink:href="#L"/><use x="139.502" xlink:href="#M"/><use x="203.125" xlink:href="#B"/><use x="266.748" xlink:href="#B"/></g><path d="M314.877 239.093h96.803q2 0 2-2v-28.356q0-2-2-2h-96.803q-2 0-2 2v28.356q0 2 2 2z" fill="#fff" opacity=".8" stroke="#ccc" class="H"/><path d="M316.877 214.836h20" fill="none" stroke="#1f77b4" class="F"/><defs><path d="M19.672 64.797v-27.39h12.406q6.89 0 10.64 3.563 3.766 3.563 3.766 10.156 0 6.547-3.766 10.11-3.75 3.563-10.64 3.563zm-9.86 8.11h22.266q12.266 0 18.53-5.547 6.28-5.547 6.28-16.234 0-10.797-6.28-16.312-6.266-5.516-18.53-5.516H19.672V0h-9.86z" id="N"/><path d="M41.11 46.297q-1.516.875-3.297 1.28Q36.03 48 33.89 48q-7.625 0-11.703-4.953-4.078-4.953-4.078-14.234V0h-9.03v54.688h9.03v-8.5q2.844 4.984 7.375 7.39Q30.03 56 36.53 56q.922 0 2.047-.125 1.125-.11 2.484-.36z" id="O"/><path d="M56.203 29.594v-4.39H14.89q.594-9.28 5.594-14.14 5-4.86 13.938-4.86 5.172 0 10.03 1.266 4.86 1.266 9.656 3.813v-8.5Q49.266.734 44.188-.344 39.11-1.422 33.89-1.422q-13.094 0-20.734 7.61-7.64 7.625-7.64 20.625 0 13.422 7.25 21.297Q20.016 56 32.328 56q11.03 0 17.453-7.11 6.422-7.094 6.422-19.297zm-8.984 2.64q-.094 7.36-4.125 11.75-4.03 4.406-10.672 4.406-7.516 0-12.03-4.25-4.516-4.25-5.203-11.97z" id="P"/><path d="M45.406 46.39v29.594h8.984V0h-8.984v8.203Q42.578 3.328 38.25.953q-4.312-2.375-10.375-2.375-9.906 0-16.14 7.906-6.22 7.922-6.22 20.813 0 12.89 6.22 20.797Q17.97 56 27.875 56q6.063 0 10.375-2.375 4.328-2.36 7.156-7.234zm-30.61-19.094q0-9.906 4.078-15.547 4.078-5.64 11.203-5.64 7.125 0 11.22 5.64 4.11 5.64 4.11 15.547 0 9.906-4.11 15.547-4.094 5.64-11.22 5.64-7.125 0-11.203-5.64-4.078-5.64-4.078-15.547z" id="Q"/><path d="M9.422 54.688h8.984V0H9.422zm0 21.297h8.984v-11.39H9.422z" id="R"/><path d="M48.78 52.594v-8.406q-3.812 2.11-7.64 3.156-3.828 1.047-7.734 1.047-8.75 0-13.594-5.547-4.828-5.53-4.828-15.547 0-10.016 4.828-15.562 4.844-5.53 13.594-5.53 3.906 0 7.734 1.047 3.828 1.047 7.64 3.156V2.094Q45.016.344 40.984-.53q-4.016-.89-8.562-.89-12.36 0-19.64 7.766-7.266 7.766-7.266 20.953 0 13.375 7.344 21.03Q20.22 56 33.016 56q4.14 0 8.094-.86 3.953-.844 7.672-2.547z" id="S"/><path d="M18.313 70.22v-15.53h18.5v-6.984h-18.5V18.016q0-6.687 1.828-8.594 1.828-1.906 7.453-1.906h9.22V0h-9.22q-10.406 0-14.36 3.875-3.953 3.89-3.953 14.14v29.688H2.688v6.984H9.28v15.53z" id="T"/><path d="M30.61 48.39q-7.22 0-11.422-5.64-4.203-5.64-4.203-15.453 0-9.812 4.172-15.453 4.188-5.64 11.453-5.64 7.188 0 11.375 5.656 4.203 5.672 4.203 15.438 0 9.72-4.203 15.406-4.187 5.688-11.375 5.688zm0 7.61q11.72 0 18.406-7.625 6.703-7.61 6.703-21.078 0-13.422-6.703-21.078-6.687-7.64-18.406-7.64-11.766 0-18.437 7.64-6.656 7.656-6.656 21.078 0 13.47 6.656 21.078Q18.844 56 30.61 56z" id="U"/><path d="M54.89 33.016V0h-8.984v32.72q0 7.766-3.03 11.61-3.03 3.86-9.078 3.86-7.28 0-11.484-4.64-4.203-4.625-4.203-12.64V0h-9.03v54.688h9.03v-8.5q3.234 4.938 7.594 7.375Q30.078 56 35.797 56q9.422 0 14.25-5.828 4.844-5.828 4.844-17.156z" id="V"/></defs><g transform="matrix(.1 0 0 -.1 344.876875 218.335588)"><use xlink:href="#N"/><use x="60.287" xlink:href="#O"/><use x="101.369" xlink:href="#P"/><use x="162.893" xlink:href="#Q"/><use x="226.369" xlink:href="#R"/><use x="254.152" xlink:href="#S"/><use x="309.133" xlink:href="#T"/><use x="348.342" xlink:href="#R"/><use x="376.125" xlink:href="#U"/><use x="437.307" xlink:href="#V"/></g><path d="M316.877 229.514h20" fill="none" stroke="#ff7f0e" class="F"/><defs><path d="M59.516 10.406v19.578h-16.11v8.11H69.28V6.78Q63.578 2.734 56.688.656 49.813-1.422 42-1.422q-17.094 0-26.75 9.984-9.64 10-9.64 27.813 0 17.875 9.64 27.86Q24.906 74.22 42 74.22q7.125 0 13.547-1.766 6.422-1.75 11.844-5.172v-10.5q-5.47 4.64-11.625 6.984-6.156 2.344-12.937 2.344-13.39 0-20.11-7.47-6.703-7.47-6.703-22.266 0-14.75 6.703-22.22 6.72-7.47 20.11-7.47 5.22 0 9.313.906 4.11.906 7.375 2.813z" id="W"/><path d="M8.5 21.578v33.11h8.984V21.922q0-7.766 3.016-11.656 3.03-3.875 9.094-3.875 7.266 0 11.484 4.64 4.234 4.64 4.234 12.656v31h8.984V0h-8.984v8.406Q42.047 3.422 37.72 1q-4.312-2.422-10.03-2.422-9.422 0-14.312 5.86Q8.5 10.297 8.5 21.578zM31.11 56z" id="X"/><path d="M54.89 33.016V0h-8.984v32.72q0 7.766-3.03 11.61-3.03 3.86-9.078 3.86-7.28 0-11.484-4.64-4.203-4.625-4.203-12.64V0h-9.03v75.984h9.03V46.188q3.234 4.938 7.594 7.375Q30.078 56 35.797 56q9.422 0 14.25-5.828 4.844-5.828 4.844-17.156z" id="Y"/></defs><g transform="matrix(.1 0 0 -.1 344.876875 233.013712)"><use xlink:href="#W"/><use x="77.49" xlink:href="#O"/><use x="118.572" xlink:href="#U"/><use x="179.754" xlink:href="#X"/><use x="243.133" xlink:href="#V"/><use x="306.512" xlink:href="#Q"/><use x="369.988" xlink:href="#m"/><use x="401.775" xlink:href="#T"/><use x="440.984" xlink:href="#O"/><use x="482.098" xlink:href="#X"/><use x="545.477" xlink:href="#T"/><use x="584.686" xlink:href="#Y"/></g><defs><clipPath id="Z"><path d="M56.398 25.313H418.68v218.78H56.398z"/></clipPath></defs></svg>