<svg xmlns="http://www.w3.org/2000/svg" xmlns:xlink="http://www.w3.org/1999/xlink" height="481" viewBox="0 0 360 360" width="481" stroke-linecap="butt" stroke-linejoin="round"><style><![CDATA[.B{stroke:#000}.C{stroke-width:.8}.D{stroke-linecap:butt}.E{stroke-linejoin:round}.F{stroke-linecap:square}.G{stroke-width:1.5}.H{clip-path:url(#W)}.I{stroke-linejoin:miter}]]></style><g fill="#fff"><path d="M0 360h360V0H0z"/><path d="M45 320.4h279V43.2H45z"/></g><defs><path d="M0 0v3.5" id="A" class="B C D E"/></defs><use x="57.682" xlink:href="#A" y="320.4" class="B C"/><defs><path d="M31.78 66.406q-7.61 0-11.453-7.5-3.828-7.484-3.828-22.53 0-14.984 3.828-22.484 3.844-7.5 11.453-7.5 7.672 0 11.5 7.5 3.844 7.5 3.844 22.484 0 15.047-3.844 22.53-3.828 7.5-11.5 7.5zm0 7.813q12.266 0 18.734-9.703 6.47-9.687 6.47-28.14 0-18.406-6.47-28.11-6.47-9.687-18.734-9.687-12.25 0-18.72 9.688-6.47 9.703-6.47 28.11 0 18.453 6.47 28.14 6.47 9.703 18.72 9.703z" id="B"/></defs><use xlink:href="#B" transform="matrix(.1 0 0 -.1 54.500568 334.998438)"/><use x="108.409" xlink:href="#A" y="320.4" class="B C"/><defs><path d="M12.406 8.297h16.11v55.625l-17.53-3.516v8.984l17.438 3.516h9.86V8.297h16.11V0H12.406z" id="C"/></defs><use xlink:href="#C" transform="matrix(.1 0 0 -.1 105.227841 334.998438)"/><use x="159.136" xlink:href="#A" y="320.4" class="B C"/><defs><path d="M19.188 8.297H53.61V0H7.328v8.297q5.61 5.813 15.297 15.594 9.703 9.797 12.188 12.64 4.734 5.313 6.61 9 1.89 3.688 1.89 7.25 0 5.813-4.078 9.47-4.078 3.672-10.625 3.672-4.64 0-9.797-1.61-5.14-1.61-11-4.89v9.97q5.953 2.39 11.125 3.61 5.188 1.22 9.484 1.22 11.328 0 18.063-5.672 6.734-5.656 6.734-15.125 0-4.5-1.687-8.53-1.672-4.016-6.125-9.484-1.22-1.422-7.766-8.187-6.53-6.766-18.453-18.922z" id="D"/></defs><use xlink:href="#D" transform="matrix(.1 0 0 -.1 155.955114 334.998438)"/><use x="209.864" xlink:href="#A" y="320.4" class="B C"/><defs><path d="M40.578 39.313Q47.656 37.797 51.625 33q3.984-4.78 3.984-11.812 0-10.78-7.422-16.703-7.422-5.906-21.094-5.906-4.578 0-9.437.906-4.86.906-10.03 2.72v9.516q4.094-2.39 8.97-3.61 4.89-1.22 10.22-1.22 9.266 0 14.125 3.656 4.86 3.656 4.86 10.64 0 6.453-4.516 10.078-4.516 3.64-12.562 3.64h-8.5v8.11h8.89q7.266 0 11.125 2.906 3.86 2.906 3.86 8.375 0 5.61-3.984 8.61-3.97 3.016-11.39 3.016-4.062 0-8.703-.89-4.64-.875-10.203-2.72v8.78q5.625 1.563 10.53 2.344 4.906.78 9.25.78 11.234 0 17.766-5.11 6.547-5.094 6.547-13.78 0-6.062-3.47-10.234-3.47-4.172-9.86-5.78z" id="E"/></defs><use xlink:href="#E" transform="matrix(.1 0 0 -.1 206.682386 334.998438)"/><use x="260.591" xlink:href="#A" y="320.4" class="B C"/><defs><path d="M37.797 64.313L12.89 25.39h24.906zm-2.594 8.594H47.61V25.39h10.406v-8.203H47.61V0h-9.812v17.188H4.89v9.516z" id="F"/></defs><use xlink:href="#F" transform="matrix(.1 0 0 -.1 257.409659 334.998438)"/><use x="311.318" xlink:href="#A" y="320.4" class="B C"/><defs><path d="M10.797 72.906h38.72v-8.312H19.828v-17.86q2.14.734 4.28 1.094 2.156.36 4.313.36 12.203 0 19.328-6.687 7.14-6.687 7.14-18.11 0-11.766-7.328-18.297-7.328-6.516-20.656-6.516-4.594 0-9.36.78-4.75.78-9.828 2.344v9.922q4.39-2.39 9.078-3.562 4.688-1.172 9.906-1.172 8.453 0 13.375 4.438 4.938 4.438 4.938 12.063 0 7.61-4.937 12.047-4.922 4.453-13.375 4.453-3.953 0-7.89-.875-3.922-.875-8.016-2.734z" id="G"/></defs><use xlink:href="#G" transform="matrix(.1 0 0 -.1 308.136932 334.998438)"/><defs><path d="M0 0h-3.5" id="H" class="B C D E"/></defs><use x="45" xlink:href="#H" y="296.36" class="B C"/><defs><path d="M10.688 12.406H21V0H10.688z" id="I"/></defs><g transform="matrix(.1 0 0 -.1 15.734375 300.158816)"><use xlink:href="#C"/><use x="63.623" xlink:href="#I"/><use x="95.41" xlink:href="#G"/><use x="159.033" xlink:href="#B"/></g><use x="45" xlink:href="#H" y="258.649" class="B C"/><defs><path d="M8.203 72.906h46.875v-4.203L28.61 0H18.313L43.22 64.594H8.203z" id="J"/></defs><g transform="matrix(.1 0 0 -.1 15.734375 262.448472)"><use xlink:href="#C"/><use x="63.623" xlink:href="#I"/><use x="95.41" xlink:href="#J"/><use x="159.033" xlink:href="#G"/></g><use x="45" xlink:href="#H" y="220.939" class="B C"/><g transform="matrix(.1 0 0 -.1 15.734375 224.738128)"><use xlink:href="#D"/><use x="63.623" xlink:href="#I"/><use x="95.41" xlink:href="#B"/><use x="159.033" xlink:href="#B"/></g><use x="45" xlink:href="#H" y="183.229" class="B C"/><g transform="matrix(.1 0 0 -.1 15.734375 187.027783)"><use xlink:href="#D"/><use x="63.623" xlink:href="#I"/><use x="95.41" xlink:href="#D"/><use x="159.033" xlink:href="#G"/></g><use x="45" xlink:href="#H" y="145.518" class="B C"/><g transform="matrix(.1 0 0 -.1 15.734375 149.317439)"><use xlink:href="#D"/><use x="63.623" xlink:href="#I"/><use x="95.41" xlink:href="#G"/><use x="159.033" xlink:href="#B"/></g><use x="45" xlink:href="#H" y="107.808" class="B C"/><g transform="matrix(.1 0 0 -.1 15.734375 111.607095)"><use xlink:href="#D"/><use x="63.623" xlink:href="#I"/><use x="95.41" xlink:href="#J"/><use x="159.033" xlink:href="#G"/></g><use x="45" xlink:href="#H" y="70.098" class="B C"/><g transform="matrix(.1 0 0 -.1 15.734375 73.896751)"><use xlink:href="#E"/><use x="63.623" xlink:href="#I"/><use x="95.41" xlink:href="#B"/><use x="159.033" xlink:href="#B"/></g><g fill="none" class="F"><g class="G H"><path d="M57.682 145.234l50.727 121.3 50.727 23.824 50.727-188.84 50.727 141.126 50.727-161.928" stroke="#1f77b4"/><path d="M57.682 144.726l50.727 152.1 50.727 10.965 50.727-221.216 50.727 155.12L311.318 55.8" stroke="#ff7f0e"/></g><g class="B C I"><path d="M45 320.4V43.2m279 277.2V43.2"/><path d="M45 320.4h279M45 43.2h279"/></g></g><defs><path d="M19.672 34.813V8.11H35.5q7.953 0 11.78 3.297 3.844 3.297 3.844 10.078 0 6.844-3.844 10.078-3.828 3.25-11.78 3.25zm0 29.984v-21.97h14.61q7.22 0 10.75 2.703 3.547 2.72 3.547 8.28 0 5.516-3.547 8.25-3.53 2.734-10.75 2.734zm-9.86 8.11h25.203q11.28 0 17.375-4.687Q58.5 63.53 58.5 54.89q0-6.703-3.125-10.656-3.125-3.953-9.187-4.922 7.28-1.562 11.313-6.53 4.03-4.953 4.03-12.375 0-9.766-6.64-15.094Q48.25 0 35.984 0H9.813z" id="K"/><path d="M9.422 54.688h8.984V0H9.422zm0 21.297h8.984v-11.39H9.422z" id="L"/><path d="M34.28 27.484q-10.89 0-15.094-2.484-4.203-2.484-4.203-8.5 0-4.78 3.156-7.594 3.156-2.797 8.563-2.797 7.484 0 12 5.297 4.516 5.297 4.516 14.078v2zm17.922 3.72V0H43.22v8.297Q40.14 3.328 35.547.953q-4.594-2.375-11.234-2.375-8.39 0-13.36 4.72Q6 8.016 6 15.922q0 9.22 6.172 13.906 6.188 4.688 18.438 4.688h12.61v.89q0 6.203-4.078 9.594-4.078 3.39-11.453 3.39-4.687 0-9.14-1.125-4.437-1.125-8.53-3.375v8.313q4.922 1.906 9.563 2.844 4.64.953 9.03.953 11.875 0 17.734-6.156 5.86-6.14 5.86-18.64z" id="M"/><path d="M44.28 53.078v-8.5q-3.797 1.953-7.906 2.922-4.094.984-8.5.984-6.687 0-10.03-2.047Q14.5 44.39 14.5 40.28q0-3.125 2.39-4.906 2.39-1.78 9.625-3.39l3.078-.687q9.563-2.047 13.594-5.78 4.03-3.734 4.03-10.422 0-7.625-6.03-12.078-6.03-4.437-16.578-4.437-4.39 0-9.156.86Q10.688.297 5.422 2v9.28q4.984-2.594 9.813-3.89 4.828-1.28 9.578-1.28 6.344 0 9.75 2.172 3.422 2.172 3.422 6.125 0 3.656-2.47 5.61-2.453 1.953-10.812 3.766l-3.125.734q-8.344 1.75-12.062 5.39-3.703 3.64-3.703 9.984 0 7.72 5.47 11.906Q16.75 56 26.813 56q4.97 0 9.36-.734 4.406-.72 8.11-2.187z" id="N"/><path d="M56.203 29.594v-4.39H14.89q.594-9.28 5.594-14.14 5-4.86 13.938-4.86 5.172 0 10.03 1.266 4.86 1.266 9.656 3.813v-8.5Q49.266.734 44.188-.344 39.11-1.422 33.89-1.422q-13.094 0-20.734 7.61-7.64 7.625-7.64 20.625 0 13.422 7.25 21.297Q20.016 56 32.328 56q11.03 0 17.453-7.11 6.422-7.094 6.422-19.297zm-8.984 2.64q-.094 7.36-4.125 11.75-4.03 4.406-10.672 4.406-7.516 0-12.03-4.25-4.516-4.25-5.203-11.97z" id="O"/><path d="M31 75.875q-6.53-11.22-9.72-22.22Q18.11 42.672 18.11 31.39q0-11.266 3.203-22.328Q24.516-2 31-13.187h-7.812Q15.875-1.703 12.234 9.375q-3.64 11.078-3.64 22.016 0 10.89 3.61 21.922 3.625 11.047 10.984 22.563z" id="P"/><path d="M53.516 70.516V60.89q-5.61 2.688-10.594 4-4.984 1.328-9.625 1.328-8.047 0-12.422-3.125-4.375-3.125-4.375-8.89 0-4.844 2.906-7.312 2.906-2.453 11.016-3.97l5.953-1.22q11.03-2.11 16.28-7.406 5.25-5.297 5.25-14.172 0-10.61-7.11-16.078-7.094-5.47-20.812-5.47-5.172 0-11.016 1.172Q13.14.922 6.89 3.22v10.156q6-3.36 11.766-5.078 5.766-1.703 11.328-1.703 8.438 0 13.03 3.313 4.594 3.328 4.594 9.484 0 5.36-3.297 8.39-3.297 3.03-10.812 4.547L27.484 33.5q-11.03 2.188-15.97 6.875-4.922 4.688-4.922 13.047 0 9.672 6.813 15.234 6.813 5.563 18.766 5.563 5.14 0 10.453-.937 5.328-.922 10.89-2.766z" id="Q"/><path d="M59.516 10.406v19.578h-16.11v8.11H69.28V6.78Q63.578 2.734 56.688.656 49.813-1.422 42-1.422q-17.094 0-26.75 9.984-9.64 10-9.64 27.813 0 17.875 9.64 27.86Q24.906 74.22 42 74.22q7.125 0 13.547-1.766 6.422-1.75 11.844-5.172v-10.5q-5.47 4.64-11.625 6.984-6.156 2.344-12.937 2.344-13.39 0-20.11-7.47-6.703-7.47-6.703-22.266 0-14.75 6.703-22.22 6.72-7.47 20.11-7.47 5.22 0 9.313.906 4.11.906 7.375 2.813z" id="R"/><path d="M19.672 64.797V8.11h11.922q15.094 0 22.094 6.828 7 6.844 7 21.594 0 14.64-7 21.453-7 6.813-22.094 6.813zm-9.86 8.11h20.266q21.188 0 31.094-8.812 9.922-8.812 9.922-27.562 0-18.86-9.97-27.703Q51.172 0 30.078 0H9.813z" id="S"/><path d="M8.016 75.875h7.813Q23.14 64.36 26.78 53.313q3.64-11.03 3.64-21.922 0-10.937-3.64-22.016-3.64-11.078-10.953-22.562H8.016Q14.5-2 17.703 9.063q3.203 11.063 3.203 22.328 0 11.28-3.203 22.266-3.203 11-9.687 22.22z" id="T"/></defs><g transform="matrix(.12 0 0 -.12 145.429688 37.2)"><use xlink:href="#K"/><use x="68.604" xlink:href="#L"/><use x="96.387" xlink:href="#M"/><use x="157.666" xlink:href="#N"/><use x="209.766" xlink:href="#O"/><use x="271.289" xlink:href="#N"/><use x="323.389" xlink:href="#AP"/><use x="355.176" xlink:href="#P"/><use x="394.189" xlink:href="#Q"/><use x="457.666" xlink:href="#R"/><use x="535.156" xlink:href="#S"/><use x="612.158" xlink:href="#T"/></g><path d="M52 80.556h38.348q2 0 2-2V50.2q0-2-2-2H52q-2 0-2 2v28.356q0 2 2 2z" fill="#fff" opacity=".8" stroke="#ccc" class="I"/><path d="M54 56.298h20" fill="none" stroke="#1f77b4" class="F G"/><defs><path d="M48.78 52.594v-8.406q-3.812 2.11-7.64 3.156-3.828 1.047-7.734 1.047-8.75 0-13.594-5.547-4.828-5.53-4.828-15.547 0-10.016 4.828-15.562 4.844-5.53 13.594-5.53 3.906 0 7.734 1.047 3.828 1.047 7.64 3.156V2.094Q45.016.344 40.984-.53q-4.016-.89-8.562-.89-12.36 0-19.64 7.766-7.266 7.766-7.266 20.953 0 13.375 7.344 21.03Q20.22 56 33.016 56q4.14 0 8.094-.86 3.953-.844 7.672-2.547z" id="U"/></defs><use xlink:href="#U" transform="matrix(.1 0 0 -.1 82 59.798437)"/><path d="M54 70.977h20" fill="none" stroke="#ff7f0e" class="F G"/><defs><path d="M48.688 27.297q0 9.906-4.078 15.547-4.078 5.64-11.203 5.64-7.14 0-11.22-5.64-4.078-5.64-4.078-15.547 0-9.906 4.078-15.547 4.078-5.64 11.22-5.64 7.125 0 11.203 5.64 4.078 5.64 4.078 15.547zM18.11 46.39q2.844 4.875 7.156 7.234Q29.594 56 35.594 56q9.97 0 16.188-7.906 6.234-7.906 6.234-20.797 0-12.89-6.234-20.812-6.22-7.906-16.187-7.906-6 0-10.328 2.375-4.312 2.375-7.156 7.25V0h-9.03v75.984h9.03z" id="V"/></defs><use xlink:href="#V" transform="matrix(.1 0 0 -.1 82 74.476562)"/><defs><clipPath id="W"><path d="M45 43.2h279v277.2H45z"/></clipPath></defs></svg>