<svg xmlns="http://www.w3.org/2000/svg" xmlns:xlink="http://www.w3.org/1999/xlink" height="481" viewBox="0 0 360 360" width="481" stroke-linecap="butt" stroke-linejoin="round"><style><![CDATA[.B{stroke:#000}.C{stroke-width:.8}.D{stroke-linecap:butt}.E{stroke-linejoin:round}.F{stroke-linecap:square}.G{stroke-width:1.5}.H{clip-path:url(#Y)}.I{stroke-linejoin:miter}]]></style><g fill="#fff"><path d="M0 360h360V0H0z"/><path d="M45 320.4h279V43.2H45z"/></g><defs><path d="M0 0v3.5" id="A" class="B C D E"/></defs><use x="57.682" xlink:href="#A" y="320.4" class="B C"/><defs><path d="M31.78 66.406q-7.61 0-11.453-7.5-3.828-7.484-3.828-22.53 0-14.984 3.828-22.484 3.844-7.5 11.453-7.5 7.672 0 11.5 7.5 3.844 7.5 3.844 22.484 0 15.047-3.844 22.53-3.828 7.5-11.5 7.5zm0 7.813q12.266 0 18.734-9.703 6.47-9.687 6.47-28.14 0-18.406-6.47-28.11-6.47-9.687-18.734-9.687-12.25 0-18.72 9.688-6.47 9.703-6.47 28.11 0 18.453 6.47 28.14 6.47 9.703 18.72 9.703z" id="B"/></defs><use xlink:href="#B" transform="matrix(.1 0 0 -.1 54.500568 334.998438)"/><use x="108.409" xlink:href="#A" y="320.4" class="B C"/><defs><path d="M12.406 8.297h16.11v55.625l-17.53-3.516v8.984l17.438 3.516h9.86V8.297h16.11V0H12.406z" id="C"/></defs><use xlink:href="#C" transform="matrix(.1 0 0 -.1 105.227841 334.998438)"/><use x="159.136" xlink:href="#A" y="320.4" class="B C"/><defs><path d="M19.188 8.297H53.61V0H7.328v8.297q5.61 5.813 15.297 15.594 9.703 9.797 12.188 12.64 4.734 5.313 6.61 9 1.89 3.688 1.89 7.25 0 5.813-4.078 9.47-4.078 3.672-10.625 3.672-4.64 0-9.797-1.61-5.14-1.61-11-4.89v9.97q5.953 2.39 11.125 3.61 5.188 1.22 9.484 1.22 11.328 0 18.063-5.672 6.734-5.656 6.734-15.125 0-4.5-1.687-8.53-1.672-4.016-6.125-9.484-1.22-1.422-7.766-8.187-6.53-6.766-18.453-18.922z" id="D"/></defs><use xlink:href="#D" transform="matrix(.1 0 0 -.1 155.955114 334.998438)"/><use x="209.864" xlink:href="#A" y="320.4" class="B C"/><defs><path d="M40.578 39.313Q47.656 37.797 51.625 33q3.984-4.78 3.984-11.812 0-10.78-7.422-16.703-7.422-5.906-21.094-5.906-4.578 0-9.437.906-4.86.906-10.03 2.72v9.516q4.094-2.39 8.97-3.61 4.89-1.22 10.22-1.22 9.266 0 14.125 3.656 4.86 3.656 4.86 10.64 0 6.453-4.516 10.078-4.516 3.64-12.562 3.64h-8.5v8.11h8.89q7.266 0 11.125 2.906 3.86 2.906 3.86 8.375 0 5.61-3.984 8.61-3.97 3.016-11.39 3.016-4.062 0-8.703-.89-4.64-.875-10.203-2.72v8.78q5.625 1.563 10.53 2.344 4.906.78 9.25.78 11.234 0 17.766-5.11 6.547-5.094 6.547-13.78 0-6.062-3.47-10.234-3.47-4.172-9.86-5.78z" id="E"/></defs><use xlink:href="#E" transform="matrix(.1 0 0 -.1 206.682386 334.998438)"/><use x="260.591" xlink:href="#A" y="320.4" class="B C"/><defs><path d="M37.797 64.313L12.89 25.39h24.906zm-2.594 8.594H47.61V25.39h10.406v-8.203H47.61V0h-9.812v17.188H4.89v9.516z" id="F"/></defs><use xlink:href="#F" transform="matrix(.1 0 0 -.1 257.409659 334.998438)"/><use x="311.318" xlink:href="#A" y="320.4" class="B C"/><defs><path d="M10.797 72.906h38.72v-8.312H19.828v-17.86q2.14.734 4.28 1.094 2.156.36 4.313.36 12.203 0 19.328-6.687 7.14-6.687 7.14-18.11 0-11.766-7.328-18.297-7.328-6.516-20.656-6.516-4.594 0-9.36.78-4.75.78-9.828 2.344v9.922q4.39-2.39 9.078-3.562 4.688-1.172 9.906-1.172 8.453 0 13.375 4.438 4.938 4.438 4.938 12.063 0 7.61-4.937 12.047-4.922 4.453-13.375 4.453-3.953 0-7.89-.875-3.922-.875-8.016-2.734z" id="G"/></defs><use xlink:href="#G" transform="matrix(.1 0 0 -.1 308.136932 334.998438)"/><defs><path d="M0 0h-3.5" id="H" class="B C D E"/></defs><use x="45" xlink:href="#H" y="296.895" class="B C"/><defs><path d="M10.688 12.406H21V0H10.688z" id="I"/><path d="M33.016 40.375q-6.64 0-10.53-4.547-3.875-4.53-3.875-12.437 0-7.86 3.875-12.437 3.89-4.562 10.53-4.562 6.64 0 10.516 4.563 3.875 4.578 3.875 12.438 0 7.906-3.875 12.438-3.875 4.547-10.516 4.547zm19.578 30.922v-8.984q-3.72 1.75-7.5 2.672-3.78.938-7.5.938-9.766 0-14.922-6.594-5.14-6.594-5.875-19.922 2.875 4.25 7.22 6.516 4.36 2.266 9.578 2.266 10.984 0 17.36-6.672 6.375-6.656 6.375-18.125 0-11.234-6.64-18.03-6.64-6.78-17.672-6.78-12.656 0-19.344 9.688-6.687 9.703-6.687 28.11 0 17.28 8.203 27.563 8.203 10.28 22.016 10.28 3.72 0 7.5-.734 3.78-.734 7.89-2.187z" id="J"/></defs><g transform="matrix(.1 0 0 -.1 22.096875 300.693997)"><use xlink:href="#C"/><use x="63.623" xlink:href="#I"/><use x="95.41" xlink:href="#J"/></g><use x="45" xlink:href="#H" y="260.631" class="B C"/><defs><path d="M31.78 34.625q-7.03 0-11.062-3.766-4.016-3.766-4.016-10.344 0-6.594 4.016-10.36Q24.75 6.39 31.78 6.39q7.03 0 11.078 3.78 4.063 3.797 4.063 10.344 0 6.578-4.03 10.344-4.016 3.766-11.11 3.766zm-9.86 4.188q-6.344 1.563-9.89 5.906-3.53 4.36-3.53 10.61 0 8.734 6.22 13.813 6.234 5.078 17.063 5.078 10.89 0 17.094-5.078 6.203-5.078 6.203-13.812 0-6.25-3.547-10.61-3.53-4.344-9.828-5.906 7.125-1.656 11.094-6.5 3.984-4.828 3.984-11.797 0-10.61-6.47-16.28-6.47-5.656-18.53-5.656-12.047 0-18.53 5.656-6.47 5.672-6.47 16.28 0 6.97 4 11.797 4.016 4.844 11.14 6.5zm-3.61 15.578q0-5.656 3.53-8.828 3.547-3.172 9.938-3.172 6.36 0 9.938 3.172 3.594 3.172 3.594 8.828 0 5.672-3.594 8.844-3.578 3.172-9.937 3.172-6.39 0-9.937-3.172-3.53-3.172-3.53-8.844z" id="K"/></defs><g transform="matrix(.1 0 0 -.1 22.096875 264.43042)"><use xlink:href="#C"/><use x="63.623" xlink:href="#I"/><use x="95.41" xlink:href="#K"/></g><use x="45" xlink:href="#H" y="224.368" class="B C"/><g transform="matrix(.1 0 0 -.1 22.096875 228.166844)"><use xlink:href="#D"/><use x="63.623" xlink:href="#I"/><use x="95.41" xlink:href="#B"/></g><use x="45" xlink:href="#H" y="188.104" class="B C"/><g transform="matrix(.1 0 0 -.1 22.096875 191.903268)"><use xlink:href="#D"/><use x="63.623" xlink:href="#I"/><use x="95.41" xlink:href="#D"/></g><use x="45" xlink:href="#H" y="151.84" class="B C"/><g transform="matrix(.1 0 0 -.1 22.096875 155.639691)"><use xlink:href="#D"/><use x="63.623" xlink:href="#I"/><use x="95.41" xlink:href="#F"/></g><use x="45" xlink:href="#H" y="115.577" class="B C"/><g transform="matrix(.1 0 0 -.1 22.096875 119.376115)"><use xlink:href="#D"/><use x="63.623" xlink:href="#I"/><use x="95.41" xlink:href="#J"/></g><use x="45" xlink:href="#H" y="79.313" class="B C"/><g transform="matrix(.1 0 0 -.1 22.096875 83.112539)"><use xlink:href="#D"/><use x="63.623" xlink:href="#I"/><use x="95.41" xlink:href="#K"/></g><use x="45" xlink:href="#H" y="43.05" class="B C"/><g transform="matrix(.1 0 0 -.1 22.096875 46.848962)"><use xlink:href="#E"/><use x="63.623" xlink:href="#I"/><use x="95.41" xlink:href="#B"/></g><g fill="none" class="F"><g class="G H"><path d="M57.682 133.367l50.727 145.796 50.727 28.638 50.727-226.995 50.727 169.64L311.318 55.8" stroke="#1f77b4"/><path d="M57.682 128.09l50.727 149.323 50.727 26.77 50.727-222.383 50.727 161.225 50.727-183.69" stroke="#ff7f0e"/></g><g class="B C I"><path d="M45 320.4V43.2m279 277.2V43.2"/><path d="M45 320.4h279M45 43.2h279"/></g></g><defs><path d="M19.672 34.813V8.11H35.5q7.953 0 11.78 3.297 3.844 3.297 3.844 10.078 0 6.844-3.844 10.078-3.828 3.25-11.78 3.25zm0 29.984v-21.97h14.61q7.22 0 10.75 2.703 3.547 2.72 3.547 8.28 0 5.516-3.547 8.25-3.53 2.734-10.75 2.734zm-9.86 8.11h25.203q11.28 0 17.375-4.687Q58.5 63.53 58.5 54.89q0-6.703-3.125-10.656-3.125-3.953-9.187-4.922 7.28-1.562 11.313-6.53 4.03-4.953 4.03-12.375 0-9.766-6.64-15.094Q48.25 0 35.984 0H9.813z" id="L"/><path d="M9.422 54.688h8.984V0H9.422zm0 21.297h8.984v-11.39H9.422z" id="M"/><path d="M34.28 27.484q-10.89 0-15.094-2.484-4.203-2.484-4.203-8.5 0-4.78 3.156-7.594 3.156-2.797 8.563-2.797 7.484 0 12 5.297 4.516 5.297 4.516 14.078v2zm17.922 3.72V0H43.22v8.297Q40.14 3.328 35.547.953q-4.594-2.375-11.234-2.375-8.39 0-13.36 4.72Q6 8.016 6 15.922q0 9.22 6.172 13.906 6.188 4.688 18.438 4.688h12.61v.89q0 6.203-4.078 9.594-4.078 3.39-11.453 3.39-4.687 0-9.14-1.125-4.437-1.125-8.53-3.375v8.313q4.922 1.906 9.563 2.844 4.64.953 9.03.953 11.875 0 17.734-6.156 5.86-6.14 5.86-18.64z" id="N"/><path d="M44.28 53.078v-8.5q-3.797 1.953-7.906 2.922-4.094.984-8.5.984-6.687 0-10.03-2.047Q14.5 44.39 14.5 40.28q0-3.125 2.39-4.906 2.39-1.78 9.625-3.39l3.078-.687q9.563-2.047 13.594-5.78 4.03-3.734 4.03-10.422 0-7.625-6.03-12.078-6.03-4.437-16.578-4.437-4.39 0-9.156.86Q10.688.297 5.422 2v9.28q4.984-2.594 9.813-3.89 4.828-1.28 9.578-1.28 6.344 0 9.75 2.172 3.422 2.172 3.422 6.125 0 3.656-2.47 5.61-2.453 1.953-10.812 3.766l-3.125.734q-8.344 1.75-12.062 5.39-3.703 3.64-3.703 9.984 0 7.72 5.47 11.906Q16.75 56 26.813 56q4.97 0 9.36-.734 4.406-.72 8.11-2.187z" id="O"/><path d="M56.203 29.594v-4.39H14.89q.594-9.28 5.594-14.14 5-4.86 13.938-4.86 5.172 0 10.03 1.266 4.86 1.266 9.656 3.813v-8.5Q49.266.734 44.188-.344 39.11-1.422 33.89-1.422q-13.094 0-20.734 7.61-7.64 7.625-7.64 20.625 0 13.422 7.25 21.297Q20.016 56 32.328 56q11.03 0 17.453-7.11 6.422-7.094 6.422-19.297zm-8.984 2.64q-.094 7.36-4.125 11.75-4.03 4.406-10.672 4.406-7.516 0-12.03-4.25-4.516-4.25-5.203-11.97z" id="P"/><path d="M31 75.875q-6.53-11.22-9.72-22.22Q18.11 42.672 18.11 31.39q0-11.266 3.203-22.328Q24.516-2 31-13.187h-7.812Q15.875-1.703 12.234 9.375q-3.64 11.078-3.64 22.016 0 10.89 3.61 21.922 3.625 11.047 10.984 22.563z" id="Q"/><path d="M19.28 29.5q-5.47 1.172-8.39 4.344Q7.953 36.97 7.953 41.5q0 6.89 5.578 10.75 5.516 3.813 15.078 3.813 3.72 0 7.86-.594 4.156-.578 8.938-1.75v-8.156q-4.734 1.406-8.64 2.047-3.953.64-7.422.64-5.812 0-9.172-2.25-3.422-2.25-3.422-5.375 0-3.422 3.313-5.61Q23.344 32.86 29 32.86h7.578v-7.422h-7.234q-6.687 0-10.203-2.484-3.812-2.734-3.812-7.03 0-4.39 4.11-7.125 4.14-2.734 11.516-2.734 4.547 0 8.703.875 4.14.922 7.61 2.734v-8.36q-4.39-1.36-8.5-2.047-4.14-.687-8.047-.687-11.625 0-17.922 4.453Q6.5 7.47 6.5 15.922q0 5.266 3.36 8.828 3.375 3.578 9.422 4.75z" id="R"/><path d="M10.594 45.406h62.594v-8.203H10.594zm0-19.922h62.594v-8.297H10.594z" id="S"/><path d="M9.813 72.906h13.28l32.328-60.984v60.984h9.563V0h-13.28L19.39 60.984V0H9.813z" id="T"/><path d="M11.72 12.406h10.297V4l-8-15.625H7.72L11.72 4z" id="U"/><path d="M8.016 75.875h7.813Q23.14 64.36 26.78 53.313q3.64-11.03 3.64-21.922 0-10.937-3.64-22.016-3.64-11.078-10.953-22.562H8.016Q14.5-2 17.703 9.063q3.203 11.063 3.203 22.328 0 11.28-3.203 22.266-3.203 11-9.687 22.22z" id="V"/></defs><g transform="matrix(.12 0 0 -.12 131.524687 37.2)"><use xlink:href="#L"/><use x="68.604" xlink:href="#M"/><use x="96.387" xlink:href="#N"/><use x="157.666" xlink:href="#O"/><use x="209.766" xlink:href="#P"/><use x="271.289" xlink:href="#O"/><use x="323.389" xlink:href="#AT"/><use x="355.176" xlink:href="#Q"/><use x="394.189" xlink:href="#R"/><use x="448.242" xlink:href="#S"/><use x="532.031" xlink:href="#T"/><use x="606.836" xlink:href="#Q"/><use x="645.85" xlink:href="#B"/><use x="709.473" xlink:href="#U"/><use x="741.26" xlink:href="#C"/><use x="804.883" xlink:href="#V"/><use x="843.896" xlink:href="#V"/></g><path d="M52 80.556h38.348q2 0 2-2V50.2q0-2-2-2H52q-2 0-2 2v28.356q0 2 2 2z" fill="#fff" opacity=".8" stroke="#ccc" class="I"/><path d="M54 56.298h20" fill="none" stroke="#1f77b4" class="F G"/><defs><path d="M48.78 52.594v-8.406q-3.812 2.11-7.64 3.156-3.828 1.047-7.734 1.047-8.75 0-13.594-5.547-4.828-5.53-4.828-15.547 0-10.016 4.828-15.562 4.844-5.53 13.594-5.53 3.906 0 7.734 1.047 3.828 1.047 7.64 3.156V2.094Q45.016.344 40.984-.53q-4.016-.89-8.562-.89-12.36 0-19.64 7.766-7.266 7.766-7.266 20.953 0 13.375 7.344 21.03Q20.22 56 33.016 56q4.14 0 8.094-.86 3.953-.844 7.672-2.547z" id="W"/></defs><use xlink:href="#W" transform="matrix(.1 0 0 -.1 82 59.798437)"/><path d="M54 70.977h20" fill="none" stroke="#ff7f0e" class="F G"/><defs><path d="M48.688 27.297q0 9.906-4.078 15.547-4.078 5.64-11.203 5.64-7.14 0-11.22-5.64-4.078-5.64-4.078-15.547 0-9.906 4.078-15.547 4.078-5.64 11.22-5.64 7.125 0 11.203 5.64 4.078 5.64 4.078 15.547zM18.11 46.39q2.844 4.875 7.156 7.234Q29.594 56 35.594 56q9.97 0 16.188-7.906 6.234-7.906 6.234-20.797 0-12.89-6.234-20.812-6.22-7.906-16.187-7.906-6 0-10.328 2.375-4.312 2.375-7.156 7.25V0h-9.03v75.984h9.03z" id="X"/></defs><use xlink:href="#X" transform="matrix(.1 0 0 -.1 82 74.476562)"/><defs><clipPath id="Y"><path d="M45 43.2h279v277.2H45z"/></clipPath></defs></svg>